<svg width="70" height="64" viewBox="0 0 70 64" fill="none" xmlns="http://www.w3.org/2000/svg">
<path d="M65.0441 63.5622H4.25322C1.90642 63.5622 0 61.6558 0 59.309V4.39384C0 2.04704 1.90642 0.140625 4.25322 0.140625H65.0441C67.3909 0.140625 69.2973 2.04704 69.2973 4.39384V59.309C69.2973 61.6616 67.3909 63.5622 65.0441 63.5622Z" fill="#EDF1F4"/>
<mask id="mask0" mask-type="alpha" maskUnits="userSpaceOnUse" x="0" y="0" width="70" height="64">
<path d="M65.3409 63.863H4.55009C2.20329 63.863 0.296875 61.9566 0.296875 59.6098V4.69462C0.296875 2.34782 2.20329 0.441406 4.55009 0.441406H65.3409C67.6877 0.441406 69.5942 2.34782 69.5942 4.69462V59.6098C69.5942 61.9624 67.6877 63.863 65.3409 63.863Z" fill="#EDF1F4"/>
</mask>
<g mask="url(#mask0)">
<path d="M29.0433 57.1766C28.6666 56.2031 31.929 54.0012 36.327 52.3092C40.7309 50.6172 44.5843 49.9856 44.9841 50.9475L46.1894 53.8911L30.1732 59.9406L29.0433 57.1766Z" fill="#1C847A"/>
<path d="M33.1693 28.8279L34.3629 25.6524C33.3952 21.8396 35.8695 17.795 37.6716 17.8008C39.0507 17.8008 38.8827 18.7105 38.6162 20.5069C38.3032 22.5697 38.0425 25.8726 39.7287 31.1631C41.4149 36.4535 39.9895 39.3102 39.4506 41.7961C39.0102 43.7605 41.5772 49.5145 45.1698 56.2999C52.3203 69.7433 32.4218 61.9149 32.4218 61.9149L28.9218 51.7512C28.6553 50.9457 28.1975 50.2098 27.5833 49.6246L24.5006 46.6751C22.6695 44.9368 23.2721 45.6263 22.4551 43.239C22.4551 43.239 17.8194 37.4849 19.3608 34.3443" fill="#D26C35"/>
<path d="M32.9863 11.156L19.8828 46.6523L25.8351 48.8496L38.9386 13.3533L32.9863 11.156Z" fill="#B8C1CC"/>
<path d="M22.0945 55.7046C25.3364 55.7046 27.9644 53.0766 27.9644 49.8347C27.9644 46.5929 25.3364 43.9648 22.0945 43.9648C18.8527 43.9648 16.2246 46.5929 16.2246 49.8347C16.2246 53.0766 18.8527 55.7046 22.0945 55.7046Z" fill="#B8C1CC"/>
<path d="M24.3139 47.9849L21.6021 46.9883L19.377 48.8367L19.8695 51.6819L22.5814 52.6901L24.8065 50.8417L24.3139 47.9849Z" fill="#EDF1F4"/>
<path d="M41.7561 5.25213L40.0293 9.92835L36.6742 10.334L34.3854 7.8423L36.118 3.17188C32.479 3.60067 29.8772 6.89199 30.306 10.531C30.7348 14.17 34.0261 16.7717 37.6651 16.3429C41.3041 15.9141 43.9059 12.6228 43.4771 8.98383C43.3148 7.59313 42.7122 6.28356 41.7561 5.25213Z" fill="#B8C1CC"/>
<path d="M25.1713 43.01C24.9975 43.01 24.8179 42.981 24.644 42.9173C23.856 42.6275 23.4503 41.7468 23.7401 40.9529L32.2349 17.9948C32.5246 17.2068 33.3938 16.7953 34.1819 17.0851C34.9699 17.3864 35.3698 18.2614 35.0858 19.0378L26.6084 42.0075C26.3824 42.6275 25.7971 43.01 25.1713 43.01ZM24.7425 42.6507C25.3857 42.8883 26.0985 42.558 26.336 41.9148L34.8135 18.9451C35.0453 18.3135 34.7208 17.6008 34.0892 17.3632C33.4402 17.1256 32.7275 17.4559 32.4957 18.0991L24.0008 41.0572C23.7748 41.6946 24.1051 42.4131 24.7425 42.6507Z" fill="#78838B"/>
<path d="M21.0692 32.5547C21.0692 32.5547 18.6181 34.0091 19.4062 35.6084C19.945 36.7094 23.7637 39.8385 24.6444 40.4527C25.0501 40.7308 26.5509 41.9535 27.7445 40.951C28.9382 39.9486 27.4258 38.1349 27.4258 38.1349L21.0692 32.5547Z" fill="#D26C35"/>
<path d="M30.1722 21.4297L29.7676 21.8281L29.9668 22.0304L30.3714 21.632L30.1722 21.4297Z" fill="#DC1B7A"/>
<path d="M28.6882 28.341L27.7785 24.957L26.4167 23.0506L25.1477 22.842C24.5451 22.7377 23.9251 22.8536 23.4036 23.1723C22.8183 23.5257 22.4591 24.1573 22.4591 24.8411V25.0787C22.4591 25.4669 22.5634 25.8494 22.7604 26.1854L23.56 27.553C23.6122 27.6457 23.5774 27.7616 23.4847 27.8137C23.4499 27.8311 23.4094 27.8369 23.3688 27.8369L22.8415 27.721C22.1983 27.6109 21.5319 27.7558 20.9872 28.115C20.2745 28.5902 19.8457 29.3898 19.8457 30.2474V30.3749C19.8515 30.8211 19.9732 31.2615 20.1992 31.6439C20.431 32.0843 20.7439 32.4783 21.1321 32.7913L26.8513 37.9426C26.8513 37.9426 28.4449 39.5072 29.5864 38.2961C30.7279 37.085 29.8877 35.5611 28.2015 34.0834C27.4656 33.3707 26.8224 32.5653 26.2951 31.6845C26.4805 31.8409 26.6833 31.98 26.8919 32.0959L28.3811 32.9651C29.117 33.4055 30.0615 33.2432 30.612 32.5826C31.5565 31.4064 30.2991 29.7027 28.6882 28.341ZM24.0526 28.341V28.3816H24.0062L24.0526 28.341Z" fill="#D26C35"/>
<path d="M26.4173 31.9478C26.3709 31.9478 26.3245 31.9246 26.3014 31.884L24.3486 28.9636C24.3022 28.8998 24.3254 28.8071 24.3892 28.7666C24.4529 28.7202 24.5456 28.7434 24.5862 28.8071L26.5389 31.7276C26.5853 31.7913 26.5621 31.884 26.4984 31.9246C26.4694 31.942 26.4462 31.9478 26.4173 31.9478Z" fill="#94391E"/>
<path d="M31.3664 44.9685C31.3143 44.9685 31.2679 44.9396 31.239 44.8932C30.0916 42.7956 29.6628 40.3445 30.0221 37.9803C30.335 36.3984 31.013 34.886 31.9923 33.617C32.4327 33.0375 32.9542 32.5392 33.5568 32.1278C33.6205 32.0814 33.7075 32.0988 33.7538 32.1625C33.8002 32.2263 33.7828 32.319 33.719 32.3595C33.1454 32.7536 32.6413 33.2345 32.2182 33.7908C31.2621 35.0308 30.6016 36.4969 30.3002 38.0324C29.9468 40.3271 30.3698 42.7144 31.4881 44.7599C31.5287 44.8295 31.4997 44.9164 31.4302 44.9511C31.4128 44.9627 31.3896 44.9685 31.3664 44.9685Z" fill="#94391E"/>
<path d="M25.6993 20.6578L26.0353 22.5642C26.157 23.2364 26.4757 23.8564 26.9509 24.3432L28.8573 26.2496C28.8573 26.2496 30.0626 27.4664 31.0998 26.6204C32.137 25.7686 31.7372 23.445 30.3002 21.5386L30.1611 19.1628L28.7356 18.4385C27.8954 18.0039 26.864 18.1951 26.2324 18.8963C25.792 19.3656 25.595 20.0146 25.6993 20.6578Z" fill="#D26C35"/>
<path d="M34.6628 30.0216L33.9616 26.9388C32.9939 23.126 35.868 17.7892 37.6702 17.8008" fill="#D26C35"/>
<path d="M27.0272 37.9238C27.004 37.9238 26.9866 37.918 26.9635 37.9064L25.3178 37.1009C24.6978 36.8054 24.1473 36.394 23.6895 35.8899L21.3659 33.3518C21.3137 33.2939 21.3137 33.2012 21.3775 33.149C21.4354 33.0969 21.5281 33.1027 21.5803 33.1606L23.9039 35.6986C24.3385 36.1796 24.86 36.5678 25.4511 36.846L27.0967 37.6514C27.1663 37.6862 27.1952 37.7731 27.1605 37.8426C27.1315 37.8948 27.0793 37.9238 27.0272 37.9238Z" fill="#94391E"/>
<path d="M53.437 68.3317C52.7996 67.1322 51.5306 62.9601 48.8766 61.7664C48.6622 61.6737 48.4247 61.581 48.1987 61.4883C47.0571 62.5603 44.5771 63.951 41.5581 65.1273C37.9944 66.518 34.7785 67.1785 33.4805 66.8656C33.4805 66.8888 33.4805 66.9178 33.4805 66.941C33.8339 68.1694 34.0252 68.8474 34.3149 70.1164C34.4482 70.8639 34.5235 71.6172 34.5351 72.3763C34.7495 75.4764 37.4266 78.4026 38.6318 81.2709C39.3156 82.8934 37.444 85.6806 40.2022 86.9033C48.3088 90.4843 59.3764 87.025 61.7985 84.6202C65.5592 80.8479 56.3806 74.0509 53.437 68.3317Z" fill="#2AC3B4"/>
<path d="M48.8488 60.2865L44.9838 50.9805C45.3605 51.954 42.0981 54.1559 37.7001 55.8479C33.2962 57.5399 29.4428 58.1715 29.043 57.2096L32.9137 66.5157C33.0296 66.7301 33.244 66.875 33.4874 66.8982C34.7564 67.2111 38.0014 66.5505 41.565 65.1598C44.584 63.9835 47.0583 62.6218 48.2056 61.5208C48.7271 60.9877 48.9705 60.5647 48.8488 60.2865Z" fill="#2AC3B4"/>
<path d="M46.577 59.6456C47.4868 61.158 46.1076 57.942 46.577 59.6456V59.6456Z" fill="#2AC3B4"/>
<path d="M34.2814 67.069C34.1887 67.069 34.0902 67.0169 34.0959 66.9242C34.0959 66.8431 34.1597 66.7851 34.2408 66.7851C34.2524 66.7851 34.2698 66.7851 34.2872 66.7851C35.8865 66.7851 38.6505 66.0956 41.513 64.9772C43.6686 64.1949 45.7083 63.1287 47.5857 61.8192C47.6494 61.7728 47.7364 61.7902 47.7827 61.8539C47.8291 61.9177 47.8117 62.0104 47.748 62.0509C45.8473 63.3779 43.7845 64.4499 41.6115 65.2438C38.72 66.3737 35.9154 67.069 34.2814 67.069Z" fill="#21998D"/>
<path d="M33.2792 61.4718C33.77 61.2685 34.0031 60.7058 33.7998 60.215C33.5965 59.7242 33.0338 59.4911 32.543 59.6944C32.0522 59.8977 31.8191 60.4604 32.0224 60.9512C32.2257 61.442 32.7884 61.6751 33.2792 61.4718Z" fill="#93E5D6"/>
<path d="M27.4137 40.1899C27.2051 40.6129 26.6952 40.7809 26.2722 40.5723C26.1794 40.5259 26.0983 40.468 26.0288 40.3927C25.3798 39.9117 25.0495 39.1584 25.3798 38.7238C25.7101 38.2834 26.4981 38.324 27.1761 38.8107C27.5991 39.0078 27.7846 39.5177 27.5875 39.9407C27.547 40.0392 27.489 40.1203 27.4137 40.1899Z" fill="#D98253"/>
<path d="M29.0305 37.4125C28.8219 37.8355 28.312 38.0036 27.889 37.795C27.7963 37.7486 27.7152 37.6907 27.6456 37.6153C26.9677 37.1344 26.6664 36.3811 26.9793 35.9465C27.2922 35.5061 28.0976 35.5467 28.7756 36.0334C29.2044 36.2246 29.3956 36.7288 29.2044 37.1575C29.158 37.2561 29.1001 37.343 29.0305 37.4125Z" fill="#D98253"/>
<path d="M29.9158 32.3967C29.713 32.8313 29.3769 33.1037 28.5773 32.7212C27.7776 32.3388 27.2851 31.6898 27.4995 31.2494C27.7081 30.8032 28.5193 30.7742 29.3306 31.1567C30.1302 31.5333 30.1244 31.9621 29.9158 32.3967Z" fill="#D98253"/>
<path d="M30.5133 26.2448C30.2583 26.5693 29.9107 26.7199 29.2037 26.181C28.4968 25.6421 28.1375 24.912 28.3925 24.6049C28.6474 24.2978 29.4123 24.4542 30.1193 24.9931C30.8262 25.532 30.7625 25.9145 30.5133 26.2448Z" fill="#D98253"/>
</g>
</svg>
