<svg width="247" height="686" viewBox="0 0 247 686" fill="none" xmlns="http://www.w3.org/2000/svg">
<path d="M68.4648 33.9447C62.5596 39.5218 60.263 48.2156 60.5911 56.2533C60.7551 62.3225 62.7235 68.2278 66.1683 73.3128C68.9568 77.4137 72.5655 82.0066 76.9945 84.9592C78.7988 86.1074 84.3761 91.3565 86.5085 91.1925C88.805 91.0285 86.0164 86.4355 85.3602 84.3031C84.7041 81.6785 84.376 80.5303 83.7199 77.9057C82.5717 72.9847 79.9471 60.6822 78.3068 53.4647C76.8305 45.5911 75.6823 27.2193 68.4648 33.9447Z" fill="#471500"/>
<path d="M135.88 29.5085C140.965 34.9216 142.934 43.2873 142.77 51.161C142.606 57.0662 140.965 62.9714 138.013 68.0564C135.716 72.1573 132.6 76.7502 128.827 79.7028C127.351 80.8511 122.594 86.1002 120.625 86.1002C118.657 85.9361 121.117 81.5072 121.609 79.2107C122.102 76.5862 122.43 75.4379 122.922 72.8134C123.906 67.8924 126.038 55.7539 127.351 48.5364C128.663 41.1549 129.647 23.1112 135.88 29.5085Z" fill="#471500"/>
<path d="M68.2871 677.788C68.4512 680.905 68.6152 683.037 68.7792 684.513C68.7792 685.334 68.2871 685.826 67.795 685.99C67.1389 685.99 66.3187 685.99 65.0064 685.99C62.874 685.99 61.0696 686.154 61.0696 685.006C61.0696 683.365 61.0696 679.1 60.9056 675.328C60.9056 672.539 60.7416 666.634 60.2495 661.713C59.9214 658.76 68.4512 666.142 68.4512 666.142C68.4512 666.142 68.1231 674.015 68.2871 677.788Z" fill="#3C4246"/>
<path d="M188.689 173.217C189.346 172.725 189.838 172.561 190.33 172.889C190.822 173.217 189.346 174.694 189.346 174.694C189.346 174.694 187.869 173.874 188.689 173.217Z" fill="#BC116B"/>
<path d="M68.1241 640.717C64.6794 640.717 62.711 642.029 61.0707 645.474C58.6102 650.559 57.79 663.517 63.8593 669.259C66.1557 671.555 65.6636 670.079 66.4838 676.312C66.9759 681.233 70.9127 685.99 76.982 685.99C81.2468 685.99 94.0415 685.99 97.8143 685.99C103.555 685.99 107 678.116 99.1265 672.539C95.0257 669.751 91.745 666.634 89.1205 661.221C85.6758 654.004 83.5433 647.606 79.2784 643.505C75.8337 640.553 73.8653 640.553 68.1241 640.717Z" fill="#3C4246"/>
<path d="M68.4502 681.394C68.2862 681.394 68.1222 681.23 67.9581 681.066C66.9739 679.262 66.8099 677.621 66.6459 675.981L66.4818 675.161C66.1538 671.552 64.3494 670.076 63.3652 669.256C63.2012 669.092 63.0371 668.764 63.3652 668.436C63.5292 668.271 63.8573 668.107 64.1854 668.436C65.1696 669.42 67.138 671.06 67.6301 675.161L67.7941 675.981C67.9581 677.621 68.1222 678.934 68.9423 680.574C69.1064 680.902 68.9423 681.23 68.7783 681.394C68.6143 681.394 68.4502 681.394 68.4502 681.394Z" fill="#2E3336"/>
<path d="M101.914 435.509C101.258 449.944 102.078 471.104 99.7818 499.154C97.9774 520.479 90.5959 582.975 89.4477 599.051C87.9714 619.227 87.8073 629.233 87.8073 633.006C87.8073 636.615 88.6275 651.378 89.2836 655.971C89.6117 658.759 90.2678 662.532 91.088 664.664C92.8924 669.421 87.9714 670.078 84.1986 670.078C78.9495 670.078 73.3723 669.257 70.4197 659.743C68.1233 652.362 65.9908 649.245 65.6627 643.34C65.4987 641.7 66.3189 639.403 66.1548 637.271C64.6785 613.978 61.0698 596.754 59.1014 581.827C57.6251 571.001 55.1646 556.73 54.3444 541.147C53.1962 522.611 56.1488 493.905 56.1488 489.476C56.1488 478.978 49.0953 413.364 48.4392 392.204C47.7831 371.044 105.031 359.725 101.914 435.509Z" fill="#A85027"/>
<path d="M54.8359 504.074C54.6718 506.863 54.5078 509.815 54.3438 512.932C62.0533 509.979 84.1979 506.043 84.1979 506.043L54.8359 504.074Z" fill="#782F1C"/>
<path d="M155.716 436.663C155.06 451.098 156.044 479.968 154.404 501.129C153.092 517.532 149.155 572.811 148.663 592.003C148.171 608.243 148.007 623.498 148.499 632.848C148.827 642.198 157.521 658.437 163.262 664.342C164.082 665.162 165.558 666.475 166.214 667.131C172.612 672.872 167.199 676.153 159.653 676.153C151.287 676.153 123.894 655.812 124.878 644.166C125.37 638.589 124.714 636.949 124.058 626.943C123.238 615.296 118.317 598.073 115.692 584.13C113.888 574.452 110.279 556.08 109.459 538.036C108.639 520.813 113.56 495.387 113.396 491.122C113.067 484.069 103.225 436.499 102.405 415.339C101.585 394.178 158.669 360.88 155.716 436.663Z" fill="#A85027"/>
<path d="M154.572 499.15C154.572 498.986 154.572 498.986 154.572 498.822C146.043 495.87 124.554 494.557 112.252 498.822C111.76 502.759 111.103 507.68 110.447 513.093C123.898 508.5 144.894 504.892 151.128 504.892L154.572 499.15Z" fill="#782F1C"/>
<path d="M45.8118 292.963C43.6794 303.953 39.7426 316.42 38.5943 334.956C37.4461 353.491 39.7426 388.759 40.0706 405.162C40.3987 421.566 36.1338 496.857 40.0706 502.598C42.3671 506.043 65.8239 506.535 84.0317 506.207C102.239 505.879 126.845 504.895 142.428 505.715C158.503 506.535 160.471 503.418 161.62 497.677C163.424 487.999 160.307 457.817 160.636 410.411C160.8 379.901 159.159 355.624 158.503 335.94C157.683 316.092 153.746 290.995 151.942 285.745C150.137 280.496 147.513 259.828 121.431 259.828C95.35 259.828 56.6381 264.913 51.389 276.067C46.1399 287.222 45.8118 292.963 45.8118 292.963Z" fill="#21998D"/>
<path d="M81.9031 313.471C99.4547 311.01 109.953 301.496 109.953 301.496H61.7269H44.0112C43.027 305.597 42.0428 309.862 41.2227 314.619C52.0489 315.111 66.976 315.439 81.9031 313.471Z" fill="#1C847A"/>
<path d="M201.32 179.62C195.907 175.683 192.79 174.043 190.986 173.551L188.689 175.683C189.674 177.816 192.626 181.096 197.383 185.033C201.812 188.642 205.257 190.446 207.881 190.774C209.358 190.938 210.014 190.774 210.506 190.774C211.818 190.282 208.866 185.197 201.32 179.62Z" fill="#BC116B"/>
<path d="M206.24 182.73C207.224 183.715 209.849 186.503 210.669 188.144C211.325 189.292 210.833 190.112 210.177 191.424C209.521 192.408 208.701 190.768 209.193 190.768C210.177 190.768 210.833 189.62 210.177 188.308C209.521 186.995 205.748 183.223 205.748 183.223L206.24 182.73Z" fill="#BC116B"/>
<path d="M117.494 298.542C117.494 298.542 124.712 289.685 126.844 284.764C128.977 279.679 121.923 272.953 121.923 272.953L117.494 298.542Z" fill="#1C847A"/>
<path d="M186.392 177.32C188.197 175.023 190.001 173.383 191.149 171.579C192.297 169.938 193.774 167.478 193.938 165.837C194.102 164.197 194.102 161.08 196.07 158.128C198.039 155.175 200.991 151.567 202.304 149.598C203.616 147.63 205.584 143.201 206.404 140.904C207.225 138.608 207.717 135.819 208.701 134.999C209.685 134.179 211.161 134.507 211.818 135.819C212.638 137.46 212.31 140.74 211.982 142.873C211.489 145.005 210.341 149.27 210.341 149.598C210.669 150.418 215.754 148.122 218.871 145.989C221.988 143.857 224.776 142.053 227.073 140.248C229.369 138.444 235.274 133.195 236.915 132.867C238.719 132.539 239.211 134.179 238.883 135.491C238.391 136.803 236.095 139.92 232.978 143.037C230.681 145.333 224.448 149.926 225.104 150.582C225.596 151.238 230.189 149.598 232.322 148.122C234.454 146.646 237.079 144.349 238.391 142.873C240.031 141.068 241.344 139.756 242.328 139.1C243.804 138.116 246.101 139.756 245.116 141.889C244.46 143.365 243.312 145.005 243.312 145.005C243.312 145.005 245.937 144.349 246.101 146.81C246.265 148.614 243.312 151.895 243.312 151.895C243.312 151.895 244.46 151.402 245.609 152.551C246.429 153.371 245.444 155.831 243.476 158.784C241.672 161.409 239.211 164.033 236.751 166.166C234.29 168.298 232.158 169.938 227.729 171.251C223.464 172.399 217.887 173.711 214.77 175.844C211.653 178.14 204.108 186.342 201.811 188.802C199.515 191.263 194.594 191.099 191.805 188.802C188.525 186.506 183.276 181.257 186.392 177.32Z" fill="#A85027"/>
<path d="M195.412 183.062L200.825 188.968C201.153 188.804 201.645 188.476 201.973 188.148C202.63 187.491 203.614 186.343 204.762 185.195C201.809 186.015 197.709 184.375 195.412 183.062Z" fill="#782F1C"/>
<path d="M226.414 157.969C226.25 157.969 225.922 157.804 225.922 157.64C225.758 157.312 225.922 156.984 226.25 156.984C227.398 156.492 229.859 155.18 231.171 154.196C233.303 152.719 235.108 151.243 236.584 149.931L237.568 149.111C238.716 148.126 240.357 146.322 241.177 145.666C241.341 145.502 241.669 145.502 241.997 145.666C242.161 145.83 242.161 146.158 241.997 146.486C241.341 147.306 239.537 149.111 238.388 150.095L237.568 150.915C236.092 152.063 234.452 153.704 232.155 155.18C230.679 156.164 228.218 157.476 226.906 158.133C226.578 157.804 226.578 157.969 226.414 157.969Z" fill="#782F1C"/>
<path d="M229.367 163.055C229.203 163.055 228.875 162.891 228.875 162.727C228.711 162.399 228.875 162.071 229.203 162.071C230.351 161.579 233.14 159.938 234.452 159.118C237.077 157.314 238.389 155.837 239.701 154.197L240.193 153.705C240.357 153.541 240.685 153.377 241.013 153.705C241.177 153.869 241.341 154.197 241.013 154.525L240.521 155.017C239.045 156.658 237.733 158.134 235.108 160.102C233.632 161.087 230.843 162.727 229.695 163.219C229.531 163.055 229.531 163.055 229.367 163.055Z" fill="#782F1C"/>
<path d="M110.935 132.545L124.058 197.831C124.058 197.831 128.487 176.178 128.651 170.929C128.979 160.923 128.651 144.848 127.011 135.826C126.191 131.397 125.698 119.587 123.894 116.306C121.27 111.385 108.147 115.978 110.935 132.545Z" fill="white"/>
<path d="M133.903 130.241C134.56 129.42 138.496 127.944 139.152 125.976C139.809 123.515 133.903 119.906 130.623 117.282C128.326 115.478 126.686 114.985 125.21 115.314C122.749 115.97 122.257 121.875 123.897 129.42C124.225 130.733 125.374 134.341 126.194 139.427C127.342 146.972 129.146 156.158 126.358 171.905C126.358 172.069 126.522 174.038 126.522 174.202C127.998 170.921 131.279 162.063 132.591 158.126C134.395 153.041 138.004 138.278 137.84 135.49C137.676 133.029 133.247 131.061 133.903 130.241Z" fill="#BC116B"/>
<path d="M132.751 121.556C137.508 124.18 142.921 126.477 145.71 131.07C150.138 137.959 152.271 156.659 153.583 174.211C154.895 193.074 157.356 204.721 157.356 204.721C157.356 204.721 164.901 196.683 169.33 192.254C175.072 186.513 180.813 180.936 183.601 177.983C185.898 175.359 188.522 173.226 189.014 173.062C188.85 173.226 188.686 173.554 188.85 173.883C189.178 175.031 190.655 177.327 193.443 180.28C196.396 183.561 200.661 186.841 202.793 188.317C205.582 190.122 209.683 191.106 210.831 190.122C210.175 191.598 208.206 194.715 205.09 198.816C200.825 204.557 178.516 236.707 173.103 242.613C170.315 245.565 166.87 248.846 159.488 249.174C152.107 249.338 148.498 247.862 145.545 243.925C143.249 240.808 136.524 230.31 134.227 206.689C131.931 183.068 130.782 137.959 130.782 132.874C130.782 127.789 129.962 120.079 132.751 121.556Z" fill="#DC1B7A"/>
<path d="M133.899 124.99C135.867 125.974 130.454 118.757 129.798 118.265C126.189 116.788 122.908 120.233 123.072 125.646C123.072 125.974 123.236 126.63 123.4 127.123C125.205 122.53 130.618 123.35 133.899 124.99Z" fill="#BC116B"/>
<path d="M118.482 107.113C120.779 107.933 123.239 108.754 127.34 113.347C132.753 119.416 133.573 122.04 135.214 124.337C136.362 125.977 135.87 126.469 134.722 126.141C133.737 125.977 128.652 121.876 125.536 122.861C124.059 123.353 122.911 125.321 122.747 127.618L117.826 123.681L118.482 107.113Z" fill="white"/>
<path d="M119.14 113.182C119.304 110.722 120.617 109.082 121.601 108.59C120.453 107.933 118.976 107.277 117.828 106.949V110.066C117.992 112.362 117.992 113.182 119.14 113.182Z" fill="#E6E2DE"/>
<path d="M87.808 75.2934C87.644 82.3469 86.9879 98.9143 86.1677 108.92C85.6756 115.482 89.4484 118.434 96.9939 124.011C101.915 127.62 105.032 129.097 107.656 132.705C108.64 134.018 111.101 133.689 112.413 135.002C114.546 137.134 115.858 136.314 116.35 135.002C117.334 132.541 118.646 130.409 119.303 127.456C120.287 123.355 119.631 122.207 119.631 118.926C119.631 113.841 118.81 110.725 118.482 105.148C117.99 98.5862 117.662 93.5012 117.662 89.5644C117.662 85.7916 116.35 67.7479 104.703 67.2558C92.8931 66.7637 88.1361 69.0601 87.808 75.2934Z" fill="#A85027"/>
<path d="M97.977 119.748C100.93 122.045 104.702 124.834 105.195 126.802C106.507 131.395 108.475 131.723 111.756 134.347C113.724 135.988 113.232 136.972 113.56 138.12C115.037 142.877 118.481 152.391 119.301 158.789C123.238 184.87 124.058 203.57 124.058 203.57C124.058 203.57 110.444 181.589 105.523 167.318C100.602 153.047 88.135 133.035 90.1034 128.606C92.2359 124.013 95.3525 117.78 97.977 119.748Z" fill="white"/>
<path d="M121.436 197.166C123.241 203.728 123.405 202.251 123.897 207.993C124.061 211.109 127.669 230.957 127.833 236.534C127.998 242.112 128.818 254.742 125.865 271.31C124.061 282.136 121.108 292.306 119.468 297.391C117.663 302.968 115.039 306.905 106.837 308.545C99.6197 310.022 91.582 309.858 81.4119 309.858C71.2418 309.858 52.2139 309.201 47.2929 309.037C40.7315 308.873 36.6307 307.233 34.8263 304.28C33.1859 301.492 32.3658 295.915 34.3342 289.517C35.8105 284.596 38.5991 277.379 41.8797 270.325C45.1604 263.272 48.6051 254.414 49.9174 247.361C51.3937 240.307 53.6902 228.989 52.87 223.74C52.2139 218.491 49.4253 197.166 47.4569 190.605C45.4885 184.044 35.6465 146.316 36.3026 139.919C36.9587 133.521 38.7631 126.304 43.028 124.663C47.4569 123.023 69.2734 117.938 75.6707 115.641C79.1154 114.329 81.74 116.954 86.9891 124.171C91.746 130.733 92.7302 136.638 99.4556 147.464C104.705 155.994 115.039 174.858 121.436 197.166Z" fill="#DC1B7A"/>
<path d="M118.154 218.655C119.966 218.655 121.434 217.186 121.434 215.374C121.434 213.563 119.966 212.094 118.154 212.094C116.342 212.094 114.873 213.563 114.873 215.374C114.873 217.186 116.342 218.655 118.154 218.655Z" fill="#BC116B"/>
<path d="M83.5416 110.23C80.425 111.051 70.5829 115.151 67.6303 117.448C65.1698 119.252 67.9584 122.861 70.2549 124.501C75.5039 128.438 88.1346 118.268 88.1346 118.268L83.5416 110.23Z" fill="#BC116B"/>
<path d="M92.5638 261.796C94.0401 261.468 93.876 259.335 92.3997 259.335C79.7691 258.515 52.3755 256.875 47.2904 256.711C46.3062 259.828 44.9939 262.944 43.8457 265.897C48.9308 265.733 55.4921 265.241 62.8736 264.585C74.52 263.436 87.4787 262.616 92.5638 261.796Z" fill="#BC116B"/>
<path d="M57.7896 201.11C57.6256 198.977 54.837 197.829 52.5405 198.813L49.752 202.094C51.0642 210.624 52.3765 220.63 52.8686 223.911V224.075C54.673 219.646 58.2817 209.311 57.7896 201.11Z" fill="#BC116B"/>
<path d="M108.64 219.637C104.375 213.404 92.7285 200.117 92.7285 200.117C96.1732 210.451 99.782 227.183 100.274 230.463C100.274 230.627 113.397 226.363 108.64 219.637Z" fill="#BC116B"/>
<path d="M109.625 177.812C109.461 177.812 109.297 177.648 109.133 177.648C109.133 177.648 107.001 174.696 104.704 172.399C104.212 171.743 102.9 170.431 101.259 168.791C97.9787 165.182 93.3858 160.261 91.4174 158.456C89.613 156.816 86.0042 153.535 82.8876 150.583C80.9192 148.778 79.1148 147.138 78.1306 146.154C74.3578 142.709 73.3736 140.741 74.0298 138.28C74.3578 137.296 75.014 136.312 75.8341 135.492C76.4903 134.671 77.3105 133.687 77.1464 133.195C76.9824 132.539 75.014 131.555 73.7017 130.899C73.2096 130.735 72.8815 130.407 72.3894 130.243C68.7807 128.274 64.8439 126.142 65.9921 122.205C66.1561 121.877 66.4842 121.713 66.6483 121.877C66.9763 122.041 67.1404 122.205 66.9763 122.533C65.9921 125.65 69.4368 127.454 72.7175 129.258C73.2096 129.586 73.7017 129.75 74.0298 129.915C75.8341 130.899 77.6385 131.719 78.1306 132.867C78.4587 134.015 77.6385 135.164 76.6543 136.312C75.9982 137.132 75.342 137.952 75.178 138.772C74.8499 140.085 74.8499 141.561 78.9508 145.498C79.935 146.318 81.7394 147.958 83.7078 149.927C86.8244 152.879 90.5972 156.16 92.2375 157.8C94.2059 159.605 98.7989 164.526 102.08 168.134C103.72 169.775 104.868 171.087 105.524 171.743C107.821 174.204 109.953 176.992 109.953 177.156C110.117 177.484 110.117 177.812 109.789 177.976C109.953 177.812 109.789 177.812 109.625 177.812Z" fill="#BC116B"/>
<path d="M86.005 105.637C83.0524 106.949 78.1314 109.902 75.8349 112.526C74.5226 114.003 74.5226 115.315 76.9831 119.744C79.6077 124.665 85.0208 135.327 86.6611 135.327C88.3015 135.327 89.9418 132.375 91.2541 131.062C94.3707 127.946 97.4874 125.649 101.096 125.649C104.049 125.485 101.096 122.697 100.276 121.712C97.4874 119.088 96.5032 119.252 90.926 113.347C86.8252 108.918 86.9892 105.145 86.005 105.637Z" fill="white"/>
<path d="M122.747 182.406C122.419 182.406 122.255 182.242 122.255 181.914C121.27 174.861 120.614 170.432 120.45 169.447C120.122 167.643 119.794 164.69 119.466 161.902C119.302 159.769 118.974 157.473 118.81 155.669C118.318 152.388 117.006 144.186 115.365 137.461C115.365 137.133 115.529 136.805 115.693 136.805C116.021 136.805 116.349 136.969 116.349 137.133C118.154 143.858 119.302 152.224 119.794 155.341C120.122 156.981 120.286 159.277 120.45 161.574C120.778 164.362 120.942 167.315 121.27 168.955C121.434 170.104 122.091 174.204 123.075 181.586C123.239 182.078 123.075 182.242 122.747 182.406Z" fill="#E6E2DE"/>
<path d="M112.086 140.906C112.901 140.906 113.562 140.245 113.562 139.429C113.562 138.614 112.901 137.953 112.086 137.953C111.27 137.953 110.609 138.614 110.609 139.429C110.609 140.245 111.27 140.906 112.086 140.906Z" fill="#E6E2DE"/>
<path d="M116.023 160.917C116.839 160.917 117.499 160.256 117.499 159.441C117.499 158.626 116.839 157.965 116.023 157.965C115.208 157.965 114.547 158.626 114.547 159.441C114.547 160.256 115.208 160.917 116.023 160.917Z" fill="#E6E2DE"/>
<path d="M119.302 180.937C120.118 180.937 120.779 180.276 120.779 179.461C120.779 178.645 120.118 177.984 119.302 177.984C118.487 177.984 117.826 178.645 117.826 179.461C117.826 180.276 118.487 180.937 119.302 180.937Z" fill="#E6E2DE"/>
<path d="M122.42 118.927C122.092 118.927 121.928 118.763 121.928 118.435C121.764 116.302 121.272 114.826 120.287 113.35C120.123 113.022 120.123 112.694 120.451 112.53C120.78 112.366 121.108 112.366 121.272 112.694C122.42 114.17 122.912 115.974 123.24 118.271C123.076 118.599 122.912 118.927 122.42 118.927C122.584 118.927 122.42 118.927 122.42 118.927Z" fill="#D8D5CE"/>
<path d="M146.207 221.274C146.207 217.501 142.762 216.353 140.302 218.157C139.154 218.977 138.662 220.289 138.826 221.602L141.45 237.185C143.091 240.466 144.403 242.598 145.387 243.746C148.176 247.519 151.784 249.159 158.346 248.995C146.699 246.371 146.207 230.459 146.207 221.274Z" fill="#BC116B"/>
<path d="M128.488 125.648C132.261 131.225 137.018 136.802 139.151 142.544C141.283 148.285 143.58 158.127 145.384 164.852C147.188 171.578 149.485 182.568 148.829 189.949C148.173 197.331 145.056 205.861 144.4 210.29C143.744 214.718 143.58 227.513 144.4 233.582C145.22 239.652 145.548 247.525 148.173 254.743C150.797 261.96 154.898 274.099 156.702 278.692C158.507 283.285 161.951 289.354 160.147 294.767C158.835 298.704 149.977 304.609 145.056 304.117C140.299 303.625 136.526 295.423 132.261 280.168C123.239 247.689 126.848 239.98 126.028 228.989C125.208 217.999 122.583 205.369 122.255 201.76C121.435 194.05 128.817 160.751 127.504 148.613C126.192 138.935 126.684 123.188 128.488 125.648Z" fill="#DC1B7A"/>
<path d="M144.397 211.115C144.397 211.115 144.233 211.115 144.397 211.115C144.069 211.115 143.741 210.787 143.905 210.459C144.233 208.654 144.725 206.358 145.546 203.733C146.694 199.468 148.006 194.547 148.498 189.954C149.318 182.081 146.366 169.942 145.054 165.021C144.725 163.545 144.233 161.741 143.741 160.1C142.265 154.031 140.461 147.142 138.82 142.713C138.656 142.385 138.82 142.057 139.148 142.057C139.476 141.893 139.804 142.057 139.804 142.385C141.445 146.814 143.249 153.703 144.725 159.936C145.218 161.741 145.546 163.381 146.038 164.857C147.678 170.927 150.139 182.409 149.482 190.118C148.99 194.711 147.678 199.796 146.53 204.061C145.874 206.686 145.218 208.982 144.889 210.623C144.889 210.787 144.561 211.115 144.397 211.115Z" fill="#BC116B"/>
<path d="M36.4666 232.107C36.3026 232.107 35.9745 231.943 35.9745 231.779C35.8105 231.45 35.9745 231.122 36.3026 231.122C39.2552 229.974 43.5201 228.826 43.6841 228.662C44.0122 228.498 44.3402 228.826 44.3402 228.99C44.3402 229.318 44.1762 229.646 44.0122 229.646C44.0122 229.646 39.5833 230.794 36.6306 231.943C36.6306 232.107 36.6306 232.107 36.4666 232.107Z" fill="#005651"/>
<path d="M85.0203 220.793H84.8563C84.6923 220.793 80.5914 219.152 76.3265 216.2C72.7178 213.739 67.6327 208.818 67.3047 208.654C67.1406 208.49 67.1406 208.162 67.3047 207.834C67.4687 207.67 67.7968 207.67 68.1248 207.834C68.1248 207.834 73.5379 212.755 76.9827 215.38C81.0835 218.332 85.1844 219.972 85.3484 219.972C85.6765 220.136 85.8405 220.465 85.6765 220.629C85.3484 220.629 85.1844 220.793 85.0203 220.793Z" fill="#BC116B"/>
<path d="M95.5159 291.157C95.3518 291.157 95.3518 291.157 95.1878 290.993C94.8597 290.829 94.8597 290.501 95.0238 290.173C98.4685 285.416 105.522 274.754 105.03 272.293C105.03 272.293 105.03 272.129 104.866 272.129C103.389 271.145 100.273 274.261 98.7965 275.902C98.3044 276.394 97.9764 276.886 97.6483 277.05C97.4843 277.214 96.9922 277.214 96.8281 277.05C96.6641 276.886 96.6641 276.394 96.8281 276.23C97.1562 276.066 97.4843 275.574 97.9764 275.246C99.9448 273.277 103.225 269.833 105.522 271.473C105.686 271.637 106.014 271.965 106.014 272.457C106.67 276.23 96.336 290.501 95.8439 291.157C95.8439 290.993 95.6799 291.157 95.5159 291.157Z" fill="#BC116B"/>
<path d="M154.078 208.978L153.258 208.158C153.258 208.158 155.39 206.189 156.703 204.877C156.867 204.713 157.195 204.713 157.523 204.877C157.687 205.041 157.687 205.369 157.523 205.697C156.21 206.845 154.078 208.978 154.078 208.978Z" fill="#BC116B"/>
<path d="M128.815 171.913C128.815 171.913 128.815 171.749 128.815 171.913C128.323 171.749 128.159 171.42 128.323 171.256C128.815 169.616 129.307 167.648 129.8 165.843C130.456 163.219 131.276 160.594 131.932 158.298C133.572 153.049 137.345 138.614 137.181 135.989C137.181 134.841 136.033 134.185 134.885 133.529C133.736 132.872 132.588 132.216 132.752 130.904C132.916 129.756 134.064 129.264 135.377 128.608C135.869 128.28 136.361 128.116 136.853 127.787C137.181 127.623 137.509 127.623 137.673 127.951C137.837 128.28 137.837 128.608 137.509 128.772C137.017 129.1 136.361 129.428 135.869 129.756C134.885 130.248 134.064 130.74 133.9 131.396C133.736 131.888 134.392 132.216 135.377 132.872C136.689 133.529 138.165 134.513 138.329 136.153C138.493 138.942 134.557 153.705 132.916 158.954C132.26 161.25 131.44 163.875 130.784 166.499C130.292 168.304 129.8 170.272 129.307 171.913C129.307 171.749 129.143 171.913 128.815 171.913Z" fill="#BC116B"/>
<path d="M145.055 298.536C140.626 292.631 137.018 283.281 137.018 283.281C137.018 283.281 137.346 288.038 139.478 299.521C141.282 302.473 143.087 304.114 145.055 304.278C146.532 304.442 148.172 304.114 149.976 303.293C148.336 302.473 146.696 300.669 145.055 298.536Z" fill="#BC116B"/>
<path d="M126.849 247.369C126.521 247.369 126.193 247.041 126.357 246.713C127.177 231.786 124.552 210.461 122.748 203.736C122.748 203.408 122.912 203.08 123.076 203.08C123.404 202.916 123.732 203.244 123.732 203.408C125.537 210.133 128.161 231.622 127.341 246.713C127.341 247.041 127.177 247.369 126.849 247.369Z" fill="#BC116B"/>
<path d="M43.0278 224.729C46.8005 215.707 52.0496 203.896 55.0022 196.187C58.1189 188.313 62.2197 170.925 60.4153 161.411C58.611 151.733 52.5417 142.712 49.9172 139.431C45.1602 133.362 44.5041 124.34 44.5041 124.34C40.5672 125.652 35.1541 127.292 31.0533 134.51C26.1323 143.204 24.3279 166.168 14.6499 190.61C10.549 200.944 6.4482 212.098 3.9877 221.12C2.67542 226.369 41.3874 228.665 43.0278 224.729Z" fill="#DC1B7A"/>
<path d="M54.999 196.675H54.8349C54.5068 196.511 54.3428 196.183 54.5068 196.019C57.9516 185.685 61.0682 175.843 59.4279 164.361C57.7875 153.042 51.8823 141.724 49.0937 139.099C48.9297 138.935 48.9297 138.443 49.0937 138.279C49.2578 138.115 49.7499 138.115 49.9139 138.279C52.7025 141.068 58.9358 152.55 60.5761 164.197C62.2164 175.843 58.9358 185.849 55.4911 196.347C55.4911 196.511 55.327 196.675 54.999 196.675Z" fill="#BC116B"/>
<path d="M104.21 460.606C104.046 460.606 104.046 460.606 104.21 460.606C103.718 460.442 103.554 460.114 103.718 459.95C105.03 455.685 113.068 433.049 113.068 432.885C113.232 432.557 113.56 432.393 113.724 432.557C114.052 432.721 114.216 433.049 114.052 433.213C113.888 433.377 106.014 456.013 104.702 460.278C104.538 460.442 104.374 460.606 104.21 460.606Z" fill="#1C847A"/>
<path d="M124.715 640.225C124.715 639.405 118.482 642.522 117.99 653.84C117.497 662.042 120.286 663.682 120.942 669.423C121.598 675.165 121.598 683.53 121.598 684.35C121.598 685.171 123.895 685.335 126.519 685.335C129.144 685.335 131.604 685.171 131.604 683.858C131.604 682.218 131.604 675.165 131.604 673.524C131.604 672.868 136.525 676.805 140.954 681.07C143.743 683.694 149.32 685.499 153.257 685.499C157.194 685.499 175.401 685.499 178.846 685.499C182.291 685.499 185.243 683.366 184.751 679.101C184.423 675.164 179.01 672.376 173.269 670.079C169.66 668.603 167.2 667.127 165.887 666.635C166.544 667.291 167.036 669.095 165.395 669.915C163.263 671.228 157.03 671.884 154.077 670.736C151.124 669.587 147.844 666.963 142.595 663.518C137.674 660.401 133.245 656.793 130.456 654.004C126.355 649.903 125.043 645.638 124.715 640.225Z" fill="#3C4246"/>
<path d="M130.457 673.192C130.293 673.192 130.293 673.192 130.293 673.192C127.668 671.88 124.224 670.239 121.927 668.271C121.763 668.107 121.599 667.779 121.763 667.451C121.927 667.287 122.255 667.123 122.583 667.287C124.88 669.091 128.489 670.895 130.785 672.044C131.113 672.208 131.113 672.536 131.113 672.864C130.785 673.028 130.621 673.192 130.457 673.192Z" fill="#2E3336"/>
<path d="M95.5176 128.107C95.6816 127.943 98.6342 126.959 100.275 126.959C102.079 126.959 102.571 128.107 102.571 128.107C102.571 128.107 102.079 124.663 100.275 124.991C98.4702 125.155 95.5176 128.107 95.5176 128.107Z" fill="#E6E2DE"/>
<path d="M103.555 131.888C103.391 131.888 103.227 131.888 103.063 131.724C102.243 130.74 102.079 129.428 101.915 128.608C101.75 127.295 101.586 126.639 101.094 126.147C100.766 125.983 100.438 125.819 99.7821 125.983C98.9619 126.147 96.9935 127.131 94.369 129.756C94.2049 129.92 93.7128 129.92 93.5488 129.756C93.3848 129.592 93.3848 129.1 93.5488 128.936C96.0093 126.475 98.1417 124.999 99.6181 124.835C100.438 124.671 101.258 124.835 101.75 125.327C102.407 125.819 102.899 126.967 103.063 128.444C103.227 129.428 103.391 130.412 103.883 130.904C104.047 131.068 104.047 131.56 103.883 131.724C103.719 131.724 103.719 131.888 103.555 131.888Z" fill="#E6E2DE"/>
<path d="M123.076 125.98C122.748 127.457 121.6 129.425 120.616 130.737C120.452 130.901 120.452 131.23 120.78 131.066C121.272 130.901 122.092 130.409 122.584 130.081C123.076 129.589 123.404 129.097 123.568 128.605C123.404 127.621 123.24 126.801 123.076 125.98Z" fill="#E6E2DE"/>
<path d="M118.155 206.845C117.991 206.845 117.827 206.845 117.663 206.681C117.663 206.681 115.695 204.056 112.906 201.103C112.742 200.939 112.742 200.447 112.906 200.283C113.07 200.119 113.562 200.119 113.726 200.283C116.515 203.236 118.483 206.024 118.483 206.024C118.647 206.352 118.647 206.681 118.319 206.845C118.483 206.681 118.319 206.845 118.155 206.845Z" fill="#BC116B"/>
<path d="M97.8143 227.35C98.6344 226.202 100.275 224.561 104.704 222.921C109.133 221.117 114.054 219.476 115.858 218.164C117.662 216.852 118.975 217.18 119.795 218C120.615 218.656 121.107 220.953 119.139 223.905C117.17 226.858 96.8301 231.123 96.8301 231.123C96.8301 231.123 96.9941 228.662 97.8143 227.35Z" fill="#A85027"/>
<path d="M106.508 224.726L107.985 224.398C107.985 224.398 112.578 223.414 114.71 223.086C116.843 222.594 120.287 222.594 122.256 222.594C124.06 222.594 126.028 222.922 126.685 224.234C127.833 226.367 127.013 228.335 125.864 229.483C125.864 229.483 127.177 229.811 127.833 230.631C128.817 231.944 128.489 233.912 127.997 234.732C127.341 236.045 126.192 236.373 126.192 236.373C126.192 236.373 127.669 237.193 128.325 238.013C129.145 239.489 129.145 240.637 128.489 241.95C127.833 242.934 126.521 243.754 126.521 243.754C126.521 243.754 128.161 244.738 128.489 246.379C128.817 248.019 128.489 249.331 126.357 250.644C124.88 251.628 118.483 253.596 111.429 254.252C103.556 255.072 97.4866 253.268 94.698 251.628C91.9094 249.987 87.6445 248.347 87.6445 248.347C87.6445 248.347 98.7988 228.335 100.603 226.859C102.408 225.382 106.508 224.726 106.508 224.726Z" fill="#A85027"/>
<path d="M99.4525 242.281C99.4525 242.281 97.3201 248.022 95.8438 252.123C97.9762 253.107 101.093 253.928 105.03 254.256C102.077 252.615 99.7806 249.663 99.4525 242.281Z" fill="#782F1C"/>
<path d="M99.127 228.163C98.3068 226.195 97.1586 223.734 94.8621 223.406C92.5657 223.078 43.5195 221.274 43.0274 221.274C42.8634 221.274 4.64351 218.977 4.47947 219.634C3.82334 221.766 2.51107 226.195 1.85493 228.983C0.378628 235.709 -0.113474 240.302 1.85493 244.567C3.6593 248.503 6.93998 254.081 16.782 255.229C23.3434 255.885 89.7771 259.33 89.7771 259.33C91.9095 259.494 95.0262 259.658 95.6823 258.838C96.1744 258.017 98.963 253.753 99.4551 247.519C99.9472 241.45 99.9472 230.296 99.127 228.163Z" fill="#DC1B7A"/>
<path d="M19.8967 230.955C19.7327 230.955 19.5687 230.791 19.4046 230.627C19.2406 230.299 19.2406 229.971 19.5687 229.807C19.8967 229.643 25.966 225.706 28.9186 224.394C33.6756 222.426 39.0887 221.934 39.2527 221.77C39.5808 221.77 39.9089 221.934 39.9089 222.262C39.9089 222.59 39.7448 222.918 39.4168 222.918C39.4168 222.918 34.0036 223.41 29.4107 225.378C26.4581 226.691 20.2248 230.627 20.2248 230.627C20.0608 230.791 20.0608 230.955 19.8967 230.955Z" fill="#BC116B"/>
<path d="M103.72 170.266L105.196 169.282C108.641 166.821 113.07 165.673 117.335 166.493L120.123 166.985V166.821L131.278 168.625C133.082 168.954 134.394 170.43 134.558 172.07C136.363 172.398 138.003 172.07 139.151 171.414C139.315 171.25 139.479 171.086 139.643 170.922C139.807 170.758 140.136 170.594 140.3 170.594L143.744 171.25C144.236 171.414 144.728 171.578 144.728 171.906L143.088 181.584C143.088 181.912 142.596 182.076 141.94 181.912L138.495 181.42C138.167 181.42 138.003 181.092 138.003 180.928C137.839 180.764 137.839 180.436 137.675 180.272C137.183 179.616 136.691 179.124 136.035 178.796C135.543 178.468 134.23 178.303 133.574 178.139C132.918 179.78 131.114 180.764 129.309 180.6L128.489 180.436L123.568 210.782C124.716 212.094 125.372 213.735 125.044 215.539L116.515 268.194C116.187 270.162 114.382 271.311 112.578 270.983L108.149 270.326C106.181 269.998 105.032 268.194 105.36 266.39L113.89 213.735C114.218 211.93 115.366 210.454 116.843 209.634L121.764 179.288L119.631 178.96C117.991 178.632 116.843 177.155 117.171 175.515L117.499 173.382C117.663 172.562 117.007 171.742 116.187 171.742C109.625 170.43 105.688 171.086 104.212 171.578C103.556 171.578 103.064 170.594 103.72 170.266Z" fill="#D4CFC3"/>
<path d="M116.513 209.789L123.894 210.937C124.878 212.086 125.37 213.726 125.042 215.366L116.513 268.021C116.185 269.989 114.38 271.138 112.576 270.81L108.147 270.154C106.179 269.825 105.03 268.021 105.358 266.217L113.888 213.562C114.216 212.086 115.036 210.609 116.513 209.789Z" fill="#FFF377"/>
<path d="M140.21 170.647L138.469 181.332L143.164 182.097L144.905 171.411L140.21 170.647Z" fill="#B5AC9C"/>
<path d="M117.34 215.375C117.668 215.375 117.832 215.703 117.668 215.867C117.668 216.195 117.34 216.359 117.176 216.195C116.848 216.195 116.684 215.867 116.848 215.703C116.848 215.539 117.012 215.375 117.34 215.375Z" fill="#A08904"/>
<path d="M121.273 216.027C121.601 216.027 121.765 216.355 121.601 216.519C121.601 216.848 121.273 217.012 121.109 216.848C120.781 216.848 120.617 216.519 120.781 216.355C120.781 216.191 120.945 216.027 121.273 216.027Z" fill="#A08904"/>
<path d="M116.681 218.824C117.01 218.824 117.174 219.152 117.01 219.316C117.01 219.644 116.681 219.808 116.517 219.644C116.189 219.644 116.025 219.316 116.189 219.152C116.189 218.988 116.517 218.824 116.681 218.824Z" fill="#A08904"/>
<path d="M120.621 219.48C120.949 219.48 121.113 219.809 120.949 219.973C120.949 220.301 120.621 220.465 120.457 220.301C120.129 220.301 119.965 219.973 120.129 219.809C120.129 219.645 120.457 219.48 120.621 219.48Z" fill="#A08904"/>
<path d="M116.187 222.266C116.515 222.266 116.679 222.594 116.515 222.758C116.515 223.086 116.187 223.25 116.023 223.086C115.695 223.086 115.531 222.758 115.695 222.594C115.695 222.43 115.859 222.266 116.187 222.266Z" fill="#A08904"/>
<path d="M120.127 222.926C120.455 222.926 120.619 223.254 120.455 223.418C120.455 223.746 120.127 223.91 119.963 223.746C119.635 223.746 119.471 223.418 119.635 223.254C119.635 223.09 119.799 222.926 120.127 222.926Z" fill="#A08904"/>
<path d="M115.531 225.875C115.859 225.875 116.023 226.203 115.859 226.367C115.859 226.695 115.531 226.859 115.367 226.695C115.039 226.695 114.875 226.367 115.039 226.203C115.039 226.039 115.367 225.875 115.531 225.875Z" fill="#A08904"/>
<path d="M119.633 226.529C119.961 226.529 120.125 226.857 119.961 227.021C119.797 227.185 119.633 227.513 119.469 227.349C119.141 227.349 118.976 227.021 119.141 226.857C119.141 226.529 119.305 226.365 119.633 226.529Z" fill="#A08904"/>
<path d="M115.043 229.324C115.371 229.324 115.535 229.652 115.371 229.816C115.371 230.144 115.043 230.308 114.879 230.144C114.551 230.144 114.387 229.816 114.551 229.652C114.551 229.488 114.715 229.324 115.043 229.324Z" fill="#A08904"/>
<path d="M118.978 229.973C119.306 229.973 119.47 230.301 119.306 230.465C119.306 230.793 118.978 230.957 118.814 230.793C118.486 230.793 118.322 230.465 118.486 230.301C118.65 230.137 118.814 229.973 118.978 229.973Z" fill="#A08904"/>
<path d="M114.549 232.766C114.877 232.766 115.041 233.094 114.877 233.258C114.877 233.586 114.549 233.75 114.385 233.586C114.057 233.586 113.893 233.258 114.057 233.094C114.057 232.93 114.221 232.766 114.549 232.766Z" fill="#A08904"/>
<path d="M118.488 233.418C118.816 233.418 118.98 233.746 118.816 233.91C118.816 234.238 118.488 234.402 118.324 234.238C117.996 234.238 117.832 233.91 117.996 233.746C117.996 233.582 118.16 233.418 118.488 233.418Z" fill="#A08904"/>
<path d="M113.892 236.373C114.22 236.373 114.384 236.701 114.22 236.865C114.056 237.029 113.892 237.357 113.728 237.193C113.4 237.193 113.236 236.865 113.4 236.701C113.564 236.537 113.728 236.209 113.892 236.373Z" fill="#A08904"/>
<path d="M117.828 237.029C118.156 237.029 118.32 237.357 118.156 237.521C118.156 237.849 117.828 238.013 117.664 237.849C117.336 237.849 117.172 237.521 117.336 237.357C117.336 237.029 117.664 236.865 117.828 237.029Z" fill="#A08904"/>
<path d="M113.4 239.812C113.728 239.812 113.892 240.141 113.728 240.305C113.728 240.633 113.4 240.797 113.236 240.633C112.908 240.633 112.744 240.305 112.908 240.141C112.908 239.977 113.072 239.812 113.4 239.812Z" fill="#A08904"/>
<path d="M117.338 240.48C117.666 240.48 117.83 240.809 117.666 240.973C117.666 241.301 117.338 241.465 117.174 241.301C116.846 241.301 116.682 240.973 116.846 240.809C116.846 240.644 117.01 240.48 117.338 240.48Z" fill="#A08904"/>
<path d="M112.744 243.266C113.072 243.266 113.236 243.594 113.072 243.758C113.072 244.086 112.744 244.25 112.58 244.086C112.252 244.086 112.088 243.758 112.252 243.594C112.252 243.43 112.58 243.266 112.744 243.266Z" fill="#A08904"/>
<path d="M116.681 243.914C117.01 243.914 117.174 244.242 117.01 244.406C117.01 244.734 116.681 244.898 116.517 244.734C116.189 244.734 116.025 244.406 116.189 244.242C116.189 244.078 116.517 243.914 116.681 243.914Z" fill="#A08904"/>
<path d="M112.256 246.711C112.584 246.711 112.748 247.039 112.584 247.203C112.584 247.531 112.256 247.695 112.092 247.531C111.764 247.531 111.6 247.203 111.764 247.039C111.764 246.875 111.928 246.711 112.256 246.711Z" fill="#A08904"/>
<path d="M116.189 247.363C116.517 247.363 116.681 247.691 116.517 247.855C116.517 248.183 116.189 248.347 116.025 248.183C115.697 248.183 115.533 247.855 115.697 247.691C115.697 247.527 115.861 247.363 116.189 247.363Z" fill="#A08904"/>
<path d="M111.597 250.314C111.926 250.314 112.09 250.642 111.926 250.806C111.926 251.134 111.597 251.298 111.433 251.134C111.105 251.134 110.941 250.806 111.105 250.642C111.105 250.478 111.433 250.15 111.597 250.314Z" fill="#A08904"/>
<path d="M115.535 250.978C115.863 250.978 116.027 251.306 115.863 251.47C115.863 251.799 115.535 251.963 115.371 251.799C115.043 251.799 114.879 251.471 115.043 251.306C115.043 250.978 115.371 250.814 115.535 250.978Z" fill="#A08904"/>
<path d="M111.105 253.766C111.433 253.766 111.597 254.094 111.433 254.258C111.433 254.586 111.105 254.75 110.941 254.586C110.613 254.586 110.449 254.258 110.613 254.094C110.613 253.93 110.777 253.766 111.105 253.766Z" fill="#A08904"/>
<path d="M115.043 254.422C115.371 254.422 115.535 254.75 115.371 254.914C115.371 255.242 115.043 255.406 114.879 255.242C114.551 255.242 114.387 254.914 114.551 254.75C114.551 254.586 114.715 254.422 115.043 254.422Z" fill="#A08904"/>
<path d="M110.447 257.207C110.775 257.207 110.939 257.535 110.775 257.699C110.611 257.863 110.447 258.191 110.283 258.027C109.955 258.027 109.791 257.699 109.955 257.535C109.955 257.371 110.283 257.207 110.447 257.207Z" fill="#A08904"/>
<path d="M114.387 257.867C114.715 257.867 114.879 258.195 114.715 258.359C114.715 258.687 114.387 258.851 114.222 258.687C113.894 258.687 113.73 258.359 113.894 258.195C113.894 258.031 114.222 257.867 114.387 257.867Z" fill="#A08904"/>
<path d="M109.959 260.814C110.287 260.814 110.451 261.142 110.287 261.306C110.287 261.634 109.959 261.798 109.795 261.634C109.467 261.634 109.303 261.306 109.467 261.142C109.631 260.978 109.631 260.65 109.959 260.814Z" fill="#A08904"/>
<path d="M113.894 261.471C114.222 261.471 114.386 261.799 114.222 261.963C114.222 262.291 113.894 262.455 113.73 262.291C113.402 262.291 113.238 261.963 113.402 261.799C113.402 261.471 113.566 261.307 113.894 261.471Z" fill="#A08904"/>
<path d="M109.303 264.258C109.631 264.258 109.795 264.586 109.631 264.75C109.631 265.078 109.303 265.242 109.139 265.078C108.81 265.078 108.646 264.75 108.81 264.586C108.81 264.422 109.139 264.258 109.303 264.258Z" fill="#A08904"/>
<path d="M113.238 264.922C113.566 264.922 113.73 265.25 113.566 265.414C113.566 265.742 113.238 265.906 113.074 265.742C112.746 265.742 112.582 265.414 112.746 265.25C112.746 265.086 113.074 264.922 113.238 264.922Z" fill="#A08904"/>
<path d="M117.981 97.8731C117.981 97.8731 118.898 108.336 118.871 109.496C118.736 111.303 100.182 110.87 89.2074 98.8965C84.8929 94.8512 88.21 90.9142 92.3629 91.9392C96.5158 92.9641 112.696 97.6571 117.981 97.8731Z" fill="#782F1C"/>
<path d="M135.214 71.1877C134.722 72.828 133.902 74.4683 133.246 75.4525C130.949 78.8973 126.028 79.7174 125.7 74.7964C125.536 71.8438 126.356 67.907 128.161 65.4465C129.473 63.6421 131.113 62.986 133.246 63.8061C136.034 65.1184 136.034 68.2351 135.214 71.1877Z" fill="#A85027"/>
<path d="M132.098 66.1094C132.426 66.1094 132.59 66.2734 132.59 66.4374C132.918 68.5699 132.59 70.7023 132.098 72.6707C132.098 72.8348 131.769 72.9988 131.605 72.9988C131.441 72.9988 131.277 72.6707 131.277 72.5067C131.933 70.7023 132.098 68.5699 131.769 66.6015C131.769 66.4374 131.933 66.2734 132.098 66.1094Z" fill="#782F1C"/>
<path d="M118.809 27.886C117.496 27.0659 115.856 26.2457 114.052 25.5896C110.771 24.4413 107.162 23.9492 103.718 23.9492C98.7966 23.9492 94.0396 25.0975 89.6107 27.0659C85.3458 28.8702 81.409 31.4948 78.4564 34.9395C72.2231 42.485 75.0117 54.1314 74.1915 64.1375C73.8635 67.5822 73.8635 71.191 74.3556 73.9795C74.6836 75.7839 75.3398 77.2602 75.9959 78.9006C77.9643 83.8216 83.3774 89.5628 86.9862 93.9917C89.9388 97.6004 94.5317 100.225 98.3045 101.865C100.109 102.849 101.913 103.506 103.718 103.834C105.194 103.998 106.834 103.998 108.311 103.834H108.475H108.639C110.115 103.67 111.755 103.342 113.232 102.85C115.036 102.193 116.676 101.045 118.153 99.7329C121.433 97.2724 123.238 93.8276 125.37 89.5628C127.995 84.4777 128.979 82.0172 130.619 76.9322C131.111 75.2918 131.767 73.6515 131.931 71.8471C132.26 68.8945 131.931 65.4498 131.275 62.0051C130.619 57.5762 129.635 53.1472 129.471 49.7025C128.815 40.5166 126.518 32.479 118.809 27.886Z" fill="#A85027"/>
<path d="M66.9748 71.1906C67.4669 73.159 68.4511 75.2915 69.7634 76.6038C70.4195 77.2599 71.0757 77.916 71.8958 78.2441C77.9651 80.3765 75.0125 68.4021 73.7002 66.1056C72.3879 63.9731 69.2713 63.8091 67.631 65.9416C66.3187 67.5819 66.4827 69.3863 66.9748 71.1906Z" fill="#A85027"/>
<path d="M72.7163 74.1455C72.5522 74.1455 72.3882 73.9814 72.3882 73.8174C71.8961 72.013 70.9119 70.3727 69.7637 69.0604C69.5996 68.8964 69.5996 68.5683 69.7637 68.4043C69.9277 68.2402 70.2557 68.2402 70.4198 68.4043C71.7321 69.8806 72.7163 71.685 73.2084 73.4893C73.2084 73.8174 73.0443 73.9814 72.7163 74.1455C72.8803 74.1455 72.7163 74.1455 72.7163 74.1455Z" fill="#782F1C"/>
<path d="M95.8398 86.2794C95.8398 86.2794 101.581 83.9829 108.142 83.8189C115.032 83.4908 119.297 86.9355 119.297 86.9355C119.297 86.9355 117.656 90.0522 108.142 90.0522C99.7767 90.2162 95.8398 86.2794 95.8398 86.2794Z" fill="#492812"/>
<path d="M104.706 89.5607C103.23 89.2327 104.05 87.9204 107.987 88.0844C111.924 88.2485 113.072 88.5765 113.072 89.2327C113.072 89.8888 112.744 91.2011 104.706 89.5607Z" fill="#C84A4A"/>
<path d="M114.874 86.7767C115.366 86.6127 115.858 86.6127 116.186 86.2846C117.006 85.6285 116.186 84.8083 115.366 84.6443C113.89 84.3162 112.249 84.6443 110.773 84.8083C107.328 85.3004 103.72 85.1364 100.275 84.9723C99.9467 84.9723 99.7827 84.9723 99.4546 84.9723C99.4546 84.9723 99.2906 84.9723 99.2906 85.1364C99.1266 85.3004 99.2906 85.9565 99.4546 86.1206C101.423 86.9408 103.72 86.9407 105.852 87.1048C108.805 87.2688 111.921 87.4329 114.874 86.7767Z" fill="white"/>
<path d="M115.852 87.4315C116.18 87.4315 116.672 87.5955 117 87.7596C117.656 88.2517 116.672 88.5797 116.016 88.7438C114.868 89.0718 113.227 89.728 111.915 89.892C109.126 90.2201 106.174 89.892 103.385 89.3999C103.221 89.3999 102.893 89.3999 102.729 89.3999H102.565C102.401 89.2359 99.6125 87.7596 99.7765 87.7596C102.401 87.2674 105.19 87.2674 108.142 87.1034C110.439 86.9394 113.391 87.1034 115.852 87.4315Z" fill="white"/>
<path d="M117.334 88.082C114.381 91.0346 102.57 90.3785 98.7977 88.9022C93.3846 86.7698 92.4004 96.2837 108.476 95.4636C124.059 96.6118 122.583 90.7066 117.334 88.082Z" fill="#A85027"/>
<path d="M107.162 91.0343C98.7962 90.7063 95.5156 87.2616 95.1875 86.9335L95.8436 86.4414C97.1559 87.9177 101.421 90.3782 108.966 90.3782C116.184 90.3782 119.3 87.7537 119.465 86.9335L120.121 87.0975C119.629 88.4098 115.856 91.0343 108.802 91.0343C108.31 91.0343 107.654 91.0343 107.162 91.0343Z" fill="#A85027"/>
<path d="M111.917 85.9486C108.472 86.2767 106.504 86.2767 103.223 85.7846C101.255 85.4565 99.1225 85.9486 95.8418 86.4407C95.8418 86.4407 99.1225 83.6521 101.255 82.996C102.075 82.6679 103.715 82.3398 104.536 82.3398C105.52 82.3398 106.34 82.8319 107.16 82.996C108.472 83.16 110.113 82.6679 111.589 82.5039C113.229 82.3398 117.986 85.9486 118.807 87.0968C118.314 87.2609 113.065 85.7846 111.917 85.9486Z" fill="#782F1C"/>
<path d="M107.487 94.9779C106.011 94.9779 104.534 94.6498 103.222 94.3218C103.058 94.3218 102.894 94.1577 103.058 93.9937C103.058 93.8297 103.222 93.6656 103.386 93.8297C104.863 94.3218 106.503 94.4858 108.143 94.4858C109.784 94.4858 111.588 94.3218 113.392 93.8297C113.556 93.8297 113.72 93.8297 113.72 93.9937C113.72 94.1577 113.72 94.3218 113.556 94.3218C111.752 94.8139 109.784 95.1419 108.143 95.1419C107.815 94.9779 107.651 94.9779 107.487 94.9779Z" fill="#782F1C"/>
<path d="M119.3 82.5093C122.745 84.4777 122.581 93.4995 118.972 95.4679C112.083 99.2407 102.733 99.2407 96.0077 95.4679C92.563 93.4995 92.727 84.4777 96.3357 82.5093C103.225 78.7365 112.575 78.7365 119.3 82.5093Z" fill="#A85027"/>
<path d="M96.1719 84.9725C99.1245 84.6445 102.733 84.3164 107.982 84.3164C113.231 84.3164 116.184 84.6445 119.137 85.3006C115.856 88.0892 114.708 89.8936 109.131 90.0576C101.913 90.2216 97.3201 86.6129 96.1719 84.9725Z" fill="#492812"/>
<path d="M104.049 90.2241C102.409 89.896 101.917 86.6154 106.017 86.7794C110.282 87.1075 113.071 89.2399 113.071 89.896C113.071 90.5522 112.579 91.8644 104.049 90.2241Z" fill="#C84A4A"/>
<path d="M114.382 87.4235C114.874 87.2595 115.366 87.0955 115.694 86.7674C116.514 85.9472 115.694 84.963 114.874 84.635C113.398 84.1429 111.757 84.635 110.281 84.799C106.836 85.4551 103.228 85.2911 99.7829 84.963C99.4549 84.963 99.2908 84.799 98.9628 84.963C98.9628 84.963 98.7987 84.963 98.7987 85.1271C98.6347 85.2911 98.7987 85.4551 99.1268 85.6192C101.095 86.6034 103.228 87.4235 105.524 87.7516C108.313 88.2437 111.429 88.2437 114.382 87.4235Z" fill="white"/>
<path d="M114.871 88.744C115.199 88.744 115.527 88.908 115.855 89.0721C116.511 89.5642 115.527 89.8922 115.035 90.0563C114.05 90.3843 112.574 91.0405 111.262 91.2045C108.801 91.5326 106.177 91.2045 103.716 90.7124C103.552 90.7124 103.388 90.7124 103.06 90.7124H102.896C102.732 90.5484 100.272 89.0721 100.436 89.0721C102.732 88.58 105.193 88.5799 107.817 88.4159C110.278 88.2519 112.902 88.4159 114.871 88.744Z" fill="white"/>
<path d="M119.795 83.9844C116.514 92.6782 100.603 91.694 95.3535 84.3124C89.9404 82.18 99.4544 98.2553 107.328 98.4194C115.366 98.7474 122.747 87.5931 119.795 83.9844Z" fill="#A85027"/>
<path d="M106.838 90.5537C99.4563 90.2256 95.5195 86.945 95.1914 85.1406L96.0116 84.9766C96.3396 86.4529 100.44 89.8976 108.642 89.7335C117.992 89.5695 119.14 86.6169 119.632 85.1406L120.289 85.4687C119.468 87.9292 117.336 90.3897 108.642 90.5537C107.986 90.5537 107.33 90.5537 106.838 90.5537Z" fill="#A85027"/>
<path d="M113.233 85.6284C109.789 85.9564 107.328 85.9564 103.391 85.6284C100.931 85.3003 98.7983 85.9564 95.6816 85.1363C95.6816 85.1363 97.6501 84.3161 100.767 83.1679C101.751 83.0038 103.227 82.5117 104.211 82.5117C105.36 82.5117 106.344 83.1679 107.328 83.3319C108.968 83.4959 109.296 82.8398 110.773 82.6758C112.577 82.5117 117.662 84.6442 119.303 85.3003C118.81 85.4643 114.382 85.3003 113.233 85.6284Z" fill="#782F1C"/>
<path d="M108.145 95.4662C106.341 95.4662 104.7 95.1381 103.224 94.646C103.06 94.646 102.896 94.4819 103.06 94.3179C103.06 94.1539 103.224 93.9898 103.388 94.1539C104.865 94.646 106.341 94.81 108.145 94.9741C109.621 94.9741 111.262 94.81 113.23 94.3179C113.394 94.3179 113.558 94.3179 113.558 94.4819C113.558 94.646 113.558 94.81 113.394 94.81C111.426 95.3021 109.786 95.6302 108.145 95.4662Z" fill="#782F1C"/>
<path d="M107.984 78.4079C107.327 78.4079 106.671 78.2439 106.015 77.9158C105.851 77.7518 105.687 77.5877 105.851 77.2597C106.015 77.0956 106.179 76.9316 106.507 77.0956C107.82 77.7518 109.46 77.5877 110.28 76.7676C110.444 76.6035 110.772 76.6035 110.936 76.7676C111.1 76.9316 111.1 77.2597 110.936 77.4237C110.116 78.0798 109.132 78.4079 107.984 78.4079Z" fill="#782F1C"/>
<path d="M104.7 78.2452C104.043 78.2452 103.223 78.0812 102.895 77.7531C102.239 77.261 101.911 76.4408 102.075 75.6207C102.403 74.8005 102.567 74.1444 102.895 73.4882C103.059 73.3242 103.223 73.1602 103.551 73.1602C103.715 73.3242 103.879 73.4882 103.879 73.8163C103.551 74.4724 103.387 74.9645 103.223 75.7847C103.059 76.1128 103.223 76.6049 103.715 76.9329C104.207 77.261 105.684 77.261 106.176 77.097C106.34 76.9329 106.668 77.097 106.832 77.425C106.996 77.5891 106.832 77.9171 106.504 78.0812C105.848 78.2452 105.356 78.2452 104.7 78.2452Z" fill="#782F1C"/>
<path d="M110.773 78.2492C110.445 78.2492 110.281 78.2492 109.953 78.0851C109.789 77.9211 109.625 77.7571 109.625 77.593C109.789 77.429 109.953 77.265 110.117 77.265C110.609 77.429 112.086 77.265 112.578 76.9369C112.906 76.6088 113.07 76.1167 113.07 75.7887C112.742 74.9685 112.578 74.4764 112.25 73.8203L113.07 73.4922C113.398 74.1483 113.562 74.8045 113.89 75.6246C114.054 76.4448 113.89 77.265 113.07 77.7571C112.906 78.0851 111.757 78.2492 110.773 78.2492Z" fill="#782F1C"/>
<path d="M95.1905 66.5953C92.4019 66.7594 90.1055 65.7752 90.1055 64.6269C90.1055 63.4787 92.2379 62.4945 95.0265 62.3305C97.8151 62.1664 100.112 63.1506 100.112 64.2989C100.112 65.4471 97.9791 66.4313 95.1905 66.5953Z" fill="white"/>
<path d="M97.9778 64.4645C97.9778 65.6127 97.1576 66.4329 96.0094 66.4329C94.8612 66.4329 94.041 65.6127 93.877 64.4645C93.877 63.3163 94.6971 62.4961 95.8454 62.4961C96.9936 62.4961 97.8138 63.3163 97.9778 64.4645Z" fill="#492812"/>
<path d="M101.425 64.4609V70.2021L88.4668 70.3662V64.625C88.4668 64.625 90.4352 65.9372 95.0282 65.9372C99.6211 65.7732 101.425 64.4609 101.425 64.4609Z" fill="#A85027"/>
<path d="M88.4648 64.7958V59.0547L101.424 58.8906V64.6318C101.424 64.6318 100.111 61.3511 95.0262 61.5152C89.7771 61.6792 88.4648 64.7958 88.4648 64.7958Z" fill="#A85027"/>
<path d="M89.7773 64.796C89.6132 64.796 89.4492 64.796 89.4492 64.632C89.2852 64.4679 89.2852 63.9758 89.4492 63.8118C93.0579 60.8592 97.4869 60.8592 102.572 64.1399C102.9 64.3039 102.9 64.632 102.736 64.96C102.572 65.2881 102.244 65.2881 101.916 65.1241C97.3228 62.1714 93.386 62.1714 90.1053 64.796C90.1053 64.796 89.9413 64.96 89.7773 64.796Z" fill="#492812"/>
<path d="M88.1342 65.7746C87.9702 65.7746 87.9702 65.7746 87.8062 65.7746C87.4781 65.7746 87.15 65.6106 86.6579 65.6106C86.3298 65.4466 85.8377 65.4466 85.5097 65.4466C85.1816 65.4466 85.0176 65.1185 85.0176 64.7904C85.0176 64.4624 85.3456 64.2983 85.6737 64.2983C86.0018 64.2983 86.3298 64.4624 86.8219 64.4624C87.15 64.6264 87.6421 64.6264 87.8062 64.6264C88.2983 64.7904 88.9544 64.2983 89.2825 63.9703C89.4465 63.8062 89.7746 63.6422 90.1026 63.8062C90.2667 63.9703 90.4307 64.2983 90.2667 64.6264C89.9386 65.1185 89.1184 65.7746 88.1342 65.7746Z" fill="#492812"/>
<path d="M120.284 65.6164C123.073 65.4524 125.205 64.4682 125.205 63.32C125.205 62.1717 122.909 61.3516 120.12 61.3516C117.332 61.5156 115.199 62.4998 115.199 63.648C115.363 64.9603 117.66 65.7805 120.284 65.6164Z" fill="white"/>
<path d="M118.479 63.9684C118.479 65.1166 119.463 65.9368 120.611 65.9368C121.759 65.9368 122.579 64.9526 122.579 63.9684C122.579 62.8202 121.595 62 120.447 62C119.299 62 118.479 62.9842 118.479 63.9684Z" fill="#492812"/>
<path d="M126.355 63.6484V69.3896L113.396 69.5537V63.8125C113.396 63.8125 114.381 65.2888 119.958 65.1247C125.371 64.9607 126.355 63.6484 126.355 63.6484Z" fill="#A85027"/>
<path d="M113.396 63.9677V58.2265L126.355 58.0625V63.8037C126.355 63.8037 125.371 60.523 119.958 60.687C114.545 60.8511 113.396 63.9677 113.396 63.9677Z" fill="#A85027"/>
<path d="M113.067 64.7901C112.903 64.7901 112.739 64.6261 112.575 64.6261C112.411 64.298 112.411 63.9699 112.739 63.8059C117.167 60.6893 121.432 60.3612 125.697 62.6577C126.025 62.8217 126.025 63.1498 125.861 63.4778C125.697 63.8059 125.369 63.8059 125.041 63.6419C121.104 61.5094 117.496 61.8375 113.231 64.7901C113.231 64.7901 113.231 64.7901 113.067 64.7901Z" fill="#492812"/>
<path d="M126.847 64.2985C126.027 64.2985 125.371 63.8064 124.879 63.3143C124.715 63.1503 124.715 62.6582 124.879 62.4941C125.043 62.3301 125.535 62.3301 125.699 62.4941C126.027 62.8222 126.683 63.3143 127.175 63.1503C127.503 63.1503 127.831 62.9862 128.16 62.8222C128.488 62.6582 128.98 62.6582 129.308 62.4941C129.636 62.4941 129.964 62.6582 129.964 62.8222C129.964 63.1503 129.8 63.4783 129.636 63.4783C129.308 63.4783 128.98 63.6424 128.488 63.8064C128.16 63.9704 127.667 63.9704 127.339 64.1345C127.339 64.2985 127.011 64.2985 126.847 64.2985Z" fill="#492812"/>
<path d="M87.6404 57.0806C87.1483 57.0806 86.6562 56.7525 86.4922 56.2604C86.1641 55.6043 86.3281 54.7841 86.9843 54.456C89.1167 52.9797 91.5772 51.9955 94.0377 51.6675C96.6623 51.3394 99.6149 51.6675 101.911 52.8157C103.06 53.3078 103.552 54.7841 103.06 55.9323C102.732 56.4244 102.239 56.9165 101.747 57.0806C101.091 57.2446 100.599 57.2446 99.9429 56.9165L99.7789 56.7525C98.1386 55.7683 96.3342 55.2762 94.3658 55.2762C92.3974 55.2762 90.2649 55.7683 88.4606 56.7525C88.2965 56.9165 87.9685 57.0806 87.6404 57.0806Z" fill="#471500"/>
<path d="M114.544 56.2684C113.56 56.2684 112.74 55.9404 112.248 55.1202C111.92 54.6281 111.756 53.8079 111.92 53.1518C112.084 52.4957 112.576 51.8395 113.068 51.5115C113.232 51.5115 113.396 51.3474 113.396 51.3474C114.544 50.8553 115.693 50.5273 117.169 50.3632C118.481 50.1992 119.793 50.0352 120.942 50.0352C122.582 50.0352 123.73 50.1992 124.878 50.5273C126.519 51.0194 127.831 52.0036 128.487 53.1518C128.651 53.4799 128.815 53.972 128.651 54.3C128.487 54.6281 128.323 54.9562 127.831 55.1202C127.175 55.4483 126.519 55.2842 126.027 54.7921C125.535 54.136 124.714 53.972 124.058 53.8079C123.238 53.6439 122.254 53.6439 121.27 53.8079C120.286 53.972 119.301 54.136 118.317 54.4641C117.333 54.7921 116.349 55.2842 115.693 55.6123C115.365 56.1044 114.872 56.2684 114.544 56.2684Z" fill="#471500"/>
<path d="M66.9919 31.3229C62.727 35.5878 60.5946 42.9693 60.2665 49.8587C60.1025 55.1078 60.9226 60.3569 62.891 65.1139C64.5313 68.8867 66.4998 73.1515 69.2884 76.1041C70.4366 77.2523 73.5532 82.1734 74.8655 82.3374C76.5058 82.5015 73.5532 72.4954 74.8655 71.3471C76.3418 70.0349 79.4584 62.3253 79.7865 60.0288C80.1145 56.9122 80.9348 54.6157 79.6225 48.2184C78.3102 41.821 72.0769 26.0738 66.9919 31.3229Z" fill="#471500"/>
<path d="M96.8195 27.0963C91.0783 28.4086 79.2678 31.1972 74.6749 30.213C66.1451 28.2446 62.2083 24.3078 62.0443 18.8947C61.7162 13.8096 64.0126 8.06841 69.5898 3.96756C74.0187 0.686882 80.58 0.0307563 88.1256 0.0307563C97.3115 0.0307563 104.857 -0.461345 109.286 2.49126C117.16 7.74035 118.144 17.5824 116.339 20.3709C114.207 23.3236 107.974 24.7999 96.8195 27.0963Z" fill="#471500"/>
<path d="M80.2794 15.648C93.2381 9.57877 110.134 11.8753 114.562 14.6639C118.991 17.4524 116.695 20.0769 113.414 19.7489C109.97 19.2568 105.541 18.1086 99.6354 17.7805C92.91 17.2884 87.0048 19.5849 83.3961 22.0454C79.7873 24.5059 78.9671 28.2786 75.3584 30.4111C72.5698 32.0514 70.1093 30.9032 69.4532 29.2629C67.9769 24.998 75.8505 17.7805 80.2794 15.648Z" fill="#DC1B7A"/>
<path d="M61.023 57.4863C60.859 59.1266 64.4677 65.0318 65.78 68.6406C66.7642 71.2651 65.78 72.7414 68.2405 74.7099C69.5528 76.5142 69.2248 78.1546 71.3572 77.9905C75.9502 77.4984 79.7229 69.1327 80.7071 65.688C81.6913 62.2433 82.6755 58.3064 83.3317 55.1898C83.8238 52.7293 96.6184 33.2093 99.407 30.9128C103.344 27.7961 112.366 25.6637 113.842 23.6953C115.81 21.0708 109.577 23.5312 108.429 22.383C107.609 21.5628 106.296 21.2348 103.016 20.5787C98.4228 19.5945 92.5176 17.134 81.6913 20.5787C73.3256 23.2032 69.0607 27.7962 65.4519 35.1777C60.6949 44.3636 61.3511 53.5495 61.023 57.4863Z" fill="#471500"/>
<path d="M70.5819 69.8781C71.074 71.8465 72.0582 73.979 73.3705 75.2913C74.0266 75.9474 74.6827 76.6035 75.5029 76.9316C81.5722 79.064 78.6196 67.0896 77.3073 64.7931C75.995 62.6606 72.8784 62.4966 71.238 64.6291C70.0898 66.2694 70.0898 68.0738 70.5819 69.8781Z" fill="#A85027"/>
<path d="M76.3256 72.8251C76.1616 72.8251 75.9976 72.6611 75.9976 72.4971C75.5055 70.6927 74.5213 69.0524 73.373 67.7401C73.209 67.5761 73.209 67.248 73.373 67.084C73.5371 66.9199 73.8651 66.9199 74.0292 67.084C75.3414 68.5603 76.3256 70.3646 76.8177 72.169C76.8177 72.4971 76.8177 72.6611 76.3256 72.8251C76.4897 72.8251 76.4897 72.8251 76.3256 72.8251Z" fill="#782F1C"/>
<path d="M108.141 23.8589C108.797 22.0545 88.1286 25.4992 92.8856 18.2817C94.69 17.4616 110.273 16.1493 113.718 16.4774C119.951 17.1335 127.169 17.9537 134.714 26.1554C144.228 36.4895 145.541 54.5332 140.291 63.3911C139.143 65.3595 133.566 61.0945 133.566 61.0945C133.402 60.7665 131.106 59.4542 130.941 59.1262C130.777 58.6341 130.942 58.7981 130.778 58.306L128.809 52.0727C127.825 46.3315 128.317 37.4737 118.967 32.7167C114.046 30.0922 107.321 25.6633 108.141 23.8589Z" fill="#471500"/>
<path d="M75.6675 79.0655C77.0264 79.0655 78.128 77.9639 78.128 76.605C78.128 75.2461 77.0264 74.1445 75.6675 74.1445C74.3086 74.1445 73.207 75.2461 73.207 76.605C73.207 77.9639 74.3086 79.0655 75.6675 79.0655Z" fill="#FFF15E"/>
<path d="M131.605 73.6523C131.277 74.8006 131.113 75.7848 130.621 76.933C130.457 77.4251 130.293 77.7532 130.129 78.2453C130.293 78.2453 130.457 78.2453 130.457 78.2453C131.769 78.2453 132.917 77.0971 132.917 75.7848C133.082 74.8006 132.425 73.9804 131.605 73.6523Z" fill="#FFF15E"/>
<path d="M109.295 26.0806C109.295 26.0806 108.639 23.128 107.819 22.3078C106.507 20.8315 101.094 17.7148 101.094 17.7148" fill="#782F1C"/>
<path d="M95.5137 73.1495C91.0848 72.9854 87.476 70.1969 86.1637 66.096C85.3436 63.1434 85.3436 59.6987 87.312 58.8785C89.6085 57.8943 99.2865 57.2382 103.715 59.6987C105.192 60.5189 106.012 61.6671 106.176 63.1434C106.34 67.5723 103.551 72.4933 97.154 73.1495C96.4979 73.1495 96.0058 73.1495 95.5137 73.1495ZM95.5137 59.2066C92.233 59.0425 89.1164 59.5346 87.9681 60.0268C86.9839 60.5189 86.6558 62.9794 87.476 65.7679C88.7883 69.8688 92.7251 72.3293 96.99 72.0012C103.059 71.3451 105.028 66.7521 104.864 63.1434C104.864 62.1592 104.207 61.339 103.059 60.6829C101.255 59.6987 98.3022 59.2066 95.5137 59.2066Z" fill="#2F1600"/>
<path d="M87.4806 59.3788C87.8087 59.2148 88.4648 59.0508 89.1209 58.8867C88.1367 59.0508 84.692 59.0508 84.528 59.2148C84.3639 59.3788 84.528 59.8709 84.528 60.199C84.528 60.5271 86.0043 61.6753 86.1683 63.1516C86.1683 61.3472 86.6604 59.8709 87.4806 59.3788Z" fill="#2F1600"/>
<path d="M86.9858 63.8076H85.6735V63.3155C85.6735 62.4954 85.0174 61.8392 84.5253 61.3471C84.1972 61.0191 84.0332 60.691 84.0332 60.3629V60.0349C84.0332 59.5428 84.0332 59.2147 84.1972 58.8866C84.3613 58.7226 84.5253 58.7226 86.0016 58.5586C86.9858 58.5586 88.2981 58.3945 88.9542 58.3945C88.9542 58.3945 88.9542 58.3945 89.1183 58.3945L89.4463 59.5428C89.4463 59.5428 89.4463 59.5428 89.2823 59.5428C88.4621 59.7068 88.1341 59.8708 87.97 59.8708C87.4779 60.1989 86.8218 61.1831 86.9858 63.1515V63.8076ZM85.1814 60.1989C85.1814 60.1989 85.3455 60.3629 85.5095 60.527C85.5095 60.691 85.6735 60.691 85.8376 60.855C86.0016 60.527 86.1656 60.1989 86.3297 59.8708H86.1656C85.8376 59.8708 85.5095 59.8708 85.3455 59.8708C85.3455 59.8708 85.3455 59.8708 85.3455 60.0349L85.1814 60.1989Z" fill="#2F1600"/>
<path d="M120.781 72.4876C120.617 72.4876 120.617 72.4876 120.453 72.4876C113.892 72.1596 110.939 67.4026 110.775 62.8096C110.775 61.3333 111.432 60.1851 112.908 59.3649C117.173 56.5763 126.851 56.9044 129.147 57.7246C131.116 58.5447 131.444 61.8254 130.788 64.9421C129.803 69.535 125.702 72.6517 120.781 72.4876ZM112.088 62.8096C112.252 66.4184 114.548 70.8473 120.617 71.1754C125.046 71.5034 128.655 68.7148 129.639 64.614C130.295 61.6614 129.803 59.2009 128.819 58.8728C126.523 58.0526 117.501 58.0526 113.728 60.3491C112.58 61.1693 112.088 61.8254 112.088 62.8096Z" fill="#2F1600"/>
<path d="M128.98 58.3789C128.652 58.2148 127.996 58.0508 127.34 58.0508C128.488 58.2148 131.769 58.0508 131.933 58.2148C132.097 58.3788 131.933 58.871 131.933 59.199C131.933 59.5271 130.456 60.6753 130.456 62.3157C130.456 60.1832 129.964 58.7069 128.98 58.3789Z" fill="#2F1600"/>
<path d="M131.277 62.8116H129.964V62.1554C129.964 60.187 129.308 59.2028 128.816 58.8747C128.488 58.7107 127.996 58.7107 127.504 58.5467C127.504 58.5467 127.504 58.5467 127.34 58.5467L127.504 57.3984C127.504 57.3984 127.504 57.3984 127.668 57.3984C128.324 57.3984 129.636 57.3984 130.621 57.3984C132.097 57.3984 132.261 57.3984 132.425 57.5625C132.753 57.7265 132.753 58.2186 132.753 58.7107V59.0388C132.753 59.3668 132.589 59.6949 132.261 60.023C131.933 60.5151 131.277 61.3353 131.277 62.1554V62.8116ZM130.292 58.7107C130.456 59.0388 130.621 59.3668 130.785 59.6949C130.949 59.5309 130.949 59.5309 130.949 59.3668C131.113 59.2028 131.113 59.0388 131.277 59.0388V58.8747C131.277 58.8747 131.277 58.8747 131.277 58.7107C131.113 58.7107 130.785 58.7107 130.456 58.7107H130.292Z" fill="#2F1600"/>
<path d="M113.067 59.5352C111.59 60.3553 105.029 60.5194 103.553 59.6992V60.1913C104.701 60.8474 105.357 61.8316 105.357 62.9799C105.685 62.4878 106.833 61.9957 108.31 61.8316C109.786 61.6676 110.934 62.3237 111.262 62.8158C111.262 61.6676 111.918 60.6834 112.903 60.0273L113.067 59.5352Z" fill="#2F1600"/>
<path d="M66.6484 59.8709C66.9765 60.363 67.9607 61.0192 68.2888 61.3472C70.2572 61.3472 72.2256 61.3472 75.0142 61.1832C79.4431 61.0192 83.3799 61.0192 84.6922 61.0192V58.8867L66.6484 59.8709Z" fill="#2F1600"/>
<path d="M100.604 228.006C101.424 226.858 102.572 223.741 107.001 222.101C111.43 220.296 116.351 218.656 118.155 217.344C119.96 216.032 121.272 216.36 122.092 217.18C122.912 217.836 123.404 220.132 121.436 223.085C119.303 226.038 105.853 231.451 105.853 231.451C105.853 231.451 99.7834 229.318 100.604 228.006Z" fill="#A85027"/>
<path d="M108.637 224.23L110.277 223.902C110.277 223.902 114.87 222.918 117.167 222.426C119.299 221.934 122.908 221.77 124.712 221.77C126.517 221.77 128.485 222.098 129.141 223.41C130.289 225.542 129.469 227.511 128.321 228.823C128.321 228.823 129.633 229.151 130.289 229.971C131.274 231.283 130.781 233.252 130.453 234.236C129.797 235.548 128.485 236.04 128.485 236.04C128.485 236.04 129.961 236.861 130.617 237.681C131.438 239.157 131.438 240.469 130.781 241.618C130.125 242.766 128.813 243.422 128.813 243.422C128.813 243.422 130.453 244.406 130.617 246.047C130.781 247.851 130.617 248.999 128.485 250.311C127.009 251.296 120.447 253.264 113.558 254.084C105.52 254.904 104.208 254.576 104.864 250.311C105.52 247.031 106.012 244.242 106.012 244.242C106.012 244.242 101.091 227.839 102.896 226.362C104.7 224.886 108.637 224.23 108.637 224.23Z" fill="#A85027"/>
</svg>
