<svg width="303" height="97" viewBox="0 0 303 97" fill="none" xmlns="http://www.w3.org/2000/svg">
<path d="M276.626 57.6997C270.133 51.196 259.644 51.196 253.151 57.6997C246.658 64.2034 236.169 64.2034 229.676 57.6997L186.832 14.7862C177.398 5.33639 164.523 0 151.148 0C137.773 0 124.953 5.33639 115.463 14.7862L96.095 34.1862C85.6615 44.6367 71.5098 50.5289 56.6922 50.5289C41.9855 50.5289 27.8892 56.3656 17.4558 66.7049C13.238 70.8739 8.29883 75.8768 2.63814 81.5467C-3.02254 87.2722 1.02872 97 9.07577 97H293.941C301.988 97 306.04 87.2166 300.324 81.4911L276.626 57.6997Z" fill="white"/>
</svg>
