<svg width="70" height="64" viewBox="0 0 70 64" fill="none" xmlns="http://www.w3.org/2000/svg">
<path d="M65.0441 63.7106H4.25322C1.90641 63.7106 0 61.8042 0 59.4574V4.54228C0 2.19548 1.90641 0.289062 4.25322 0.289062H65.0441C67.3909 0.289062 69.2973 2.19548 69.2973 4.54228V59.4574C69.2973 61.81 67.3909 63.7106 65.0441 63.7106Z" fill="#EDF1F4"/>
<path d="M46.2028 4.65435L10.3438 30.9727L31.1145 59.2731L66.9736 32.9548L46.2028 4.65435Z" fill="#1C847A"/>
<path fill-rule="evenodd" clip-rule="evenodd" d="M10.3457 30.9745L35.1523 5.82031L59.9878 30.314L31.2467 59.4549L10.3457 30.9745Z" fill="#2AC3B4"/>
<path fill-rule="evenodd" clip-rule="evenodd" d="M11.7891 32.9398L31.6876 12.7631C33.6346 14.6811 36.7926 14.6579 38.7106 12.7109L53.0464 26.8497C51.1284 28.7967 51.1516 31.9547 53.0928 33.8727L29.8044 57.4914L28.4253 55.6082C28.9989 55.2431 29.5378 54.8143 30.0304 54.316C34.1967 50.0917 33.4376 42.5935 28.3384 37.5696C23.8418 33.1368 17.4677 32.1054 13.1682 34.823L11.7891 32.9398ZM31.8151 26.983C29.8913 28.9299 29.9145 32.0706 31.8673 33.9944C33.8142 35.9182 36.9549 35.895 38.8787 33.948C40.8025 32.0011 40.7793 28.8604 38.8323 26.9366C36.8738 25.0128 33.7331 25.036 31.8151 26.983ZM27.417 53.0354L29.0395 51.3897L27.2722 49.6455C28.6223 47.5247 28.2572 45.3865 26.6232 43.7756C24.398 41.5853 21.6862 43.0629 19.6813 43.7003L21.5877 46.3021C22.764 45.9254 23.778 45.7052 24.4328 46.3426C25.2151 47.1133 25.1861 47.9245 24.2474 48.8749C24.1025 49.0255 23.9461 49.1588 23.778 49.2805L25.4527 51.5635C25.5454 51.4998 25.6323 51.4303 25.7192 51.3607L27.417 53.0354ZM17.7922 41.1217C18.4586 40.5249 19.2293 40.3163 20.3071 40.2583L20.1217 37.5928C18.7715 37.5696 17.4562 37.813 16.2335 38.7517L15.5903 38.1201L17.7922 41.1217Z" fill="#1C847A"/>
<path fill-rule="evenodd" clip-rule="evenodd" d="M18.8202 28.1647C24.4345 28.1647 28.9847 32.715 28.9847 38.3293C28.9847 43.9437 24.4345 48.4939 18.8202 48.4939H18.8156H17.1597V48.3563C12.3389 47.5582 8.66016 43.3703 8.66016 38.3247C8.66016 33.2791 12.3389 29.0913 17.1597 28.2978V28.1602L18.8202 28.1647Z" fill="#FFDD30"/>
<path fill-rule="evenodd" clip-rule="evenodd" d="M27.9307 42.832C27.3482 44.0063 26.5409 45.0567 25.573 45.919H22.0273V42.832H27.9307Z" fill="#FFDD30"/>
<path fill-rule="evenodd" clip-rule="evenodd" d="M25.2189 30.4297C26.7142 31.6452 27.8609 33.2736 28.4756 35.145H15.8203V30.4297H25.2189ZM28.8517 36.6862C28.9389 37.2183 28.9847 37.7642 28.9847 38.3238C28.9847 38.4017 28.9847 38.4751 28.9801 38.5531H23.0309V36.6862H28.8517Z" fill="#FFF07F"/>
<path fill-rule="evenodd" clip-rule="evenodd" d="M23.931 30.7488C28.1142 34.4871 28.4766 40.9134 24.7383 45.0966C20.9999 49.2799 14.5737 49.6422 10.3904 45.9039C6.20716 42.1656 5.8448 35.7393 9.58312 31.5561C13.3215 27.3682 19.7477 27.0104 23.931 30.7488Z" fill="#FFF377"/>
<path fill-rule="evenodd" clip-rule="evenodd" d="M22.8754 31.932C26.4073 35.0877 26.71 40.5095 23.5542 44.0414C20.3984 47.5733 14.9767 47.876 11.4448 44.7202C7.91288 41.5645 7.61015 36.1427 10.7659 32.6108C13.9217 29.0789 19.3435 28.7762 22.8754 31.932Z" fill="#E2C103"/>
<path fill-rule="evenodd" clip-rule="evenodd" d="M12.2657 42.9021L13.3941 43.9112L14.4766 42.7003C15.9031 43.5168 17.2929 43.2049 18.2883 42.0902C20.2744 39.8656 17.1186 37.2144 18.1094 36.1089C18.5773 35.586 19.0772 35.6365 19.6368 36.1318C20.1276 36.5676 20.3111 37.0905 20.3845 37.8474L22.1184 37.6409C22.0908 36.7603 21.889 35.9071 21.2377 35.1365L22.2881 33.9622L21.1597 32.9531L20.0909 34.1503C18.7974 33.3935 17.4168 33.5815 16.3985 34.7237C14.527 36.8199 17.6186 39.5399 16.5499 40.7417C16.0728 41.2784 15.5407 41.2829 14.8894 40.7004C14.3298 40.2004 14.0271 39.5124 13.8298 38.54L12.0547 39.0262C12.1556 40.017 12.6969 41.0444 13.3115 41.7416L12.2657 42.9021Z" fill="#FFF377"/>
<path fill-rule="evenodd" clip-rule="evenodd" d="M42.5838 18C48.1982 18 52.7438 22.5502 52.7438 28.1646C52.7438 33.779 48.1936 38.3292 42.5838 38.3292H42.5792H40.9234V38.1916C36.1025 37.398 32.4238 33.2102 32.4238 28.1646C32.4238 23.119 36.1025 18.9311 40.9234 18.1376V18H42.5838Z" fill="#FFDD30"/>
<path fill-rule="evenodd" clip-rule="evenodd" d="M51.6885 32.6719C51.106 33.8507 50.2987 34.8965 49.3308 35.7589H45.7852V32.6719H51.6885Z" fill="#FFDD30"/>
<path fill-rule="evenodd" clip-rule="evenodd" d="M48.9767 20.2656C50.472 21.4812 51.6188 23.1095 52.2334 24.981H39.5781V20.2656H48.9767ZM52.6095 26.5268C52.6967 27.0588 52.7425 27.6047 52.7425 28.1643C52.7425 28.2423 52.7425 28.3156 52.738 28.3936H46.7887V26.5268H52.6095Z" fill="#FFF07F"/>
<path fill-rule="evenodd" clip-rule="evenodd" d="M32.9739 21.8326C36.4737 17.443 42.8678 16.7228 47.2529 20.218C51.6426 23.7178 52.3627 30.112 48.8675 34.4971C45.3677 38.8867 38.9735 39.6069 34.5885 36.1117C30.1988 32.6164 29.4741 26.2223 32.9739 21.8326Z" fill="#FFF377"/>
<path fill-rule="evenodd" clip-rule="evenodd" d="M34.2108 22.8173C37.1648 19.1111 42.559 18.5056 46.2652 21.455C49.9714 24.409 50.5815 29.8032 47.6275 33.5094C44.6736 37.2156 39.2794 37.8257 35.5731 34.8717C31.8669 31.9177 31.2569 26.5235 34.2108 22.8173Z" fill="#E2C103"/>
<path fill-rule="evenodd" clip-rule="evenodd" d="M45.7601 32.7947L46.705 31.6112L45.4344 30.5975C46.1683 29.1251 45.7785 27.7582 44.6088 26.8271C42.2786 24.9694 39.8063 28.2674 38.6458 27.3454C38.0954 26.9097 38.1183 26.4051 38.5862 25.818C38.9944 25.3043 39.5036 25.0933 40.2558 24.974L39.9485 23.2539C39.0678 23.3319 38.2284 23.5796 37.4991 24.2768L36.2652 23.2952L35.3203 24.4786L36.5771 25.4786C35.8937 26.8133 36.1597 28.1802 37.3569 29.1343C39.554 30.8865 42.0998 27.6436 43.3566 28.6435C43.9208 29.093 43.9575 29.6205 43.4116 30.304C42.9437 30.8911 42.2741 31.2305 41.3108 31.4874L41.8979 33.2304C42.8795 33.0745 43.8795 32.4736 44.54 31.8222L45.7601 32.7947Z" fill="#FFF377"/>
</svg>
