<svg width="281" height="703" viewBox="0 0 281 703" fill="none" xmlns="http://www.w3.org/2000/svg">
<path d="M197.822 154.662C199.199 145.029 210.896 139.869 218.809 143.653C226.206 147.266 230.85 154.662 235.839 161.199C241.687 168.768 247.708 175.993 253.557 183.562C254.761 185.11 255.965 186.658 256.825 188.206C267.662 205.408 261.298 235.34 238.763 216.417C234.291 212.633 230.506 207.644 226.894 202.656C219.497 192.679 212.1 182.702 204.703 172.552C201.607 168.424 198.51 163.951 197.65 158.619C197.65 157.415 197.65 156.039 197.822 154.662Z" fill="#EDAD72"/>
<path d="M188.535 130.923C190.428 141.933 191.632 151.91 195.932 162.231C199.373 170.488 202.813 178.573 206.425 186.83C207.629 186.142 208.662 184.937 210.038 184.593C226.896 181.497 233.088 174.1 241.517 164.295C242.033 163.607 242.377 162.919 242.033 162.231C235.325 151.05 229.304 139.352 223.971 127.483C221.391 121.978 219.327 117.162 215.714 112.517C210.21 105.636 199.889 101.68 192.32 107.701C187.675 111.485 186.127 116.302 187.159 122.15C187.503 125.075 188.019 127.999 188.535 130.923Z" fill="#89CBEA"/>
<path d="M157.227 3.80233C151.894 -0.498157 144.153 -1.01422 137.789 1.56608C129.188 5.00646 122.995 13.7795 119.727 22.2084C114.91 34.9378 110.438 47.8393 106.137 60.9128C104.589 65.7293 103.213 71.2339 105.793 75.3624C108.545 79.4909 114.05 80.351 118.867 80.0069C123.683 79.6629 128.672 78.4588 133.488 79.6629C137.101 80.523 140.541 82.9313 144.153 82.4152C148.626 81.8992 151.722 77.4267 152.582 72.9541C153.27 68.4816 152.238 64.0091 151.722 59.5366C149.658 44.3989 153.098 30.8094 160.323 17.7359C163.076 12.9194 161.355 7.0707 157.227 3.80233Z" fill="black"/>
<path d="M178.727 450.024C178.039 459.141 179.415 468.43 177.695 478.063C177.007 482.019 175.975 486.492 177.695 490.104C178.727 492.168 180.62 493.889 181.996 495.781C188.188 505.07 205.734 500.941 208.659 509.026C210.723 514.703 194.209 534.313 198.51 538.786C202.81 543.258 209.347 546.01 215.54 544.806C228.785 542.054 225.861 523.992 225.517 514.187C225.345 507.65 224.829 503.178 229.989 498.705C236.87 492.684 238.762 488.04 239.106 478.751C239.45 464.129 239.794 448.647 235.15 434.714C232.742 427.145 227.581 419.92 220.012 416.652C206.423 410.803 192.317 420.608 184.92 431.445C180.62 437.294 179.071 443.487 178.727 450.024Z" fill="#28897A"/>
<path d="M84.6334 447.098C76.8925 467.913 78.7847 486.835 82.7412 509.369C84.4614 519.002 85.1494 528.98 91.1701 537.064C94.7825 542.053 100.631 545.665 106.824 545.149C119.037 544.117 124.198 529.668 126.778 519.691C129.874 507.649 137.443 495.264 138.475 482.706C139.508 469.289 141.4 451.399 138.992 437.981C137.443 430.068 133.487 422.327 126.606 418.199C117.317 412.522 105.276 416.651 97.8789 424.048C93.5784 428.176 90.6541 433.509 87.9018 438.841C86.6976 441.766 85.6655 444.518 84.6334 447.098Z" fill="#28897A"/>
<path d="M205.05 220.034C203.329 217.626 201.609 215.217 199.717 212.981C192.492 203.864 182.515 194.747 170.646 195.263C160.669 195.779 152.068 203.176 147.767 212.293C143.639 221.238 143.123 231.387 143.467 241.192C144.499 278.004 157.916 312.408 163.249 348.532C166.001 366.938 169.442 385.689 173.914 403.751C176.666 414.932 178.215 426.113 179.935 437.639C181.139 446.067 182.687 454.84 188.02 461.549C192.32 466.882 198.857 470.322 205.566 470.838C212.447 471.354 219.327 468.774 224.316 463.957C231.885 456.561 233.949 445.379 234.121 434.714C234.637 414.072 236.873 393.774 237.561 373.131C239.282 321.353 235.841 264.243 205.05 220.034Z" fill="#28897A"/>
<path d="M80.6763 366.763C82.5685 391.705 82.0525 417.336 86.697 442.107C88.5892 452.084 92.2016 463.438 101.663 467.394C111.984 471.867 123.853 465.33 130.906 456.729C139.507 446.064 143.635 432.818 146.216 419.573C148.796 406.327 152.58 393.598 155.677 380.352C162.902 349.561 171.159 319.113 177.695 288.322C181.136 271.636 184.576 254.434 181.48 237.748C178.383 221.062 167.202 204.72 150.688 200.592C132.626 196.119 113.876 207.817 104.071 223.47C79.8162 262.519 77.408 322.554 80.6763 366.763Z" fill="#28897A"/>
<path d="M191.285 495.777C185.953 494.573 182.856 489.068 182.684 484.252C182.34 478.747 185.092 473.586 186.985 469.974L187.157 469.63C188.877 466.534 190.941 463.265 189.909 459.997C189.393 458.449 188.361 457.073 187.157 455.696C186.297 454.664 185.265 453.632 184.576 452.428C182.684 448.816 183.544 444.687 184.404 440.559L184.576 439.699C188.705 418.368 181.824 398.242 175.115 378.632L173.911 375.363C170.127 364.526 167.547 352.485 165.654 338.551C165.654 338.379 165.826 338.207 165.998 338.035C166.17 338.035 166.342 338.207 166.342 338.379C168.235 352.313 170.987 364.182 174.599 375.019L175.803 378.288C182.512 397.898 189.565 418.196 185.265 439.699L185.092 440.559C184.232 444.515 183.544 448.472 185.265 451.74C185.953 452.944 186.813 453.976 187.673 454.836C188.877 456.213 190.081 457.589 190.597 459.481C191.629 463.093 189.565 466.706 187.845 469.802L187.673 470.146C185.781 473.586 183.2 478.575 183.372 483.908C183.544 488.38 186.297 493.541 191.285 494.745C191.457 494.745 191.629 495.089 191.629 495.261C191.629 495.605 191.629 495.777 191.285 495.777Z" fill="#86C695"/>
<path d="M170.472 297.61C170.472 297.61 170.472 297.438 170.472 297.61C170.128 297.61 169.956 297.266 170.128 297.094C176.837 274.559 177.697 260.97 177.697 250.649C177.697 250.477 177.869 250.305 178.041 250.305C178.213 250.305 178.385 250.477 178.385 250.649C178.385 260.97 177.525 274.559 170.816 297.266C170.816 297.438 170.644 297.61 170.472 297.61Z" fill="#86C695"/>
<path d="M94.4387 498.362H94.2667C82.7414 491.309 84.6336 469.634 88.074 459.485C89.1061 456.733 90.3102 454.153 91.6864 451.572C93.5786 447.788 95.6428 443.659 96.3309 439.531C97.191 434.542 96.1589 429.554 95.1268 424.565C94.9547 423.361 94.6107 422.329 94.4387 421.125C90.6543 399.966 93.0625 377.432 95.2988 355.757C96.3309 345.608 97.535 334.943 97.8791 324.794V324.45C98.2231 317.913 98.3951 311.032 99.0832 304.496C100.803 287.638 104.76 270.952 111.125 255.126C111.297 254.954 111.469 254.782 111.641 254.954C111.813 254.954 111.985 255.298 111.813 255.47C105.448 271.124 101.491 287.638 99.7713 304.496C99.0832 311.204 98.7392 317.913 98.5671 324.45V324.794C98.0511 334.943 97.019 345.608 95.9869 355.757C93.7506 377.432 91.3423 399.794 95.1268 420.953C95.2988 422.157 95.6428 423.189 95.8148 424.393C96.847 429.382 97.8791 434.542 97.019 439.703C96.3309 444.175 94.2667 448.132 92.3745 452.088C91.1703 454.669 89.7942 457.249 88.762 459.829C85.3217 469.634 83.4294 490.965 94.6107 497.673C94.7827 497.846 94.7827 498.018 94.7827 498.19C94.7827 498.362 94.6107 498.362 94.4387 498.362Z" fill="#86C695"/>
<path d="M115.427 606.044C121.448 568.544 128.845 534.828 136.241 497.5C136.413 496.468 135.553 495.608 134.521 495.78C116.287 499.736 98.0531 498.016 79.819 493.716C78.6149 493.371 77.2387 494.404 77.2387 495.608C77.2387 497.672 77.0667 499.736 77.0667 501.8C75.6906 536.548 80.6791 570.952 81.5392 605.356C82.0553 627.891 80.8511 650.425 77.9268 672.616C77.5828 675.024 77.4108 677.948 79.131 679.841C80.3351 681.045 81.8833 681.389 83.6035 681.733C83.9475 681.733 84.1195 681.905 84.4636 681.905C86.8718 681.045 89.4521 680.701 92.0324 680.701C97.8811 680.701 103.73 681.905 109.578 682.249" fill="#677167"/>
<path d="M255.105 675.708C249.257 669.86 242.204 665.387 236.355 659.539C227.238 650.594 228.27 637.52 227.754 625.479C225.69 582.646 233.259 543.253 235.667 501.109C235.839 499.044 233.947 497.324 231.883 497.496C223.11 498.7 201.951 501.109 186.298 498.7C181.309 497.84 181.653 505.409 181.997 508.85C183.201 524.331 185.609 541.361 188.19 556.671C195.759 603.632 197.651 634.596 194.21 674.676C194.038 676.396 194.038 678.461 195.071 679.665C196.103 680.869 197.995 681.041 199.543 681.041C209.176 681.557 218.637 682.073 228.27 682.589C237.043 683.105 246.504 684.481 255.277 682.417C255.965 682.245 256.653 682.073 257.17 681.729C257.686 681.385 258.202 680.697 258.202 680.009C258.374 678.461 256.137 676.741 255.105 675.708Z" fill="#677167"/>
<path d="M205.562 520.719C199.198 520.719 192.661 520.031 184.92 518.483L185.092 517.623C204.186 521.579 216.399 520.031 233.773 515.73L233.945 516.419C223.452 518.999 214.851 520.719 205.562 520.719Z" fill="#677167"/>
<path d="M111.471 517.973C101.494 517.973 91.1724 516.94 78.959 514.36L79.131 513.5C98.9132 517.8 113.535 517.628 130.565 516.08V516.94C124.028 517.456 117.663 517.973 111.471 517.973Z" fill="#BBB6A5"/>
<path d="M223.796 243.936C223.108 241.183 222.076 238.431 220.871 235.851C216.743 228.282 208.314 224.154 207.97 214.692C207.798 211.424 208.83 208.156 209.862 204.887C215.883 185.105 215.883 173.236 211.754 152.765C208.658 137.456 226.032 125.93 214.851 110.965C211.238 106.148 205.734 102.88 200.057 100.128C188.704 96.5151 179.759 91.8706 167.201 90.6664C150.688 88.9462 125.745 88.9462 109.747 93.4187C99.9418 96.1711 92.373 103.224 90.9968 105.804C75.343 134.875 110.091 185.449 108.371 209.876C106.823 232.066 78.6114 243.076 85.1481 282.468C85.6642 285.392 82.7399 263.546 84.116 266.126C85.4922 268.707 88.2445 270.943 91.3408 271.115C92.717 271.287 94.2652 270.943 95.6413 270.771C99.4258 270.083 103.21 269.567 106.823 269.051C121.616 266.986 135.55 266.47 151.204 266.47C166.169 266.642 180.963 268.191 195.929 268.363C203.153 268.363 224.312 273.007 227.924 264.75C229.128 262.17 228.096 259.073 227.236 256.321C225.688 252.365 224.828 248.064 223.796 243.936Z" fill="#89CBEA"/>
<path d="M171.846 109.251C170.814 109.251 169.782 109.251 168.578 109.079C158.945 108.563 147.592 107.186 136.582 101.682C134.002 100.478 129.358 97.2093 129.874 94.113C130.218 91.8767 132.97 90.5006 138.131 89.8125C138.475 89.8125 138.647 89.9845 138.647 90.1565C138.647 90.5006 138.475 90.6726 138.303 90.6726C133.658 91.5327 131.078 92.7368 130.906 94.457C130.562 96.5213 133.83 99.4456 137.098 100.994C148.108 106.326 159.289 107.703 168.75 108.219C174.427 108.563 181.824 108.219 183.888 104.434C184.404 103.746 184.404 102.886 184.06 102.026C182.856 98.9295 177.695 95.8332 173.051 94.113C172.879 93.941 172.706 93.769 172.706 93.4249C172.879 93.2529 173.051 93.0809 173.395 93.0809C177.867 94.8011 183.544 98.0694 184.92 101.682C185.264 102.886 185.264 103.918 184.748 104.95C183.028 107.875 178.727 109.251 171.846 109.251Z" fill="#B4DEEF"/>
<path d="M178.901 101.855C178.901 101.683 178.901 101.511 178.901 101.339C178.557 99.6187 176.664 97.5545 176.148 95.6623C175.46 93.598 175.116 91.5338 174.944 89.4696C174.6 85.5131 174.772 81.3847 174.944 77.6002C175.288 70.7194 177.181 57.474 173.224 51.2813C169.612 45.7766 159.119 44.4005 153.614 46.6367C146.561 49.5611 141.917 56.9579 141.228 64.6988C140.712 70.2034 140.884 75.88 140.712 81.5567C140.712 84.9971 140.368 89.1255 137.444 91.1898C136.928 91.5338 136.24 91.8778 135.896 92.5659C132.8 98.0705 148.797 101.855 151.55 102.543C155.506 103.403 179.073 108.392 178.901 101.855Z" fill="#EDAD72"/>
<path d="M214.165 183.221C213.993 183.221 213.821 183.049 213.821 182.877C213.476 174.448 210.896 165.331 208.144 155.697C205.908 147.785 203.499 139.528 201.951 130.411C201.951 130.239 202.123 130.067 202.295 129.895C202.467 129.895 202.639 130.067 202.811 130.239C204.359 139.356 206.768 147.613 209.004 155.525C211.756 165.159 214.337 174.276 214.681 182.877C214.681 183.049 214.509 183.221 214.165 183.221Z" fill="#B4DEEF"/>
<path d="M57.9693 281.096C56.7651 284.88 55.733 288.836 56.9371 292.621C58.1413 296.405 61.5817 298.814 64.85 300.706C81.0199 309.307 100.114 307.243 118.004 305.006C120.756 304.662 123.509 304.318 125.745 302.598C128.841 300.19 130.045 296.061 130.906 292.105C132.626 285.396 134.174 278.687 135.894 271.979C137.614 265.442 139.334 258.389 143.979 253.745C147.935 249.616 153.44 247.724 158.773 246.52C169.61 244.111 180.791 243.423 191.8 244.972C202.982 246.52 214.507 250.476 221.732 259.593C227.236 266.474 229.817 275.247 231.709 284.192C233.257 291.933 234.289 299.674 234.977 307.415C235.149 310.167 235.493 313.263 237.386 315.155C242.718 320.144 245.642 312.747 248.051 309.823C249.083 308.619 250.803 308.619 252.007 307.759C254.243 306.038 253.727 302.426 253.211 299.502C251.663 292.621 250.287 285.74 249.255 278.687C249.083 277.827 249.083 276.795 249.427 276.107C249.771 275.075 250.803 274.559 251.319 273.699C252.007 272.495 251.835 270.946 251.491 269.57C250.115 262.173 249.083 256.153 246.159 249.272C244.782 245.832 242.89 241.875 239.278 241.015C237.386 240.499 235.321 241.187 233.429 240.327C232.225 239.811 231.193 238.607 230.333 237.575C227.58 234.134 224.656 230.694 221.904 227.253C221.388 226.737 220.872 226.049 220.356 226.049C219.496 225.877 218.635 226.393 217.947 226.909C207.282 234.65 193.865 236.371 181.135 237.231C152.752 238.779 124.197 236.887 95.9856 233.618C92.8892 233.274 89.6208 232.586 87.9006 229.834C87.2126 228.802 86.8685 227.598 86.0084 226.737C84.2882 225.361 81.7079 226.909 80.6758 228.802C71.5588 244.972 63.4739 262.69 57.9693 281.096Z" fill="#677167"/>
<path d="M122.648 311.715L123.164 306.211V306.039L132.625 270.259L128.841 269.227L119.38 305.007C119.38 305.007 119.38 305.007 119.208 305.179L116.971 310.339C116.971 310.511 116.799 310.683 116.799 310.855C116.799 311.027 116.627 311.199 116.627 311.371L116.283 316.016C116.283 316.704 116.627 317.392 117.315 317.564L118.691 317.908C119.38 318.08 120.068 317.736 120.412 317.048L122.304 312.747C122.304 312.575 122.476 312.403 122.476 312.231C122.476 312.059 122.648 311.887 122.648 311.715Z" fill="#BBB6A5"/>
<path d="M135.721 273.356L124.368 270.431C123.852 270.259 123.507 269.743 123.68 269.227L132.969 233.963C133.141 233.447 133.657 233.103 134.173 233.275L145.526 236.2C146.042 236.372 146.386 236.888 146.214 237.404L136.925 272.668C136.753 273.184 136.237 273.356 135.721 273.356Z" fill="#DFDBD6"/>
<path d="M135.378 264.926C135.206 264.926 135.034 264.926 135.034 264.754C134.346 263.722 134.174 262.345 134.518 261.141L139.506 242.047C139.506 241.875 139.85 241.703 140.022 241.703C140.194 241.703 140.366 242.047 140.366 242.219L135.206 261.313C134.862 262.345 135.034 263.378 135.55 264.41C135.722 264.582 135.55 264.926 135.378 264.926C135.378 264.926 135.55 264.926 135.378 264.926Z" fill="#BBB6A5"/>
<path d="M71.9029 301.738L72.763 296.234V296.062L85.1484 261.142L81.364 259.766L68.9786 294.686C68.9786 294.686 68.9786 294.686 68.8066 294.858L66.0543 299.674C66.0543 299.846 65.8823 300.018 65.8823 300.19C65.8823 300.362 65.7102 300.534 65.7102 300.706L64.8501 305.351C64.6781 306.039 65.1942 306.727 65.7102 306.899L67.0864 307.415C67.7745 307.587 68.4626 307.415 68.8066 306.727L71.0429 302.598C71.0429 302.426 71.2149 302.254 71.2149 302.082C71.7309 302.082 71.9029 301.91 71.9029 301.738Z" fill="#BBB6A5"/>
<path d="M88.0703 264.411L77.061 260.454C76.545 260.282 76.373 259.766 76.545 259.25L88.5863 224.846C88.7584 224.33 89.2744 224.158 89.7905 224.33L100.8 228.287C101.316 228.459 101.488 228.975 101.316 229.491L89.2744 263.895C89.1024 264.411 88.5863 264.583 88.0703 264.411Z" fill="#DB2685"/>
<path d="M92.5453 333.742L89.621 334.43C85.1485 335.29 81.8801 332.366 82.9122 328.581L98.2219 273.879C98.91 271.299 101.318 269.234 104.243 268.546L107.167 267.858C111.639 266.998 114.908 269.922 113.876 273.707L98.566 328.409C97.8779 331.161 95.4696 333.226 92.5453 333.742Z" fill="#FFF15E"/>
<path d="M146.218 213.672L140.713 213.328C139.853 213.328 138.821 214.016 138.649 214.704C138.477 214.704 138.649 214.704 138.649 215.048L138.477 215.564C138.133 216.08 137.273 216.596 134.348 216.252L127.295 215.908C127.811 214.188 126.607 212.64 124.715 212.64L120.587 212.468C118.694 212.296 116.802 213.672 116.286 215.392L98.5682 214.532C96.848 214.532 95.1278 215.564 94.7837 217.284C94.4397 218.832 95.2998 220.209 97.02 220.209C99.4283 220.381 101.837 220.381 103.557 220.897C107.685 221.929 111.814 225.025 113.19 228.982C113.534 229.842 113.706 230.702 113.706 231.562L104.245 265.45H113.19L116.114 254.268L121.963 233.11V232.938C121.963 232.766 122.135 232.422 122.135 232.25L122.651 230.702C122.823 230.186 123.167 229.67 123.683 229.154C133.488 221.241 133.66 232.422 133.66 232.422C133.488 233.282 134.004 233.97 134.864 233.97L140.369 234.314C141.229 234.314 142.261 233.626 142.433 232.938L147.422 215.22C147.594 214.36 147.078 213.672 146.218 213.672Z" fill="#DFDBD2"/>
<path d="M127.812 272.157C126.264 271.985 124.888 271.469 123.512 270.953C122.652 274.221 121.792 277.49 120.932 280.758C124.2 281.102 127.64 280.758 130.909 280.414C131.597 280.414 132.113 280.242 132.801 280.07C133.489 277.49 134.177 274.91 134.865 272.501C132.457 272.501 130.049 272.501 127.812 272.157Z" fill="#677167"/>
<path d="M111.126 261.146C108.89 260.802 106.826 260.114 105.106 259.254C103.558 262.522 101.837 265.619 100.117 268.715C100.633 269.059 101.321 269.231 101.837 269.403C105.45 270.435 109.75 270.091 113.707 269.575C114.567 266.823 115.427 264.242 116.459 261.49C114.739 261.49 112.847 261.318 111.126 261.146Z" fill="#677167"/>
<path d="M82.226 262.689C79.9898 262.345 77.9256 261.657 76.2054 260.797C74.6572 264.065 72.937 267.162 71.2168 270.258C71.7329 270.602 72.4209 270.774 72.937 270.946C76.5494 271.978 80.8499 271.634 84.8063 271.118C85.6664 268.366 86.5265 265.785 87.5587 263.033C85.6664 263.205 83.9462 263.033 82.226 262.689Z" fill="#677167"/>
<path d="M247.881 303.284C247.709 303.284 247.537 303.112 247.537 302.94C246.161 284.878 243.065 266.816 238.076 249.614C238.076 249.442 238.076 249.098 238.42 249.098C238.592 249.098 238.936 249.098 238.936 249.442C243.925 266.816 247.021 284.878 248.397 302.94C248.397 303.112 248.225 303.284 247.881 303.284Z" fill="#BBB6A5"/>
<path d="M117.494 271.12C117.322 271.12 117.322 271.12 117.494 271.12C117.15 271.12 116.977 270.776 117.15 270.604L119.214 263.551C119.214 263.379 119.558 263.207 119.73 263.207C119.902 263.207 120.074 263.551 120.074 263.723L118.01 270.776C117.666 270.948 117.666 271.12 117.494 271.12Z" fill="#BBB6A5"/>
<path d="M88.2494 271.632C87.9054 271.632 87.7334 271.288 87.9054 271.116L89.9696 264.063C89.9696 263.891 90.3136 263.719 90.4857 263.719C90.6577 263.719 90.8297 264.063 90.8297 264.235L88.7655 271.288C88.5935 271.46 88.4214 271.632 88.2494 271.632Z" fill="#BBB6A5"/>
<path d="M73.1088 269.229C73.1088 269.229 72.9368 269.229 73.1088 269.229C72.7648 269.229 72.5927 268.885 72.7647 268.713L74.829 261.66C74.829 261.488 75.173 261.316 75.345 261.316C75.5171 261.316 75.6891 261.66 75.6891 261.832L73.6248 268.885C73.4528 269.229 73.2808 269.229 73.1088 269.229Z" fill="#BBB6A5"/>
<path d="M189.565 246.345H160.322C159.118 246.345 158.086 245.313 158.086 244.109V238.776C158.086 237.572 159.118 236.54 160.322 236.54L189.565 235.336C190.77 235.336 191.802 236.368 191.802 237.572V244.109C191.802 245.313 190.77 246.345 189.565 246.345Z" fill="#F7F5F5"/>
<path d="M168.751 167.736H161.182C152.582 167.736 145.185 161.028 144.153 152.427L143.292 144.858C142.776 140.557 144.153 136.257 146.905 132.989C149.657 129.892 153.786 128 158.086 128H165.655C174.256 128 181.653 134.709 182.685 143.31L183.545 150.879C184.061 155.179 182.685 159.48 179.933 162.748C177.18 165.844 173.052 167.736 168.751 167.736ZM158.086 141.245C157.398 141.245 157.054 141.418 156.71 141.762C156.366 142.106 156.194 142.622 156.366 143.31L157.226 150.879C157.398 152.771 159.29 154.491 161.182 154.491H168.751C169.439 154.491 169.783 154.319 170.127 153.975C170.472 153.631 170.644 153.115 170.472 152.427L169.611 144.858C169.439 142.966 167.547 141.245 165.655 141.245H158.086Z" fill="#CFE9F3"/>
<path d="M171.503 193.541H163.934C155.333 193.541 147.937 186.832 146.905 178.231L146.044 170.663C145.528 166.362 146.904 162.062 149.657 158.793C152.409 155.697 156.538 153.805 160.838 153.805H168.407C177.008 153.805 184.405 160.513 185.437 169.114L186.297 176.683C186.813 180.984 185.437 185.284 182.685 188.553C179.932 191.821 175.976 193.541 171.503 193.541ZM161.01 167.222C160.322 167.222 159.978 167.394 159.634 167.738C159.29 168.082 159.118 168.598 159.29 169.286L160.15 176.855C160.322 178.748 162.214 180.468 164.106 180.468H171.675C172.363 180.468 172.707 180.296 173.051 179.952C173.395 179.608 173.568 179.092 173.395 178.403L172.535 170.835C172.363 168.942 170.471 167.222 168.579 167.222H161.01Z" fill="#CFE9F3"/>
<path d="M169.095 161.546H161.527C156.194 161.546 151.205 157.246 150.689 151.741L149.829 144.172C149.485 141.592 150.345 139.012 151.893 137.12C153.614 135.227 155.85 134.195 158.43 134.195H165.999C171.332 134.195 176.32 138.496 176.836 144L177.696 151.569C178.04 154.15 177.18 156.73 175.632 158.622C174.084 160.514 171.848 161.546 169.095 161.546ZM158.602 135.055C156.194 135.055 154.13 135.916 152.582 137.636C151.033 139.356 150.345 141.592 150.689 144L151.549 151.569C152.065 156.558 156.538 160.686 161.527 160.686H169.095C171.504 160.686 173.568 159.826 175.116 158.106C176.664 156.386 177.352 154.15 177.008 151.741L176.148 144.172C175.632 139.184 171.16 135.055 166.171 135.055H158.602Z" fill="#7DC3E7"/>
<path d="M170.986 188.207H163.417C158.085 188.207 153.096 183.906 152.58 178.401L151.72 170.833C151.376 168.252 152.236 165.672 153.784 163.78C155.504 161.888 157.741 160.855 160.321 160.855H167.89C173.222 160.855 178.211 165.156 178.727 170.661L179.587 178.229C179.931 180.81 179.071 183.39 177.523 185.282C175.975 187.174 173.738 188.207 170.986 188.207ZM160.493 161.716C158.085 161.716 156.02 162.576 154.472 164.296C152.924 166.016 152.236 168.252 152.58 170.661L153.44 178.229C153.956 183.218 158.429 187.346 163.417 187.346H170.986C173.394 187.346 175.459 186.486 177.007 184.766C178.555 183.046 179.243 180.81 178.899 178.401L178.039 170.833C177.523 165.844 173.05 161.716 168.062 161.716H160.493Z" fill="#7DC3E7"/>
<path d="M170.298 3.97647C168.405 2.25628 165.825 1.39618 163.245 1.05214C151.548 -0.840073 138.818 3.63243 131.249 12.9215C122.992 23.0706 121.1 40.6166 130.389 50.7658C131.421 51.9699 132.969 53.174 134.69 52.658C135.894 52.3139 136.754 51.1098 137.098 49.9057C138.302 46.2933 137.958 41.9928 138.99 38.2083C140.022 34.2519 142.602 30.6395 145.527 27.7152C150.859 22.2105 157.224 17.566 164.105 14.1256C165.997 13.2655 167.889 12.4054 169.438 11.0293C171.674 9.13706 172.534 6.38474 170.298 3.97647Z" fill="#FFF15E"/>
<path d="M135.722 52.14C135.894 54.2043 136.41 56.4405 137.27 58.5047C141.915 70.7181 151.376 77.7709 163.933 80.5232C170.298 82.0714 172.362 83.1035 178.211 78.459C182.683 75.0186 187.328 69.342 188.704 63.6653C191.284 52.8281 191.284 43.539 191.112 32.7018C190.94 26.6811 189.22 19.9724 184.747 15.8439C180.619 12.0595 174.77 7.24294 169.094 6.38284C166.857 6.0388 164.449 6.21082 162.213 6.55486C154.988 7.759 147.591 9.82323 141.915 14.4678C132.97 21.8646 133.83 30.1215 135.206 40.2707C135.378 44.3991 135.206 48.3556 135.722 52.14Z" fill="#EDAD72"/>
<path d="M193.694 22.0377C193.35 20.8336 192.662 19.4574 191.802 18.2533C183.373 5.86789 164.279 -0.496831 150.689 5.17981C136.755 11.0285 129.359 26.5102 130.563 41.82C130.563 42.8521 130.907 43.8842 131.595 44.5723C132.971 45.7764 134.863 44.9163 136.411 46.2925C138.476 48.0127 138.476 49.5608 139.68 51.6251C140.368 52.6572 141.4 53.3453 142.432 53.3453C143.464 53.3453 144.324 52.4852 144.84 51.453C145.356 50.4209 145.356 49.3888 145.356 48.1847C145.184 44.9163 144.152 41.6479 143.636 38.3796C143.464 36.6594 143.464 34.9392 143.464 33.219C143.464 32.1869 144.324 29.2625 143.98 28.5745C145.012 30.6387 146.388 33.047 148.453 34.0791C150.001 34.7672 151.721 34.7672 153.441 34.7672C158.43 34.5951 163.418 34.2511 168.407 33.735C173.224 33.219 178.04 32.5309 182.857 32.5309C185.609 32.5309 190.77 34.5951 192.834 31.8428C194.898 28.9185 194.554 25.1341 193.694 22.0377Z" fill="black"/>
<path d="M130.564 53.6886C131.252 55.4088 131.94 56.9569 132.8 58.5051C133.488 59.7093 134.176 60.7414 135.036 61.6015C136.068 62.4616 137.444 62.9776 138.649 62.6336C144.497 61.0854 141.229 50.5922 138.649 47.6679C137.1 45.7757 134.176 44.0555 131.94 45.2596C129.015 47.1518 129.532 50.7643 130.564 53.6886Z" fill="#EDAD72"/>
<path d="M137.618 57.1247C137.102 57.1247 136.758 56.7806 136.586 56.4366C136.242 55.9205 136.07 55.2324 136.242 54.5444C136.242 54.2003 136.414 53.8563 136.586 53.5123C136.758 52.9962 136.93 52.6522 136.93 52.1361C136.93 50.932 135.554 49.7278 134.693 48.8677C134.521 48.6957 134.521 48.5237 134.693 48.3517C134.865 48.1797 135.038 48.1797 135.21 48.3517C136.414 49.2118 137.79 50.5879 137.79 52.3081C137.79 52.8242 137.618 53.3402 137.446 53.8563C137.274 54.2003 137.274 54.5444 137.274 54.8884C137.274 55.4045 137.274 55.9205 137.618 56.0925C137.79 56.2646 137.962 56.4366 138.134 56.4366C138.306 56.4366 138.478 56.6086 138.478 56.9526C137.962 56.9526 137.79 57.1247 137.618 57.1247Z" fill="#D18C54"/>
<path d="M176.324 63.6687C175.636 62.1205 170.475 63.4967 169.099 63.3247C168.755 63.3247 167.551 62.9806 166.519 62.8086C165.659 62.9806 164.799 62.9806 164.111 62.9806H163.939C163.767 63.1526 163.595 63.4967 163.767 63.8407C163.767 64.0127 163.939 64.1848 164.111 64.3568C164.971 65.5609 166.175 66.249 167.723 66.9371C170.475 68.1412 174.432 67.7972 176.324 65.2169C176.496 64.8728 176.84 64.3568 176.84 64.0127C176.324 64.0127 176.324 63.8407 176.324 63.6687Z" fill="#492812"/>
<path d="M174.946 64.0128V63.8408C174.43 62.8087 171.334 63.1527 170.474 63.1527C168.753 63.1527 166.861 63.3247 165.141 63.6688C164.969 63.6688 164.969 63.6688 164.797 63.8408L164.625 64.0128C164.625 64.3568 164.797 64.7009 165.141 65.0449C165.485 65.2169 165.829 65.389 166.173 65.561C168.409 66.077 170.474 66.4211 172.71 65.905C173.398 65.733 174.258 65.389 174.602 64.8729C174.946 64.5289 175.118 64.1848 174.946 64.0128Z" fill="#F5F2F2"/>
<path d="M175.631 63.8406C175.287 63.8406 174.943 64.0126 174.599 64.0126C174.255 64.0126 174.083 64.0126 173.739 64.1846C173.223 64.1846 172.707 64.1846 172.362 64.1846C171.33 64.1846 170.298 64.0126 169.266 63.8406C167.546 63.4966 165.31 64.5287 161.697 63.1525C161.697 63.1525 166.17 62.6365 168.234 62.1204C168.922 61.9484 169.61 61.6043 170.298 61.6043C171.158 61.6043 171.674 62.1204 172.534 62.2924C173.567 62.4644 174.771 61.7764 175.803 61.6043C176.491 61.4323 177.007 61.7764 177.523 62.1204C177.867 62.2924 178.039 62.4644 178.383 62.4644C178.555 62.4644 178.899 62.4644 178.899 62.4644C179.243 62.8085 178.383 62.9805 178.383 62.9805C177.523 63.3245 176.663 63.6686 175.631 63.8406C175.803 63.8406 175.631 63.8406 175.631 63.8406Z" fill="#D18C54"/>
<path d="M163.592 64.0141C162.732 64.0141 162.216 63.8421 161.012 63.326C160.668 63.154 160.324 63.154 159.98 62.982C159.808 62.982 159.636 62.638 159.808 62.4659C159.98 62.2939 160.152 62.1219 160.324 62.2939C160.668 62.4659 161.012 62.6379 161.356 62.6379C162.904 63.154 163.076 63.326 165.14 63.154C165.312 63.154 165.484 63.326 165.656 63.498C165.656 63.6701 165.484 63.8421 165.312 64.0141C164.452 64.0141 164.108 64.0141 163.592 64.0141Z" fill="#D18C54"/>
<path d="M170.644 71.5771C167.548 71.5771 165.139 69.5128 164.451 68.8248C164.279 68.6527 164.279 68.4807 164.451 68.3087C164.623 68.1367 164.795 68.1367 164.967 68.3087C166.343 69.5128 168.408 70.889 170.644 70.889H170.816C172.364 70.889 173.74 70.0289 174.944 68.6527C175.116 68.4807 175.289 68.4807 175.461 68.6527C175.633 68.8248 175.633 68.9968 175.461 69.1688C174.084 70.717 172.536 71.5771 170.816 71.5771C170.816 71.5771 170.816 71.5771 170.644 71.5771Z" fill="#D18C54"/>
<path d="M183.721 45.6056C182.173 45.7776 180.624 46.2937 179.248 46.4657C179.248 46.6377 179.076 46.6377 179.076 46.8097C179.248 47.8418 181.14 48.3579 183.721 48.1859C186.301 48.0138 188.021 46.9817 188.021 45.9496L187.677 45.6056C186.129 45.4336 185.097 45.4336 183.721 45.6056Z" fill="#F5F2F2"/>
<path d="M183.547 49.3869C184.877 49.3869 185.955 48.3086 185.955 46.9786C185.955 45.6485 184.877 44.5703 183.547 44.5703C182.217 44.5703 181.139 45.6485 181.139 46.9786C181.139 48.3086 182.217 49.3869 183.547 49.3869Z" fill="#492812"/>
<path d="M176.496 48.0122C176.324 48.0122 176.152 48.0122 176.152 47.8401C175.98 47.6681 175.98 47.3241 176.324 47.1521C180.109 44.7438 186.989 43.8837 189.398 46.292C189.57 46.464 189.57 46.808 189.398 46.98C189.226 47.1521 188.881 47.1521 188.709 46.98C186.817 45.0878 180.453 45.6039 176.84 48.0122C176.84 48.0122 176.668 48.0122 176.496 48.0122Z" fill="#492812"/>
<path d="M156.195 46.9838C156.195 46.9838 156.195 47.1558 156.195 47.3278C156.195 48.3599 158.26 49.048 160.668 49.048C163.076 49.048 165.14 48.1879 165.14 47.1558V46.9838C162.044 45.9517 159.12 46.8117 156.195 46.9838Z" fill="#F5F2F2"/>
<path d="M160.152 50.2462C161.482 50.2462 162.561 49.168 162.561 47.838C162.561 46.5079 161.482 45.4297 160.152 45.4297C158.822 45.4297 157.744 46.5079 157.744 47.838C157.744 49.168 158.822 50.2462 160.152 50.2462Z" fill="#492812"/>
<path d="M166.516 48.3628C166.344 48.3628 166.344 48.3628 166.172 48.1907C163.764 45.7825 156.367 46.8146 153.615 48.1907C153.443 48.3628 153.099 48.1907 152.927 48.0187C152.755 47.8467 152.927 47.5027 153.099 47.3306C156.195 45.7825 163.764 44.5783 166.688 47.3306C166.86 47.5027 166.86 47.8467 166.688 48.0187C166.86 48.1907 166.688 48.3628 166.516 48.3628Z" fill="#492812"/>
<path d="M155.507 39.412C158.088 37.6918 162.216 37.1757 164.624 37.3477C165.485 37.3477 166.173 37.5197 167.033 37.8638C168.065 38.2078 168.581 38.8959 168.409 39.928C168.237 41.6482 165.485 40.4441 164.624 40.1C163.076 39.756 161.528 39.584 159.98 39.584C158.088 39.584 155.851 40.7881 154.303 41.6482C154.131 41.6482 153.959 41.8202 153.787 41.6482C153.615 41.6482 153.615 41.3042 153.615 41.1321C153.615 40.9601 153.787 40.7881 153.959 40.6161C154.303 40.1 154.991 39.756 155.507 39.412Z" fill="black"/>
<path d="M190.255 40.4438C190.427 40.2718 190.427 40.0997 190.255 39.9277C189.395 38.7236 187.502 38.0355 186.126 37.6915C184.062 37.1754 180.277 36.8314 179.073 38.7236C178.901 39.0676 178.729 39.4117 178.901 39.5837C178.901 40.0997 179.245 40.4438 179.761 40.6158C180.277 40.7878 180.966 40.4438 181.31 40.2718C182.686 39.7557 184.062 39.4117 185.61 39.5837C186.298 39.5837 186.986 39.7557 187.674 39.9277C188.362 40.0997 189.05 40.4438 189.739 40.6158C189.911 40.4438 190.083 40.4438 190.255 40.4438Z" fill="black"/>
<path d="M170.129 59.0202C169.957 59.0202 169.785 58.8482 169.785 58.6762C169.785 58.5042 169.957 58.3322 170.129 58.1601L173.742 57.6441C174.086 57.6441 174.43 57.4721 174.602 57.3C174.946 56.956 174.774 56.2679 174.602 55.7519L172.882 49.3872C172.882 49.2151 172.882 48.8711 173.226 48.8711C173.398 48.8711 173.57 48.8711 173.742 49.2151L175.462 55.5799C175.634 56.0959 175.978 57.128 175.118 57.8161C174.774 58.1601 174.258 58.1601 173.914 58.3322L170.129 59.0202C170.301 59.0202 170.301 59.0202 170.129 59.0202Z" fill="#D18C54"/>
<path d="M168.408 82.7548C163.592 82.7548 159.463 80.6906 155.851 78.7984C155.679 78.6264 155.507 78.4544 155.679 78.2823C155.851 78.1103 156.023 77.9383 156.195 78.1103C161.011 80.6906 166.688 83.4429 173.741 81.2067C173.913 81.2067 174.257 81.2067 174.257 81.3787C174.257 81.5507 174.257 81.8947 173.913 81.8947C172.021 82.5828 170.128 82.7548 168.408 82.7548Z" fill="#D18C54"/>
<path d="M261.125 106.323C257.169 109.935 258.545 109.247 256.997 115.44C253.213 130.921 240.999 182.871 240.655 193.708C240.483 201.105 239.107 210.222 243.407 216.071C245.472 218.823 248.224 221.232 251.492 222.092C259.749 223.984 269.038 206.094 271.103 199.041C279.876 168.25 273.683 118.364 273.683 110.107C273.683 103.398 266.974 100.818 261.125 106.323Z" fill="#EDAD72"/>
<path d="M137.273 61.7724C138.223 61.7724 138.993 61.0023 138.993 60.0522C138.993 59.1022 138.223 58.332 137.273 58.332C136.323 58.332 135.553 59.1022 135.553 60.0522C135.553 61.0023 136.323 61.7724 137.273 61.7724Z" fill="#F5F2F2"/>
<path d="M239.451 195.949C239.279 195.949 239.107 195.777 239.107 195.605C239.107 191.132 242.376 177.887 243.408 173.586C243.408 173.414 243.58 173.242 243.924 173.242C244.096 173.242 244.268 173.414 244.268 173.758C243.236 178.059 239.968 191.304 239.968 195.605C239.795 195.605 239.624 195.949 239.451 195.949Z" fill="#D18C54"/>
<path d="M250.633 78.4592C250.977 78.1152 251.493 77.7711 252.009 78.1152C252.525 78.4592 252.525 79.1473 252.525 79.6633C252.525 80.1794 252.353 80.8675 252.181 81.3835C252.009 81.8996 251.149 82.7597 250.633 82.2436C250.117 81.8996 250.117 80.8675 250.117 80.3514C250.117 79.6633 250.289 78.9753 250.633 78.4592Z" fill="#F5F2F2"/>
<path d="M253.73 104.949C253.386 103.573 253.214 102.369 252.87 100.993C252.354 98.4124 252.182 95.316 251.322 92.7357C250.806 91.1875 249.773 89.9834 249.773 88.2632C249.773 87.0591 250.117 86.027 250.289 84.8228C250.461 83.6187 250.462 82.5866 250.462 81.3824C250.462 80.6944 250.461 80.0063 250.806 79.4902C252.354 77.426 254.59 80.0063 254.934 81.3824C255.278 82.4145 255.278 83.2746 255.45 84.3068C255.622 86.027 255.794 87.7471 256.482 89.2953C257.17 91.0155 258.374 92.3917 259.407 93.9398C261.299 96.5201 263.879 98.9284 265.255 101.681C266.115 103.573 265.943 105.809 266.115 107.873C266.287 109.766 266.459 114.926 264.051 115.614C261.643 116.302 255.966 110.11 255.106 108.217C254.418 107.357 254.074 106.153 253.73 104.949Z" fill="#EDAD72"/>
<path d="M271.793 117.339C272.997 116.479 274.029 115.103 274.89 113.899C276.094 108.05 276.954 103.75 279.018 98.7611C279.362 97.729 279.706 96.5249 279.534 95.4928C279.534 95.3207 279.534 95.3208 279.534 95.1487C279.534 93.6006 279.018 92.2244 277.986 91.1923C277.126 90.3322 277.986 88.0959 276.954 86.7198C276.438 86.2037 275.922 85.6877 275.578 85.1716C275.062 82.5913 275.234 82.4193 273.169 80.5271C272.825 80.183 272.309 79.839 272.137 79.3229C271.965 78.8069 271.793 78.2908 271.621 77.7748C269.213 73.3023 259.064 81.2152 257.688 83.6234C254.247 89.1281 255.967 95.6648 258.204 101.169C259.064 103.406 259.58 106.158 260.268 108.738C260.956 111.319 261.816 113.899 263.708 115.791C265.773 118.199 268.869 119.403 271.793 117.339Z" fill="#EDAD72"/>
<path d="M246.677 34.5943L248.225 37.8627L258.03 69.8583L260.438 69.1702L250.633 37.1746C250.633 37.1746 250.633 37.1746 250.633 37.0026L250.117 33.3902C250.117 33.2182 250.117 33.2182 249.945 33.0461C249.945 32.8741 249.945 32.8741 249.945 32.7021L248.225 29.2617L245.816 29.9498L246.332 33.7342C246.332 33.9062 246.332 33.9062 246.504 34.0783C246.676 34.4223 246.677 34.4223 246.677 34.5943Z" fill="#C6C0B2"/>
<path d="M258.892 68.3131H259.237C261.473 67.625 263.881 68.8292 264.569 71.2374L274.374 102.717C275.062 104.953 273.858 107.362 271.45 108.05H271.106C268.87 108.738 266.461 107.534 265.773 105.125L255.968 73.6457C255.452 71.4095 256.656 69.0012 258.892 68.3131Z" fill="#28897A"/>
<path d="M258.889 87.5794C259.405 86.5473 259.577 85.1711 260.437 84.311C261.641 83.1069 263.362 82.7629 264.91 82.5908C266.802 82.2468 270.242 82.5908 271.275 80.3546C271.447 79.8385 271.447 79.3225 271.275 78.8064C271.102 78.2904 270.758 77.7743 270.242 77.4303C269.726 76.9142 269.21 76.7422 268.35 76.7422C266.974 76.7422 264.91 77.2582 263.534 77.6023C261.985 77.9463 260.093 77.9463 258.889 78.6344C257.341 79.4945 256.653 81.3867 256.137 83.1069C255.793 84.4831 254.245 87.5794 254.589 88.7835C254.933 90.3317 256.997 89.8157 257.857 89.1276C258.373 88.7836 258.717 88.2675 258.889 87.5794Z" fill="#EDAD72"/>
<path d="M258.545 95.3167C259.233 94.8007 259.921 94.1126 260.265 93.2525C260.953 92.0483 261.297 90.8442 261.813 89.6401C262.501 88.0919 263.189 87.2318 264.738 87.0598C266.286 86.8878 267.662 86.1997 269.038 86.1997C270.242 86.1997 271.618 86.0277 272.65 85.1676C273.683 84.3075 274.027 82.7593 273.166 81.7272C272.478 80.8671 271.102 80.8671 270.07 81.0391C268.178 81.3831 266.458 81.7272 264.566 82.0712C262.845 82.4153 261.125 82.5873 259.921 83.7914C259.061 84.6515 258.545 86.0277 258.201 87.2318C257.685 88.952 256.997 90.6722 256.481 92.3924C256.137 93.2525 255.621 95.1447 256.825 95.4887C256.997 95.4887 257.341 95.4887 257.685 95.4887C257.857 95.8328 258.201 95.4887 258.545 95.3167Z" fill="#EDAD72"/>
<path d="M261.813 97.5568C262.157 97.3848 262.329 97.0407 262.501 96.8687C263.361 95.6646 263.877 94.1164 264.565 92.9122C264.737 92.5682 264.909 92.2242 265.253 92.2242C265.425 92.2242 265.597 92.0521 265.769 92.0521C266.801 91.8801 267.833 91.7081 268.865 91.7081C270.07 91.7081 271.618 91.8801 272.822 91.5361C273.51 91.5361 274.198 91.3641 274.542 91.02C274.886 90.676 274.886 90.332 274.886 89.8159C275.23 83.6232 267.145 86.0315 263.705 87.4076C261.813 88.0957 260.953 88.4397 260.437 90.504C260.093 91.5361 259.748 92.3962 259.576 93.4283C259.404 94.6324 259.576 95.8366 259.576 97.0407C259.404 98.9329 260.781 98.4169 261.813 97.5568Z" fill="#EDAD72"/>
<path d="M263.879 100.303C265.772 99.7867 268.008 96.1743 267.664 96.0023C269.04 96.6903 271.62 96.1743 273.168 96.3463C274.717 96.5183 275.405 97.2064 276.265 95.8302C277.125 94.6261 276.437 92.9059 275.233 91.8738C273.168 90.3256 267.32 90.1536 264.911 91.1857C262.675 92.2178 263.191 96.1743 262.331 98.2385C262.159 98.5825 261.987 98.9266 262.159 99.2706C262.675 100.303 263.363 100.475 263.879 100.303Z" fill="#EDAD72"/>
<path d="M258.032 96.0098C257.688 96.0098 257.516 96.0098 257.344 95.8378C256.656 95.6658 256.312 95.1497 256.14 94.4616C255.968 93.0855 256.484 91.7093 256.828 90.5052C257 89.9891 257.172 89.6451 257.344 89.129C257.516 88.441 257.688 87.5809 258.032 86.7208C258.204 86.2047 258.376 85.5166 258.548 85.0006C258.72 84.3125 258.892 83.6244 259.58 82.9363L259.752 82.7643C260.096 82.4203 260.612 81.9042 261.3 81.7322L261.816 81.5602C265.257 80.7001 266.977 80.356 270.761 79.668C270.933 79.668 271.105 79.84 271.277 80.012C271.277 80.184 271.105 80.356 270.933 80.5281C267.149 81.2161 265.429 81.5602 261.988 82.4203L261.472 82.5923C261.128 82.7643 260.784 83.1084 260.268 83.4524L259.924 83.6244C259.58 83.9685 259.408 84.4845 259.064 85.1726C258.892 85.6886 258.72 86.3767 258.548 86.8928C258.376 87.7529 258.204 88.441 257.86 89.3011C257.688 89.8171 257.516 90.3332 257.344 90.6772C256.828 91.8813 256.484 93.0855 256.656 94.2896C256.656 94.8057 257 94.9777 257.344 95.1497C257.688 95.3217 258.204 95.1497 258.376 95.1497C258.548 94.9777 258.548 94.9777 258.72 94.8057L258.892 94.6337C259.064 94.4616 259.236 94.4616 259.408 94.4616C259.58 94.6337 259.58 94.8057 259.58 94.9777L259.408 95.1497C259.236 95.3217 259.236 95.4938 258.892 95.6658C258.72 96.0098 258.376 96.0098 258.032 96.0098Z" fill="#D18C54"/>
<path d="M260.267 99.0978C260.095 99.0978 260.095 99.0978 260.267 99.0978C259.579 99.0978 258.891 98.7537 258.719 98.2377C258.375 97.7216 258.547 97.0336 258.547 96.6895C259.063 94.1092 259.751 91.873 260.439 89.6367C260.783 88.9486 260.955 87.9165 261.815 87.2284C263.019 86.0243 265.084 86.0243 266.804 86.0243C267.32 86.0243 268.008 86.0243 268.352 85.8523C269.04 85.8523 269.728 85.5082 270.416 85.3362C270.932 85.1642 271.276 85.1642 271.792 84.9922C271.964 84.9922 272.136 85.1642 272.308 85.3362C272.308 85.5082 272.136 85.6803 271.964 85.8523C271.62 85.8523 271.104 86.0243 270.76 86.1963C270.072 86.3683 269.384 86.5404 268.524 86.7124C268.008 86.7124 267.492 86.7124 266.804 86.8844C265.256 86.8844 263.363 87.0564 262.331 87.9165C261.815 88.4326 261.471 89.2927 261.299 89.9808C260.611 92.045 259.923 94.2812 259.407 96.8615C259.407 97.2056 259.235 97.5496 259.407 97.8936C259.579 98.0657 259.923 98.2377 260.267 98.2377C260.611 98.2377 261.127 98.0657 261.471 98.0657C261.643 98.0657 261.987 98.0657 261.987 98.4097C261.987 98.5817 261.987 98.9258 261.643 98.9258C261.127 98.9258 260.611 99.0978 260.267 99.0978Z" fill="#D18C54"/>
<path d="M256.482 91.8754C255.794 91.8754 255.278 91.7034 254.934 91.3594C254.246 90.6713 254.246 89.6392 254.246 89.1231C254.246 88.6071 254.418 88.263 254.59 87.919C254.762 87.747 254.762 87.4029 254.934 87.0589C254.934 86.8869 255.278 86.7148 255.45 86.7148C255.622 86.7148 255.794 87.0589 255.794 87.2309C255.622 87.5749 255.622 87.919 255.45 88.091C255.278 88.435 255.278 88.6071 255.106 89.1231C255.106 89.4672 255.106 90.3273 255.45 90.6713C255.794 91.0153 256.138 91.0153 256.826 91.0153C256.998 91.0153 257.17 91.1874 257.342 91.3594C257.342 91.5314 257.17 91.7034 256.998 91.8754C256.826 91.8754 256.654 91.8754 256.482 91.8754Z" fill="#D18C54"/>
<path d="M263.192 100.994C262.504 100.994 261.988 100.822 261.472 100.306C261.128 99.7899 260.956 99.1019 261.128 98.4138C261.644 96.3495 262.504 94.6293 263.192 92.7371L263.536 91.877C263.708 91.361 263.88 91.0169 264.396 90.6729C264.74 90.3289 265.256 90.3289 265.773 90.3289C267.149 90.3289 268.181 90.1568 269.213 89.8128C270.417 89.6408 271.621 89.2967 273.341 89.4688C273.513 89.4688 273.685 89.6408 273.685 89.8128C273.685 89.9848 273.513 90.1568 273.341 90.1568C271.793 90.1568 270.589 90.3289 269.557 90.5009C268.525 90.6729 267.321 91.0169 265.945 91.0169C265.601 91.0169 265.257 91.0169 265.084 91.189C264.912 91.361 264.74 91.705 264.568 92.049L264.224 92.9091C263.364 94.8014 262.676 96.5216 262.16 98.4138C261.988 98.9298 262.16 99.2739 262.332 99.6179C262.504 99.9619 263.02 100.134 263.536 99.9619C263.708 99.9619 263.88 100.134 263.88 100.306C263.88 100.478 263.708 100.65 263.536 100.65C263.364 100.994 263.364 100.994 263.192 100.994Z" fill="#D18C54"/>
<path d="M274.026 97.3841C273.682 97.3841 273.338 97.3841 273.166 97.2121C272.994 97.2121 272.822 96.868 272.822 96.696C272.822 96.524 273.166 96.352 273.338 96.352C274.198 96.524 275.403 96.352 275.747 96.0079C275.919 95.8359 276.091 95.8359 276.263 96.0079C276.435 96.1799 276.435 96.352 276.263 96.524C275.919 97.212 274.886 97.3841 274.026 97.3841Z" fill="#D18C54"/>
<path d="M264.225 96.0036C264.569 95.8316 265.085 95.8316 265.429 96.1756C265.773 96.5197 265.429 97.2078 265.257 97.5518C265.085 97.8958 264.741 98.4119 264.397 98.7559C264.053 99.1 263.192 99.444 263.02 98.9279C262.848 98.4119 263.02 97.7238 263.192 97.3798C263.364 96.6917 263.709 96.3477 264.225 96.0036Z" fill="#F7C9A4"/>
<path d="M260.612 93.9413C260.956 93.5972 261.472 93.5972 261.816 93.7692C262.16 94.1133 262.16 94.8014 261.988 95.1454C261.816 95.6615 261.816 96.1775 261.472 96.5215C261.128 96.8656 260.44 97.5537 260.096 97.0376C259.752 96.6936 259.752 95.8335 259.924 95.3174C259.924 94.9734 260.096 94.2853 260.612 93.9413Z" fill="#F7C9A4"/>
<path d="M257.858 91.1915C257.858 91.0195 257.858 91.0195 257.858 91.1915C258.202 91.0195 258.546 91.0195 258.718 91.1915C259.234 91.5356 259.406 92.0516 259.406 92.5677C259.406 93.0837 259.234 93.9438 258.89 94.2879C258.546 94.6319 258.03 94.9759 257.686 94.6319C256.998 93.9438 257.514 92.5677 257.686 91.7076C257.514 91.5356 257.686 91.1915 257.858 91.1915Z" fill="#F7C9A4"/>
<path d="M255.963 87.0624C256.307 86.7183 256.823 86.7183 257.167 86.8903C257.511 87.2344 257.511 87.7504 257.339 88.2665C257.167 88.7826 257.167 89.2986 256.823 89.6426C256.479 89.9867 255.791 90.6748 255.447 90.1587C255.103 89.8147 255.103 88.9546 255.275 88.4385C255.275 87.9225 255.447 87.4064 255.963 87.0624Z" fill="#F7C9A4"/>
<path d="M81.5372 206.442C75.3445 216.592 59.1747 209.195 60.8949 194.745C62.0991 184.08 62.2711 184.424 65.8835 175.307C69.6679 165.846 81.8813 130.066 85.8377 120.605C87.3859 116.992 93.5786 110.972 100.459 111.66C106.136 112.176 111.813 114.928 110.781 123.873C108.2 146.408 94.0947 186.316 81.5372 206.442Z" fill="#EDAD72"/>
<path d="M21.33 140.385C17.8896 142.277 16.8575 145.374 17.8896 147.266C25.8025 162.403 32.5113 174.617 40.0802 189.755C45.0687 199.904 45.0687 200.764 54.1858 209.021C60.5505 214.697 67.2592 213.321 70.6996 212.805C75.3441 213.665 87.7295 204.72 83.085 195.259C78.6125 185.97 64.1629 170.66 52.4656 159.479C45.9288 153.286 37.1558 147.266 30.7911 140.901C28.7269 139.181 24.5984 138.665 21.33 140.385Z" fill="#EDAD72"/>
<path d="M28.7252 130.58C28.3812 127.312 27.5211 124.216 26.833 121.119C26.317 118.195 25.9729 115.099 25.9729 112.002C25.9729 109.078 26.317 106.154 25.4569 103.401C25.2848 102.885 25.1128 102.369 24.5968 102.025C23.7367 101.681 22.8766 102.369 22.3605 103.057C19.6082 107.014 20.9844 112.518 20.8123 117.507C20.6403 123.7 17.888 129.892 18.7481 136.085C19.2642 139.181 22.0165 142.966 25.4569 141.074C28.7252 139.353 28.8973 133.505 28.7252 130.58Z" fill="#EDAD72"/>
<path d="M26.664 131.101C26.8361 132.305 27.5241 132.477 28.0402 133.681C28.9003 135.573 30.4485 137.465 30.1044 140.734C29.9324 144.002 26.8361 146.066 23.7397 147.442C19.7833 149.163 14.6227 147.098 12.9025 143.658C12.0424 141.766 11.6983 140.218 9.46209 137.809C7.56987 135.745 5.1616 133.853 5.33362 130.585C5.33362 129.896 5.50564 129.208 5.33362 128.52C5.1616 127.832 4.81756 127.316 4.47352 126.628C3.95746 125.596 3.78544 124.22 4.3015 123.016C4.47352 122.672 4.64554 122.328 4.47352 121.812C4.47352 121.468 4.12948 121.123 3.95746 120.779C3.26939 119.575 3.26939 117.855 3.95746 116.479C4.81756 115.103 3.95746 114.243 4.12948 112.867C4.3015 106.674 15.3107 107.878 18.5791 109.942C26.32 114.587 24.5998 123.876 26.664 131.101Z" fill="#EDAD72"/>
<path d="M28.2116 56.4358C28.2116 55.2316 27.3515 54.3715 26.1474 54.3715L11.0097 53.8555C8.25737 53.8555 5.8491 55.9197 5.67708 58.844L4.12891 110.278C4.12891 112.17 5.67708 113.89 7.5693 113.89H9.11747C11.0097 113.89 12.7299 112.342 12.7299 110.45L14.106 61.0803L25.8034 61.4243C27.0075 61.4243 27.8676 60.5642 27.8676 59.3601L28.2116 56.4358Z" fill="#BBB6A5"/>
<path d="M26.4908 73.1254L2.92419 72.6094C1.54803 72.6094 0.343895 73.6415 0.343895 75.0177L0.171875 77.942C0.171875 79.4902 1.20399 80.6943 2.75217 80.6943L12.3853 80.8663C13.0733 80.8663 13.5894 81.3824 13.5894 82.0704V86.3709C13.5894 87.059 13.0733 87.5751 12.3853 87.5751L2.75217 87.4031C1.37601 87.4031 0.171875 88.4352 0.171875 89.9833V92.2196C0.171875 93.5958 1.20399 94.7999 2.58015 94.9719L9.80497 95.488C11.8692 95.66 13.4174 97.5522 13.2454 99.4444L11.8692 141.589C11.8692 143.309 13.2454 144.858 14.9655 144.858H17.3738C19.094 144.858 20.6422 143.481 20.6422 141.761L22.3624 85.3388C22.3624 83.1026 23.9106 81.2103 26.1468 80.6943H26.3188C28.3831 80.1782 29.7592 78.458 29.7592 76.3938C29.5872 74.5016 28.211 73.1254 26.4908 73.1254Z" fill="#DB2685"/>
<path d="M12.3833 81.0354L1.7181 80.6914C1.03002 80.6914 0.341942 81.2075 0.341942 82.0676L0.169922 86.024C0.169922 86.7121 0.685981 87.4002 1.54608 87.4002L12.2113 87.7442C12.8994 87.7442 13.5874 87.2281 13.5874 86.368L13.7595 82.4116C13.7595 81.7235 13.2434 81.0354 12.3833 81.0354Z" fill="white"/>
<path d="M13.5895 85.3414L0.34404 84.1373C0.172021 84.1373 0 83.9653 0 83.7933C0 83.6212 0.172021 83.4492 0.34404 83.4492L13.7616 84.6534C13.9336 84.6534 14.1056 84.8254 14.1056 84.9974C13.9336 85.1694 13.7616 85.3414 13.5895 85.3414Z" fill="#C6C1B5"/>
<path d="M25.2885 63.1502L14.2793 62.8061V61.0859L25.9766 61.43V62.2901C25.9766 62.9782 25.6326 63.1502 25.2885 63.1502Z" fill="#A29E90"/>
<path d="M19.0947 114.06C18.7506 113.888 18.5786 113.888 18.2346 113.888C16.8584 113.716 15.8263 114.405 14.6222 114.749C13.418 115.093 12.3859 115.093 11.1818 115.265C9.28956 115.609 6.02119 116.641 5.1611 114.232C3.4409 109.76 10.3217 108.212 13.074 107.524C13.5901 107.352 14.1061 107.18 14.7942 107.18C16.3424 107.18 17.7185 107.868 19.0947 108.556C20.2988 109.244 21.5029 109.76 22.363 110.792C23.9112 112.512 23.9112 115.609 20.8149 114.921C20.1268 114.577 19.6107 114.232 19.0947 114.06Z" fill="#EDAD72"/>
<path d="M21.3297 122.666C18.0613 123.698 18.9214 120.774 18.2334 119.398C17.3733 117.849 8.60026 121.29 7.56815 117.677C6.53603 114.065 12.3847 113.377 14.793 113.205C18.0613 112.861 24.7701 112.345 24.9421 116.989C24.9421 118.881 23.566 121.806 21.6737 122.494C21.5017 122.666 21.5017 122.666 21.3297 122.666Z" fill="#EDAD72"/>
<path d="M24.4294 120.258C24.2574 120.258 24.0853 120.085 24.0853 119.913C24.0853 119.741 24.2574 119.569 24.4294 119.569C24.6014 119.569 24.7734 119.397 24.7734 119.397C24.9454 119.053 24.9454 118.709 24.7734 118.365C24.4294 117.505 23.9133 116.989 23.7413 116.817C21.8491 115.269 19.7849 113.893 17.7206 112.689C17.2046 112.345 16.8605 112.173 16.3445 112.001C15.8284 111.829 15.4844 112.001 14.9683 112.173L14.4522 112.345C11.6999 112.861 7.91551 113.721 5.50723 114.925C5.33522 115.097 4.99117 114.925 4.99117 114.753C4.81916 114.581 4.99118 114.237 5.16319 114.237C7.57147 113.033 11.5279 112.173 14.2802 111.657L14.7963 111.485C15.3123 111.312 16.0004 111.312 16.5165 111.312C17.0325 111.485 17.5486 111.657 18.0647 112.001C20.1289 113.205 22.1931 114.753 24.2574 116.129C24.6014 116.473 25.2895 117.161 25.6335 118.021C25.8055 118.709 25.8055 119.397 25.4615 119.913C25.1175 120.085 24.7734 120.258 24.4294 120.258Z" fill="#D18C54"/>
<path d="M21.8487 124.73C20.9886 124.558 20.6445 123.698 19.9565 123.354C17.0321 121.462 9.46327 127.482 7.74307 123.01C5.16278 116.817 19.7844 115.269 23.0528 117.505C24.429 118.537 25.117 120.601 24.429 122.15C24.2569 122.666 24.0849 123.01 23.7409 123.354C23.2248 124.042 22.5367 124.902 21.8487 124.73Z" fill="#EDAD72"/>
<path d="M22.7065 124.044C22.5344 124.044 22.5344 124.044 22.3624 124.044C22.1904 124.044 22.0184 123.872 22.0184 123.528C22.0184 123.356 22.3624 123.184 22.5344 123.184C22.7065 123.184 22.8785 123.184 23.0505 123.012C23.2225 122.84 23.3945 122.496 23.3945 122.152C23.3945 121.636 23.0505 121.12 22.1904 120.432C21.5023 119.744 20.4702 119.056 19.2661 118.368C18.75 118.023 18.234 117.851 17.7179 117.679C16.1697 117.163 14.4495 117.507 12.7293 118.023H12.5573C11.0091 118.368 9.11693 118.884 7.74077 119.744C7.56876 119.916 7.22472 119.916 7.22472 119.744C7.0527 119.572 7.0527 119.4 7.22472 119.228C8.77289 118.196 10.6651 117.679 12.3853 117.335H12.5573C14.2775 116.991 16.1697 116.475 17.8899 117.163C18.578 117.335 19.0941 117.679 19.6101 118.023C20.4702 118.54 21.6744 119.228 22.7065 120.088C23.3945 120.26 24.2546 121.12 24.2546 121.98C24.2546 122.496 24.0826 123.184 23.5666 123.528C23.3945 123.872 23.0505 124.044 22.7065 124.044Z" fill="#D18C54"/>
<path d="M23.0513 114.921C22.8793 114.921 22.7073 114.749 22.7073 114.749C22.7073 114.577 22.7073 114.233 22.8793 114.233C23.2233 114.061 23.2233 113.717 23.2233 113.373C23.0513 113.028 22.8793 112.684 22.5353 112.34C22.3632 112.168 22.3632 111.996 22.5353 111.824C22.7073 111.652 22.8793 111.652 23.0513 111.824C23.3954 112.168 23.7394 112.684 23.9114 113.2C24.0834 113.717 23.9114 114.577 23.0513 114.921C23.2233 114.921 23.0513 114.921 23.0513 114.921Z" fill="#D18C54"/>
<path d="M21.3309 126.968C20.9869 127.14 20.4708 127.14 20.1268 127.14C17.5465 127.14 16.1703 126.28 13.9341 128.172C12.3859 129.548 11.5258 131.957 9.28957 132.645C9.11755 132.645 8.94553 132.817 8.77351 132.645C8.60149 132.645 8.42947 132.473 8.25745 132.301C5.33312 128.86 7.22534 124.904 10.6657 123.012C13.7621 121.291 18.2346 121.291 21.1589 123.184C22.363 123.872 22.8791 125.764 21.847 126.624C21.847 126.624 21.675 126.796 21.3309 126.968Z" fill="#EDAD72"/>
<path d="M20.6441 127.657C20.4721 127.657 20.3001 127.485 20.3001 127.313C20.3001 127.141 20.4721 126.969 20.6441 126.969C21.1602 126.969 21.8483 126.797 22.1923 126.281C22.7084 125.077 22.1923 124.045 20.8161 123.357C17.2037 121.637 12.9032 122.153 10.1509 124.561C9.97891 124.733 9.80689 124.733 9.63487 124.561C9.46285 124.389 9.46285 124.217 9.63487 124.045C12.5592 121.293 17.2037 120.776 21.1602 122.669C22.8804 123.529 23.5684 124.905 22.8804 126.625C22.7084 127.141 21.8483 127.485 20.6441 127.657Z" fill="#D18C54"/>
<path d="M22.1909 111.658C22.879 112.174 23.395 112.862 23.051 113.55C22.707 114.238 22.0189 113.894 21.1588 113.55C20.4707 113.034 20.2987 112.518 20.6427 112.002C20.9868 111.486 21.5028 111.142 22.1909 111.658Z" fill="#F7B692"/>
<path d="M23.7381 116.813C24.4261 117.329 24.7702 118.189 24.2541 118.705C23.7381 119.221 23.05 119.049 22.3619 118.533C21.6738 118.017 21.5018 117.329 21.8458 116.813C22.1899 116.297 22.878 116.297 23.7381 116.813Z" fill="#F7B692"/>
<path d="M22.7047 120.258C23.3928 120.774 23.5648 121.462 23.2208 121.978C22.8767 122.494 22.1887 122.322 21.5006 121.806C20.8125 121.29 20.6405 120.774 20.9845 120.258C21.3286 119.742 22.0166 119.742 22.7047 120.258Z" fill="#F7B692"/>
<path d="M21.1579 123.529C21.846 123.873 22.19 124.561 21.846 125.077C21.5019 125.593 20.8139 125.421 20.1258 125.077C19.4377 124.733 19.0937 124.217 19.4377 123.701C19.9538 123.185 20.4698 123.185 21.1579 123.529Z" fill="#F7B692"/>
<path d="M97.1929 100.997C78.0988 108.738 78.9588 136.777 71.562 152.431C70.5299 154.839 69.1537 157.592 70.1859 159.828C71.39 162.752 75.1744 163.268 78.4428 163.44C86.6997 163.612 94.2686 163.44 101.149 168.601C104.934 171.353 108.89 177.89 112.675 173.074C114.911 170.149 115.771 164.473 117.319 161.032C118.695 157.764 120.071 154.667 121.62 151.571C122.652 149.335 124.2 144.862 126.264 143.314C134.349 137.465 119.211 111.835 110.954 107.018C107.514 104.954 100.805 99.4492 97.1929 100.997Z" fill="#89CBEA"/>
<path d="M107.168 168.597C106.996 168.597 106.824 168.425 106.824 168.253C106.996 161.716 109.232 154.663 111.641 147.266C113.533 141.246 115.597 134.881 116.801 128C116.801 127.828 117.145 127.656 117.317 127.656C117.489 127.656 117.661 127.828 117.661 128.172C116.457 135.225 114.393 141.418 112.329 147.611C109.921 155.007 107.684 161.888 107.512 168.425C107.684 168.425 107.512 168.597 107.168 168.597Z" fill="#B4DEEF"/>
<path d="M79.4748 190.961C79.3028 190.961 79.1308 190.961 79.1308 190.789C77.9267 188.725 73.2821 184.081 65.3692 177.2C65.1972 177.028 65.1972 176.856 65.3692 176.684C65.5413 176.512 65.7133 176.512 65.8853 176.684C68.8096 179.264 77.7546 187.177 79.8189 190.445C79.9909 190.617 79.8189 190.961 79.6469 190.961H79.4748Z" fill="#D18C54"/>
<path d="M193.352 682.248C193.696 687.236 194.212 692.225 194.384 695.149C194.556 697.901 196.104 699.966 197.996 699.966L250.462 700.654C268.696 699.966 276.609 689.817 278.673 683.968C280.738 677.947 280.566 670.55 276.953 667.11C275.233 665.39 266.804 664.358 265.256 664.53C261.471 665.046 232.4 659.025 228.96 660.573C220.187 664.358 238.249 678.979 228.96 675.539C222.079 672.959 207.285 664.874 200.749 660.917C199.716 660.401 198.856 659.885 197.824 659.369C196.964 658.853 195.932 658.509 195.588 657.305V657.133C195.244 657.305 194.9 657.821 194.728 658.165C194.212 659.025 194.212 660.057 193.868 661.261C193.524 662.637 193.352 664.014 193.352 665.39C193.18 667.454 193.524 669.346 193.696 671.41C193.696 672.959 193.524 674.335 193.524 676.055C193.008 678.119 193.18 680.183 193.352 682.248Z" fill="#677167"/>
<path d="M74.4838 690.851C74.4838 690.851 73.6237 681.39 74.4838 675.197C75.3439 669.004 76.376 663.328 77.4082 656.619C78.4403 649.738 81.0206 638.385 81.0206 638.385C81.0206 638.385 88.7614 635.977 97.8785 635.977C106.996 635.977 111.812 637.525 111.812 637.525C111.812 637.525 111.812 643.717 112.844 649.05C113.876 654.383 117.145 664.188 120.069 670.208C121.789 673.821 123.681 677.949 124.369 683.282C124.886 687.238 123.509 690.851 123.509 690.851C123.509 690.851 109.576 693.431 100.287 693.431C90.9977 693.431 74.4838 690.851 74.4838 690.851Z" fill="#677167"/>
<path d="M74.4843 690.848C72.5921 690.848 72.248 693.084 72.248 695.836C72.248 698.589 72.4201 702.029 74.1403 702.029C75.6884 702.029 120.586 702.029 122.822 702.029C125.23 702.029 125.058 698.072 125.058 696.524C125.058 694.976 125.058 691.02 123.338 691.02C121.79 690.848 74.4843 690.848 74.4843 690.848Z" fill="#677167"/>
<path d="M236.011 674.507C227.582 674.507 215.369 673.647 209.004 669.175C207.112 667.798 205.392 665.906 203.844 664.186C201.091 661.262 198.511 658.337 194.555 657.477L194.727 656.617C198.855 657.477 201.607 660.402 204.36 663.498C205.908 665.218 207.456 666.938 209.52 668.315C217.777 674.335 236.871 673.647 243.064 673.303V674.163C241.516 674.507 239.108 674.507 236.011 674.507Z" fill="#BBB6A5"/>
</svg>
