<svg width="1440" height="98" viewBox="0 0 1440 98" fill="none" xmlns="http://www.w3.org/2000/svg">
<path d="M22.1124 97.5509H0V13.0809L10.113 0.476633C10.637 -0.158878 11.685 -0.158878 12.209 0.476633L22.1124 13.0809V97.5509Z" fill="white"/>
<path fill-rule="evenodd" clip-rule="evenodd" d="M0.369786 14.3203C0.564305 14.3203 0.721994 14.478 0.721994 14.6725V97.5537C0.721994 97.7482 0.564305 97.9059 0.369786 97.9059C0.175267 97.9059 0.0175781 97.7482 0.0175781 97.5537V14.6725C0.0175781 14.478 0.175267 14.3203 0.369786 14.3203Z" fill="#E2DFD5"/>
<path d="M44.173 97.5509H22.0605V13.0809L32.1736 0.476633C32.6976 -0.158878 33.7456 -0.158878 34.2695 0.476633L44.173 13.0809V97.5509Z" fill="white"/>
<path fill-rule="evenodd" clip-rule="evenodd" d="M22.4264 14.3203C22.6209 14.3203 22.7786 14.478 22.7786 14.6725V97.5537C22.7786 97.7482 22.6209 97.9059 22.4264 97.9059C22.2319 97.9059 22.0742 97.7482 22.0742 97.5537V14.6725C22.0742 14.478 22.2319 14.3203 22.4264 14.3203Z" fill="#E2DFD5"/>
<path d="M66.2319 97.5509H44.1719V13.0809L54.2849 0.476633C54.8089 -0.158878 55.8569 -0.158878 56.3809 0.476633L66.2843 13.0809L66.2319 97.5509Z" fill="white"/>
<path fill-rule="evenodd" clip-rule="evenodd" d="M44.4889 14.3203C44.6834 14.3203 44.8411 14.478 44.8411 14.6725V97.5537C44.8411 97.7482 44.6834 97.9059 44.4889 97.9059C44.2944 97.9059 44.1367 97.7482 44.1367 97.5537V14.6725C44.1367 14.478 44.2944 14.3203 44.4889 14.3203Z" fill="#E2DFD5"/>
<path d="M88.3448 97.5509H66.2324V13.0809L76.3454 0.476633C76.8694 -0.158878 77.9174 -0.158878 78.4414 0.476633L88.3448 13.0809V97.5509Z" fill="white"/>
<path fill-rule="evenodd" clip-rule="evenodd" d="M66.5983 14.3203C66.7928 14.3203 66.9505 14.478 66.9505 14.6725V97.5537C66.9505 97.7482 66.7928 97.9059 66.5983 97.9059C66.4038 97.9059 66.2461 97.7482 66.2461 97.5537V14.6725C66.2461 14.478 66.4038 14.3203 66.5983 14.3203Z" fill="#E2DFD5"/>
<path d="M110.407 97.5509H88.2949V13.0809L98.408 0.476633C98.9319 -0.158878 99.9799 -0.158878 100.504 0.476633L110.407 13.0809V97.5509Z" fill="white"/>
<path fill-rule="evenodd" clip-rule="evenodd" d="M88.6588 14.3203C88.8534 14.3203 89.0111 14.478 89.0111 14.6725V97.5537C89.0111 97.7482 88.8534 97.9059 88.6588 97.9059C88.4643 97.9059 88.3066 97.7482 88.3066 97.5537V14.6725C88.3066 14.478 88.4643 14.3203 88.6588 14.3203Z" fill="#E2DFD5"/>
<path d="M132.521 97.5509H110.408V13.0809L120.521 0.476633C121.045 -0.158878 122.093 -0.158878 122.617 0.476633L132.521 13.0809V97.5509Z" fill="white"/>
<path fill-rule="evenodd" clip-rule="evenodd" d="M110.77 14.3203C110.965 14.3203 111.122 14.478 111.122 14.6725V97.5537C111.122 97.7482 110.965 97.9059 110.77 97.9059C110.576 97.9059 110.418 97.7482 110.418 97.5537V14.6725C110.418 14.478 110.576 14.3203 110.77 14.3203Z" fill="#E2DFD5"/>
<path d="M154.575 97.5509H132.463V13.0809L142.576 0.476633C143.1 -0.158878 144.148 -0.158878 144.672 0.476633L154.575 13.0809V97.5509Z" fill="white"/>
<path fill-rule="evenodd" clip-rule="evenodd" d="M132.833 14.3203C133.027 14.3203 133.185 14.478 133.185 14.6725V97.5537C133.185 97.7482 133.027 97.9059 132.833 97.9059C132.638 97.9059 132.48 97.7482 132.48 97.5537V14.6725C132.48 14.478 132.638 14.3203 132.833 14.3203Z" fill="#E2DFD5"/>
<path d="M176.689 97.5509H154.576V13.0809L164.689 0.476633C165.213 -0.158878 166.261 -0.158878 166.785 0.476633L176.689 13.0809V97.5509Z" fill="white"/>
<path fill-rule="evenodd" clip-rule="evenodd" d="M154.946 14.3203C155.14 14.3203 155.298 14.478 155.298 14.6725V97.5537C155.298 97.7482 155.14 97.9059 154.946 97.9059C154.751 97.9059 154.594 97.7482 154.594 97.5537V14.6725C154.594 14.478 154.751 14.3203 154.946 14.3203Z" fill="#E2DFD5"/>
<path d="M198.751 97.5509H176.639V13.0809L186.752 0.476633C187.276 -0.158878 188.324 -0.158878 188.848 0.476633L198.751 13.0809V97.5509Z" fill="white"/>
<path fill-rule="evenodd" clip-rule="evenodd" d="M177.003 14.3203C177.197 14.3203 177.355 14.478 177.355 14.6725V97.5537C177.355 97.7482 177.197 97.9059 177.003 97.9059C176.808 97.9059 176.65 97.7482 176.65 97.5537V14.6725C176.65 14.478 176.808 14.3203 177.003 14.3203Z" fill="#E2DFD5"/>
<path d="M220.862 97.5509H198.75V13.0809L208.863 0.476633C209.387 -0.158878 210.435 -0.158878 210.959 0.476633L220.862 13.0809V97.5509Z" fill="white"/>
<path fill-rule="evenodd" clip-rule="evenodd" d="M199.112 14.3203C199.306 14.3203 199.464 14.478 199.464 14.6725V97.5537C199.464 97.7482 199.306 97.9059 199.112 97.9059C198.917 97.9059 198.76 97.7482 198.76 97.5537V14.6725C198.76 14.478 198.917 14.3203 199.112 14.3203Z" fill="#E2DFD5"/>
<path d="M242.925 97.5509H220.812V13.0809L230.926 0.476633C231.45 -0.158878 232.498 -0.158878 233.022 0.476633L242.925 13.0809V97.5509Z" fill="white"/>
<path fill-rule="evenodd" clip-rule="evenodd" d="M221.176 14.3203C221.371 14.3203 221.529 14.478 221.529 14.6725V97.5537C221.529 97.7482 221.371 97.9059 221.176 97.9059C220.982 97.9059 220.824 97.7482 220.824 97.5537V14.6725C220.824 14.478 220.982 14.3203 221.176 14.3203Z" fill="#E2DFD5"/>
<path d="M265.032 97.5509H242.92V13.0809L253.033 0.476633C253.557 -0.158878 254.605 -0.158878 255.129 0.476633L265.032 13.0809V97.5509Z" fill="white"/>
<path fill-rule="evenodd" clip-rule="evenodd" d="M243.237 14.3203C243.431 14.3203 243.589 14.478 243.589 14.6725V97.5537C243.589 97.7482 243.431 97.9059 243.237 97.9059C243.042 97.9059 242.885 97.7482 242.885 97.5537V14.6725C242.885 14.478 243.042 14.3203 243.237 14.3203Z" fill="#E2DFD5"/>
<path d="M287.097 97.5509H264.984V13.0809L275.097 0.476633C275.621 -0.158878 276.669 -0.158878 277.193 0.476633L287.097 13.0809V97.5509Z" fill="white"/>
<path fill-rule="evenodd" clip-rule="evenodd" d="M265.346 14.3203C265.541 14.3203 265.699 14.478 265.699 14.6725V97.5537C265.699 97.7482 265.541 97.9059 265.346 97.9059C265.152 97.9059 264.994 97.7482 264.994 97.5537V14.6725C264.994 14.478 265.152 14.3203 265.346 14.3203Z" fill="#E2DFD5"/>
<path d="M309.153 97.5509H287.041V13.0809L297.154 0.476633C297.678 -0.158878 298.726 -0.158878 299.25 0.476633L309.153 13.0809V97.5509Z" fill="white"/>
<path fill-rule="evenodd" clip-rule="evenodd" d="M287.409 14.3203C287.603 14.3203 287.761 14.478 287.761 14.6725V97.5537C287.761 97.7482 287.603 97.9059 287.409 97.9059C287.214 97.9059 287.057 97.7482 287.057 97.5537V14.6725C287.057 14.478 287.214 14.3203 287.409 14.3203Z" fill="#E2DFD5"/>
<path d="M22.1124 97.5509H0V13.0809L10.113 0.476633C10.637 -0.158878 11.685 -0.158878 12.209 0.476633L22.1124 13.0809V97.5509Z" fill="white"/>
<path fill-rule="evenodd" clip-rule="evenodd" d="M0.369786 14.3203C0.564305 14.3203 0.721994 14.478 0.721994 14.6725V97.5537C0.721994 97.7482 0.564305 97.9059 0.369786 97.9059C0.175267 97.9059 0.0175781 97.7482 0.0175781 97.5537V14.6725C0.0175781 14.478 0.175267 14.3203 0.369786 14.3203Z" fill="#E2DFD5"/>
<path d="M44.173 97.5509H22.0605V13.0809L32.1736 0.476633C32.6976 -0.158878 33.7456 -0.158878 34.2695 0.476633L44.173 13.0809V97.5509Z" fill="white"/>
<path fill-rule="evenodd" clip-rule="evenodd" d="M22.4264 14.3203C22.6209 14.3203 22.7786 14.478 22.7786 14.6725V97.5537C22.7786 97.7482 22.6209 97.9059 22.4264 97.9059C22.2319 97.9059 22.0742 97.7482 22.0742 97.5537V14.6725C22.0742 14.478 22.2319 14.3203 22.4264 14.3203Z" fill="#E2DFD5"/>
<path d="M66.2319 97.5509H44.1719V13.0809L54.2849 0.476633C54.8089 -0.158878 55.8569 -0.158878 56.3809 0.476633L66.2843 13.0809L66.2319 97.5509Z" fill="white"/>
<path fill-rule="evenodd" clip-rule="evenodd" d="M44.4889 14.3203C44.6834 14.3203 44.8411 14.478 44.8411 14.6725V97.5537C44.8411 97.7482 44.6834 97.9059 44.4889 97.9059C44.2944 97.9059 44.1367 97.7482 44.1367 97.5537V14.6725C44.1367 14.478 44.2944 14.3203 44.4889 14.3203Z" fill="#E2DFD5"/>
<path d="M88.3448 97.5509H66.2324V13.0809L76.3454 0.476633C76.8694 -0.158878 77.9174 -0.158878 78.4414 0.476633L88.3448 13.0809V97.5509Z" fill="white"/>
<path fill-rule="evenodd" clip-rule="evenodd" d="M66.5983 14.3203C66.7928 14.3203 66.9505 14.478 66.9505 14.6725V97.5537C66.9505 97.7482 66.7928 97.9059 66.5983 97.9059C66.4038 97.9059 66.2461 97.7482 66.2461 97.5537V14.6725C66.2461 14.478 66.4038 14.3203 66.5983 14.3203Z" fill="#E2DFD5"/>
<path d="M110.407 97.5509H88.2949V13.0809L98.408 0.476633C98.9319 -0.158878 99.9799 -0.158878 100.504 0.476633L110.407 13.0809V97.5509Z" fill="white"/>
<path fill-rule="evenodd" clip-rule="evenodd" d="M88.6588 14.3203C88.8534 14.3203 89.0111 14.478 89.0111 14.6725V97.5537C89.0111 97.7482 88.8534 97.9059 88.6588 97.9059C88.4643 97.9059 88.3066 97.7482 88.3066 97.5537V14.6725C88.3066 14.478 88.4643 14.3203 88.6588 14.3203Z" fill="#E2DFD5"/>
<path d="M132.521 97.5509H110.408V13.0809L120.521 0.476633C121.045 -0.158878 122.093 -0.158878 122.617 0.476633L132.521 13.0809V97.5509Z" fill="white"/>
<path fill-rule="evenodd" clip-rule="evenodd" d="M110.77 14.3203C110.965 14.3203 111.122 14.478 111.122 14.6725V97.5537C111.122 97.7482 110.965 97.9059 110.77 97.9059C110.576 97.9059 110.418 97.7482 110.418 97.5537V14.6725C110.418 14.478 110.576 14.3203 110.77 14.3203Z" fill="#E2DFD5"/>
<path d="M154.575 97.5509H132.463V13.0809L142.576 0.476633C143.1 -0.158878 144.148 -0.158878 144.672 0.476633L154.575 13.0809V97.5509Z" fill="white"/>
<path fill-rule="evenodd" clip-rule="evenodd" d="M132.833 14.3203C133.027 14.3203 133.185 14.478 133.185 14.6725V97.5537C133.185 97.7482 133.027 97.9059 132.833 97.9059C132.638 97.9059 132.48 97.7482 132.48 97.5537V14.6725C132.48 14.478 132.638 14.3203 132.833 14.3203Z" fill="#E2DFD5"/>
<path d="M176.689 97.5509H154.576V13.0809L164.689 0.476633C165.213 -0.158878 166.261 -0.158878 166.785 0.476633L176.689 13.0809V97.5509Z" fill="white"/>
<path fill-rule="evenodd" clip-rule="evenodd" d="M154.946 14.3203C155.14 14.3203 155.298 14.478 155.298 14.6725V97.5537C155.298 97.7482 155.14 97.9059 154.946 97.9059C154.751 97.9059 154.594 97.7482 154.594 97.5537V14.6725C154.594 14.478 154.751 14.3203 154.946 14.3203Z" fill="#E2DFD5"/>
<path d="M198.751 97.5509H176.639V13.0809L186.752 0.476633C187.276 -0.158878 188.324 -0.158878 188.848 0.476633L198.751 13.0809V97.5509Z" fill="white"/>
<path fill-rule="evenodd" clip-rule="evenodd" d="M177.003 14.3203C177.197 14.3203 177.355 14.478 177.355 14.6725V97.5537C177.355 97.7482 177.197 97.9059 177.003 97.9059C176.808 97.9059 176.65 97.7482 176.65 97.5537V14.6725C176.65 14.478 176.808 14.3203 177.003 14.3203Z" fill="#E2DFD5"/>
<path d="M220.862 97.5509H198.75V13.0809L208.863 0.476633C209.387 -0.158878 210.435 -0.158878 210.959 0.476633L220.862 13.0809V97.5509Z" fill="white"/>
<path fill-rule="evenodd" clip-rule="evenodd" d="M199.112 14.3203C199.306 14.3203 199.464 14.478 199.464 14.6725V97.5537C199.464 97.7482 199.306 97.9059 199.112 97.9059C198.917 97.9059 198.76 97.7482 198.76 97.5537V14.6725C198.76 14.478 198.917 14.3203 199.112 14.3203Z" fill="#E2DFD5"/>
<path d="M242.925 97.5509H220.812V13.0809L230.926 0.476633C231.45 -0.158878 232.498 -0.158878 233.022 0.476633L242.925 13.0809V97.5509Z" fill="white"/>
<path fill-rule="evenodd" clip-rule="evenodd" d="M221.176 14.3203C221.371 14.3203 221.529 14.478 221.529 14.6725V97.5537C221.529 97.7482 221.371 97.9059 221.176 97.9059C220.982 97.9059 220.824 97.7482 220.824 97.5537V14.6725C220.824 14.478 220.982 14.3203 221.176 14.3203Z" fill="#E2DFD5"/>
<path d="M265.032 97.5509H242.92V13.0809L253.033 0.476633C253.557 -0.158878 254.605 -0.158878 255.129 0.476633L265.032 13.0809V97.5509Z" fill="white"/>
<path fill-rule="evenodd" clip-rule="evenodd" d="M243.237 14.3203C243.431 14.3203 243.589 14.478 243.589 14.6725V97.5537C243.589 97.7482 243.431 97.9059 243.237 97.9059C243.042 97.9059 242.885 97.7482 242.885 97.5537V14.6725C242.885 14.478 243.042 14.3203 243.237 14.3203Z" fill="#E2DFD5"/>
<path d="M287.097 97.5509H264.984V13.0809L275.097 0.476633C275.621 -0.158878 276.669 -0.158878 277.193 0.476633L287.097 13.0809V97.5509Z" fill="white"/>
<path fill-rule="evenodd" clip-rule="evenodd" d="M265.346 14.3203C265.541 14.3203 265.699 14.478 265.699 14.6725V97.5537C265.699 97.7482 265.541 97.9059 265.346 97.9059C265.152 97.9059 264.994 97.7482 264.994 97.5537V14.6725C264.994 14.478 265.152 14.3203 265.346 14.3203Z" fill="#E2DFD5"/>
<path d="M309.153 97.5509H287.041V13.0809L297.154 0.476633C297.678 -0.158878 298.726 -0.158878 299.25 0.476633L309.153 13.0809V97.5509Z" fill="white"/>
<path fill-rule="evenodd" clip-rule="evenodd" d="M287.409 14.3203C287.603 14.3203 287.761 14.478 287.761 14.6725V97.5537C287.761 97.7482 287.603 97.9059 287.409 97.9059C287.214 97.9059 287.057 97.7482 287.057 97.5537V14.6725C287.057 14.478 287.214 14.3203 287.409 14.3203Z" fill="#E2DFD5"/>
<path d="M331.265 97.5509H309.152V13.0809L319.265 0.476633C319.789 -0.158878 320.837 -0.158878 321.361 0.476633L331.265 13.0809V97.5509Z" fill="white"/>
<path fill-rule="evenodd" clip-rule="evenodd" d="M309.522 14.3203C309.717 14.3203 309.874 14.478 309.874 14.6725V97.5537C309.874 97.7482 309.717 97.9059 309.522 97.9059C309.328 97.9059 309.17 97.7482 309.17 97.5537V14.6725C309.17 14.478 309.328 14.3203 309.522 14.3203Z" fill="#E2DFD5"/>
<path d="M353.325 97.5509H331.213V13.0809L341.326 0.476633C341.85 -0.158878 342.898 -0.158878 343.422 0.476633L353.325 13.0809V97.5509Z" fill="white"/>
<path fill-rule="evenodd" clip-rule="evenodd" d="M331.579 14.3203C331.773 14.3203 331.931 14.478 331.931 14.6725V97.5537C331.931 97.7482 331.773 97.9059 331.579 97.9059C331.384 97.9059 331.227 97.7482 331.227 97.5537V14.6725C331.227 14.478 331.384 14.3203 331.579 14.3203Z" fill="#E2DFD5"/>
<path d="M375.384 97.5509H353.324V13.0809L363.437 0.476633C363.961 -0.158878 365.009 -0.158878 365.533 0.476633L375.437 13.0809L375.384 97.5509Z" fill="white"/>
<path fill-rule="evenodd" clip-rule="evenodd" d="M353.641 14.3203C353.836 14.3203 353.993 14.478 353.993 14.6725V97.5537C353.993 97.7482 353.836 97.9059 353.641 97.9059C353.447 97.9059 353.289 97.7482 353.289 97.5537V14.6725C353.289 14.478 353.447 14.3203 353.641 14.3203Z" fill="#E2DFD5"/>
<path d="M397.497 97.5509H375.385V13.0809L385.498 0.476633C386.022 -0.158878 387.07 -0.158878 387.594 0.476633L397.497 13.0809V97.5509Z" fill="white"/>
<path fill-rule="evenodd" clip-rule="evenodd" d="M375.751 14.3203C375.945 14.3203 376.103 14.478 376.103 14.6725V97.5537C376.103 97.7482 375.945 97.9059 375.751 97.9059C375.556 97.9059 375.398 97.7482 375.398 97.5537V14.6725C375.398 14.478 375.556 14.3203 375.751 14.3203Z" fill="#E2DFD5"/>
<path d="M419.56 97.5509H397.447V13.0809L407.56 0.476633C408.084 -0.158878 409.132 -0.158878 409.656 0.476633L419.56 13.0809V97.5509Z" fill="white"/>
<path fill-rule="evenodd" clip-rule="evenodd" d="M397.811 14.3203C398.006 14.3203 398.163 14.478 398.163 14.6725V97.5537C398.163 97.7482 398.006 97.9059 397.811 97.9059C397.617 97.9059 397.459 97.7482 397.459 97.5537V14.6725C397.459 14.478 397.617 14.3203 397.811 14.3203Z" fill="#E2DFD5"/>
<path d="M441.673 97.5509H419.561V13.0809L429.674 0.476633C430.198 -0.158878 431.246 -0.158878 431.77 0.476633L441.673 13.0809V97.5509Z" fill="white"/>
<path fill-rule="evenodd" clip-rule="evenodd" d="M419.923 14.3203C420.117 14.3203 420.275 14.478 420.275 14.6725V97.5537C420.275 97.7482 420.117 97.9059 419.923 97.9059C419.728 97.9059 419.57 97.7482 419.57 97.5537V14.6725C419.57 14.478 419.728 14.3203 419.923 14.3203Z" fill="#E2DFD5"/>
<path d="M463.728 97.5509H441.615V13.0809L451.728 0.476633C452.252 -0.158878 453.3 -0.158878 453.824 0.476633L463.728 13.0809V97.5509Z" fill="white"/>
<path fill-rule="evenodd" clip-rule="evenodd" d="M441.985 14.3203C442.18 14.3203 442.337 14.478 442.337 14.6725V97.5537C442.337 97.7482 442.18 97.9059 441.985 97.9059C441.791 97.9059 441.633 97.7482 441.633 97.5537V14.6725C441.633 14.478 441.791 14.3203 441.985 14.3203Z" fill="#E2DFD5"/>
<path d="M485.841 97.5509H463.729V13.0809L473.842 0.476633C474.366 -0.158878 475.414 -0.158878 475.938 0.476633L485.841 13.0809V97.5509Z" fill="white"/>
<path fill-rule="evenodd" clip-rule="evenodd" d="M464.098 14.3203C464.293 14.3203 464.451 14.478 464.451 14.6725V97.5537C464.451 97.7482 464.293 97.9059 464.098 97.9059C463.904 97.9059 463.746 97.7482 463.746 97.5537V14.6725C463.746 14.478 463.904 14.3203 464.098 14.3203Z" fill="#E2DFD5"/>
<path d="M507.903 97.5509H485.791V13.0809L495.904 0.476633C496.428 -0.158878 497.476 -0.158878 498 0.476633L507.903 13.0809V97.5509Z" fill="white"/>
<path fill-rule="evenodd" clip-rule="evenodd" d="M486.155 14.3203C486.349 14.3203 486.507 14.478 486.507 14.6725V97.5537C486.507 97.7482 486.349 97.9059 486.155 97.9059C485.96 97.9059 485.803 97.7482 485.803 97.5537V14.6725C485.803 14.478 485.96 14.3203 486.155 14.3203Z" fill="#E2DFD5"/>
<path d="M530.015 97.5509H507.902V13.0809L518.015 0.476633C518.539 -0.158878 519.587 -0.158878 520.111 0.476633L530.015 13.0809V97.5509Z" fill="white"/>
<path fill-rule="evenodd" clip-rule="evenodd" d="M508.264 14.3203C508.459 14.3203 508.617 14.478 508.617 14.6725V97.5537C508.617 97.7482 508.459 97.9059 508.264 97.9059C508.07 97.9059 507.912 97.7482 507.912 97.5537V14.6725C507.912 14.478 508.07 14.3203 508.264 14.3203Z" fill="#E2DFD5"/>
<path d="M552.077 97.5509H529.965V13.0809L540.078 0.476633C540.602 -0.158878 541.65 -0.158878 542.174 0.476633L552.077 13.0809V97.5509Z" fill="white"/>
<path fill-rule="evenodd" clip-rule="evenodd" d="M530.329 14.3203C530.523 14.3203 530.681 14.478 530.681 14.6725V97.5537C530.681 97.7482 530.523 97.9059 530.329 97.9059C530.134 97.9059 529.977 97.7482 529.977 97.5537V14.6725C529.977 14.478 530.134 14.3203 530.329 14.3203Z" fill="#E2DFD5"/>
<path d="M574.185 97.5509H552.072V13.0809L562.185 0.476633C562.709 -0.158878 563.757 -0.158878 564.281 0.476633L574.185 13.0809V97.5509Z" fill="white"/>
<path fill-rule="evenodd" clip-rule="evenodd" d="M552.389 14.3203C552.584 14.3203 552.742 14.478 552.742 14.6725V97.5537C552.742 97.7482 552.584 97.9059 552.389 97.9059C552.195 97.9059 552.037 97.7482 552.037 97.5537V14.6725C552.037 14.478 552.195 14.3203 552.389 14.3203Z" fill="#E2DFD5"/>
<path d="M596.249 97.5509H574.137V13.0809L584.25 0.476633C584.774 -0.158878 585.822 -0.158878 586.346 0.476633L596.249 13.0809V97.5509Z" fill="white"/>
<path fill-rule="evenodd" clip-rule="evenodd" d="M574.499 14.3203C574.693 14.3203 574.851 14.478 574.851 14.6725V97.5537C574.851 97.7482 574.693 97.9059 574.499 97.9059C574.304 97.9059 574.146 97.7482 574.146 97.5537V14.6725C574.146 14.478 574.304 14.3203 574.499 14.3203Z" fill="#E2DFD5"/>
<path d="M618.306 97.5509H596.193V13.0809L606.306 0.476633C606.83 -0.158878 607.878 -0.158878 608.402 0.476633L618.306 13.0809V97.5509Z" fill="white"/>
<path fill-rule="evenodd" clip-rule="evenodd" d="M596.561 14.3203C596.756 14.3203 596.913 14.478 596.913 14.6725V97.5537C596.913 97.7482 596.756 97.9059 596.561 97.9059C596.367 97.9059 596.209 97.7482 596.209 97.5537V14.6725C596.209 14.478 596.367 14.3203 596.561 14.3203Z" fill="#E2DFD5"/>
<path d="M331.265 97.5509H309.152V13.0809L319.265 0.476633C319.789 -0.158878 320.837 -0.158878 321.361 0.476633L331.265 13.0809V97.5509Z" fill="white"/>
<path fill-rule="evenodd" clip-rule="evenodd" d="M309.522 14.3203C309.717 14.3203 309.874 14.478 309.874 14.6725V97.5537C309.874 97.7482 309.717 97.9059 309.522 97.9059C309.328 97.9059 309.17 97.7482 309.17 97.5537V14.6725C309.17 14.478 309.328 14.3203 309.522 14.3203Z" fill="#E2DFD5"/>
<path d="M353.325 97.5509H331.213V13.0809L341.326 0.476633C341.85 -0.158878 342.898 -0.158878 343.422 0.476633L353.325 13.0809V97.5509Z" fill="white"/>
<path fill-rule="evenodd" clip-rule="evenodd" d="M331.579 14.3203C331.773 14.3203 331.931 14.478 331.931 14.6725V97.5537C331.931 97.7482 331.773 97.9059 331.579 97.9059C331.384 97.9059 331.227 97.7482 331.227 97.5537V14.6725C331.227 14.478 331.384 14.3203 331.579 14.3203Z" fill="#E2DFD5"/>
<path d="M375.384 97.5509H353.324V13.0809L363.437 0.476633C363.961 -0.158878 365.009 -0.158878 365.533 0.476633L375.437 13.0809L375.384 97.5509Z" fill="white"/>
<path fill-rule="evenodd" clip-rule="evenodd" d="M353.641 14.3203C353.836 14.3203 353.993 14.478 353.993 14.6725V97.5537C353.993 97.7482 353.836 97.9059 353.641 97.9059C353.447 97.9059 353.289 97.7482 353.289 97.5537V14.6725C353.289 14.478 353.447 14.3203 353.641 14.3203Z" fill="#E2DFD5"/>
<path d="M397.497 97.5509H375.385V13.0809L385.498 0.476633C386.022 -0.158878 387.07 -0.158878 387.594 0.476633L397.497 13.0809V97.5509Z" fill="white"/>
<path fill-rule="evenodd" clip-rule="evenodd" d="M375.751 14.3203C375.945 14.3203 376.103 14.478 376.103 14.6725V97.5537C376.103 97.7482 375.945 97.9059 375.751 97.9059C375.556 97.9059 375.398 97.7482 375.398 97.5537V14.6725C375.398 14.478 375.556 14.3203 375.751 14.3203Z" fill="#E2DFD5"/>
<path d="M419.56 97.5509H397.447V13.0809L407.56 0.476633C408.084 -0.158878 409.132 -0.158878 409.656 0.476633L419.56 13.0809V97.5509Z" fill="white"/>
<path fill-rule="evenodd" clip-rule="evenodd" d="M397.811 14.3203C398.006 14.3203 398.163 14.478 398.163 14.6725V97.5537C398.163 97.7482 398.006 97.9059 397.811 97.9059C397.617 97.9059 397.459 97.7482 397.459 97.5537V14.6725C397.459 14.478 397.617 14.3203 397.811 14.3203Z" fill="#E2DFD5"/>
<path d="M441.673 97.5509H419.561V13.0809L429.674 0.476633C430.198 -0.158878 431.246 -0.158878 431.77 0.476633L441.673 13.0809V97.5509Z" fill="white"/>
<path fill-rule="evenodd" clip-rule="evenodd" d="M419.923 14.3203C420.117 14.3203 420.275 14.478 420.275 14.6725V97.5537C420.275 97.7482 420.117 97.9059 419.923 97.9059C419.728 97.9059 419.57 97.7482 419.57 97.5537V14.6725C419.57 14.478 419.728 14.3203 419.923 14.3203Z" fill="#E2DFD5"/>
<path d="M463.728 97.5509H441.615V13.0809L451.728 0.476633C452.252 -0.158878 453.3 -0.158878 453.824 0.476633L463.728 13.0809V97.5509Z" fill="white"/>
<path fill-rule="evenodd" clip-rule="evenodd" d="M441.985 14.3203C442.18 14.3203 442.337 14.478 442.337 14.6725V97.5537C442.337 97.7482 442.18 97.9059 441.985 97.9059C441.791 97.9059 441.633 97.7482 441.633 97.5537V14.6725C441.633 14.478 441.791 14.3203 441.985 14.3203Z" fill="#E2DFD5"/>
<path d="M485.841 97.5509H463.729V13.0809L473.842 0.476633C474.366 -0.158878 475.414 -0.158878 475.938 0.476633L485.841 13.0809V97.5509Z" fill="white"/>
<path fill-rule="evenodd" clip-rule="evenodd" d="M464.098 14.3203C464.293 14.3203 464.451 14.478 464.451 14.6725V97.5537C464.451 97.7482 464.293 97.9059 464.098 97.9059C463.904 97.9059 463.746 97.7482 463.746 97.5537V14.6725C463.746 14.478 463.904 14.3203 464.098 14.3203Z" fill="#E2DFD5"/>
<path d="M507.903 97.5509H485.791V13.0809L495.904 0.476633C496.428 -0.158878 497.476 -0.158878 498 0.476633L507.903 13.0809V97.5509Z" fill="white"/>
<path fill-rule="evenodd" clip-rule="evenodd" d="M486.155 14.3203C486.349 14.3203 486.507 14.478 486.507 14.6725V97.5537C486.507 97.7482 486.349 97.9059 486.155 97.9059C485.96 97.9059 485.803 97.7482 485.803 97.5537V14.6725C485.803 14.478 485.96 14.3203 486.155 14.3203Z" fill="#E2DFD5"/>
<path d="M530.015 97.5509H507.902V13.0809L518.015 0.476633C518.539 -0.158878 519.587 -0.158878 520.111 0.476633L530.015 13.0809V97.5509Z" fill="white"/>
<path fill-rule="evenodd" clip-rule="evenodd" d="M508.264 14.3203C508.459 14.3203 508.617 14.478 508.617 14.6725V97.5537C508.617 97.7482 508.459 97.9059 508.264 97.9059C508.07 97.9059 507.912 97.7482 507.912 97.5537V14.6725C507.912 14.478 508.07 14.3203 508.264 14.3203Z" fill="#E2DFD5"/>
<path d="M552.077 97.5509H529.965V13.0809L540.078 0.476633C540.602 -0.158878 541.65 -0.158878 542.174 0.476633L552.077 13.0809V97.5509Z" fill="white"/>
<path fill-rule="evenodd" clip-rule="evenodd" d="M530.329 14.3203C530.523 14.3203 530.681 14.478 530.681 14.6725V97.5537C530.681 97.7482 530.523 97.9059 530.329 97.9059C530.134 97.9059 529.977 97.7482 529.977 97.5537V14.6725C529.977 14.478 530.134 14.3203 530.329 14.3203Z" fill="#E2DFD5"/>
<path d="M574.185 97.5509H552.072V13.0809L562.185 0.476633C562.709 -0.158878 563.757 -0.158878 564.281 0.476633L574.185 13.0809V97.5509Z" fill="white"/>
<path fill-rule="evenodd" clip-rule="evenodd" d="M552.389 14.3203C552.584 14.3203 552.742 14.478 552.742 14.6725V97.5537C552.742 97.7482 552.584 97.9059 552.389 97.9059C552.195 97.9059 552.037 97.7482 552.037 97.5537V14.6725C552.037 14.478 552.195 14.3203 552.389 14.3203Z" fill="#E2DFD5"/>
<path d="M596.249 97.5509H574.137V13.0809L584.25 0.476633C584.774 -0.158878 585.822 -0.158878 586.346 0.476633L596.249 13.0809V97.5509Z" fill="white"/>
<path fill-rule="evenodd" clip-rule="evenodd" d="M574.499 14.3203C574.693 14.3203 574.851 14.478 574.851 14.6725V97.5537C574.851 97.7482 574.693 97.9059 574.499 97.9059C574.304 97.9059 574.146 97.7482 574.146 97.5537V14.6725C574.146 14.478 574.304 14.3203 574.499 14.3203Z" fill="#E2DFD5"/>
<path d="M618.306 97.5509H596.193V13.0809L606.306 0.476633C606.83 -0.158878 607.878 -0.158878 608.402 0.476633L618.306 13.0809V97.5509Z" fill="white"/>
<path fill-rule="evenodd" clip-rule="evenodd" d="M596.561 14.3203C596.756 14.3203 596.913 14.478 596.913 14.6725V97.5537C596.913 97.7482 596.756 97.9059 596.561 97.9059C596.367 97.9059 596.209 97.7482 596.209 97.5537V14.6725C596.209 14.478 596.367 14.3203 596.561 14.3203Z" fill="#E2DFD5"/>
<path d="M640.417 97.5509H618.305V13.0809L628.418 0.476633C628.942 -0.158878 629.99 -0.158878 630.514 0.476633L640.417 13.0809V97.5509Z" fill="white"/>
<path fill-rule="evenodd" clip-rule="evenodd" d="M618.674 14.3203C618.869 14.3203 619.027 14.478 619.027 14.6725V97.5537C619.027 97.7482 618.869 97.9059 618.674 97.9059C618.48 97.9059 618.322 97.7482 618.322 97.5537V14.6725C618.322 14.478 618.48 14.3203 618.674 14.3203Z" fill="#E2DFD5"/>
<path d="M662.478 97.5509H640.365V13.0809L650.478 0.476633C651.002 -0.158878 652.05 -0.158878 652.574 0.476633L662.478 13.0809V97.5509Z" fill="white"/>
<path fill-rule="evenodd" clip-rule="evenodd" d="M640.731 14.3203C640.926 14.3203 641.083 14.478 641.083 14.6725V97.5537C641.083 97.7482 640.926 97.9059 640.731 97.9059C640.537 97.9059 640.379 97.7482 640.379 97.5537V14.6725C640.379 14.478 640.537 14.3203 640.731 14.3203Z" fill="#E2DFD5"/>
<path d="M684.537 97.5509H662.477V13.0809L672.59 0.476633C673.114 -0.158878 674.162 -0.158878 674.686 0.476633L684.589 13.0809L684.537 97.5509Z" fill="white"/>
<path fill-rule="evenodd" clip-rule="evenodd" d="M662.794 14.3203C662.988 14.3203 663.146 14.478 663.146 14.6725V97.5537C663.146 97.7482 662.988 97.9059 662.794 97.9059C662.599 97.9059 662.441 97.7482 662.441 97.5537V14.6725C662.441 14.478 662.599 14.3203 662.794 14.3203Z" fill="#E2DFD5"/>
<path d="M706.65 97.5509H684.537V13.0809L694.65 0.476633C695.174 -0.158878 696.222 -0.158878 696.746 0.476633L706.65 13.0809V97.5509Z" fill="white"/>
<path fill-rule="evenodd" clip-rule="evenodd" d="M684.903 14.3203C685.098 14.3203 685.255 14.478 685.255 14.6725V97.5537C685.255 97.7482 685.098 97.9059 684.903 97.9059C684.708 97.9059 684.551 97.7482 684.551 97.5537V14.6725C684.551 14.478 684.708 14.3203 684.903 14.3203Z" fill="#E2DFD5"/>
<path d="M728.712 97.5509H706.6V13.0809L716.713 0.476633C717.237 -0.158878 718.285 -0.158878 718.809 0.476633L728.712 13.0809V97.5509Z" fill="white"/>
<path fill-rule="evenodd" clip-rule="evenodd" d="M706.964 14.3203C707.158 14.3203 707.316 14.478 707.316 14.6725V97.5537C707.316 97.7482 707.158 97.9059 706.964 97.9059C706.769 97.9059 706.611 97.7482 706.611 97.5537V14.6725C706.611 14.478 706.769 14.3203 706.964 14.3203Z" fill="#E2DFD5"/>
<path d="M750.825 97.5509H728.713V13.0809L738.826 0.476633C739.35 -0.158878 740.398 -0.158878 740.922 0.476633L750.825 13.0809V97.5509Z" fill="white"/>
<path fill-rule="evenodd" clip-rule="evenodd" d="M729.075 14.3203C729.269 14.3203 729.427 14.478 729.427 14.6725V97.5537C729.427 97.7482 729.269 97.9059 729.075 97.9059C728.88 97.9059 728.723 97.7482 728.723 97.5537V14.6725C728.723 14.478 728.88 14.3203 729.075 14.3203Z" fill="#E2DFD5"/>
<path d="M772.88 97.5509H750.768V13.0809L760.881 0.476633C761.405 -0.158878 762.453 -0.158878 762.977 0.476633L772.88 13.0809V97.5509Z" fill="white"/>
<path fill-rule="evenodd" clip-rule="evenodd" d="M751.137 14.3203C751.332 14.3203 751.49 14.478 751.49 14.6725V97.5537C751.49 97.7482 751.332 97.9059 751.137 97.9059C750.943 97.9059 750.785 97.7482 750.785 97.5537V14.6725C750.785 14.478 750.943 14.3203 751.137 14.3203Z" fill="#E2DFD5"/>
<path d="M794.993 97.5509H772.881V13.0809L782.994 0.476633C783.518 -0.158878 784.566 -0.158878 785.09 0.476633L794.993 13.0809V97.5509Z" fill="white"/>
<path fill-rule="evenodd" clip-rule="evenodd" d="M773.251 14.3203C773.445 14.3203 773.603 14.478 773.603 14.6725V97.5537C773.603 97.7482 773.445 97.9059 773.251 97.9059C773.056 97.9059 772.898 97.7482 772.898 97.5537V14.6725C772.898 14.478 773.056 14.3203 773.251 14.3203Z" fill="#E2DFD5"/>
<path d="M817.056 97.5509H794.943V13.0809L805.056 0.476633C805.58 -0.158878 806.628 -0.158878 807.152 0.476633L817.056 13.0809V97.5509Z" fill="white"/>
<path fill-rule="evenodd" clip-rule="evenodd" d="M795.307 14.3203C795.502 14.3203 795.659 14.478 795.659 14.6725V97.5537C795.659 97.7482 795.502 97.9059 795.307 97.9059C795.113 97.9059 794.955 97.7482 794.955 97.5537V14.6725C794.955 14.478 795.113 14.3203 795.307 14.3203Z" fill="#E2DFD5"/>
<path d="M839.167 97.5509H817.055V13.0809L827.168 0.476633C827.692 -0.158878 828.74 -0.158878 829.264 0.476633L839.167 13.0809V97.5509Z" fill="white"/>
<path fill-rule="evenodd" clip-rule="evenodd" d="M817.417 14.3203C817.611 14.3203 817.769 14.478 817.769 14.6725V97.5537C817.769 97.7482 817.611 97.9059 817.417 97.9059C817.222 97.9059 817.064 97.7482 817.064 97.5537V14.6725C817.064 14.478 817.222 14.3203 817.417 14.3203Z" fill="#E2DFD5"/>
<path d="M861.23 97.5509H839.117V13.0809L849.23 0.476633C849.754 -0.158878 850.802 -0.158878 851.326 0.476633L861.23 13.0809V97.5509Z" fill="white"/>
<path fill-rule="evenodd" clip-rule="evenodd" d="M839.481 14.3203C839.676 14.3203 839.833 14.478 839.833 14.6725V97.5537C839.833 97.7482 839.676 97.9059 839.481 97.9059C839.287 97.9059 839.129 97.7482 839.129 97.5537V14.6725C839.129 14.478 839.287 14.3203 839.481 14.3203Z" fill="#E2DFD5"/>
<path d="M883.337 97.5509H861.225V13.0809L871.338 0.476633C871.862 -0.158878 872.91 -0.158878 873.434 0.476633L883.337 13.0809V97.5509Z" fill="white"/>
<path fill-rule="evenodd" clip-rule="evenodd" d="M861.542 14.3203C861.736 14.3203 861.894 14.478 861.894 14.6725V97.5537C861.894 97.7482 861.736 97.9059 861.542 97.9059C861.347 97.9059 861.189 97.7482 861.189 97.5537V14.6725C861.189 14.478 861.347 14.3203 861.542 14.3203Z" fill="#E2DFD5"/>
<path d="M905.401 97.5509H883.289V13.0809L893.402 0.476633C893.926 -0.158878 894.974 -0.158878 895.498 0.476633L905.401 13.0809V97.5509Z" fill="white"/>
<path fill-rule="evenodd" clip-rule="evenodd" d="M883.651 14.3203C883.846 14.3203 884.003 14.478 884.003 14.6725V97.5537C884.003 97.7482 883.846 97.9059 883.651 97.9059C883.457 97.9059 883.299 97.7482 883.299 97.5537V14.6725C883.299 14.478 883.457 14.3203 883.651 14.3203Z" fill="#E2DFD5"/>
<path d="M927.458 97.5509H905.346V13.0809L915.459 0.476633C915.983 -0.158878 917.031 -0.158878 917.555 0.476633L927.458 13.0809V97.5509Z" fill="white"/>
<path fill-rule="evenodd" clip-rule="evenodd" d="M905.714 14.3203C905.908 14.3203 906.066 14.478 906.066 14.6725V97.5537C906.066 97.7482 905.908 97.9059 905.714 97.9059C905.519 97.9059 905.361 97.7482 905.361 97.5537V14.6725C905.361 14.478 905.519 14.3203 905.714 14.3203Z" fill="#E2DFD5"/>
<path d="M640.417 97.5509H618.305V13.0809L628.418 0.476633C628.942 -0.158878 629.99 -0.158878 630.514 0.476633L640.417 13.0809V97.5509Z" fill="white"/>
<path fill-rule="evenodd" clip-rule="evenodd" d="M618.674 14.3203C618.869 14.3203 619.027 14.478 619.027 14.6725V97.5537C619.027 97.7482 618.869 97.9059 618.674 97.9059C618.48 97.9059 618.322 97.7482 618.322 97.5537V14.6725C618.322 14.478 618.48 14.3203 618.674 14.3203Z" fill="#E2DFD5"/>
<path d="M662.478 97.5509H640.365V13.0809L650.478 0.476633C651.002 -0.158878 652.05 -0.158878 652.574 0.476633L662.478 13.0809V97.5509Z" fill="white"/>
<path fill-rule="evenodd" clip-rule="evenodd" d="M640.731 14.3203C640.926 14.3203 641.083 14.478 641.083 14.6725V97.5537C641.083 97.7482 640.926 97.9059 640.731 97.9059C640.537 97.9059 640.379 97.7482 640.379 97.5537V14.6725C640.379 14.478 640.537 14.3203 640.731 14.3203Z" fill="#E2DFD5"/>
<path d="M684.537 97.5509H662.477V13.0809L672.59 0.476633C673.114 -0.158878 674.162 -0.158878 674.686 0.476633L684.589 13.0809L684.537 97.5509Z" fill="white"/>
<path fill-rule="evenodd" clip-rule="evenodd" d="M662.794 14.3203C662.988 14.3203 663.146 14.478 663.146 14.6725V97.5537C663.146 97.7482 662.988 97.9059 662.794 97.9059C662.599 97.9059 662.441 97.7482 662.441 97.5537V14.6725C662.441 14.478 662.599 14.3203 662.794 14.3203Z" fill="#E2DFD5"/>
<path d="M706.65 97.5509H684.537V13.0809L694.65 0.476633C695.174 -0.158878 696.222 -0.158878 696.746 0.476633L706.65 13.0809V97.5509Z" fill="white"/>
<path fill-rule="evenodd" clip-rule="evenodd" d="M684.903 14.3203C685.098 14.3203 685.255 14.478 685.255 14.6725V97.5537C685.255 97.7482 685.098 97.9059 684.903 97.9059C684.708 97.9059 684.551 97.7482 684.551 97.5537V14.6725C684.551 14.478 684.708 14.3203 684.903 14.3203Z" fill="#E2DFD5"/>
<path d="M728.712 97.5509H706.6V13.0809L716.713 0.476633C717.237 -0.158878 718.285 -0.158878 718.809 0.476633L728.712 13.0809V97.5509Z" fill="white"/>
<path fill-rule="evenodd" clip-rule="evenodd" d="M706.964 14.3203C707.158 14.3203 707.316 14.478 707.316 14.6725V97.5537C707.316 97.7482 707.158 97.9059 706.964 97.9059C706.769 97.9059 706.611 97.7482 706.611 97.5537V14.6725C706.611 14.478 706.769 14.3203 706.964 14.3203Z" fill="#E2DFD5"/>
<path d="M750.825 97.5509H728.713V13.0809L738.826 0.476633C739.35 -0.158878 740.398 -0.158878 740.922 0.476633L750.825 13.0809V97.5509Z" fill="white"/>
<path fill-rule="evenodd" clip-rule="evenodd" d="M729.075 14.3203C729.269 14.3203 729.427 14.478 729.427 14.6725V97.5537C729.427 97.7482 729.269 97.9059 729.075 97.9059C728.88 97.9059 728.723 97.7482 728.723 97.5537V14.6725C728.723 14.478 728.88 14.3203 729.075 14.3203Z" fill="#E2DFD5"/>
<path d="M772.88 97.5509H750.768V13.0809L760.881 0.476633C761.405 -0.158878 762.453 -0.158878 762.977 0.476633L772.88 13.0809V97.5509Z" fill="white"/>
<path fill-rule="evenodd" clip-rule="evenodd" d="M751.137 14.3203C751.332 14.3203 751.49 14.478 751.49 14.6725V97.5537C751.49 97.7482 751.332 97.9059 751.137 97.9059C750.943 97.9059 750.785 97.7482 750.785 97.5537V14.6725C750.785 14.478 750.943 14.3203 751.137 14.3203Z" fill="#E2DFD5"/>
<path d="M794.993 97.5509H772.881V13.0809L782.994 0.476633C783.518 -0.158878 784.566 -0.158878 785.09 0.476633L794.993 13.0809V97.5509Z" fill="white"/>
<path fill-rule="evenodd" clip-rule="evenodd" d="M773.251 14.3203C773.445 14.3203 773.603 14.478 773.603 14.6725V97.5537C773.603 97.7482 773.445 97.9059 773.251 97.9059C773.056 97.9059 772.898 97.7482 772.898 97.5537V14.6725C772.898 14.478 773.056 14.3203 773.251 14.3203Z" fill="#E2DFD5"/>
<path d="M817.056 97.5509H794.943V13.0809L805.056 0.476633C805.58 -0.158878 806.628 -0.158878 807.152 0.476633L817.056 13.0809V97.5509Z" fill="white"/>
<path fill-rule="evenodd" clip-rule="evenodd" d="M795.307 14.3203C795.502 14.3203 795.659 14.478 795.659 14.6725V97.5537C795.659 97.7482 795.502 97.9059 795.307 97.9059C795.113 97.9059 794.955 97.7482 794.955 97.5537V14.6725C794.955 14.478 795.113 14.3203 795.307 14.3203Z" fill="#E2DFD5"/>
<path d="M839.167 97.5509H817.055V13.0809L827.168 0.476633C827.692 -0.158878 828.74 -0.158878 829.264 0.476633L839.167 13.0809V97.5509Z" fill="white"/>
<path fill-rule="evenodd" clip-rule="evenodd" d="M817.417 14.3203C817.611 14.3203 817.769 14.478 817.769 14.6725V97.5537C817.769 97.7482 817.611 97.9059 817.417 97.9059C817.222 97.9059 817.064 97.7482 817.064 97.5537V14.6725C817.064 14.478 817.222 14.3203 817.417 14.3203Z" fill="#E2DFD5"/>
<path d="M861.23 97.5509H839.117V13.0809L849.23 0.476633C849.754 -0.158878 850.802 -0.158878 851.326 0.476633L861.23 13.0809V97.5509Z" fill="white"/>
<path fill-rule="evenodd" clip-rule="evenodd" d="M839.481 14.3203C839.676 14.3203 839.833 14.478 839.833 14.6725V97.5537C839.833 97.7482 839.676 97.9059 839.481 97.9059C839.287 97.9059 839.129 97.7482 839.129 97.5537V14.6725C839.129 14.478 839.287 14.3203 839.481 14.3203Z" fill="#E2DFD5"/>
<path d="M883.337 97.5509H861.225V13.0809L871.338 0.476633C871.862 -0.158878 872.91 -0.158878 873.434 0.476633L883.337 13.0809V97.5509Z" fill="white"/>
<path fill-rule="evenodd" clip-rule="evenodd" d="M861.542 14.3203C861.736 14.3203 861.894 14.478 861.894 14.6725V97.5537C861.894 97.7482 861.736 97.9059 861.542 97.9059C861.347 97.9059 861.189 97.7482 861.189 97.5537V14.6725C861.189 14.478 861.347 14.3203 861.542 14.3203Z" fill="#E2DFD5"/>
<path d="M905.401 97.5509H883.289V13.0809L893.402 0.476633C893.926 -0.158878 894.974 -0.158878 895.498 0.476633L905.401 13.0809V97.5509Z" fill="white"/>
<path fill-rule="evenodd" clip-rule="evenodd" d="M883.651 14.3203C883.846 14.3203 884.003 14.478 884.003 14.6725V97.5537C884.003 97.7482 883.846 97.9059 883.651 97.9059C883.457 97.9059 883.299 97.7482 883.299 97.5537V14.6725C883.299 14.478 883.457 14.3203 883.651 14.3203Z" fill="#E2DFD5"/>
<path d="M927.458 97.5509H905.346V13.0809L915.459 0.476633C915.983 -0.158878 917.031 -0.158878 917.555 0.476633L927.458 13.0809V97.5509Z" fill="white"/>
<path fill-rule="evenodd" clip-rule="evenodd" d="M905.714 14.3203C905.908 14.3203 906.066 14.478 906.066 14.6725V97.5537C906.066 97.7482 905.908 97.9059 905.714 97.9059C905.519 97.9059 905.361 97.7482 905.361 97.5537V14.6725C905.361 14.478 905.519 14.3203 905.714 14.3203Z" fill="#E2DFD5"/>
<path d="M949.571 97.5509H927.459V13.0809L937.572 0.476633C938.096 -0.158878 939.144 -0.158878 939.668 0.476633L949.571 13.0809V97.5509Z" fill="white"/>
<path fill-rule="evenodd" clip-rule="evenodd" d="M927.829 14.3203C928.023 14.3203 928.181 14.478 928.181 14.6725V97.5537C928.181 97.7482 928.023 97.9059 927.829 97.9059C927.634 97.9059 927.477 97.7482 927.477 97.5537V14.6725C927.477 14.478 927.634 14.3203 927.829 14.3203Z" fill="#E2DFD5"/>
<path d="M971.632 97.5509H949.52V13.0809L959.633 0.476633C960.157 -0.158878 961.205 -0.158878 961.729 0.476633L971.632 13.0809V97.5509Z" fill="white"/>
<path fill-rule="evenodd" clip-rule="evenodd" d="M949.885 14.3203C950.08 14.3203 950.238 14.478 950.238 14.6725V97.5537C950.238 97.7482 950.08 97.9059 949.885 97.9059C949.691 97.9059 949.533 97.7482 949.533 97.5537V14.6725C949.533 14.478 949.691 14.3203 949.885 14.3203Z" fill="#E2DFD5"/>
<path d="M993.691 97.5509H971.631V13.0809L981.744 0.476633C982.268 -0.158878 983.316 -0.158878 983.84 0.476633L993.743 13.0809L993.691 97.5509Z" fill="white"/>
<path fill-rule="evenodd" clip-rule="evenodd" d="M971.948 14.3203C972.142 14.3203 972.3 14.478 972.3 14.6725V97.5537C972.3 97.7482 972.142 97.9059 971.948 97.9059C971.753 97.9059 971.596 97.7482 971.596 97.5537V14.6725C971.596 14.478 971.753 14.3203 971.948 14.3203Z" fill="#E2DFD5"/>
<path d="M1015.8 97.5509H993.691V13.0809L1003.8 0.476633C1004.33 -0.158878 1005.38 -0.158878 1005.9 0.476633L1015.8 13.0809V97.5509Z" fill="white"/>
<path fill-rule="evenodd" clip-rule="evenodd" d="M994.057 14.3203C994.252 14.3203 994.409 14.478 994.409 14.6725V97.5537C994.409 97.7482 994.252 97.9059 994.057 97.9059C993.863 97.9059 993.705 97.7482 993.705 97.5537V14.6725C993.705 14.478 993.863 14.3203 994.057 14.3203Z" fill="#E2DFD5"/>
<path d="M1037.87 97.5509H1015.75V13.0809L1025.87 0.476633C1026.39 -0.158878 1027.44 -0.158878 1027.96 0.476633L1037.87 13.0809V97.5509Z" fill="white"/>
<path fill-rule="evenodd" clip-rule="evenodd" d="M1016.12 14.3203C1016.31 14.3203 1016.47 14.478 1016.47 14.6725V97.5537C1016.47 97.7482 1016.31 97.9059 1016.12 97.9059C1015.92 97.9059 1015.77 97.7482 1015.77 97.5537V14.6725C1015.77 14.478 1015.92 14.3203 1016.12 14.3203Z" fill="#E2DFD5"/>
<path d="M1059.98 97.5509H1037.87V13.0809L1047.98 0.476633C1048.5 -0.158878 1049.55 -0.158878 1050.08 0.476633L1059.98 13.0809V97.5509Z" fill="white"/>
<path fill-rule="evenodd" clip-rule="evenodd" d="M1038.23 14.3203C1038.42 14.3203 1038.58 14.478 1038.58 14.6725V97.5537C1038.58 97.7482 1038.42 97.9059 1038.23 97.9059C1038.03 97.9059 1037.88 97.7482 1037.88 97.5537V14.6725C1037.88 14.478 1038.03 14.3203 1038.23 14.3203Z" fill="#E2DFD5"/>
<path d="M1082.03 97.5509H1059.92V13.0809L1070.03 0.476633C1070.56 -0.158878 1071.61 -0.158878 1072.13 0.476633L1082.03 13.0809V97.5509Z" fill="white"/>
<path fill-rule="evenodd" clip-rule="evenodd" d="M1060.29 14.3203C1060.49 14.3203 1060.64 14.478 1060.64 14.6725V97.5537C1060.64 97.7482 1060.49 97.9059 1060.29 97.9059C1060.1 97.9059 1059.94 97.7482 1059.94 97.5537V14.6725C1059.94 14.478 1060.1 14.3203 1060.29 14.3203Z" fill="#E2DFD5"/>
<path d="M1104.15 97.5509H1082.04V13.0809L1092.15 0.476633C1092.67 -0.158878 1093.72 -0.158878 1094.24 0.476633L1104.15 13.0809V97.5509Z" fill="white"/>
<path fill-rule="evenodd" clip-rule="evenodd" d="M1082.4 14.3203C1082.6 14.3203 1082.76 14.478 1082.76 14.6725V97.5537C1082.76 97.7482 1082.6 97.9059 1082.4 97.9059C1082.21 97.9059 1082.05 97.7482 1082.05 97.5537V14.6725C1082.05 14.478 1082.21 14.3203 1082.4 14.3203Z" fill="#E2DFD5"/>
<path d="M1126.21 97.5509H1104.1V13.0809L1114.21 0.476633C1114.73 -0.158878 1115.78 -0.158878 1116.31 0.476633L1126.21 13.0809V97.5509Z" fill="white"/>
<path fill-rule="evenodd" clip-rule="evenodd" d="M1104.46 14.3203C1104.66 14.3203 1104.81 14.478 1104.81 14.6725V97.5537C1104.81 97.7482 1104.66 97.9059 1104.46 97.9059C1104.27 97.9059 1104.11 97.7482 1104.11 97.5537V14.6725C1104.11 14.478 1104.27 14.3203 1104.46 14.3203Z" fill="#E2DFD5"/>
<path d="M1148.32 97.5509H1126.21V13.0809L1136.32 0.476633C1136.85 -0.158878 1137.89 -0.158878 1138.42 0.476633L1148.32 13.0809V97.5509Z" fill="white"/>
<path fill-rule="evenodd" clip-rule="evenodd" d="M1126.57 14.3203C1126.77 14.3203 1126.92 14.478 1126.92 14.6725V97.5537C1126.92 97.7482 1126.77 97.9059 1126.57 97.9059C1126.38 97.9059 1126.22 97.7482 1126.22 97.5537V14.6725C1126.22 14.478 1126.38 14.3203 1126.57 14.3203Z" fill="#E2DFD5"/>
<path d="M1170.38 97.5509H1148.27V13.0809L1158.38 0.476633C1158.91 -0.158878 1159.96 -0.158878 1160.48 0.476633L1170.38 13.0809V97.5509Z" fill="white"/>
<path fill-rule="evenodd" clip-rule="evenodd" d="M1148.64 14.3203C1148.83 14.3203 1148.99 14.478 1148.99 14.6725V97.5537C1148.99 97.7482 1148.83 97.9059 1148.64 97.9059C1148.44 97.9059 1148.28 97.7482 1148.28 97.5537V14.6725C1148.28 14.478 1148.44 14.3203 1148.64 14.3203Z" fill="#E2DFD5"/>
<path d="M1192.49 97.5509H1170.38V13.0809L1180.49 0.476633C1181.02 -0.158878 1182.06 -0.158878 1182.59 0.476633L1192.49 13.0809V97.5509Z" fill="white"/>
<path fill-rule="evenodd" clip-rule="evenodd" d="M1170.7 14.3203C1170.89 14.3203 1171.05 14.478 1171.05 14.6725V97.5537C1171.05 97.7482 1170.89 97.9059 1170.7 97.9059C1170.5 97.9059 1170.34 97.7482 1170.34 97.5537V14.6725C1170.34 14.478 1170.5 14.3203 1170.7 14.3203Z" fill="#E2DFD5"/>
<path d="M1214.56 97.5509H1192.44V13.0809L1202.56 0.476633C1203.08 -0.158878 1204.13 -0.158878 1204.65 0.476633L1214.56 13.0809V97.5509Z" fill="white"/>
<path fill-rule="evenodd" clip-rule="evenodd" d="M1192.81 14.3203C1193 14.3203 1193.16 14.478 1193.16 14.6725V97.5537C1193.16 97.7482 1193 97.9059 1192.81 97.9059C1192.61 97.9059 1192.45 97.7482 1192.45 97.5537V14.6725C1192.45 14.478 1192.61 14.3203 1192.81 14.3203Z" fill="#E2DFD5"/>
<path d="M1236.61 97.5509H1214.5V13.0809L1224.61 0.476633C1225.14 -0.158878 1226.19 -0.158878 1226.71 0.476633L1236.61 13.0809V97.5509Z" fill="white"/>
<path fill-rule="evenodd" clip-rule="evenodd" d="M1214.87 14.3203C1215.06 14.3203 1215.22 14.478 1215.22 14.6725V97.5537C1215.22 97.7482 1215.06 97.9059 1214.87 97.9059C1214.67 97.9059 1214.52 97.7482 1214.52 97.5537V14.6725C1214.52 14.478 1214.67 14.3203 1214.87 14.3203Z" fill="#E2DFD5"/>
<path d="M949.571 97.5509H927.459V13.0809L937.572 0.476633C938.096 -0.158878 939.144 -0.158878 939.668 0.476633L949.571 13.0809V97.5509Z" fill="white"/>
<path fill-rule="evenodd" clip-rule="evenodd" d="M927.829 14.3203C928.023 14.3203 928.181 14.478 928.181 14.6725V97.5537C928.181 97.7482 928.023 97.9059 927.829 97.9059C927.634 97.9059 927.477 97.7482 927.477 97.5537V14.6725C927.477 14.478 927.634 14.3203 927.829 14.3203Z" fill="#E2DFD5"/>
<path d="M971.632 97.5509H949.52V13.0809L959.633 0.476633C960.157 -0.158878 961.205 -0.158878 961.729 0.476633L971.632 13.0809V97.5509Z" fill="white"/>
<path fill-rule="evenodd" clip-rule="evenodd" d="M949.885 14.3203C950.08 14.3203 950.238 14.478 950.238 14.6725V97.5537C950.238 97.7482 950.08 97.9059 949.885 97.9059C949.691 97.9059 949.533 97.7482 949.533 97.5537V14.6725C949.533 14.478 949.691 14.3203 949.885 14.3203Z" fill="#E2DFD5"/>
<path d="M993.691 97.5509H971.631V13.0809L981.744 0.476633C982.268 -0.158878 983.316 -0.158878 983.84 0.476633L993.743 13.0809L993.691 97.5509Z" fill="white"/>
<path fill-rule="evenodd" clip-rule="evenodd" d="M971.948 14.3203C972.142 14.3203 972.3 14.478 972.3 14.6725V97.5537C972.3 97.7482 972.142 97.9059 971.948 97.9059C971.753 97.9059 971.596 97.7482 971.596 97.5537V14.6725C971.596 14.478 971.753 14.3203 971.948 14.3203Z" fill="#E2DFD5"/>
<path d="M1015.8 97.5509H993.691V13.0809L1003.8 0.476633C1004.33 -0.158878 1005.38 -0.158878 1005.9 0.476633L1015.8 13.0809V97.5509Z" fill="white"/>
<path fill-rule="evenodd" clip-rule="evenodd" d="M994.057 14.3203C994.252 14.3203 994.409 14.478 994.409 14.6725V97.5537C994.409 97.7482 994.252 97.9059 994.057 97.9059C993.863 97.9059 993.705 97.7482 993.705 97.5537V14.6725C993.705 14.478 993.863 14.3203 994.057 14.3203Z" fill="#E2DFD5"/>
<path d="M1037.87 97.5509H1015.75V13.0809L1025.87 0.476633C1026.39 -0.158878 1027.44 -0.158878 1027.96 0.476633L1037.87 13.0809V97.5509Z" fill="white"/>
<path fill-rule="evenodd" clip-rule="evenodd" d="M1016.12 14.3203C1016.31 14.3203 1016.47 14.478 1016.47 14.6725V97.5537C1016.47 97.7482 1016.31 97.9059 1016.12 97.9059C1015.92 97.9059 1015.77 97.7482 1015.77 97.5537V14.6725C1015.77 14.478 1015.92 14.3203 1016.12 14.3203Z" fill="#E2DFD5"/>
<path d="M1059.98 97.5509H1037.87V13.0809L1047.98 0.476633C1048.5 -0.158878 1049.55 -0.158878 1050.08 0.476633L1059.98 13.0809V97.5509Z" fill="white"/>
<path fill-rule="evenodd" clip-rule="evenodd" d="M1038.23 14.3203C1038.42 14.3203 1038.58 14.478 1038.58 14.6725V97.5537C1038.58 97.7482 1038.42 97.9059 1038.23 97.9059C1038.03 97.9059 1037.88 97.7482 1037.88 97.5537V14.6725C1037.88 14.478 1038.03 14.3203 1038.23 14.3203Z" fill="#E2DFD5"/>
<path d="M1082.03 97.5509H1059.92V13.0809L1070.03 0.476633C1070.56 -0.158878 1071.61 -0.158878 1072.13 0.476633L1082.03 13.0809V97.5509Z" fill="white"/>
<path fill-rule="evenodd" clip-rule="evenodd" d="M1060.29 14.3203C1060.49 14.3203 1060.64 14.478 1060.64 14.6725V97.5537C1060.64 97.7482 1060.49 97.9059 1060.29 97.9059C1060.1 97.9059 1059.94 97.7482 1059.94 97.5537V14.6725C1059.94 14.478 1060.1 14.3203 1060.29 14.3203Z" fill="#E2DFD5"/>
<path d="M1104.15 97.5509H1082.04V13.0809L1092.15 0.476633C1092.67 -0.158878 1093.72 -0.158878 1094.24 0.476633L1104.15 13.0809V97.5509Z" fill="white"/>
<path fill-rule="evenodd" clip-rule="evenodd" d="M1082.4 14.3203C1082.6 14.3203 1082.76 14.478 1082.76 14.6725V97.5537C1082.76 97.7482 1082.6 97.9059 1082.4 97.9059C1082.21 97.9059 1082.05 97.7482 1082.05 97.5537V14.6725C1082.05 14.478 1082.21 14.3203 1082.4 14.3203Z" fill="#E2DFD5"/>
<path d="M1126.21 97.5509H1104.1V13.0809L1114.21 0.476633C1114.73 -0.158878 1115.78 -0.158878 1116.31 0.476633L1126.21 13.0809V97.5509Z" fill="white"/>
<path fill-rule="evenodd" clip-rule="evenodd" d="M1104.46 14.3203C1104.66 14.3203 1104.81 14.478 1104.81 14.6725V97.5537C1104.81 97.7482 1104.66 97.9059 1104.46 97.9059C1104.27 97.9059 1104.11 97.7482 1104.11 97.5537V14.6725C1104.11 14.478 1104.27 14.3203 1104.46 14.3203Z" fill="#E2DFD5"/>
<path d="M1148.32 97.5509H1126.21V13.0809L1136.32 0.476633C1136.85 -0.158878 1137.89 -0.158878 1138.42 0.476633L1148.32 13.0809V97.5509Z" fill="white"/>
<path fill-rule="evenodd" clip-rule="evenodd" d="M1126.57 14.3203C1126.77 14.3203 1126.92 14.478 1126.92 14.6725V97.5537C1126.92 97.7482 1126.77 97.9059 1126.57 97.9059C1126.38 97.9059 1126.22 97.7482 1126.22 97.5537V14.6725C1126.22 14.478 1126.38 14.3203 1126.57 14.3203Z" fill="#E2DFD5"/>
<path d="M1170.38 97.5509H1148.27V13.0809L1158.38 0.476633C1158.91 -0.158878 1159.96 -0.158878 1160.48 0.476633L1170.38 13.0809V97.5509Z" fill="white"/>
<path fill-rule="evenodd" clip-rule="evenodd" d="M1148.64 14.3203C1148.83 14.3203 1148.99 14.478 1148.99 14.6725V97.5537C1148.99 97.7482 1148.83 97.9059 1148.64 97.9059C1148.44 97.9059 1148.28 97.7482 1148.28 97.5537V14.6725C1148.28 14.478 1148.44 14.3203 1148.64 14.3203Z" fill="#E2DFD5"/>
<path d="M1192.49 97.5509H1170.38V13.0809L1180.49 0.476633C1181.02 -0.158878 1182.06 -0.158878 1182.59 0.476633L1192.49 13.0809V97.5509Z" fill="white"/>
<path fill-rule="evenodd" clip-rule="evenodd" d="M1170.7 14.3203C1170.89 14.3203 1171.05 14.478 1171.05 14.6725V97.5537C1171.05 97.7482 1170.89 97.9059 1170.7 97.9059C1170.5 97.9059 1170.34 97.7482 1170.34 97.5537V14.6725C1170.34 14.478 1170.5 14.3203 1170.7 14.3203Z" fill="#E2DFD5"/>
<path d="M1214.56 97.5509H1192.44V13.0809L1202.56 0.476633C1203.08 -0.158878 1204.13 -0.158878 1204.65 0.476633L1214.56 13.0809V97.5509Z" fill="white"/>
<path fill-rule="evenodd" clip-rule="evenodd" d="M1192.81 14.3203C1193 14.3203 1193.16 14.478 1193.16 14.6725V97.5537C1193.16 97.7482 1193 97.9059 1192.81 97.9059C1192.61 97.9059 1192.45 97.7482 1192.45 97.5537V14.6725C1192.45 14.478 1192.61 14.3203 1192.81 14.3203Z" fill="#E2DFD5"/>
<path d="M1236.61 97.5509H1214.5V13.0809L1224.61 0.476633C1225.14 -0.158878 1226.19 -0.158878 1226.71 0.476633L1236.61 13.0809V97.5509Z" fill="white"/>
<path fill-rule="evenodd" clip-rule="evenodd" d="M1214.87 14.3203C1215.06 14.3203 1215.22 14.478 1215.22 14.6725V97.5537C1215.22 97.7482 1215.06 97.9059 1214.87 97.9059C1214.67 97.9059 1214.52 97.7482 1214.52 97.5537V14.6725C1214.52 14.478 1214.67 14.3203 1214.87 14.3203Z" fill="#E2DFD5"/>
<path d="M1258.72 97.5509H1236.61V13.0809L1246.72 0.476633C1247.25 -0.158878 1248.3 -0.158878 1248.82 0.476633L1258.72 13.0809V97.5509Z" fill="white"/>
<path fill-rule="evenodd" clip-rule="evenodd" d="M1236.98 14.3203C1237.18 14.3203 1237.33 14.478 1237.33 14.6725V97.5537C1237.33 97.7482 1237.18 97.9059 1236.98 97.9059C1236.79 97.9059 1236.63 97.7482 1236.63 97.5537V14.6725C1236.63 14.478 1236.79 14.3203 1236.98 14.3203Z" fill="#E2DFD5"/>
<path d="M1280.78 97.5509H1258.67V13.0809L1268.78 0.476633C1269.31 -0.158878 1270.36 -0.158878 1270.88 0.476633L1280.78 13.0809V97.5509Z" fill="white"/>
<path fill-rule="evenodd" clip-rule="evenodd" d="M1259.04 14.3203C1259.23 14.3203 1259.39 14.478 1259.39 14.6725V97.5537C1259.39 97.7482 1259.23 97.9059 1259.04 97.9059C1258.84 97.9059 1258.69 97.7482 1258.69 97.5537V14.6725C1258.69 14.478 1258.84 14.3203 1259.04 14.3203Z" fill="#E2DFD5"/>
<path d="M1302.84 97.5509H1280.78V13.0809L1290.9 0.476633C1291.42 -0.158878 1292.47 -0.158878 1292.99 0.476633L1302.9 13.0809L1302.84 97.5509Z" fill="white"/>
<path fill-rule="evenodd" clip-rule="evenodd" d="M1281.1 14.3203C1281.29 14.3203 1281.45 14.478 1281.45 14.6725V97.5537C1281.45 97.7482 1281.29 97.9059 1281.1 97.9059C1280.91 97.9059 1280.75 97.7482 1280.75 97.5537V14.6725C1280.75 14.478 1280.91 14.3203 1281.1 14.3203Z" fill="#E2DFD5"/>
<path d="M1324.96 97.5509H1302.84V13.0809L1312.96 0.476633C1313.48 -0.158878 1314.53 -0.158878 1315.05 0.476633L1324.96 13.0809V97.5509Z" fill="white"/>
<path fill-rule="evenodd" clip-rule="evenodd" d="M1303.21 14.3203C1303.4 14.3203 1303.56 14.478 1303.56 14.6725V97.5537C1303.56 97.7482 1303.4 97.9059 1303.21 97.9059C1303.02 97.9059 1302.86 97.7482 1302.86 97.5537V14.6725C1302.86 14.478 1303.02 14.3203 1303.21 14.3203Z" fill="#E2DFD5"/>
<path d="M1347.02 97.5509H1324.91V13.0809L1335.02 0.476633C1335.54 -0.158878 1336.59 -0.158878 1337.12 0.476633L1347.02 13.0809V97.5509Z" fill="white"/>
<path fill-rule="evenodd" clip-rule="evenodd" d="M1325.27 14.3203C1325.46 14.3203 1325.62 14.478 1325.62 14.6725V97.5537C1325.62 97.7482 1325.46 97.9059 1325.27 97.9059C1325.08 97.9059 1324.92 97.7482 1324.92 97.5537V14.6725C1324.92 14.478 1325.08 14.3203 1325.27 14.3203Z" fill="#E2DFD5"/>
<path d="M1369.13 97.5509H1347.02V13.0809L1357.13 0.476633C1357.66 -0.158878 1358.7 -0.158878 1359.23 0.476633L1369.13 13.0809V97.5509Z" fill="white"/>
<path fill-rule="evenodd" clip-rule="evenodd" d="M1347.38 14.3203C1347.58 14.3203 1347.73 14.478 1347.73 14.6725V97.5537C1347.73 97.7482 1347.58 97.9059 1347.38 97.9059C1347.19 97.9059 1347.03 97.7482 1347.03 97.5537V14.6725C1347.03 14.478 1347.19 14.3203 1347.38 14.3203Z" fill="#E2DFD5"/>
<path d="M1391.19 97.5509H1369.07V13.0809L1379.19 0.476633C1379.71 -0.158878 1380.76 -0.158878 1381.28 0.476633L1391.19 13.0809V97.5509Z" fill="white"/>
<path fill-rule="evenodd" clip-rule="evenodd" d="M1369.44 14.3203C1369.64 14.3203 1369.8 14.478 1369.8 14.6725V97.5537C1369.8 97.7482 1369.64 97.9059 1369.44 97.9059C1369.25 97.9059 1369.09 97.7482 1369.09 97.5537V14.6725C1369.09 14.478 1369.25 14.3203 1369.44 14.3203Z" fill="#E2DFD5"/>
<path d="M1413.3 97.5509H1391.19V13.0809L1401.3 0.476633C1401.82 -0.158878 1402.87 -0.158878 1403.4 0.476633L1413.3 13.0809V97.5509Z" fill="white"/>
<path fill-rule="evenodd" clip-rule="evenodd" d="M1391.56 14.3203C1391.75 14.3203 1391.91 14.478 1391.91 14.6725V97.5537C1391.91 97.7482 1391.75 97.9059 1391.56 97.9059C1391.36 97.9059 1391.21 97.7482 1391.21 97.5537V14.6725C1391.21 14.478 1391.36 14.3203 1391.56 14.3203Z" fill="#E2DFD5"/>
<path d="M1435.36 97.5509H1413.25V13.0809L1423.36 0.476633C1423.89 -0.158878 1424.93 -0.158878 1425.46 0.476633L1435.36 13.0809V97.5509Z" fill="white"/>
<path fill-rule="evenodd" clip-rule="evenodd" d="M1413.61 14.3203C1413.81 14.3203 1413.97 14.478 1413.97 14.6725V97.5537C1413.97 97.7482 1413.81 97.9059 1413.61 97.9059C1413.42 97.9059 1413.26 97.7482 1413.26 97.5537V14.6725C1413.26 14.478 1413.42 14.3203 1413.61 14.3203Z" fill="#E2DFD5"/>
<path d="M1457.47 97.5509H1435.36V13.0809L1445.47 0.476633C1446 -0.158878 1447.05 -0.158878 1447.57 0.476633L1457.47 13.0809V97.5509Z" fill="white"/>
<path fill-rule="evenodd" clip-rule="evenodd" d="M1435.72 14.3203C1435.92 14.3203 1436.08 14.478 1436.08 14.6725V97.5537C1436.08 97.7482 1435.92 97.9059 1435.72 97.9059C1435.53 97.9059 1435.37 97.7482 1435.37 97.5537V14.6725C1435.37 14.478 1435.53 14.3203 1435.72 14.3203Z" fill="#E2DFD5"/>
<path d="M1258.72 97.5509H1236.61V13.0809L1246.72 0.476633C1247.25 -0.158878 1248.3 -0.158878 1248.82 0.476633L1258.72 13.0809V97.5509Z" fill="white"/>
<path fill-rule="evenodd" clip-rule="evenodd" d="M1236.98 14.3203C1237.18 14.3203 1237.33 14.478 1237.33 14.6725V97.5537C1237.33 97.7482 1237.18 97.9059 1236.98 97.9059C1236.79 97.9059 1236.63 97.7482 1236.63 97.5537V14.6725C1236.63 14.478 1236.79 14.3203 1236.98 14.3203Z" fill="#E2DFD5"/>
<path d="M1280.78 97.5509H1258.67V13.0809L1268.78 0.476633C1269.31 -0.158878 1270.36 -0.158878 1270.88 0.476633L1280.78 13.0809V97.5509Z" fill="white"/>
<path fill-rule="evenodd" clip-rule="evenodd" d="M1259.04 14.3203C1259.23 14.3203 1259.39 14.478 1259.39 14.6725V97.5537C1259.39 97.7482 1259.23 97.9059 1259.04 97.9059C1258.84 97.9059 1258.69 97.7482 1258.69 97.5537V14.6725C1258.69 14.478 1258.84 14.3203 1259.04 14.3203Z" fill="#E2DFD5"/>
<path d="M1302.84 97.5509H1280.78V13.0809L1290.9 0.476633C1291.42 -0.158878 1292.47 -0.158878 1292.99 0.476633L1302.9 13.0809L1302.84 97.5509Z" fill="white"/>
<path fill-rule="evenodd" clip-rule="evenodd" d="M1281.1 14.3203C1281.29 14.3203 1281.45 14.478 1281.45 14.6725V97.5537C1281.45 97.7482 1281.29 97.9059 1281.1 97.9059C1280.91 97.9059 1280.75 97.7482 1280.75 97.5537V14.6725C1280.75 14.478 1280.91 14.3203 1281.1 14.3203Z" fill="#E2DFD5"/>
<path d="M1324.96 97.5509H1302.84V13.0809L1312.96 0.476633C1313.48 -0.158878 1314.53 -0.158878 1315.05 0.476633L1324.96 13.0809V97.5509Z" fill="white"/>
<path fill-rule="evenodd" clip-rule="evenodd" d="M1303.21 14.3203C1303.4 14.3203 1303.56 14.478 1303.56 14.6725V97.5537C1303.56 97.7482 1303.4 97.9059 1303.21 97.9059C1303.02 97.9059 1302.86 97.7482 1302.86 97.5537V14.6725C1302.86 14.478 1303.02 14.3203 1303.21 14.3203Z" fill="#E2DFD5"/>
<path d="M1347.02 97.5509H1324.91V13.0809L1335.02 0.476633C1335.54 -0.158878 1336.59 -0.158878 1337.12 0.476633L1347.02 13.0809V97.5509Z" fill="white"/>
<path fill-rule="evenodd" clip-rule="evenodd" d="M1325.27 14.3203C1325.46 14.3203 1325.62 14.478 1325.62 14.6725V97.5537C1325.62 97.7482 1325.46 97.9059 1325.27 97.9059C1325.08 97.9059 1324.92 97.7482 1324.92 97.5537V14.6725C1324.92 14.478 1325.08 14.3203 1325.27 14.3203Z" fill="#E2DFD5"/>
<path d="M1369.13 97.5509H1347.02V13.0809L1357.13 0.476633C1357.66 -0.158878 1358.7 -0.158878 1359.23 0.476633L1369.13 13.0809V97.5509Z" fill="white"/>
<path fill-rule="evenodd" clip-rule="evenodd" d="M1347.38 14.3203C1347.58 14.3203 1347.73 14.478 1347.73 14.6725V97.5537C1347.73 97.7482 1347.58 97.9059 1347.38 97.9059C1347.19 97.9059 1347.03 97.7482 1347.03 97.5537V14.6725C1347.03 14.478 1347.19 14.3203 1347.38 14.3203Z" fill="#E2DFD5"/>
<path d="M1391.19 97.5509H1369.07V13.0809L1379.19 0.476633C1379.71 -0.158878 1380.76 -0.158878 1381.28 0.476633L1391.19 13.0809V97.5509Z" fill="white"/>
<path fill-rule="evenodd" clip-rule="evenodd" d="M1369.44 14.3203C1369.64 14.3203 1369.8 14.478 1369.8 14.6725V97.5537C1369.8 97.7482 1369.64 97.9059 1369.44 97.9059C1369.25 97.9059 1369.09 97.7482 1369.09 97.5537V14.6725C1369.09 14.478 1369.25 14.3203 1369.44 14.3203Z" fill="#E2DFD5"/>
<path d="M1413.3 97.5509H1391.19V13.0809L1401.3 0.476633C1401.82 -0.158878 1402.87 -0.158878 1403.4 0.476633L1413.3 13.0809V97.5509Z" fill="white"/>
<path fill-rule="evenodd" clip-rule="evenodd" d="M1391.56 14.3203C1391.75 14.3203 1391.91 14.478 1391.91 14.6725V97.5537C1391.91 97.7482 1391.75 97.9059 1391.56 97.9059C1391.36 97.9059 1391.21 97.7482 1391.21 97.5537V14.6725C1391.21 14.478 1391.36 14.3203 1391.56 14.3203Z" fill="#E2DFD5"/>
<path d="M1435.36 97.5509H1413.25V13.0809L1423.36 0.476633C1423.89 -0.158878 1424.93 -0.158878 1425.46 0.476633L1435.36 13.0809V97.5509Z" fill="white"/>
<path fill-rule="evenodd" clip-rule="evenodd" d="M1413.61 14.3203C1413.81 14.3203 1413.97 14.478 1413.97 14.6725V97.5537C1413.97 97.7482 1413.81 97.9059 1413.61 97.9059C1413.42 97.9059 1413.26 97.7482 1413.26 97.5537V14.6725C1413.26 14.478 1413.42 14.3203 1413.61 14.3203Z" fill="#E2DFD5"/>
<path d="M1457.47 97.5509H1435.36V13.0809L1445.47 0.476633C1446 -0.158878 1447.05 -0.158878 1447.57 0.476633L1457.47 13.0809V97.5509Z" fill="white"/>
<path fill-rule="evenodd" clip-rule="evenodd" d="M1435.72 14.3203C1435.92 14.3203 1436.08 14.478 1436.08 14.6725V97.5537C1436.08 97.7482 1435.92 97.9059 1435.72 97.9059C1435.53 97.9059 1435.37 97.7482 1435.37 97.5537V14.6725C1435.37 14.478 1435.53 14.3203 1435.72 14.3203Z" fill="#E2DFD5"/>
</svg>
