<svg width="111" height="106" viewBox="0 0 111 106" fill="none" xmlns="http://www.w3.org/2000/svg">
<path d="M63.3602 100.152C70.3742 100.152 76.0602 77.9904 76.0602 50.6523C76.0602 23.3142 70.3742 1.15234 63.3602 1.15234C56.3461 1.15234 50.6602 23.3142 50.6602 50.6523C50.6602 77.9904 56.3461 100.152 63.3602 100.152Z" fill="#21998D"/>
<path d="M95.9613 60.1497C83.3613 83.2497 68.3613 101.05 62.4613 100.15C56.5613 99.1497 61.9613 79.6497 74.5613 56.6497C87.1614 33.6497 102.161 15.7497 108.061 16.6497C113.961 17.6497 108.561 37.1497 95.9613 60.1497Z" fill="#21998D"/>
<path d="M63.6153 99.9936C69.1864 96.8301 61.72 73.1637 46.9387 47.1332C32.1574 21.1027 15.6585 2.56542 10.0874 5.72895C4.51627 8.89248 11.9826 32.5589 26.764 58.5894C41.5453 84.6198 58.0442 103.157 63.6153 99.9936Z" fill="#21998D"/>
</svg>
