<svg width="792" height="297" viewBox="0 0 792 297" fill="none" xmlns="http://www.w3.org/2000/svg">
<mask id="mask0" mask-type="alpha" maskUnits="userSpaceOnUse" x="0" y="0" width="677" height="298">
<rect width="676.902" height="297.837" fill="#C4C4C4"/>
</mask>
<g mask="url(#mask0)">
<path d="M470.971 269.388H456.451V217.393L463.078 209.632C463.249 209.444 463.498 209.336 463.761 209.336C464.023 209.336 464.272 209.444 464.444 209.632L470.959 217.393L470.971 269.388Z" fill="white"/>
<path d="M456.462 217.633V269.402" stroke="#E9E6DE" stroke-width="0.99" stroke-linecap="round"/>
<path d="M483.422 269.388H468.902V217.393L475.52 209.632C475.692 209.444 475.941 209.336 476.202 209.336C476.464 209.336 476.713 209.444 476.885 209.632L483.422 217.393V269.388Z" fill="white"/>
<path d="M470.985 217.633V269.402" stroke="#E9E6DE" stroke-width="0.99" stroke-linecap="round"/>
<path d="M497.946 269.388H483.426V217.393L490.058 209.632C490.229 209.444 490.479 209.336 490.741 209.336C491.004 209.336 491.253 209.444 491.425 209.632L497.946 217.393V269.388Z" fill="white"/>
<path d="M483.429 217.633V269.402" stroke="#E9E6DE" stroke-width="0.99" stroke-linecap="round"/>
<path d="M512.469 269.388H497.949V217.393L504.581 209.632C504.753 209.444 505.002 209.336 505.265 209.336C505.527 209.336 505.777 209.444 505.949 209.632L512.469 217.393V269.388Z" fill="white"/>
<path d="M497.952 217.633V269.402" stroke="#E9E6DE" stroke-width="0.99" stroke-linecap="round"/>
<path d="M524.903 269.388H510.383V217.393L517.015 209.632C517.186 209.444 517.436 209.336 517.698 209.336C517.961 209.336 518.211 209.444 518.382 209.632L524.903 217.393V269.388Z" fill="white"/>
<path d="M510.394 217.633V269.402" stroke="#E9E6DE" stroke-width="0.99" stroke-linecap="round"/>
<path d="M539.438 269.388H524.918V217.393L531.525 209.632C531.697 209.444 531.946 209.336 532.209 209.336C532.471 209.336 532.721 209.444 532.893 209.632L539.413 217.393L539.438 269.388Z" fill="white"/>
<path d="M524.909 217.633V269.402" stroke="#E9E6DE" stroke-width="0.99" stroke-linecap="round"/>
<path d="M553.957 269.388H539.438V217.393L546.07 209.632C546.241 209.444 546.491 209.336 546.753 209.336C547.016 209.336 547.265 209.444 547.437 209.632L553.957 217.393V269.388Z" fill="white"/>
<path d="M539.425 217.633V269.402" stroke="#E9E6DE" stroke-width="0.99" stroke-linecap="round"/>
<path d="M566.378 269.388H551.883V217.393L558.528 209.632C558.7 209.444 558.949 209.336 559.211 209.336C559.473 209.336 559.722 209.444 559.893 209.632L566.403 217.393L566.378 269.388Z" fill="white"/>
<path d="M551.882 217.633V269.402" stroke="#E9E6DE" stroke-width="0.99" stroke-linecap="round"/>
<path d="M566.398 217.633V269.402" stroke="#E9E6DE" stroke-width="0.99" stroke-linecap="round"/>
<path d="M470.971 269.388H456.451V217.393L463.078 209.632C463.249 209.444 463.498 209.336 463.761 209.336C464.023 209.336 464.272 209.444 464.444 209.632L470.959 217.393L470.971 269.388Z" fill="white"/>
<path d="M456.462 217.633V269.402" stroke="#E9E6DE" stroke-width="0.99" stroke-linecap="round"/>
<path d="M483.422 269.388H468.902V217.393L475.52 209.632C475.692 209.444 475.941 209.336 476.202 209.336C476.464 209.336 476.713 209.444 476.885 209.632L483.422 217.393V269.388Z" fill="white"/>
<path d="M470.985 217.633V269.402" stroke="#E9E6DE" stroke-width="0.99" stroke-linecap="round"/>
<path d="M497.946 269.388H483.426V217.393L490.058 209.632C490.229 209.444 490.479 209.336 490.741 209.336C491.004 209.336 491.253 209.444 491.425 209.632L497.946 217.393V269.388Z" fill="white"/>
<path d="M483.429 217.633V269.402" stroke="#E9E6DE" stroke-width="0.99" stroke-linecap="round"/>
<path d="M512.469 269.388H497.949V217.393L504.581 209.632C504.753 209.444 505.002 209.336 505.265 209.336C505.527 209.336 505.777 209.444 505.949 209.632L512.469 217.393V269.388Z" fill="white"/>
<path d="M497.952 217.633V269.402" stroke="#E9E6DE" stroke-width="0.99" stroke-linecap="round"/>
<path d="M524.903 269.388H510.383V217.393L517.015 209.632C517.186 209.444 517.436 209.336 517.698 209.336C517.961 209.336 518.211 209.444 518.382 209.632L524.903 217.393V269.388Z" fill="white"/>
<path d="M510.394 217.633V269.402" stroke="#E9E6DE" stroke-width="0.99" stroke-linecap="round"/>
<path d="M539.438 269.388H524.918V217.393L531.525 209.632C531.697 209.444 531.946 209.336 532.209 209.336C532.471 209.336 532.721 209.444 532.893 209.632L539.413 217.393L539.438 269.388Z" fill="white"/>
<path d="M524.909 217.633V269.402" stroke="#E9E6DE" stroke-width="0.99" stroke-linecap="round"/>
<path d="M553.957 269.388H539.438V217.393L546.07 209.632C546.241 209.444 546.491 209.336 546.753 209.336C547.016 209.336 547.265 209.444 547.437 209.632L553.957 217.393V269.388Z" fill="white"/>
<path d="M539.425 217.633V269.402" stroke="#E9E6DE" stroke-width="0.99" stroke-linecap="round"/>
<path d="M566.378 269.388H551.883V217.393L558.528 209.632C558.7 209.444 558.949 209.336 559.211 209.336C559.473 209.336 559.722 209.444 559.893 209.632L566.403 217.393L566.378 269.388Z" fill="white"/>
<path d="M551.882 217.633V269.402" stroke="#E9E6DE" stroke-width="0.99" stroke-linecap="round"/>
<path d="M566.398 217.633V269.402" stroke="#E9E6DE" stroke-width="0.99" stroke-linecap="round"/>
<path d="M103.836 269.388H89.3164V217.393L95.9485 209.632C96.12 209.444 96.3696 209.336 96.6321 209.336C96.8946 209.336 97.1441 209.444 97.3157 209.632L103.836 217.393V269.388Z" fill="white"/>
<path d="M89.3077 217.633V269.402" stroke="#E9E6DE" stroke-width="0.99" stroke-linecap="round"/>
<rect x="25.0059" y="236.254" width="53.9313" height="49.6984" fill="#464F53"/>
<rect x="27.0879" y="238.324" width="49.7828" height="45.5568" fill="#464F53"/>
<rect x="27.0879" y="240.398" width="49.7828" height="43.4861" rx="0.22" stroke="#2E3336" stroke-width="0.65" stroke-linecap="round" stroke-linejoin="round"/>
<rect x="45.7422" y="242.477" width="4.14857" height="37.2738" fill="#2E3336"/>
<rect x="47.8242" y="244.547" width="2.07428" height="2.07076" fill="black"/>
<path d="M47.8242 246.614H49.8985" stroke="#6B746B" stroke-width="0.65" stroke-linecap="round"/>
<rect x="47.8242" y="248.691" width="2.07428" height="2.07078" fill="black"/>
<path d="M47.8242 250.758H49.8985" stroke="#6B746B" stroke-width="0.65" stroke-linecap="round"/>
<rect x="47.8242" y="252.828" width="2.07428" height="2.07076" fill="black"/>
<path d="M47.8242 254.899H49.8985" stroke="#6B746B" stroke-width="0.65" stroke-linecap="round"/>
<rect x="47.8242" y="256.965" width="2.07428" height="2.07076" fill="black"/>
<path d="M47.8242 259.043H49.8985" stroke="#6B746B" stroke-width="0.65" stroke-linecap="round"/>
<rect x="47.8242" y="263.195" width="2.07428" height="2.07076" fill="black"/>
<path d="M47.8242 263.192H49.8985" stroke="#6B746B" stroke-width="0.65" stroke-linecap="round"/>
<rect x="47.8242" y="267.312" width="2.07428" height="2.07076" fill="black"/>
<path d="M47.8242 267.325H49.8985" stroke="#6B746B" stroke-width="0.65" stroke-linecap="round"/>
<rect x="47.8242" y="271.469" width="2.07428" height="2.07076" fill="black"/>
<path d="M47.8242 271.465H49.8985" stroke="#6B746B" stroke-width="0.65" stroke-linecap="round"/>
<rect x="47.8242" y="275.609" width="2.07428" height="2.07078" fill="black"/>
<path d="M47.8242 277.672H49.8985" stroke="#6B746B" stroke-width="0.65" stroke-linecap="round"/>
<rect x="41.5996" y="242.477" width="4.14856" height="37.2738" fill="#2E3336"/>
<rect x="41.5996" y="244.547" width="2.07428" height="2.07076" fill="black"/>
<path d="M41.5996 246.625H43.6739" stroke="#6B746B" stroke-width="0.65" stroke-linecap="round"/>
<rect x="41.5996" y="248.684" width="2.07428" height="2.07078" fill="black"/>
<path d="M41.5996 250.758H43.6739" stroke="#6B746B" stroke-width="0.65" stroke-linecap="round"/>
<rect x="41.5996" y="252.824" width="2.07428" height="2.07076" fill="black"/>
<path d="M41.5996 254.899H43.6739" stroke="#6B746B" stroke-width="0.65" stroke-linecap="round"/>
<rect x="41.5996" y="256.965" width="2.07428" height="2.07076" fill="black"/>
<path d="M41.5996 259.043H43.6739" stroke="#6B746B" stroke-width="0.65" stroke-linecap="round"/>
<rect x="41.5996" y="263.195" width="2.07428" height="2.07076" fill="black"/>
<path d="M41.5996 263.192H43.6739" stroke="#6B746B" stroke-width="0.65" stroke-linecap="round"/>
<rect x="41.5996" y="267.312" width="2.07428" height="2.07076" fill="black"/>
<path d="M41.5996 267.325H43.6739" stroke="#6B746B" stroke-width="0.65" stroke-linecap="round"/>
<rect x="41.5996" y="271.469" width="2.07428" height="2.07076" fill="black"/>
<path d="M41.5996 271.465H43.6739" stroke="#6B746B" stroke-width="0.65" stroke-linecap="round"/>
<rect x="41.5996" y="275.609" width="2.07428" height="2.07078" fill="black"/>
<path d="M41.5996 277.68H43.6739" stroke="#6B746B" stroke-width="0.65" stroke-linecap="round"/>
<rect x="37.4492" y="242.477" width="4.14856" height="37.2738" fill="#2E3336"/>
<rect x="37.4492" y="244.547" width="2.07427" height="2.07076" fill="black"/>
<path d="M37.4492 246.625H39.5235" stroke="#6B746B" stroke-width="0.65" stroke-linecap="round"/>
<rect x="37.4492" y="248.684" width="2.07427" height="2.07078" fill="black"/>
<path d="M37.4492 250.758H39.5235" stroke="#6B746B" stroke-width="0.65" stroke-linecap="round"/>
<rect x="37.4492" y="252.824" width="2.07427" height="2.07076" fill="black"/>
<path d="M37.4492 254.899H39.5235" stroke="#6B746B" stroke-width="0.65" stroke-linecap="round"/>
<rect x="37.4492" y="256.965" width="2.07427" height="2.07076" fill="black"/>
<path d="M37.4492 259.043H39.5235" stroke="#6B746B" stroke-width="0.65" stroke-linecap="round"/>
<rect x="37.4492" y="263.195" width="2.07427" height="2.07076" fill="black"/>
<path d="M37.4492 263.192H39.5235" stroke="#6B746B" stroke-width="0.65" stroke-linecap="round"/>
<rect x="37.4492" y="267.312" width="2.07427" height="2.07076" fill="black"/>
<path d="M37.4492 267.325H39.5235" stroke="#6B746B" stroke-width="0.65" stroke-linecap="round"/>
<rect x="37.4492" y="271.469" width="2.07427" height="2.07076" fill="black"/>
<path d="M37.4492 271.465H39.5235" stroke="#6B746B" stroke-width="0.65" stroke-linecap="round"/>
<rect x="37.4492" y="275.609" width="2.07427" height="2.07078" fill="black"/>
<path d="M37.4492 277.68H39.5235" stroke="#6B746B" stroke-width="0.65" stroke-linecap="round"/>
<rect x="31.2266" y="242.477" width="4.14857" height="37.2738" fill="#2E3336"/>
<rect x="33.3047" y="244.547" width="2.07429" height="2.07076" fill="black"/>
<path d="M33.3047 246.625H35.379" stroke="#6B746B" stroke-width="0.65" stroke-linecap="round"/>
<rect x="33.3047" y="248.684" width="2.07429" height="2.07078" fill="black"/>
<path d="M33.3047 250.758H35.379" stroke="#6B746B" stroke-width="0.65" stroke-linecap="round"/>
<rect x="33.3047" y="252.824" width="2.07429" height="2.07076" fill="black"/>
<path d="M33.3047 254.899H35.379" stroke="#6B746B" stroke-width="0.65" stroke-linecap="round"/>
<rect x="33.3047" y="256.965" width="2.07429" height="2.07076" fill="black"/>
<path d="M33.3047 259.043H35.379" stroke="#6B746B" stroke-width="0.65" stroke-linecap="round"/>
<rect x="33.3047" y="263.195" width="2.07429" height="2.07076" fill="black"/>
<path d="M33.3047 263.192H35.379" stroke="#6B746B" stroke-width="0.65" stroke-linecap="round"/>
<rect x="33.3047" y="267.312" width="2.07429" height="2.07076" fill="black"/>
<path d="M33.3047 267.325H35.379" stroke="#6B746B" stroke-width="0.65" stroke-linecap="round"/>
<rect x="33.3047" y="271.469" width="2.07429" height="2.07076" fill="black"/>
<path d="M33.3047 271.465H35.379" stroke="#6B746B" stroke-width="0.65" stroke-linecap="round"/>
<rect x="33.3047" y="275.609" width="2.07429" height="2.07078" fill="black"/>
<path d="M33.3047 277.68H35.379" stroke="#6B746B" stroke-width="0.65" stroke-linecap="round"/>
<rect x="70.6484" y="242.477" width="4.14857" height="37.2738" fill="#2E3336"/>
<rect x="70.6484" y="244.547" width="2.07428" height="2.07076" fill="black"/>
<path d="M70.6484 246.614H72.7227" stroke="#6B746B" stroke-width="0.65" stroke-linecap="round"/>
<rect x="70.6484" y="248.691" width="2.07428" height="2.07078" fill="black"/>
<path d="M70.6484 250.758H72.7227" stroke="#6B746B" stroke-width="0.65" stroke-linecap="round"/>
<rect x="70.6484" y="252.828" width="2.07428" height="2.07076" fill="black"/>
<path d="M70.6484 254.899H72.7227" stroke="#6B746B" stroke-width="0.65" stroke-linecap="round"/>
<rect x="70.6484" y="256.965" width="2.07428" height="2.07076" fill="black"/>
<path d="M70.6484 259.043H72.7227" stroke="#6B746B" stroke-width="0.65" stroke-linecap="round"/>
<rect x="70.6484" y="263.195" width="2.07428" height="2.07076" fill="black"/>
<path d="M70.6484 263.192H72.7227" stroke="#6B746B" stroke-width="0.65" stroke-linecap="round"/>
<rect x="70.6484" y="267.312" width="2.07428" height="2.07076" fill="black"/>
<path d="M70.6484 267.325H72.7227" stroke="#6B746B" stroke-width="0.65" stroke-linecap="round"/>
<rect x="70.6484" y="271.469" width="2.07428" height="2.07076" fill="black"/>
<path d="M70.6484 271.465H72.7227" stroke="#6B746B" stroke-width="0.65" stroke-linecap="round"/>
<rect x="70.6484" y="275.609" width="2.07428" height="2.07078" fill="black"/>
<path d="M70.6484 277.672H72.7227" stroke="#6B746B" stroke-width="0.65" stroke-linecap="round"/>
<rect x="66.5" y="242.477" width="4.14857" height="37.2738" fill="#2E3336"/>
<rect x="66.5" y="244.547" width="2.07428" height="2.07076" fill="black"/>
<path d="M66.5 246.614H68.5743" stroke="#6B746B" stroke-width="0.65" stroke-linecap="round"/>
<rect x="66.5" y="248.691" width="2.07428" height="2.07078" fill="black"/>
<path d="M66.5 250.758H68.5743" stroke="#6B746B" stroke-width="0.65" stroke-linecap="round"/>
<rect x="66.5" y="252.828" width="2.07428" height="2.07076" fill="black"/>
<path d="M66.5 254.899H68.5743" stroke="#6B746B" stroke-width="0.65" stroke-linecap="round"/>
<rect x="66.5" y="256.965" width="2.07428" height="2.07076" fill="black"/>
<path d="M66.5 259.043H68.5743" stroke="#6B746B" stroke-width="0.65" stroke-linecap="round"/>
<rect x="66.5" y="263.195" width="2.07428" height="2.07076" fill="black"/>
<path d="M66.5 263.192H68.5743" stroke="#6B746B" stroke-width="0.65" stroke-linecap="round"/>
<rect x="66.5" y="267.312" width="2.07428" height="2.07076" fill="black"/>
<path d="M66.5 267.325H68.5743" stroke="#6B746B" stroke-width="0.65" stroke-linecap="round"/>
<rect x="66.5" y="271.469" width="2.07428" height="2.07076" fill="black"/>
<path d="M66.5 271.465H68.5743" stroke="#6B746B" stroke-width="0.65" stroke-linecap="round"/>
<rect x="66.5" y="275.609" width="2.07428" height="2.07078" fill="black"/>
<path d="M66.5 277.672H68.5743" stroke="#6B746B" stroke-width="0.65" stroke-linecap="round"/>
<rect x="60.2754" y="242.477" width="4.14857" height="37.2738" fill="#2E3336"/>
<rect x="62.3438" y="244.547" width="2.07429" height="2.07076" fill="black"/>
<path d="M62.3438 246.625H64.418" stroke="#6B746B" stroke-width="0.65" stroke-linecap="round"/>
<rect x="62.3438" y="248.684" width="2.07429" height="2.07078" fill="black"/>
<path d="M62.3438 250.758H64.418" stroke="#6B746B" stroke-width="0.65" stroke-linecap="round"/>
<rect x="62.3438" y="252.824" width="2.07429" height="2.07076" fill="black"/>
<path d="M62.3438 254.899H64.418" stroke="#6B746B" stroke-width="0.65" stroke-linecap="round"/>
<rect x="62.3438" y="256.965" width="2.07429" height="2.07076" fill="black"/>
<path d="M62.3438 259.043H64.418" stroke="#6B746B" stroke-width="0.65" stroke-linecap="round"/>
<rect x="62.3438" y="263.195" width="2.07429" height="2.07076" fill="black"/>
<path d="M62.3438 263.192H64.418" stroke="#6B746B" stroke-width="0.65" stroke-linecap="round"/>
<rect x="62.3438" y="267.312" width="2.07429" height="2.07076" fill="black"/>
<path d="M62.3438 267.325H64.418" stroke="#6B746B" stroke-width="0.65" stroke-linecap="round"/>
<rect x="62.3438" y="271.469" width="2.07429" height="2.07076" fill="black"/>
<path d="M62.3438 271.465H64.418" stroke="#6B746B" stroke-width="0.65" stroke-linecap="round"/>
<rect x="62.3438" y="275.609" width="2.07429" height="2.07078" fill="black"/>
<path d="M62.3438 277.68H64.418" stroke="#6B746B" stroke-width="0.65" stroke-linecap="round"/>
<rect x="56.1152" y="242.477" width="4.14857" height="37.2738" fill="#2E3336"/>
<rect x="56.1152" y="244.547" width="2.07429" height="2.07076" fill="black"/>
<path d="M56.1152 246.614H58.1895" stroke="#6B746B" stroke-width="0.65" stroke-linecap="round"/>
<rect x="56.1152" y="248.691" width="2.07429" height="2.07078" fill="black"/>
<path d="M56.1152 250.758H58.1895" stroke="#6B746B" stroke-width="0.65" stroke-linecap="round"/>
<rect x="56.1152" y="252.828" width="2.07429" height="2.07076" fill="black"/>
<path d="M56.1152 254.899H58.1895" stroke="#6B746B" stroke-width="0.65" stroke-linecap="round"/>
<rect x="56.1152" y="256.965" width="2.07429" height="2.07076" fill="black"/>
<path d="M56.1152 259.043H58.1895" stroke="#6B746B" stroke-width="0.65" stroke-linecap="round"/>
<rect x="56.1152" y="263.195" width="2.07429" height="2.07076" fill="black"/>
<path d="M56.1152 263.192H58.1895" stroke="#6B746B" stroke-width="0.65" stroke-linecap="round"/>
<rect x="56.1152" y="267.312" width="2.07429" height="2.07076" fill="black"/>
<path d="M56.1152 267.325H58.1895" stroke="#6B746B" stroke-width="0.65" stroke-linecap="round"/>
<rect x="56.1152" y="271.469" width="2.07429" height="2.07076" fill="black"/>
<path d="M56.1152 271.465H58.1895" stroke="#6B746B" stroke-width="0.65" stroke-linecap="round"/>
<rect x="56.1152" y="275.609" width="2.07429" height="2.07078" fill="black"/>
<path d="M56.1152 277.672H58.1895" stroke="#6B746B" stroke-width="0.65" stroke-linecap="round"/>
<rect x="51.9727" y="238.324" width="2.07429" height="45.5568" fill="#DFDBD2"/>
<rect x="51.9727" y="238.324" width="2.07429" height="45.5568" fill="black"/>
<path d="M54.0479 240.398V283.884" stroke="#2E3336" stroke-width="0.65"/>
<rect x="16.7148" y="283.902" width="60.1542" height="6.2123" fill="#464F53"/>
<rect x="27.0879" y="283.887" width="56.0056" height="6.2123" fill="#2E3336"/>
<path d="M66.0737 275.798C63.532 273.12 59.9421 266.827 52.1182 265.838C49.0398 265.453 46.3339 267.91 44.0228 269.121C40.4296 265.448 36.3981 263.478 32.29 263.387C25.6596 263.387 20.109 266.688 18.685 271.106C11.6978 271.653 5.91669 281.154 4.35696 286.312C3.87389 287.948 2.1847 294.933 2.49728 298.351C2.97089 302.548 5.40204 305.232 13.1091 305.232C19.2691 305.232 25.0881 303.893 29.8873 303.922C31.8891 303.922 34.0992 304.294 35.8863 304.294C39.1825 304.294 41.2727 305.313 43.6597 303.951C46.0024 305.22 47.9884 305.057 51.1615 305.057C55.9481 305.057 60.1 304.708 64.574 304.702C69.8499 304.702 77.2034 305.057 80.3954 305.057C88.1025 305.057 85.8387 283.448 85.8387 283.448C85.8387 283.448 78.6715 276.107 70.9644 276.107" fill="#21998D"/>
<path d="M670.054 296.316C670.189 295.5 670.084 294.664 669.752 293.903C666.345 285.396 654.135 282.678 643.795 282.453C633.454 282.228 621.966 282.885 614.069 277.073C607.373 272.143 604.604 263.308 596.488 260.37C590.946 258.383 584.657 259.864 578.907 261.367C579.215 254.185 574.175 247.043 566.651 244.053C559.126 241.064 549.632 242.418 543.58 247.331L554.766 296.288L670.054 296.316Z" fill="#21998D"/>
<path d="M360.705 248.598L361.037 248.568C359.506 248.721 357.425 248.932 360.705 248.598Z" fill="#F5F3F4"/>
<path d="M298.813 296.309H83.0879V149.285H298.813V296.309Z" fill="white"/>
<path d="M294.664 95.4533H574.692V22.9766H294.664V95.4533Z" fill="#4C5059"/>
<path opacity="0.2" d="M294.664 72.6683H572.618" stroke="#C6C1B5" stroke-width="1.08" stroke-linecap="round"/>
<path opacity="0.2" d="M294.664 80.9613H572.618" stroke="#C6C1B5" stroke-width="1.08" stroke-linecap="round"/>
<path opacity="0.2" d="M294.664 51.9691H572.618" stroke="#C6C1B5" stroke-width="1.08" stroke-linecap="round"/>
<path opacity="0.2" d="M294.664 43.6839H572.618" stroke="#C6C1B5" stroke-width="1.08" stroke-linecap="round"/>
<path opacity="0.2" d="M294.664 33.3324H572.618" stroke="#C6C1B5" stroke-width="1.08" stroke-linecap="round"/>
<path opacity="0.2" d="M294.664 62.3167H572.618" stroke="#C6C1B5" stroke-width="1.08" stroke-linecap="round"/>
<path d="M570.542 296.31V93.6142H517.23L463.456 39.5352L409.681 93.6142H296.736V296.31H570.542Z" fill="white"/>
<g opacity="0.51">
<path d="M570.311 99.5898H557.746C556.932 99.6403 556.308 100.37 556.35 101.226V110.455C556.308 111.31 556.932 112.04 557.746 112.091H570.311" stroke="#E6E2DE" stroke-width="1.28"/>
<path d="M570.312 114.785H563.566C562.752 114.836 562.129 115.566 562.17 116.421V125.65C562.129 126.505 562.752 127.236 563.566 127.286H570.312" stroke="#E6E2DE" stroke-width="1.28"/>
<path d="M570.311 129.984H557.746C556.932 130.035 556.308 130.765 556.35 131.62V140.849C556.308 141.705 556.932 142.435 557.746 142.485H570.311" stroke="#E6E2DE" stroke-width="1.28"/>
<path d="M570.311 160.375H557.746C556.932 160.425 556.308 161.156 556.35 162.011V171.24C556.308 172.095 556.932 172.825 557.746 172.876H570.311" stroke="#E6E2DE" stroke-width="1.28"/>
<path d="M570.312 145.18H563.566C562.752 145.23 562.129 145.96 562.17 146.816V156.045C562.129 156.9 562.752 157.63 563.566 157.681H570.312" stroke="#E6E2DE" stroke-width="1.28"/>
<path d="M570.308 185.188H557.742C557.335 185.226 556.959 185.433 556.697 185.763C556.435 186.093 556.309 186.519 556.346 186.947V196.774C556.309 197.201 556.435 197.627 556.697 197.957C556.959 198.287 557.335 198.494 557.742 198.533H570.308" stroke="#E6E2DE" stroke-width="1.32"/>
<path d="M570.307 201.359H563.561C563.153 201.398 562.777 201.605 562.515 201.935C562.254 202.265 562.127 202.691 562.165 203.118V212.922C562.127 213.35 562.254 213.775 562.515 214.105C562.777 214.435 563.153 214.642 563.561 214.681H570.307" stroke="#E6E2DE" stroke-width="1.32"/>
<path d="M570.308 217.535H557.742C557.335 217.574 556.959 217.781 556.697 218.111C556.435 218.441 556.309 218.866 556.346 219.294V229.121C556.309 229.549 556.435 229.975 556.697 230.305C556.959 230.635 557.335 230.842 557.742 230.88H570.308" stroke="#E6E2DE" stroke-width="1.32"/>
<path d="M570.308 249.879H557.742C557.335 249.918 556.959 250.125 556.697 250.455C556.435 250.785 556.309 251.21 556.346 251.638V261.418C556.309 261.846 556.435 262.272 556.697 262.602C556.959 262.931 557.335 263.139 557.742 263.177H570.308" stroke="#E6E2DE" stroke-width="1.32"/>
<path d="M570.307 233.707H563.561C563.153 233.746 562.777 233.953 562.515 234.283C562.254 234.613 562.127 235.038 562.165 235.466V245.293C562.127 245.721 562.254 246.147 562.515 246.477C562.777 246.806 563.153 247.014 563.561 247.052H570.307" stroke="#E6E2DE" stroke-width="1.32"/>
</g>
<path d="M294.664 180.34H570.544H294.664Z" fill="#C6C1B5"/>
<path d="M294.664 180.34H570.544" stroke="#F5F3F4" stroke-width="5.21"/>
<path d="M481.257 261.482C479.115 260.737 476.778 261.217 474.612 261.892C472.247 262.535 470.034 263.671 468.107 265.23C466.145 266.852 464.929 269.253 464.754 271.849C470.297 272.083 490.354 276.216 493.275 270.587C494.297 268.612 493.816 264.977 491.772 264.031C489.995 263.204 488.121 265.709 486.222 265.293C484.622 264.889 483.076 262.119 481.257 261.482Z" fill="#2AC3B4"/>
<path d="M379.712 196.926H336.152V273.544H379.712V196.926Z" fill="#78838B"/>
<path d="M293.151 296.315L292.594 141.008H294.111L294.668 296.315H293.151Z" fill="#E6E2DE"/>
<path d="M296.743 85.0977H81.0176V149.291H296.743V85.0977Z" fill="#4C5059"/>
<path d="M463.721 87.1602C449.405 87.1602 437.793 99.2199 437.793 114.099V159.637H489.65V114.099C489.65 99.2199 478.044 87.1602 463.721 87.1602Z" fill="#D4EEF5"/>
<path d="M340.295 159.637H371.409V105.797H340.295V159.637Z" fill="#D4EEF5"/>
<g opacity="0.2">
<path d="M78.9316 116.149H296.731H78.9316Z" fill="#C6C1B5"/>
<path d="M78.9316 116.149H296.731" stroke="#C6C1B5" stroke-width="1.16" stroke-linecap="round"/>
</g>
<g opacity="0.2">
<path d="M78.9316 128.578H296.731H78.9316Z" fill="#C6C1B5"/>
<path d="M78.9316 128.578H296.731" stroke="#C6C1B5" stroke-width="1.16" stroke-linecap="round"/>
</g>
<g opacity="0.2">
<path d="M78.9316 138.946H296.731H78.9316Z" fill="#C6C1B5"/>
<path d="M78.9316 138.946H296.731" stroke="#C6C1B5" stroke-width="1.16" stroke-linecap="round"/>
</g>
<g opacity="0.2">
<path d="M78.9316 95.4574H296.731H78.9316Z" fill="#C6C1B5"/>
<path d="M78.9316 95.4574H296.731" stroke="#C6C1B5" stroke-width="1.16" stroke-linecap="round"/>
</g>
<g opacity="0.2">
<path d="M78.9316 105.805H296.731H78.9316Z" fill="#C6C1B5"/>
<path d="M78.9316 105.805H296.731" stroke="#C6C1B5" stroke-width="1.16" stroke-linecap="round"/>
</g>
<path d="M578.838 271.469H379.707V296.318H578.838V271.469Z" fill="#78838B"/>
<path d="M433.636 269.389C428.998 264.448 420.056 261.105 409.785 261.105C399.514 261.105 390.566 264.448 385.928 269.389H433.636Z" fill="#2AC3B4"/>
<path d="M576.769 269.389C572.131 264.448 563.19 261.105 552.915 261.105C542.639 261.105 533.704 264.448 529.061 269.389H576.769Z" fill="#2AC3B4"/>
<path d="M454.384 269.389C451.962 264.451 447.302 261.105 441.91 261.105C436.517 261.105 431.925 264.484 429.492 269.389H454.384Z" fill="#2AC3B4"/>
<path d="M580.914 273.524H377.635V269.383H580.914V273.524Z" fill="#94A6B8"/>
<rect x="294.664" y="273.539" width="85.0455" height="24.8492" fill="#E6E2DE"/>
<path d="M329.924 213.475C328.796 213.476 327.875 212.483 327.85 211.241V203.337C327.85 202.074 328.778 201.051 329.924 201.051C331.07 201.051 331.998 202.074 331.998 203.337V211.241C331.973 212.483 331.052 213.476 329.924 213.475Z" fill="#B8C1CC"/>
<path d="M385.939 213.483C384.812 213.483 383.891 212.491 383.865 211.249V203.345C383.865 202.082 384.794 201.059 385.939 201.059C387.085 201.059 388.014 202.082 388.014 203.345V211.249C387.988 212.491 387.067 213.483 385.939 213.483Z" fill="#B8C1CC"/>
<g opacity="0.64">
<rect x="336.486" y="278.125" width="42.8571" height="5.1976" fill="#C4BFB3"/>
</g>
<g opacity="0.64">
<rect x="296.863" y="278.047" width="41.1009" height="18.2641" fill="#C4BFB3"/>
</g>
<g opacity="0.64">
<rect x="336.486" y="286.359" width="42.8571" height="5.1976" fill="#C4BFB3"/>
</g>
<g opacity="0.64">
<rect x="336.486" y="292.332" width="42.8571" height="3.89821" fill="#C4BFB3"/>
</g>
<path d="M327.85 207.27V211.352C327.85 212.528 328.778 213.482 329.924 213.482C331.07 213.482 331.998 212.528 331.998 211.352V207.27H327.85Z" fill="#FFF377"/>
<path d="M383.865 207.27V211.352C383.865 212.528 384.794 213.482 385.939 213.482C387.085 213.482 388.014 212.528 388.014 211.352V207.27H383.865Z" fill="#FFF377"/>
<path fill-rule="evenodd" clip-rule="evenodd" d="M473.896 108.474H492.931V108.462C493.415 108.462 493.806 108.856 493.806 109.342C493.806 109.828 493.415 110.222 492.931 110.222H473.978V160.956C473.908 161.387 473.537 161.703 473.103 161.703C472.668 161.703 472.298 161.387 472.228 160.956V110.222H456.162V160.968C456.092 161.399 455.721 161.715 455.287 161.715C454.852 161.715 454.482 161.399 454.412 160.968V110.233H436.602C436.118 110.233 435.727 109.84 435.727 109.354C435.727 108.868 436.118 108.474 436.602 108.474H454.488C454.674 105.777 455.996 103.287 458.122 101.63L450.667 90.5931C450.538 90.4003 450.492 90.1633 450.539 89.9359C450.586 89.7084 450.722 89.5098 450.917 89.385C451.328 89.117 451.876 89.2261 452.154 89.6313L459.592 100.692C462.41 99.2143 465.761 99.1837 468.605 100.61L476.002 89.6547C476.28 89.2496 476.828 89.1404 477.239 89.4084C477.434 89.5331 477.571 89.7323 477.617 89.9601C477.663 90.188 477.615 90.4249 477.484 90.6165L470.11 101.548C472.311 103.196 473.692 105.723 473.896 108.474ZM472.107 108.475C471.706 104.383 468.264 101.274 464.174 101.309C460.08 101.271 456.636 104.38 456.234 108.475H472.107Z" fill="white"/>
<path d="M493.799 161.72H437.793V157.578H493.799V161.72Z" fill="#94A6B8"/>
<path d="M549.804 10.5508H520.764V62.3199H549.78L549.804 10.5508Z" fill="#D8D5CE"/>
<path d="M265.622 298.385H107.977V201.059H265.622V298.385Z" fill="#78838B"/>
<path d="M107.977 227.977H265.622" stroke="#5B6A72" stroke-width="1.03" stroke-linecap="round"/>
<path d="M107.977 236.254H265.622" stroke="#5B6A72" stroke-width="1.03" stroke-linecap="round"/>
<path d="M107.977 209.34H265.622" stroke="#5B6A72" stroke-width="1.03" stroke-linecap="round"/>
<path d="M107.977 217.618H265.622" stroke="#5B6A72" stroke-width="1.03" stroke-linecap="round"/>
<path d="M107.977 263.192H265.622" stroke="#5B6A72" stroke-width="1.03" stroke-linecap="round"/>
<path d="M107.977 271.465H265.622" stroke="#5B6A72" stroke-width="1.03" stroke-linecap="round"/>
<path d="M107.977 244.551H265.622" stroke="#5B6A72" stroke-width="1.03" stroke-linecap="round"/>
<path d="M107.977 254.899H265.622" stroke="#5B6A72" stroke-width="1.03" stroke-linecap="round"/>
<path d="M107.977 281.813H265.622" stroke="#5B6A72" stroke-width="1.03" stroke-linecap="round"/>
<path d="M273.927 203.122H101.762V198.98H273.927V203.122Z" fill="#94A6B8"/>
<path d="M193.024 290.098H180.578V288.027H193.024V290.098Z" fill="#4C5059"/>
<path d="M530.535 37.4648H520.764V45.7479H534.334C535.107 45.7479 535.552 44.7038 535.107 43.9396C533.944 41.9564 532.471 39.9848 531.369 38.019C531.203 37.6941 530.887 37.484 530.535 37.4648V37.4648Z" fill="#C6C1B5"/>
<path d="M535.426 39.3179C536.304 41.0715 537.194 42.8252 538.007 44.5788C538.303 45.2674 538.974 45.7235 539.728 45.7479H543.023C545.638 45.7507 548.119 44.6057 549.801 42.6206V37.4648H536.363C535.532 37.4648 535.013 38.4936 535.426 39.3179Z" fill="#C6C1B5"/>
<path d="M530.73 48.4128C529.949 46.8923 528.098 45.9993 526.258 45.7881C524.415 45.669 522.567 45.8294 520.764 46.2648V60.2453C523.805 58.9903 527.421 56.8241 529.305 54.4649C530.708 52.709 531.74 50.3739 530.73 48.4128Z" fill="#C6C1B5"/>
<path d="M549.793 47.2848L549.677 47.2418C544.874 45.9184 539.417 44.6812 535.169 47.2418C534.486 47.602 533.909 48.1697 533.505 48.8791C532.9 50.1101 533.289 51.5689 533.838 52.8123C535.906 57.4842 540.254 61.042 545.207 62.3161H549.793V47.2848Z" fill="#C6C1B5"/>
<path d="M526.979 62.3139H541.498C539.688 60.4935 537.762 58.8113 535.735 57.2794C535.108 56.7355 534.377 56.3479 533.595 56.1447C531.366 55.7507 529.649 58.1286 528.481 60.2212C528.494 60.2145 527.799 61.1656 526.979 62.3139Z" fill="#C6C1B5"/>
<path d="M531.084 10.5508H520.764V18.8338H534.337C535.105 18.8338 535.549 17.7904 535.11 17.0327C533.859 14.8643 532.213 12.7017 531.084 10.5508Z" fill="#C6C1B5"/>
<path d="M535.281 10.5508C536.398 12.884 537.514 15.2756 538.631 17.6672C538.912 18.3534 539.547 18.8081 540.261 18.8338H543.381C545.859 18.8352 548.209 17.6904 549.801 15.7073V10.5508H535.281Z" fill="#C6C1B5"/>
<path d="M530.73 21.4988C529.949 19.9782 528.098 19.0852 526.258 18.874C524.415 18.755 522.567 18.9153 520.764 19.3507V33.3313C523.805 32.0823 527.421 29.9101 529.305 27.5508C530.708 25.7949 531.74 23.4598 530.73 21.4988Z" fill="#C6C1B5"/>
<path d="M549.793 20.3752L549.677 20.3259C544.874 19.0086 539.417 17.765 535.169 20.3259C534.487 20.6882 533.911 21.2555 533.505 21.9635C532.9 23.1947 533.289 24.6536 533.838 25.8972C535.906 30.5696 540.254 34.1278 545.207 35.4021H549.793V20.3752Z" fill="#C6C1B5"/>
<path d="M527.911 35.392H536.414C537.318 35.392 537.695 33.8293 536.965 33.1227C535.968 32.1534 534.939 31.2317 533.877 30.3575C533.303 29.8136 532.632 29.4261 531.914 29.2229C529.869 28.8288 528.294 31.2068 527.222 33.2994C526.678 34.1011 527.106 35.392 527.911 35.392Z" fill="#C6C1B5"/>
<path d="M408.754 178.276H406.68V95.4453H408.754V178.276Z" fill="#E6E2DE"/>
<path d="M570.543 95.4453V97.5161H518.686V95.4453H570.543Z" fill="#E6E2DE"/>
<path d="M520.76 178.276H518.686V95.4453H520.76V178.276Z" fill="#E6E2DE"/>
<path d="M83.0879 153.434H294.665" stroke="#E6E2DE" stroke-width="5.4"/>
<path d="M574.696 180.349H292.594V176.207H574.696V180.349Z" fill="#94A6B8"/>
<path fill-rule="evenodd" clip-rule="evenodd" d="M464.582 78.8898C460.023 78.7988 456.391 75.0507 456.452 70.498C456.512 65.9452 460.242 62.2947 464.803 62.3244C469.363 62.3541 473.045 66.053 473.045 70.6062C473.025 72.8257 472.122 74.946 470.534 76.4998C468.947 78.0537 466.805 78.9135 464.582 78.8898V78.8898Z" stroke="#DDD9D0" stroke-width="1.03"/>
<path d="M340.295 112.016H373.483" stroke="white" stroke-width="3.42" stroke-linecap="round"/>
<path d="M296.731 153.427H78.9316V147.215H296.731V153.427Z" fill="#959995"/>
<path d="M356.931 105.797L356.86 157.566" stroke="white" stroke-width="3.95" stroke-linecap="round"/>
<path d="M373.493 161.72H338.23V157.578H373.493V161.72Z" fill="#94A6B8"/>
<path d="M340.295 271.465V201.059H375.558V271.465" fill="#2C72B7"/>
<path d="M340.295 271.465V201.059H375.558V271.465" stroke="#5B6A72" stroke-width="0.99"/>
<path d="M357.926 209.337C351.697 209.27 346.591 214.18 346.518 220.309V221.761H369.335V220.309C369.261 214.18 364.155 209.27 357.926 209.337Z" fill="#D4EEF5"/>
<path opacity="0.15" d="M348.096 246.616H347.023C346.891 246.618 346.764 246.585 346.669 246.526C346.574 246.467 346.52 246.386 346.518 246.301V234.512C346.522 234.334 346.747 234.191 347.023 234.191H348.096C348.37 234.191 348.592 234.335 348.592 234.512V246.301C348.587 246.476 348.366 246.616 348.096 246.616Z" fill="#D4EEF5" stroke="#D4EEF5" stroke-width="1.03"/>
<path d="M348.598 209.336L358.969 221.761" stroke="#2C72B7" stroke-width="2.94" stroke-linecap="round"/>
<path d="M367.264 209.336L356.893 221.761" stroke="#2C72B7" stroke-width="2.95" stroke-linecap="round"/>
<path opacity="0.15" fill-rule="evenodd" clip-rule="evenodd" d="M365.192 261.113H352.746V225.91H365.192V261.113Z" stroke="#E7F5FD" stroke-width="1.03" stroke-linecap="round" stroke-linejoin="round"/>
<path opacity="0.15" fill-rule="evenodd" clip-rule="evenodd" d="M344.451 205.195H373.491V269.389H344.451V205.195Z" stroke="#E7F5FD" stroke-width="1.02" stroke-linecap="round"/>
<path d="M379.707 279.743H578.838" stroke="#5B6A72" stroke-width="1.03" stroke-linecap="round"/>
<path d="M390.084 155.495H373.49V105.797H390.084V155.495Z" fill="#78838B"/>
<path d="M375.564 130.66H388.01" stroke="#5B6A72" stroke-width="1.03" stroke-linecap="round"/>
<path d="M375.564 138.938H388.01" stroke="#5B6A72" stroke-width="1.03" stroke-linecap="round"/>
<path d="M375.564 116.157H388.01" stroke="#5B6A72" stroke-width="1.03" stroke-linecap="round"/>
<path d="M375.564 122.371H388.01" stroke="#5B6A72" stroke-width="1.03" stroke-linecap="round"/>
<path d="M375.564 145.153H388.01" stroke="#5B6A72" stroke-width="1.03" stroke-linecap="round"/>
<path fill-rule="evenodd" clip-rule="evenodd" d="M388.01 153.435H375.564V109.949H388.01V153.435Z" stroke="#5B6A72" stroke-width="1.03" stroke-linecap="round"/>
<path d="M338.227 155.495H321.633V105.797H338.227V155.495Z" fill="#78838B"/>
<path d="M323.695 130.66H336.141" stroke="#5B6A72" stroke-width="1.03" stroke-linecap="round"/>
<path d="M323.695 138.946H336.141" stroke="#5B6A72" stroke-width="1.03" stroke-linecap="round"/>
<path d="M323.695 116.149H336.141" stroke="#5B6A72" stroke-width="1.03" stroke-linecap="round"/>
<path d="M323.695 122.371H336.141" stroke="#5B6A72" stroke-width="1.03" stroke-linecap="round"/>
<path d="M323.695 145.153H336.141" stroke="#5B6A72" stroke-width="1.03" stroke-linecap="round"/>
<path fill-rule="evenodd" clip-rule="evenodd" d="M336.141 153.435H323.695V109.949H336.141V153.435Z" stroke="#5B6A72" stroke-width="1.03" stroke-linecap="round"/>
<path d="M578.838 285.957H379.707" stroke="#5B6A72" stroke-width="1.03" stroke-linecap="round"/>
<path d="M578.838 292.184H379.707" stroke="#5B6A72" stroke-width="1.03" stroke-linecap="round"/>
<path d="M574.692 93.3868H521.222L467.21 40.4998C465.908 39.2292 463.807 39.2292 462.504 40.4998L408.493 93.3868H294.664" stroke="#959995" stroke-width="9.28"/>
<path d="M296.736 91.3047H406.727L460.605 37.4648" stroke="#78838B" stroke-width="1.03" stroke-linecap="round"/>
<path d="M570.55 91.3047H520.796L466.836 37.4648" stroke="#78838B" stroke-width="1.03" stroke-linecap="round"/>
<path d="M412.901 250.749H396.307V201.051H412.901V250.749Z" fill="#78838B"/>
<path d="M398.379 225.914H410.825" stroke="#5B6A72" stroke-width="1.03" stroke-linecap="round"/>
<path d="M398.379 234.192H410.825" stroke="#5B6A72" stroke-width="1.03" stroke-linecap="round"/>
<path d="M398.379 211.403H410.825" stroke="#5B6A72" stroke-width="1.03" stroke-linecap="round"/>
<path d="M398.379 217.618H410.825" stroke="#5B6A72" stroke-width="1.03" stroke-linecap="round"/>
<path d="M398.379 240.41H410.825" stroke="#5B6A72" stroke-width="1.03" stroke-linecap="round"/>
<path fill-rule="evenodd" clip-rule="evenodd" d="M410.825 248.681H398.379V205.195H410.825V248.681Z" stroke="#5B6A72" stroke-width="1.03" stroke-linecap="round"/>
<path d="M533.217 250.749H516.623V201.051H533.217V250.749Z" fill="#78838B"/>
<path d="M518.686 225.914H531.131" stroke="#5B6A72" stroke-width="1.03" stroke-linecap="round"/>
<path d="M518.686 234.192H531.131" stroke="#5B6A72" stroke-width="1.03" stroke-linecap="round"/>
<path d="M518.686 211.403H531.131" stroke="#5B6A72" stroke-width="1.03" stroke-linecap="round"/>
<path d="M518.686 217.618H531.131" stroke="#5B6A72" stroke-width="1.03" stroke-linecap="round"/>
<path d="M518.686 240.41H531.131" stroke="#5B6A72" stroke-width="1.03" stroke-linecap="round"/>
<path fill-rule="evenodd" clip-rule="evenodd" d="M531.131 248.681H518.686V205.195H531.131V248.681Z" stroke="#5B6A72" stroke-width="1.03" stroke-linecap="round"/>
<path d="M514.544 201.059H414.979V252.828H514.544V201.059Z" fill="#D4EEF5"/>
<path d="M515.818 206.858H493.546V199.8C493.51 199.376 493.154 199.051 492.726 199.051C492.298 199.051 491.941 199.376 491.905 199.8V206.858H467.583V199.8C467.583 199.352 467.217 198.988 466.765 198.988C466.313 198.988 465.947 199.352 465.947 199.8V206.858H441.608V199.8C441.572 199.376 441.215 199.051 440.787 199.051C440.359 199.051 440.002 199.376 439.966 199.8V206.858H415.779C415.337 206.858 414.979 207.213 414.979 207.652C414.979 208.09 415.337 208.445 415.779 208.445H439.966V252C440.002 252.423 440.359 252.748 440.787 252.748C441.215 252.748 441.572 252.423 441.608 252V208.463H465.947V252.017C465.947 252.465 466.313 252.828 466.765 252.828C467.217 252.828 467.583 252.465 467.583 252.017V208.463H491.922V252.017C491.958 252.44 492.315 252.765 492.743 252.765C493.171 252.765 493.528 252.44 493.564 252.017V208.463H515.818C516.26 208.463 516.618 208.107 516.618 207.669C516.618 207.231 516.26 206.875 515.818 206.875V206.858Z" fill="white" stroke="white" stroke-width="0.99"/>
<path d="M412.896 254.899V250.798L518.685 250.758V254.859L412.896 254.899Z" fill="#94A6B8"/>
<path d="M292.594 182.426V180.355H570.548V182.426H292.594Z" fill="#E6E2DE"/>
<path d="M195.098 196.922H180.578" stroke="#D4E1F4" stroke-width="1.62" stroke-linecap="round"/>
<path fill-rule="evenodd" clip-rule="evenodd" d="M201.323 184.497H174.357V163.789H201.323V184.497Z" stroke="#E84394" stroke-width="2.44" stroke-linecap="round"/>
<path fill-rule="evenodd" clip-rule="evenodd" d="M217.918 194.851H157.764V159.648H217.918V194.851Z" stroke="#B8C1CC" stroke-width="2.35"/>
<path d="M183.321 205.191L180.771 196.393L178.508 188.625H197.176L192.352 205.191" stroke="#D4E1F4" stroke-width="1.32" stroke-linecap="round"/>
<path d="M186.806 190.703V205.198" stroke="#D4E1F4" stroke-width="1.32" stroke-linecap="round"/>
<path d="M176.434 188.641H197.176" stroke="#DC1B7A" stroke-width="5.26" stroke-linecap="round"/>
<path d="M265.779 296.305L265.621 203.121H267.532L267.695 296.305H265.779Z" fill="#E6E2DE"/>
<path d="M106.221 296.305L105.902 203.121H107.658L107.977 296.305H106.221Z" fill="#E6E2DE"/>
<path d="M296.736 97.5199H408.748" stroke="#E6E2DE" stroke-width="3.07"/>
<rect x="524.918" y="6.39844" width="22.8171" height="4.14153" fill="#D26C35"/>
<path d="M83.0879 147.227H292.59" stroke="#78838B" stroke-width="1.03" stroke-linecap="round"/>
<g opacity="0.5">
<path d="M297.006 101.652H311.874C312.549 101.652 313.079 102.377 313.079 103.272V112.409C313.079 113.303 312.537 114.028 311.874 114.028H297.006" stroke="#E6E2DE" stroke-width="1.23"/>
<path d="M297.006 116.707H306.786C307.46 116.707 307.99 117.432 307.99 118.326V127.464C307.99 128.358 307.448 129.083 306.786 129.083H297.006" stroke="#E6E2DE" stroke-width="1.23"/>
<path d="M297.006 131.754H311.784C312.501 131.754 313.079 132.479 313.079 133.373V142.511C313.079 143.405 312.477 144.13 311.784 144.13H297.12" stroke="#E6E2DE" stroke-width="1.27"/>
<path d="M294.846 161.871H310.672C311.388 161.871 311.967 162.596 311.967 163.49V172.634C311.967 173.522 311.364 174.247 310.672 174.247H294.846" stroke="#E6E2DE" stroke-width="1.27"/>
<path d="M297.119 146.793H305.249C305.965 146.793 306.549 147.518 306.549 148.412V157.55C306.549 158.444 305.947 159.169 305.249 159.169H295.613" stroke="#E6E2DE" stroke-width="1.27"/>
<path d="M294.846 187.598H310.672C311.388 187.598 311.967 188.346 311.967 189.27V198.705C311.967 199.623 311.364 200.371 310.672 200.371H294.846" stroke="#E6E2DE" stroke-width="1.29"/>
<path d="M294.85 203.121H305.256C305.967 203.121 306.551 203.869 306.551 204.793V214.229C306.551 215.146 305.949 215.895 305.256 215.895H294.838" stroke="#E6E2DE" stroke-width="1.29"/>
<path d="M294.846 218.652H310.672C311.388 218.652 311.967 219.401 311.967 220.324V229.76C311.967 230.683 311.364 231.426 310.672 231.426H294.846" stroke="#E6E2DE" stroke-width="1.29"/>
<path d="M294.846 249.719H310.672C311.388 249.719 311.967 250.467 311.967 251.391V260.826C311.967 261.75 311.364 262.492 310.672 262.492H294.846" stroke="#E6E2DE" stroke-width="1.29"/>
<path d="M294.85 234.191H305.256C305.967 234.191 306.551 234.94 306.551 235.863V245.299C306.551 246.223 305.949 246.965 305.256 246.965H294.838" stroke="#E6E2DE" stroke-width="1.29"/>
<path d="M294.846 264.965H305.252C305.963 264.965 306.547 265.707 306.547 266.631V273.214" stroke="#E6E2DE" stroke-width="1.29"/>
</g>
<g opacity="0.5">
<path d="M83.4141 164.262H89.8493C90.7284 164.348 91.3754 165.128 91.3013 166.012V175.875C91.3754 176.759 90.7284 177.539 89.8493 177.626H83.4141" stroke="#E6E2DE" stroke-width="1.3"/>
<path d="M83.4141 181.711H95.9012C96.7804 181.797 97.4273 182.577 97.3532 183.462V193.324C97.4273 194.209 96.7804 194.989 95.9012 195.075H83.4141" stroke="#E6E2DE" stroke-width="1.3"/>
<path d="M83.4141 197.938H89.8493C90.7284 198.024 91.3754 198.804 91.3013 199.688V209.551C91.3754 210.435 90.7284 211.215 89.8493 211.301H83.4141" stroke="#E6E2DE" stroke-width="1.3"/>
<path d="M83.4141 214.195H95.9012C96.7804 214.282 97.4273 215.062 97.3532 215.946V225.809C97.4273 226.693 96.7804 227.473 95.9012 227.559H83.4141" stroke="#E6E2DE" stroke-width="1.3"/>
<path d="M83.4141 246.656H95.9012C96.7804 246.743 97.4273 247.523 97.3532 248.407V258.269C97.4273 259.154 96.7804 259.934 95.9012 260.02H83.4141" stroke="#E6E2DE" stroke-width="1.3"/>
<path d="M83.4141 230.422H89.8493C90.7284 230.508 91.3754 231.288 91.3013 232.173V242.035C91.3754 242.92 90.7284 243.7 89.8493 243.786H83.4141" stroke="#E6E2DE" stroke-width="1.3"/>
<path d="M83.9883 278.82H95.9586C96.8184 278.927 97.4354 279.705 97.3467 280.571V290.422C97.4354 291.288 96.8184 292.066 95.9586 292.173H83.9883" stroke="#E6E2DE" stroke-width="1.27"/>
<path d="M83.9883 262.578H90.1564C91.0162 262.685 91.6332 263.463 91.5445 264.329V274.191C91.6332 275.057 91.0162 275.835 90.1564 275.942H83.9883" stroke="#E6E2DE" stroke-width="1.27"/>
</g>
<path d="M508.456 260.475C508.153 259.822 508.393 259.462 508.97 259.193C509.548 258.924 509.956 258.984 510.258 259.64C510.561 260.297 510.361 260.697 509.783 260.966C509.551 261.122 509.258 261.157 508.996 261.06C508.733 260.963 508.533 260.746 508.456 260.475Z" fill="#FFF377"/>
<path d="M515.037 259.92C515.867 258.775 516.713 258.845 517.729 259.592C518.746 260.34 519.033 261.096 518.195 262.241C517.357 263.386 516.48 263.432 515.471 262.685C514.463 261.937 514.199 261.057 515.037 259.92Z" fill="#FFF377"/>
<path d="M520.065 265.196C519.351 265.412 519.052 265.115 518.816 264.49C518.579 263.865 518.618 263.486 519.332 263.271C520.046 263.055 520.408 263.309 520.645 263.934C520.881 264.559 520.784 264.977 520.065 265.196Z" fill="#FFF377"/>
<path d="M514.537 269.391C515.455 267.297 516.995 265.726 518.686 265.25" stroke="#1C847A" stroke-linecap="round"/>
<path d="M514.531 269.389C514.492 265.975 512.834 262.676 510.383 261.105" stroke="#1C847A" stroke-linecap="round"/>
<path d="M514.537 269.408C514.537 266.846 515.367 264.376 516.611 263.195" stroke="#1C847A" stroke-width="0.79" stroke-linecap="round"/>
<path d="M309.765 256.973C306.051 240.082 302.963 221.77 302.963 221.77C304.334 224.043 307.785 224.577 308.366 226.746C308.948 228.916 306.721 229.647 307.165 231.387C307.609 233.127 310.879 233.457 311.038 236.027C311.197 238.597 308.295 239.473 308.674 241.52C309.052 243.568 312.278 243.568 313.128 247.292C313.978 251.015 311.927 256.961 311.927 256.961L309.765 256.973Z" fill="#25998D"/>
<path d="M310.129 242.561C308.345 241.804 310.129 246.407 307.333 246.138C306.143 246.019 310.27 256.972 310.27 256.972H312.687C312.687 256.972 315.281 244.731 310.129 242.561Z" fill="white"/>
<path d="M311.262 256.059C311.262 242.35 319.03 223.84 319.03 223.84C319.03 223.84 322.128 241.937 313.325 256.972L311.262 256.059Z" fill="#25998D"/>
<path d="M313.232 261.106C320.053 250.752 327.856 240.398 327.856 240.398C325.699 241.869 323.722 240.807 322.481 242.349C321.24 243.892 322.264 245.104 320.806 246.623C319.348 248.141 318.559 246.833 317.649 248.045C316.739 249.258 317.649 252.001 315.986 252.949C313.967 254.15 311.617 256.364 311.262 261.106H313.232Z" fill="#25998D"/>
<path d="M311.256 256.11C310.73 246.255 305.301 237.284 296.736 232.117C296.736 232.117 301.087 248.152 308.685 256.966L311.256 256.11Z" fill="#25998D"/>
<path d="M309.182 256.76C309.182 256.76 300.56 247.497 297.104 240.398C297.197 241.172 297.151 241.955 296.966 242.713C296.523 244.207 296.726 245.811 297.53 247.16C298.544 248.739 299.634 247.931 300.316 248.968C300.998 250.004 299.59 251.668 301.005 253.62C302.326 255.428 306.239 256.965 306.239 256.965L309.182 256.76Z" fill="#25998D"/>
<path d="M314.246 242.346C314.447 241.543 314.642 240.741 314.875 239.938L315.706 236.645C315.82 236.206 315.939 235.761 316.046 235.327C316.676 232.609 317.393 229.902 318.092 227.201L319.414 222.203C319.449 222.055 319.497 221.91 319.559 221.77C319.559 221.913 319.545 222.056 319.515 222.197C319.439 222.572 319.351 223.006 319.25 223.433C318.621 226.117 317.991 228.789 317.293 231.542C316.663 233.886 316.109 236.229 315.505 238.573C315.133 240.032 314.756 241.467 314.391 242.944C313.711 245.678 313.022 248.392 312.326 251.088C312.03 252.259 311.696 253.373 311.4 254.503C311.364 254.639 311.318 254.772 311.262 254.902C311.26 254.779 311.275 254.657 311.306 254.538C311.564 253.402 311.81 252.265 312.087 251.105C312.716 248.621 313.308 246.131 313.918 243.641C314.025 243.207 314.145 242.774 314.265 242.34L314.246 242.346Z" fill="#1D7A71"/>
<path d="M303.587 247.63L302.525 245.827L301.091 243.355C300.902 243.025 300.714 242.684 300.519 242.361C299.305 240.333 298.129 238.317 296.966 236.26L294.828 232.47C294.763 232.36 294.708 232.246 294.664 232.129C294.757 232.21 294.835 232.303 294.897 232.406C295.079 232.678 295.28 232.984 295.475 233.308C296.689 235.295 297.896 237.277 299.091 239.351C300.104 241.084 301.141 242.875 302.16 244.637C302.789 245.735 303.418 246.827 304.046 247.93C305.235 249.97 306.423 252.009 307.593 254.049C308.096 254.921 308.561 255.782 309.039 256.655C309.1 256.758 309.148 256.866 309.184 256.978C309.109 256.904 309.045 256.82 308.995 256.73C308.473 255.892 307.939 255.06 307.423 254.199C306.323 252.35 305.222 250.484 304.122 248.624C303.933 248.3 303.751 247.965 303.562 247.636L303.587 247.63Z" fill="#1D7A71"/>
<path d="M309.764 256.961C306.045 240.076 302.963 221.77 302.963 221.77C304.334 224.043 307.778 224.576 308.36 226.745C308.941 228.913 306.714 229.644 307.164 231.384C307.614 233.123 310.877 233.454 311.031 236.022C311.184 238.591 308.289 239.461 308.672 241.508C309.056 243.555 312.27 243.555 313.126 247.306C313.982 251.058 311.925 256.973 311.925 256.973L309.764 256.961Z" fill="#25998D"/>
<path d="M311.262 256.059C311.262 242.353 319.03 223.84 319.03 223.84C319.03 223.84 322.129 241.939 313.326 256.972L311.262 256.059Z" fill="#25998D"/>
<path d="M313.22 261.106C320.023 250.752 327.856 240.398 327.856 240.398C325.699 241.869 323.722 240.807 322.475 242.349C321.228 243.892 322.264 245.104 320.806 246.623C319.348 248.141 318.559 246.833 317.643 248.045C316.727 249.258 317.643 252.001 315.986 252.949C313.967 254.15 311.611 256.358 311.262 261.106H313.22Z" fill="#25998D"/>
<path d="M311.256 256.133C310.736 246.271 305.307 237.291 296.736 232.117C296.736 232.117 301.087 248.154 308.685 256.966L311.256 256.133Z" fill="#25998D"/>
<path d="M309.182 256.76C309.182 256.76 300.578 247.497 297.108 240.398C297.198 241.172 297.151 241.954 296.97 242.713C296.521 244.207 296.724 245.813 297.533 247.16C298.546 248.739 299.628 247.931 300.316 248.968C301.003 250.004 299.59 251.668 301.003 253.62C302.316 255.428 306.231 256.965 306.231 256.965L309.182 256.76Z" fill="#25998D"/>
<path d="M314.243 242.346C314.445 241.543 314.64 240.741 314.872 239.938C315.149 238.842 315.432 237.741 315.709 236.645C315.822 236.206 315.942 235.761 316.042 235.327C316.672 232.603 317.389 229.902 318.093 227.201C318.513 225.529 318.951 223.863 319.408 222.203C319.446 222.055 319.497 221.91 319.559 221.77C319.559 221.913 319.545 222.056 319.515 222.197C319.439 222.572 319.345 223.006 319.244 223.433C318.615 226.117 317.986 228.789 317.294 231.542C316.665 233.886 316.105 236.229 315.508 238.573C315.137 240.032 314.759 241.467 314.388 242.944C313.713 245.678 313.025 248.392 312.325 251.088C312.029 252.259 311.696 253.373 311.4 254.503C311.37 254.64 311.323 254.774 311.262 254.902C311.263 254.779 311.28 254.657 311.312 254.538C311.564 253.402 311.809 252.265 312.092 251.105C312.69 248.621 313.306 246.131 313.923 243.641C314.03 243.207 314.149 242.774 314.262 242.34L314.243 242.346Z" fill="#1D7A71"/>
<path d="M303.577 247.63L302.521 245.827L301.088 243.355C300.899 243.025 300.711 242.684 300.516 242.361C299.303 240.333 298.127 238.317 296.965 236.26L294.827 232.47C294.761 232.361 294.707 232.247 294.664 232.129C294.755 232.211 294.833 232.305 294.897 232.406C295.079 232.678 295.28 232.984 295.475 233.308C296.688 235.295 297.895 237.271 299.083 239.345C300.095 241.113 301.138 242.875 302.157 244.637C302.785 245.735 303.414 246.827 304.042 247.93C305.237 249.964 306.418 252.009 307.594 254.049C308.097 254.921 308.562 255.782 309.039 256.655C309.1 256.758 309.148 256.866 309.184 256.978C309.108 256.903 309.042 256.82 308.989 256.73C308.467 255.892 307.939 255.06 307.424 254.199C306.318 252.35 305.224 250.484 304.124 248.624C303.929 248.3 303.753 247.965 303.565 247.636L303.577 247.63Z" fill="#1D7A71"/>
<path d="M302.963 254.895C302.963 261.666 304.305 268.692 308.332 273.531H316.262C320.289 268.686 321.631 261.666 321.631 254.895H302.963Z" fill="#7A4C7F"/>
</g>
<path d="M750.783 159.969C753.85 161.941 756.172 164.739 758.629 167.348C763.964 173.024 768.986 178.987 773.514 185.344C779.512 193.773 785.126 202.453 789.501 211.841C791.922 217.024 792.962 222.422 790.891 228.089C789.546 231.783 787.009 234.41 783.924 236.571C778.167 240.597 771.523 242.319 764.78 243.726C760.611 244.596 756.396 245.242 752.128 245.323C750.138 245.358 750.954 246.829 750.658 247.752C750.514 247.914 750.353 248.048 750.165 248.156C742.902 251.025 735.369 250.496 727.846 249.842C725.434 249.635 724.941 249.044 724.932 246.676C724.905 237.127 724.905 227.577 724.932 218.028C724.941 215.517 725.345 215.132 727.864 215.114C733.065 215.069 738.284 215.464 743.422 214.325C744.659 214.047 745.878 213.724 747.116 213.455C748.461 213.159 749.205 213.616 749.304 214.997C749.788 222.036 750.577 229.057 750.936 236.114C751.025 237.907 751.285 239.691 751.223 241.036C750.954 234.661 750.398 227.838 749.806 221.014C749.716 219.947 749.555 218.898 749.483 217.831C749.438 217.176 749.393 216.387 750.165 216.127C750.819 215.912 751.285 216.468 751.662 216.934C753.321 218.952 755.141 220.79 757.194 222.422C759.786 224.475 762.655 225.999 765.713 227.201C764.717 226.842 763.749 226.439 762.825 225.919C762.314 225.632 761.552 225.399 761.669 224.708C761.785 224 762.574 224.018 763.148 223.973C764.619 223.865 766.045 223.542 767.452 223.139C770.976 222.135 774.052 220.297 776.858 217.974C778.858 216.324 779.548 216.387 781.1 218.396C783.144 221.032 785.206 223.65 786.148 226.95C786.901 229.622 786.426 231.917 784.848 233.558C786.471 232.007 786.874 229.703 786.202 227.111C785.305 223.65 783.09 220.96 780.983 218.198C779.405 216.127 779.387 215.939 781.091 213.93C782.615 212.137 783.888 210.191 785.036 208.156C783.799 210.344 782.427 212.433 780.759 214.316C779.495 215.733 778.831 215.786 777.45 214.441C773.675 210.756 769.981 206.999 766.421 203.107C764.018 200.48 761.185 198.355 758.315 196.293C756.163 194.742 756.091 194.401 757.723 192.374C760.907 188.402 763.588 184.116 765.668 179.471C763.408 184.394 760.584 188.967 757.078 193.11C756.244 194.087 755.249 194.186 754.217 193.522C752.03 192.114 749.743 190.859 747.582 189.406C746.829 188.895 746.354 188.214 746.219 187.281C745.197 180.368 744.264 173.437 742.767 166.604C742.624 165.941 742.615 165.205 743.036 164.667C744.991 162.094 747.492 160.363 750.783 159.969Z" fill="#FEF294"/>
<path d="M750.782 159.967C748.406 161.168 745.905 162.164 743.986 164.127C743.322 164.809 742.999 165.508 743.224 166.459C744.838 173.13 745.645 179.936 746.649 186.705C746.828 187.925 747.294 188.624 748.263 189.207C750.209 190.373 752.19 191.494 754.028 192.812C755.284 193.717 756.082 193.601 757.005 192.408C760.117 188.391 762.941 184.204 764.941 179.496C765.246 178.77 765.461 177.281 766.286 177.631C767.389 178.097 766.232 179.146 765.954 179.81C763.963 184.428 761.39 188.714 758.099 192.525C756.934 193.87 756.674 194.623 758.494 195.807C762.798 198.631 766.537 202.128 769.935 206.038C772.554 209.059 775.566 211.74 778.364 214.61C779.117 215.381 779.494 214.861 779.96 214.368C781.951 212.269 783.502 209.866 784.784 207.293C785.017 206.836 785.026 206.217 785.914 206.235C786.048 208.261 784.659 209.633 783.798 211.193C783.322 212.054 782.614 212.807 781.969 213.57C779.834 216.098 779.906 216.026 782.013 218.707C784.614 222.016 787.178 225.397 786.882 229.997C786.703 232.767 784.874 234.982 782.659 235.045C782.569 234.552 782.937 234.363 783.251 234.112C786.057 231.835 786.622 229.925 785.483 226.562C784.354 223.2 782.094 220.555 779.96 217.82C778.812 216.358 778.077 217.64 777.396 218.214C774.544 220.59 771.442 222.482 767.873 223.567C765.954 224.15 764.008 224.545 761.731 224.527C763.632 226.168 765.963 226.464 767.989 227.593C766.474 228.185 765.542 227.907 761.336 225.773C759.121 224.652 757.095 223.254 755.275 221.568C753.508 219.945 751.867 218.196 750.101 215.892C749.697 218.645 750.37 220.895 750.469 223.137C750.684 228.051 751.204 232.947 751.545 237.86C751.643 239.25 751.536 240.658 751.876 242.039C751.993 242.523 752.074 243.303 751.419 243.393C750.657 243.509 750.8 242.729 750.765 242.245C750.495 238.327 750.262 234.408 749.966 230.499C749.581 225.262 749.133 220.026 748.738 214.78C748.675 213.91 748.388 213.587 747.474 213.874C740.937 215.982 734.185 215.82 727.442 215.641C725.792 215.596 725.443 216.161 725.452 217.685C725.505 227.369 725.523 237.053 725.416 246.737C725.398 248.486 725.981 249.185 727.577 249.275C734.813 249.696 742.094 250.638 749.115 247.831C749.464 247.688 749.904 247.777 750.298 247.759C750.612 249.49 749.15 249.651 748.146 249.974C743.977 251.31 739.655 251.803 735.297 251.534C732.966 251.391 730.625 251.355 728.312 251.014C726.68 250.772 726.178 251.409 726.151 252.951C726.052 257.964 726.447 262.949 726.761 267.935C726.985 271.458 726.734 275 727.227 278.524C727.469 280.237 728.177 280.882 729.8 280.721C735.198 280.201 740.605 280.335 746.012 280.326C746.747 280.326 747.492 280.282 748.209 280.407C748.846 280.524 749.671 280.56 749.671 281.447C749.671 282.254 748.926 282.487 748.281 282.667C747.438 282.909 746.559 282.864 745.689 282.864C740.417 282.873 735.136 282.846 729.863 282.882C727.505 282.9 727.397 283.124 727.577 285.446C727.837 288.773 728.106 292.091 728.5 295.408C728.608 296.323 728.733 297.273 728.204 298.143C727.846 298.152 727.487 298.17 727.119 298.179C725.595 296.386 726.016 294.126 725.721 292.064C725.407 289.831 725.236 287.563 725.174 285.294C725.111 283.115 724.591 282.882 722.421 283.007C717.166 283.321 711.894 283.402 706.657 284.021C702.219 284.55 697.78 285.115 693.342 285.662C691.898 285.841 691.584 286.522 691.943 287.841C692.634 290.423 693.351 292.987 694.149 295.534C694.418 296.404 694.911 297.291 694.176 298.188C693.916 298.188 693.665 298.188 693.405 298.188C692.49 297.803 692.257 296.942 691.97 296.135C691.073 293.624 690.302 291.069 689.71 288.468C689.352 286.863 688.616 286.253 686.922 286.513C675.92 288.217 664.819 289.051 653.763 290.297C650.67 290.647 647.54 291.077 644.393 290.791C643.012 290.665 642.555 291.23 642.815 292.53C643.048 293.705 643.066 294.915 643.2 296.108C643.281 296.834 643.424 297.578 642.806 298.17C642.438 298.161 642.07 298.152 641.703 298.143C640.645 296.852 640.788 295.256 640.654 293.759C640.358 290.495 640.385 290.504 637.3 289.831C633.705 289.042 630.181 288.011 626.881 286.325C626.585 286.173 626.271 286.047 626.002 285.85C625.383 285.402 624.361 285.025 624.917 284.048C625.428 283.16 626.361 283.554 627.078 283.895C630.046 285.303 633.068 286.54 636.269 287.303C640.187 288.226 640.268 288.19 640.196 284.254C640.08 277.502 640.582 270.795 641.308 264.088C641.595 261.434 641.38 258.753 641.407 256.081C641.416 254.933 640.869 254.431 639.757 254.242C638.367 254.009 636.95 254.054 635.57 253.857C631.436 253.265 627.464 252.144 623.859 249.974C623.097 249.517 621.833 248.97 622.389 247.948C623.034 246.755 624.164 247.616 625.007 248.073C629.32 250.414 633.956 251.543 638.807 251.875C641.093 252.037 641.479 251.732 641.407 249.508C641.12 240.111 641.021 230.705 639.685 221.371C639.309 218.77 639.246 218.681 636.502 218.698C631.741 218.725 627.024 218.358 622.389 217.282C621.357 217.04 619.654 216.932 619.968 215.506C620.317 213.91 621.869 214.816 622.855 215.058C627.58 216.188 632.369 216.349 637.193 216.242C638.125 216.224 638.995 216.125 638.842 214.834C637.982 207.687 637.04 200.559 636.063 193.502C635.39 193.305 635.193 193.717 634.951 194.004C630.441 199.286 625.554 204.226 620.775 209.257C620.183 209.875 619.627 210.655 618.578 210.073C617.762 209.059 618.721 208.476 619.188 207.849C621.86 204.271 621.824 204.307 619.537 200.344C617.726 197.214 615.502 194.363 613.44 191.413C611.153 188.131 608.849 184.867 607.002 181.361C606.204 181.505 606.105 182.105 605.827 182.536C602.581 187.62 598.537 192.085 594.628 196.649C591.848 199.895 589.113 203.177 586.244 206.351C585.285 207.409 585.204 208.476 585.607 209.848C587.168 215.166 589.992 219.407 595.202 221.765C595.327 221.819 595.444 221.891 595.551 221.971C596.098 222.366 596.789 222.796 596.394 223.558C596 224.321 595.22 224.07 594.61 223.783C591.149 222.178 588.154 220.017 586.208 216.627C585.204 214.879 584.46 213.023 583.868 211.104C583.617 210.279 583.285 209.705 582.352 210.467C575.529 216.071 567.746 220.348 561.021 226.096C559.747 227.181 559.622 228.087 560.294 229.521C562.025 233.216 564.563 236.103 568.131 238.093C568.911 238.524 569.943 238.874 569.548 240.156C569.405 240.29 569.243 240.38 569.055 240.443C564.563 239.528 561.881 236.354 559.577 232.758C558.905 231.718 558.501 230.508 557.739 229.315C555.174 232.14 553.211 235.009 552.475 238.596C552.386 239.053 552.341 239.519 552.189 239.967C551.991 240.532 551.633 240.882 550.987 240.748C550.44 240.631 550.234 240.192 550.225 239.707C550.216 238.497 550.512 237.322 550.888 236.184C551.839 233.35 553.336 230.839 555.443 228.732C556.6 227.576 556.932 226.365 556.654 224.76C556.268 222.536 555.766 220.295 556.215 217.954C555.623 217.775 554.87 218.654 554.448 217.784C554.063 216.986 554.601 216.358 555.112 215.838C557.936 212.996 560.662 210.055 563.666 207.4C565.665 205.634 567.629 203.814 569.682 202.119C570.911 201.115 570.794 200.155 569.96 199.017C569.36 198.192 568.589 197.564 567.773 196.981C564.634 194.757 563.72 194.892 561.451 197.959C559.425 200.693 557.479 203.491 555.892 206.513C555.677 206.925 555.47 207.356 555.165 207.705C554.843 208.073 554.457 208.378 553.955 208.127C553.453 207.885 553.453 207.374 553.507 206.907C553.587 206.235 553.901 205.643 554.215 205.051C555.712 202.2 557.452 199.501 559.514 197.053C560.563 195.807 560.59 194.991 559.227 194.148C559.2 193.834 559.308 193.583 559.523 193.359C559.676 193.224 559.837 193.045 560.016 193.036C562.823 193.009 564.267 191.036 565.836 189.117C568.355 186.042 570.992 183.065 573.807 180.249C574.408 179.649 574.919 178.949 575.385 178.169C574.587 177.613 572.875 178.393 573.206 176.546C573.287 176.367 573.413 176.223 573.583 176.116C573.762 176.026 573.96 175.901 574.148 175.936C577.268 176.439 579.196 174.618 581.16 172.574C585.042 168.53 589.077 164.629 593.032 160.648C593.588 160.092 594.269 159.787 593.534 158.586C592.843 157.456 594.224 157.062 595.175 157.133C596.852 157.259 598.457 157.734 599.909 158.631C601.676 159.725 603.388 160.89 604.536 162.684C605.182 163.688 605.729 163.544 606.302 162.63C607.262 161.106 608.392 159.689 609.405 158.2C609.781 157.644 610.176 157.106 610.651 156.631C611.1 156.183 611.638 155.815 612.238 156.255C612.893 156.73 612.552 157.375 612.22 157.86C610.813 159.895 609.557 162.038 607.997 163.939C604.957 167.633 605.379 171.534 606.769 175.623C607.594 175.605 607.638 174.95 607.881 174.547C611.037 169.346 614.301 164.226 618.658 159.913C624.361 154.264 631.05 150.946 639.596 151.448C637.524 148.965 635.005 147.638 632.261 146.642C631.57 146.391 630.853 146.23 630.145 146.033C629.374 145.817 628.746 145.486 629.042 144.499C629.293 144.087 629.687 143.961 630.136 143.943C637.695 145.208 642.608 149.754 645.424 156.64C647.442 161.572 648.643 166.71 647.352 172.09C647.011 173.515 647.406 173.865 648.84 173.587C654.48 172.484 660.138 171.516 665.85 170.807C672.459 169.983 679.04 170.054 685.631 170.727C687.558 170.924 687.738 170.834 687.505 169.059C685.962 157.411 683.138 146.104 678.215 135.398C677.023 132.816 676.727 132.789 673.875 133.04C665.267 133.802 656.785 135.228 648.428 137.416C647.971 137.532 647.513 137.613 647.038 137.55C646.554 137.487 646.07 137.353 645.953 136.824C645.836 136.286 646.231 135.972 646.634 135.712C647.155 135.389 647.746 135.255 648.329 135.102C661.071 131.731 674.01 130.054 687.2 130.484C687.469 130.493 687.137 130.466 687.397 130.493C688.643 130.61 690.517 130.493 690.455 131.973C690.392 133.452 688.518 132.834 687.424 132.887C685.29 132.995 683.147 132.941 681.013 132.905C679.955 132.887 679.731 133.21 680.188 134.206C685.254 145.297 688.294 156.954 689.845 169.014C690.051 170.592 690.661 171.319 692.302 171.516C701.179 172.583 709.966 174.475 718.96 174.547C721.847 174.573 721.919 174.475 721.443 171.588C719.928 162.253 717.83 153.107 713.194 144.723C712.217 142.957 711.087 141.325 709.814 139.774C709.312 139.155 708.711 138.59 708.747 137.694C709.841 135.954 710.531 137.487 711.347 138.007C717.579 145.781 720.367 154.999 722.466 164.495C723.084 167.293 723.622 170.108 723.972 172.959C724.107 174.089 724.609 174.627 725.774 174.591C730.814 174.43 735.718 173.65 740.408 171.704C741.986 171.05 742.443 170.108 742.058 168.431C740.838 163.195 740.56 164.405 745.142 161.168C746.577 160.155 748.012 158.945 749.984 159.097C750.478 159.205 750.747 159.474 750.782 159.967Z" fill="#FBBD46"/>
<path d="M728.214 298.165C727.846 295.134 727.407 292.112 727.138 289.072C726.995 287.485 727.021 285.88 726.735 284.302C726.466 282.832 726.923 282.177 728.626 282.204C734.769 282.285 740.92 282.204 747.062 282.177C747.905 282.177 748.775 282.249 749.519 281.397C748.802 280.814 748.057 281.029 747.385 281.029C741.18 281.038 734.975 280.966 728.779 281.424C727.093 281.549 726.699 280.931 726.618 279.308C726.188 270.332 725.605 261.365 725.488 252.372C725.461 250.058 725.703 249.969 728.044 250.256C734.347 251.036 740.651 251.385 746.874 249.709C748.138 249.368 749.716 249.377 750.317 247.772C750.424 247.763 750.532 247.754 750.649 247.754C750.685 250.022 750.738 252.282 750.756 254.551C750.855 267.077 751.357 279.604 751.187 292.139C751.16 294.228 750.891 296.246 750.344 298.245C742.964 298.218 735.594 298.191 728.214 298.165Z" fill="#FEF294"/>
<path d="M749.993 159.136C747.15 160.275 744.828 162.301 742.174 163.754C741.537 164.104 741.824 164.498 741.905 164.929C742.21 166.489 742.407 168.085 742.864 169.609C743.178 170.667 742.945 171.16 741.994 171.645C736.569 174.361 730.75 175.169 724.787 175.276C723.819 175.294 723.604 174.81 723.487 173.94C722.178 164.426 720.116 155.11 715.955 146.368C714.601 143.525 712.799 140.988 711.023 138.414C711.445 137.939 712.001 138.011 712.476 138.199C714.816 139.131 717.327 139.275 719.73 139.903C722.169 140.647 724.671 141.23 726.957 142.44C727.199 142.637 727.316 142.942 727.531 143.148C735.224 146.69 741.797 151.864 748.19 157.298C748.845 157.836 749.392 158.517 749.993 159.136Z" fill="#FEF294"/>
<path d="M623.627 298.246C624.479 294.533 625.205 290.812 624.811 286.975C624.416 283.074 623.923 279.182 623.502 275.282C623.116 271.713 622.73 268.144 622.435 264.567C621.753 256.21 621.108 247.853 620.489 239.496C620.318 237.174 620.471 234.824 619.987 232.52C618.929 230.924 619.135 229.041 619.027 227.301C618.713 221.993 618.265 216.703 617.897 211.394C617.871 210.991 617.871 210.596 617.987 210.211C618.077 209.969 618.22 209.771 618.426 209.61C619.296 210.372 619.619 209.637 620.139 209.072C625.438 203.351 631.016 197.891 636.037 191.73C637.265 193.174 636.862 194.878 637.086 196.348C638.046 202.652 638.79 208.991 639.624 215.313C639.758 216.362 639.489 216.918 638.261 216.918C632.657 216.927 627.052 216.99 621.601 215.367C621.152 215.232 620.426 214.739 620.211 215.456C619.987 216.254 620.883 216.299 621.403 216.434C626.801 217.823 632.307 218.191 637.857 218.03C639.435 217.985 639.946 218.379 640.144 220.056C641.023 227.328 641.749 234.591 641.758 241.935C641.767 244.912 642.027 247.916 642.09 250.911C642.116 252.085 641.776 252.587 640.511 252.56C634.818 252.435 629.402 251.314 624.434 248.418C624.201 248.283 623.977 248.149 623.735 248.023C623.385 247.844 622.91 247.548 622.659 247.96C622.3 248.534 622.919 248.732 623.286 248.965C626.496 250.964 629.976 252.282 633.697 252.901C635.992 253.278 638.315 253.52 640.628 253.654C641.785 253.726 642.072 254.156 642.107 255.232C642.287 261.841 641.435 268.387 640.987 274.959C640.727 278.815 640.816 282.697 640.87 286.571C640.897 288.221 640.583 288.777 638.727 288.445C634.477 287.683 630.496 286.257 626.649 284.365C626.183 284.141 625.519 283.424 625.134 284.285C624.838 284.948 625.707 285.056 626.129 285.271C630.065 287.324 634.208 288.786 638.601 289.369C640.323 289.602 641.058 290.355 641.184 291.978C641.336 294.031 641.525 296.085 641.704 298.147C635.696 298.201 629.662 298.219 623.627 298.246Z" fill="#FEF294"/>
<path d="M694.194 298.216C693.199 294.638 692.293 291.025 691.163 287.492C690.616 285.797 691.19 285.232 692.733 285.071C699.072 284.416 705.385 283.519 711.742 282.91C715.598 282.542 719.48 283.008 723.291 282.237C725.371 281.816 725.846 283.098 725.864 284.712C725.918 289.24 726.555 293.715 727.147 298.189C716.154 298.207 705.169 298.216 694.194 298.216Z" fill="#FEF294"/>
<path d="M642.832 298.201C642.581 295.959 642.321 293.727 642.079 291.485C641.963 290.373 642.124 289.889 643.595 290.05C648.114 290.561 652.615 289.754 657.107 289.378C661.402 289.019 665.671 288.257 669.966 287.916C676.063 287.441 682.106 286.571 688.15 285.728C689.638 285.522 689.8 286.114 690.051 287.154C690.93 290.911 691.997 294.614 693.413 298.201C676.556 298.21 659.699 298.21 642.832 298.201Z" fill="#FEF294"/>
<path d="M709.025 137.523C709.222 138.761 710.352 139.317 711.007 140.222C715.831 146.813 718.377 154.354 720.251 162.173C721.166 165.993 721.848 169.848 722.386 173.74C722.583 175.148 722.117 175.246 720.978 175.282C715.284 175.426 709.68 174.619 704.067 173.892C699.718 173.327 695.387 172.601 691.029 172.054C689.863 171.911 689.487 171.489 689.352 170.341C687.864 157.698 684.743 145.486 679.337 133.919C678.718 132.592 678.852 132.215 680.368 132.269C683.04 132.368 685.712 132.323 688.384 132.332C689.003 132.332 689.63 132.332 690.599 132.332C686.564 129.238 650.652 133.121 646.25 136.833C646.85 137.407 647.478 137.075 648.097 136.914C656.023 134.824 664.039 133.228 672.244 132.699C672.307 132.699 672.378 132.69 672.441 132.69C677.723 132.161 677.651 132.188 679.713 137.102C683.954 147.243 686.591 157.797 688.151 168.647C688.196 168.978 688.133 169.328 688.214 169.642C688.761 171.722 687.613 171.722 686.071 171.525C679.435 170.655 672.827 170.709 666.156 171.462C659.529 172.207 653.019 173.543 646.339 174.681C646.205 173.785 646.617 173.013 646.743 172.198C648.124 163.715 645.945 156.174 640.305 149.772C637.641 146.741 633.902 145.306 630.011 144.356C629.975 143.352 630.836 143.253 631.463 142.966C635.409 141.146 639.229 139.075 643.138 137.201C644.68 136.456 645.568 135.362 645.496 133.614C645.389 131.103 646.545 129.274 648.545 127.884C652.616 125.409 657.27 124.629 661.762 123.41C668.621 121.545 675.606 120.603 682.735 120.962C686.115 121.204 688.554 123.006 689.352 126.154C690.455 130.556 693.091 132.699 697.395 133.605C700.704 134.295 703.923 135.479 707.169 136.501C707.86 136.698 708.613 136.824 709.025 137.523Z" fill="#FEF294"/>
<path d="M682.305 210.558C673.383 210.02 665.68 212.019 657.942 213.732C652.742 214.88 647.559 216.046 642.26 216.691C641.103 216.835 640.861 216.476 640.726 215.534C640.278 212.244 639.767 208.962 639.354 205.671C638.754 200.928 638.242 196.166 637.597 191.423C637.462 190.401 637.704 189.63 638.278 188.868C641.13 185.066 643.685 181.084 645.407 176.628C645.64 176.036 645.981 175.722 646.698 175.606C653.064 174.593 659.377 173.221 665.797 172.494C672.719 171.714 679.642 171.831 686.564 172.503C687.81 172.62 688.572 173.023 688.707 174.682C689.245 181.201 689.514 187.72 689.344 194.248C689.209 199.305 688.823 204.353 688.599 209.401C688.554 210.397 688.402 210.737 687.218 210.612C685.309 210.405 683.354 210.558 682.305 210.558Z" fill="#FEF294"/>
<path d="M688.976 259.657C689.353 264.338 688.564 269.377 688.582 274.443C688.599 277.313 688.752 280.164 689.308 282.979C689.514 283.993 689.326 284.504 688.088 284.683C681.31 285.66 674.522 286.476 667.689 287.077C662.067 287.579 656.463 288.395 650.841 288.915C648.321 289.149 645.775 288.978 643.237 289.023C642.224 289.041 642.018 288.467 642.018 287.615C642.053 280.827 641.883 274.04 642.744 267.261C643.246 263.307 643.452 259.29 643.237 255.299C643.156 253.811 643.65 253.398 645.138 253.336C651.379 253.04 657.584 252.242 663.789 251.462C670.119 250.673 676.477 250.036 682.816 249.345C684.269 249.184 685.73 249.085 687.183 248.933C688.483 248.798 688.994 249.381 688.976 250.664C688.949 253.533 688.976 256.402 688.976 259.657Z" fill="#FEF294"/>
<path d="M680.278 211.266C682.538 211.409 684.725 211.579 686.922 211.669C687.837 211.705 688.267 212.028 688.222 212.987C688.034 216.708 688.025 220.447 687.666 224.16C687.2 228.966 687.433 233.727 687.971 238.497C688.258 241.071 688.384 243.662 688.617 246.245C688.716 247.365 688.258 247.679 687.146 247.805C679.417 248.657 671.697 249.634 663.968 250.486C657.494 251.203 651.002 251.804 644.519 252.485C643.488 252.593 643.263 252.127 643.237 251.23C643.129 247.437 642.842 243.644 642.878 239.851C642.932 232.839 641.784 225.935 641.156 218.986C641.085 218.17 641.04 217.766 642.017 217.695C649.352 217.121 656.409 215.112 663.555 213.543C669.087 212.315 674.683 211.562 680.278 211.266Z" fill="#FEF294"/>
<path d="M618.436 209.623C618.427 209.775 618.409 209.928 618.4 210.08C615.387 213.219 611.738 215.568 608.196 218.025C601.363 222.759 594.342 227.216 587.115 231.34C586.371 231.771 585.663 232.3 584.721 232.156C580.292 234.55 575.862 236.953 571.423 239.33C570.787 239.67 570.177 240.11 569.397 240.083C569.46 239.321 568.904 239.07 568.348 238.801C564.116 236.756 561.372 233.358 559.498 229.125C558.915 227.807 559.094 227.045 560.233 226.068C566.268 220.885 573.136 216.85 579.467 212.08C580.426 211.363 581.457 210.69 582.264 209.829C583.537 208.457 583.923 209.237 584.246 210.475C585.743 216.196 588.855 220.625 594.378 223.127C594.746 223.288 595.104 223.468 595.481 223.611C595.75 223.71 596.082 223.656 596.136 223.378C596.18 223.181 596.028 222.831 595.849 222.723C595.221 222.338 594.558 222.024 593.903 221.692C588.362 218.939 586.165 213.873 584.605 208.35C584.389 207.579 584.927 207.247 585.295 206.816C588.864 202.593 592.441 198.388 596.028 194.182C599.83 189.726 603.748 185.377 606.725 179.898C607.496 181.243 608.142 182.364 608.788 183.476C612.428 189.699 617.234 195.133 620.776 201.427C621.072 201.948 621.305 202.512 621.655 202.997C622.623 204.333 622.336 205.346 621.135 206.431C620.122 207.354 619.332 208.547 618.436 209.623Z" fill="#FEF294"/>
<path d="M724.333 202.275C724.333 206.722 724.27 209.726 724.36 212.721C724.405 214.146 723.903 214.622 722.513 214.478C714.514 213.644 706.498 212.909 698.536 211.788C695.9 211.412 693.254 211.161 690.6 210.927C689.614 210.838 689.408 210.452 689.497 209.52C690.547 199.145 690.197 188.744 690.134 178.351C690.125 177.024 689.919 175.706 689.775 174.379C689.659 173.33 689.982 172.998 691.103 173.16C695.442 173.787 699.809 174.263 704.149 174.908C709.681 175.724 715.223 176.495 720.827 176.397C722.342 176.37 722.988 176.845 723.096 178.396C723.678 186.825 724.494 195.245 724.333 202.275Z" fill="#FEF294"/>
<path d="M623.466 204.122C619.682 196.572 614.409 190.331 609.998 183.517C607.998 180.432 607.37 177.921 609.782 174.424C613.835 168.533 617.61 162.508 623.349 158.051C628.012 154.429 633.248 152.662 639.193 153.155C641.031 153.308 642.331 153.855 643.237 155.72C647.792 165.117 646.734 174.03 641.246 182.647C637.66 188.287 633.508 193.479 628.854 198.285C627.061 200.15 625.34 202.087 623.466 204.122Z" fill="#FEF294"/>
<path d="M724.314 232.358C724.314 237.299 724.287 242.239 724.332 247.189C724.341 248.462 724.144 248.839 722.664 248.659C714.729 247.682 706.802 246.552 698.768 246.983C696.302 247.117 693.845 247.234 691.389 247.395C690.348 247.467 689.855 247.198 689.748 246.005C689.138 239.307 688.259 232.627 688.609 225.884C688.833 221.697 689.156 217.518 689.362 213.331C689.416 212.192 689.99 211.986 690.913 212.084C693.828 212.398 696.733 212.703 699.647 213.026C705.197 213.644 710.757 214.254 716.307 214.909C718.298 215.142 720.279 215.321 722.288 215.339C723.821 215.357 724.422 216.083 724.386 217.733C724.269 222.602 724.341 227.48 724.341 232.358C724.332 232.358 724.323 232.358 724.314 232.358Z" fill="#FEF294"/>
<path d="M702.292 248.139C709.331 247.709 716.226 249.108 723.184 249.753C724.225 249.852 724.314 250.435 724.323 251.233C724.341 253.699 724.458 256.147 724.619 258.612C724.951 263.598 724.969 268.601 725.148 273.596C725.22 275.658 725.354 277.711 725.516 279.765C725.614 280.957 725.211 281.433 723.956 281.415C713.33 281.289 702.839 282.616 692.357 284.185C691.048 284.383 690.357 283.943 690.205 282.562C689.586 276.913 689.748 271.273 690.062 265.606C690.322 260.89 690.51 256.138 689.882 251.421C689.541 248.839 689.685 248.794 692.303 248.48C695.63 248.086 698.965 248.22 702.292 248.139Z" fill="#FEF294"/>
<path d="M725.496 205.024C725.38 195.977 725.039 186.938 723.954 177.936C723.837 176.994 723.972 176.456 725.138 176.394C731.082 176.089 736.938 175.326 742.371 172.654C743.376 172.161 743.465 172.798 743.573 173.551C744.219 178.016 744.963 182.473 745.546 186.956C746.371 193.278 747.088 199.617 747.841 205.948C748.038 207.598 748.155 209.256 748.361 210.906C748.496 212.036 748.02 212.556 746.962 212.942C744.55 213.82 742.04 214.233 739.538 214.421C735.306 214.744 731.056 215.228 726.787 214.574C725.711 214.412 725.478 213.982 725.487 213.04C725.514 210.359 725.496 207.687 725.496 205.024Z" fill="#FEF294"/>
<path d="M545.348 232.52C544.72 227.92 545.903 223.536 547.132 219.205C549.661 210.283 553.875 202.123 558.968 194.403C559.076 194.25 559.273 194.152 559.434 194.035C560.017 194.797 560.985 194.161 561.819 194.726C560.196 197.012 558.573 199.254 556.995 201.531C555.857 203.172 554.852 204.903 554.054 206.741C553.893 207.109 553.642 207.602 554.054 207.826C554.646 208.149 554.807 207.539 555.005 207.135C557.004 203.038 559.739 199.424 562.411 195.766C563.093 194.833 563.774 194.501 564.931 194.941C567.361 195.855 569.504 197.102 570.912 199.37C571.575 200.446 571.683 201.244 570.472 202.249C565.236 206.597 560.25 211.233 555.552 216.165C555.157 216.577 554.565 216.909 554.736 217.689C555.695 218.039 556.009 216.918 556.959 216.739C556.323 219.886 556.879 222.908 557.444 225.93C557.677 227.158 557.004 227.902 556.224 228.7C553.409 231.579 551.436 234.914 550.817 238.949C550.728 239.514 550.342 240.312 551.23 240.393C551.938 240.465 551.759 239.631 551.83 239.138C552.476 234.78 554.978 231.48 557.991 228.171C560.205 233.731 563.353 238.187 569.109 240.178C564.967 241.89 560.699 243.486 556.296 244.042C551.355 244.661 548.342 242.231 546.603 237.524C545.993 235.901 545.688 234.215 545.348 232.52Z" fill="#FEF294"/>
<path d="M573.486 176.431C579.808 169.518 585.439 161.887 593.733 157.028C595.248 156.14 596.396 154.804 597.374 153.378C598.629 151.558 600.162 150.168 602.35 149.603C605.757 149.038 608.259 150.975 610.546 152.948C612.958 155.019 613.137 154.391 614.679 152.688C617.773 149.271 622.014 147.729 625.87 145.541C626.982 145.335 627.851 144.16 629.16 144.698C629.304 145.631 630.084 145.46 630.703 145.622C634.72 146.662 638.181 148.59 641.14 152.32C637.921 151.854 635.195 151.917 632.487 152.535C626.013 154.015 621.09 157.843 616.849 162.712C613.038 167.097 610.026 172.038 607.093 177.077C604.753 174.064 604.502 168.128 606.529 165.187C608.268 162.668 610.034 160.166 611.774 157.637C612.007 157.305 612.59 156.893 611.935 156.507C611.505 156.256 611.236 156.732 611.012 157.054C609.505 159.171 607.945 161.251 606.502 163.412C605.748 164.542 605.345 165.035 604.385 163.501C602.458 160.426 599.615 158.543 596.038 157.834C595.903 157.808 595.786 157.727 595.652 157.718C594.935 157.646 593.903 157.368 593.742 158.22C593.545 159.197 594.854 158.444 595.383 159.287C593.491 161.116 591.518 162.99 589.59 164.9C586.461 168.003 583.287 171.06 580.292 174.279C578.813 175.866 577.306 176.817 575.1 176.422C574.571 176.324 574.024 176.422 573.486 176.431Z" fill="#FEF294"/>
<path d="M761.892 223.372C759.722 223.821 757.723 222.529 755.902 220.682C754.028 218.79 752.181 216.871 750.469 214.827C749.608 213.796 749.59 212.657 749.482 211.473C749.24 208.766 748.989 206.058 748.648 203.359C748.559 202.65 748.783 202.238 749.24 201.789C751.186 199.871 753.168 197.979 755.033 195.988C755.822 195.145 756.351 195.486 757.059 195.997C760.197 198.248 763.273 200.57 765.972 203.368C769.532 207.062 773.199 210.658 776.804 214.316C778.355 215.894 778.319 216.298 776.615 217.58C772.401 220.727 767.981 223.372 761.892 223.372Z" fill="#FEF294"/>
<path d="M603.686 168.316C604.027 171.643 604.556 174.36 605.569 176.969C606.044 178.189 605.937 179.157 605.273 180.341C602.314 185.622 598.171 189.989 594.352 194.598C591.33 198.238 588.218 201.798 585.134 205.385C584.838 205.725 584.596 206.156 583.959 206.254C582.551 203.188 580.839 200.256 578.507 197.745C577.88 197.073 578.212 196.75 578.714 196.31C587.124 188.94 594.63 180.753 601.13 171.652C601.552 171.06 602.108 170.558 602.556 169.984C602.978 169.446 603.318 168.863 603.686 168.316Z" fill="#FEF294"/>
<path d="M557.909 219.981C557.479 216.314 558.914 213.776 561.774 211.328C566.634 207.176 571.404 202.899 576.193 198.658C577.143 197.815 577.493 198.12 578.138 198.882C579.932 200.98 581.393 203.267 582.541 205.769C583.088 206.961 582.989 207.777 581.94 208.71C578.228 212.001 574.014 214.583 569.997 217.443C566.464 219.954 562.832 222.33 559.64 225.289C559.362 225.54 559.12 225.998 558.654 225.782C558.241 225.594 558.268 225.128 558.223 224.724C558.071 223.137 557.587 221.577 557.909 219.981Z" fill="#FEF294"/>
<path d="M579.098 177.04C581.357 174.645 583.455 172.341 585.652 170.135C589.033 166.737 592.368 163.285 595.946 160.084C596.843 159.277 597.533 159.106 598.573 159.689C600.887 160.989 602.806 162.639 604.133 164.988C604.545 165.715 604.545 166.163 604.025 166.701C598.986 171.848 595.408 178.187 590.423 183.388C589.499 184.347 588.889 184.598 587.921 183.451C585.563 180.662 582.648 178.573 579.098 177.04Z" fill="#FEF294"/>
<path d="M572.509 200.221C570.913 196.706 568.008 194.841 564.502 193.603C565.336 191.604 566.968 190.285 568.259 188.761C571.092 185.417 574.177 182.278 577.082 178.996C577.961 178.001 578.732 177.974 579.853 178.557C582.776 180.081 585.421 181.884 587.493 184.511C588.21 185.417 588.12 186.008 587.394 186.708C583.969 189.954 580.57 193.244 577.082 196.428C575.674 197.71 574.374 199.162 572.509 200.221Z" fill="#FEF294"/>
<path d="M559.758 193.575C563.694 187.343 568.312 181.658 573.495 176.422C573.36 177.758 574.069 177.632 574.974 177.336C575.485 177.166 576.122 177.112 576.4 177.677C576.66 178.206 576.041 178.457 575.754 178.78C571.764 183.326 567.702 187.801 563.793 192.418C562.6 193.844 560.977 192.786 559.758 193.575Z" fill="#FEF294"/>
<path d="M748.459 201.242C747.966 197.539 747.554 194.517 747.186 191.495C747.132 191.074 746.935 190.509 747.464 190.24C747.868 190.034 748.226 190.374 748.549 190.58C750.351 191.71 752.136 192.876 753.938 194.006C754.494 194.355 755.005 194.723 754.351 195.387C752.548 197.216 750.71 199.018 748.459 201.242Z" fill="#FEF294"/>
<path d="M648.177 128.262C646.115 128.728 644.052 129.204 641.99 129.67C640.582 131.392 638.61 130.88 636.816 130.907C634.7 130.934 632.763 130.351 631.248 128.746C631.131 128.576 631.069 128.379 631.051 128.173C631.194 127.294 632.001 127.222 632.593 126.863C633.974 126.029 634.081 125.276 633.041 123.94C632.745 123.725 632.423 123.564 632.082 123.438C630.862 123.026 629.544 123.492 628.325 123.062C628.127 122.981 627.966 122.855 627.832 122.694C627.491 122.147 627.41 121.519 627.222 120.918C627.105 120.255 627.177 119.636 627.697 119.143C628.361 116.794 629.257 114.489 628.657 111.952C628.567 111.548 628.827 111.064 628.926 110.625C630.217 109.19 630.809 110.347 631.454 111.297C631.768 111.764 631.669 112.696 632.414 112.651C633.149 112.597 633.283 111.728 633.561 111.136C633.929 110.347 634.234 109.531 634.171 108.634C634.054 107.02 633.507 106.608 631.902 106.706C630.468 106.796 628.979 107.244 627.652 106.258C625.572 105.343 625.59 103.658 626.011 101.819C625.859 100.923 626.522 100.591 627.114 100.197C627.589 99.9634 628.092 99.8737 628.621 99.9723C630.19 100.367 631.571 101.183 632.934 101.999C634.072 102.68 634.799 102.375 635.238 101.165C635.839 99.4971 636.009 97.8024 635.668 96.0629C634.817 91.6871 634.117 87.3024 634.225 82.8101C634.27 80.8106 633.382 79.2145 631.732 78.0668C631.069 77.6095 630.468 77.0984 630.073 76.381C629.652 76.1927 629.239 75.9955 628.818 75.8072C624.308 74.3546 621.573 69.9519 622.03 64.8947C623.42 58.1697 627.32 54.583 634.072 53.8388C635.606 53.6684 637.166 53.8209 638.627 54.0809C641.793 54.6458 644.841 54.1168 647.917 53.6684C648.24 53.5608 648.554 53.5429 648.858 53.7222C652.077 53.0049 655.216 51.9199 658.489 51.3909C663.573 50.5749 668.352 51.5882 672.952 53.7133C673.122 53.6146 673.302 53.5967 673.49 53.6774C676.897 55.2735 679.569 57.6586 681.345 60.9942C681.874 61.9895 682.367 63.0117 682.86 64.0249C682.986 64.285 683.084 64.554 683.165 64.823C683.721 65.9259 684.546 66.7598 685.577 67.4233C688.464 69.2615 689.971 71.9515 690.401 75.305C690.383 75.5023 690.293 75.6727 690.141 75.7982C690.5 81.6176 689.415 87.1859 686.967 92.4583C684.133 98.5646 682.313 104.877 682.636 111.692C682.69 112.795 682.286 113.772 681.667 114.669C681.309 115.682 680.439 116.121 679.524 116.274C669.796 117.951 660.766 116.588 653.073 109.881C650.822 107.917 649.665 105.308 649.154 102.393C648.841 100.618 648.571 98.8336 647.944 97.1389C647.782 96.6278 647.451 96.1974 647.289 95.6863C646.984 94.2606 646.769 92.799 646.133 91.463C645.343 89.8221 643.855 88.9971 642.447 89.4186C640.995 89.849 640.286 91.2298 640.779 93.1935C643.469 103.774 645.604 114.48 648.24 125.079C648.509 126.119 649.262 127.24 648.177 128.262Z" fill="#371D0E"/>
<path d="M627.698 119.152C627.689 119.798 627.68 120.435 627.671 121.08C627.949 121.78 627.967 122.47 627.098 122.667C623.592 123.456 621.44 126.245 618.714 128.2C618.292 128.505 617.844 128.8 617.485 129.195C619.467 127.689 621.314 126.021 623.305 124.532C624.686 123.501 626.174 122.622 628.012 122.73L628.021 122.739C628.747 123.125 629.537 122.811 630.281 122.945C630.559 123.071 630.613 123.313 630.595 123.582C630.541 124.326 630.81 124.837 631.59 124.99C632.487 125.169 632.648 124.479 632.89 123.878C632.962 123.698 633.087 123.546 633.249 123.438C634.943 125.026 634.666 126.756 632.585 127.509C632.155 127.671 631.707 127.805 631.267 127.949C631.16 128.029 631.043 128.119 630.917 128.128C626.945 128.379 625.681 130.988 625.448 134.449C625.403 135.122 625.25 135.768 625.206 136.431C624.865 141.695 622.202 145.505 617.907 148.115C622.731 145.362 625.035 140.95 625.394 135.4C625.457 134.396 625.762 133.436 625.878 132.441C625.932 131.948 625.968 131.15 626.604 131.186C627.358 131.221 627.304 132.046 627.349 132.611C627.438 133.723 627.385 134.844 627.438 136.028C627.232 133.804 628.541 133.176 630.155 133.131C627.976 133.275 627.456 132.809 627.411 130.675C627.385 129.545 627.878 128.908 628.927 128.666C629.698 128.487 630.442 128.155 631.267 128.271C634.549 130.944 638.198 130.8 641.982 129.661C642.35 131.078 641.686 131.751 640.359 132.073C638.665 132.486 636.943 132.656 634.827 132.844C636.109 133.113 637.033 133.275 637.929 133.517C638.602 133.696 639.185 134.082 639.203 134.862C639.221 135.687 638.548 135.992 637.911 136.189C635.921 136.799 633.841 136.888 631.787 137.113C628.756 137.435 628.631 137.471 628.174 140.376C627.851 142.403 626.963 144.16 626.057 145.945C624.121 146.985 622.202 148.052 620.247 149.056C617.656 150.401 615.674 152.481 613.63 154.481C613.047 155.046 612.527 155.476 611.8 154.714C609.2 151.988 606.062 150.258 602.35 149.603C606.95 144.411 609.828 138.233 611.809 131.742C613.567 126.003 617.36 122.927 622.668 121.08C624.372 120.488 626.022 119.798 627.698 119.152Z" fill="#D37748"/>
<path d="M630.084 76.3984C633.662 77.8959 635.15 80.6038 634.98 84.4326C634.8 88.3689 635.446 92.2336 636.343 96.0534C636.836 98.1606 636.352 100.142 635.563 102.07C635.069 103.272 634.343 103.684 633.124 102.832C631.653 101.81 630.084 100.949 628.398 100.304C627.475 98.9048 628.264 97.4791 628.38 96.0803C628.47 95.0402 628.766 94.009 629.035 92.9778C628.604 94.7622 628.183 96.5466 628.031 98.3847C627.959 99.2007 627.78 99.9449 627.179 100.546C626.793 100.967 626.399 101.398 626.013 101.819C623.458 100.205 623.422 100.035 624.785 97.4074C626.04 94.9774 627.233 92.5295 628.497 90.1085C628.793 89.5436 628.972 89.0146 628.793 88.4048C628.604 87.9296 628.066 87.562 628.335 86.9343C628.12 86.5756 627.905 86.2259 627.69 85.8672C628.3 84.9795 629.268 85.0064 630.174 84.8899C630.981 84.7912 631.832 84.7105 632.039 83.7421C632.263 82.6841 631.617 82.0116 630.837 81.4287C630.093 80.8728 629.017 80.9804 628.38 80.2093C628.775 78.8732 629.932 77.86 630.084 76.3984Z" fill="#D37748"/>
<path d="M627.654 106.267C629.376 106.303 631.124 106.599 632.774 105.908C633.662 105.541 633.931 106.052 634.245 106.697C635.142 108.572 634.55 112.006 632.981 113.342C631.636 114.49 631.492 113.216 631.232 112.347C630.882 111.19 630.73 109.827 628.928 110.625C628.022 109.316 627.134 107.998 627.654 106.267Z" fill="#D27647"/>
<path d="M628.379 80.2188C629.724 80.2995 631.024 80.5057 631.993 81.5638C632.719 82.3528 632.997 83.2495 632.629 84.2986C632.235 85.3925 631.365 85.5808 630.379 85.4105C629.401 85.2401 628.594 85.814 627.68 85.8767C626.227 85.3477 626.048 84.1372 626.075 82.837C626.111 81.3485 627.151 80.694 628.379 80.2188Z" fill="#391E0F"/>
<path d="M628.334 86.9535C628.585 87.4108 628.926 87.8412 628.791 88.424C628.235 88.155 627.383 88.1729 627.365 87.357C627.356 86.9266 627.939 86.9535 628.334 86.9535Z" fill="#4F3424"/>
<path d="M648.178 128.263C648.223 125.761 647.2 123.475 646.662 121.09C644.546 111.809 642.34 102.555 640.188 93.2928C639.668 91.0332 640.404 89.3116 642.027 88.7377C643.775 88.119 645.73 89.1412 646.698 91.2125C647.389 92.6831 647.72 94.2343 647.756 95.8573C647.478 96.8705 647.335 97.9106 646.931 98.888C646.734 99.3722 646.456 99.8295 646.142 100.251C646.671 99.6054 647.057 98.879 647.281 98.0631C647.451 97.4444 647.478 96.7091 648.402 96.736C649.048 98.0721 649.424 99.5247 649.55 100.959C650.061 106.859 653.468 110.518 658.507 113.037C664.811 116.185 671.446 117.019 678.369 115.987C679.588 115.808 680.664 115.351 681.686 114.696C682.117 116.965 682.538 119.233 682.968 121.502C672.926 121.081 663.322 123.349 653.809 126.236C651.953 126.801 650.249 127.698 648.474 128.442C648.366 128.397 648.267 128.344 648.178 128.263Z" fill="#D37748"/>
<path d="M601.255 153.156C601.91 153.237 602.376 153.56 602.304 154.286C602.233 155.012 601.668 155.219 601.022 155.219C600.314 155.219 599.883 154.914 599.991 154.143C600.099 153.434 600.565 153.156 601.255 153.156Z" fill="#FEFEFC"/>
<path d="M631.275 128.283C630.603 128.57 629.948 129.001 629.258 129.099C627.985 129.279 627.985 129.96 627.967 131.027C627.931 132.731 628.756 132.919 630.083 132.65C630.54 132.56 630.988 132.417 631.446 132.363C631.751 132.327 632.163 132.3 632.244 132.74C632.315 133.152 631.984 133.331 631.67 133.421C631.356 133.511 631.015 133.511 630.683 133.529C628.854 133.627 627.59 134.201 628.002 136.416C628.083 136.873 628.137 137.653 627.357 137.582C626.801 137.537 626.855 136.882 626.846 136.416C626.837 134.82 626.846 133.224 626.577 131.601C626.146 134.147 625.761 136.712 625.268 139.249C624.353 143.966 621.035 146.79 617.269 149.247C616.911 149.48 616.471 149.678 616.22 149.256C615.978 148.844 616.4 148.512 616.722 148.288C618.247 147.221 619.834 146.252 621.152 144.898C623.672 142.307 624.434 139.043 624.837 135.627C624.945 134.703 625.088 133.789 625.25 132.874C625.94 128.821 627.169 127.826 631.293 127.942C631.275 128.068 631.275 128.176 631.275 128.283Z" fill="#A85128"/>
<path d="M628.01 122.729C623.831 123.967 621.034 127.248 617.653 129.678C617.241 129.974 616.739 130.638 616.317 130.127C615.779 129.463 616.631 129.149 617.053 128.809C618.855 127.338 620.657 125.867 622.495 124.451C623.76 123.482 625.006 122.415 626.692 122.308C627.553 122.254 627.579 121.671 627.66 121.07C628.091 121.563 627.992 122.155 628.01 122.729Z" fill="#A95128"/>
<path d="M627.178 100.554C627.617 97.8105 627.796 95.0129 628.729 92.3678C628.89 91.9194 628.711 91.0228 629.455 91.1931C630.406 91.4083 629.688 92.2064 629.599 92.6637C629.115 95.2012 628.469 97.7119 628.397 100.312C627.994 100.393 627.59 100.474 627.178 100.554Z" fill="#AB5329"/>
<path d="M644.304 82.2377C641.488 83.2779 638.789 84.4704 636.467 86.3714C636.296 86.5059 635.956 86.5866 635.767 86.5059C635.471 86.3803 635.57 86.0755 635.687 85.8244C636.44 84.2552 642.322 81.6639 644.304 82.2377Z" fill="#A7A08D"/>
<path d="M636.557 88.7009C637.651 86.253 641.659 84.8273 644.367 85.8675C641.542 86.1813 638.969 87.2125 636.557 88.7009Z" fill="#A9A28F"/>
<path d="M633.247 123.449C633.265 125.807 632.924 126.148 631.104 125.511C629.822 125.063 629.374 124.327 630.503 123.216C631.131 122.678 631.813 122.929 632.485 123.072C632.736 123.189 632.987 123.323 633.247 123.449Z" fill="#EEB192"/>
<path d="M648.401 96.7264C647.441 97.9279 647.585 99.6495 646.437 100.77C646.061 101.138 645.693 101.748 645.164 101.237C644.689 100.779 645.361 100.457 645.603 100.116C646.258 99.1922 646.85 98.2418 646.886 97.0582C646.903 96.4664 647.199 96.0629 647.746 95.8477C648.123 96.036 648.329 96.3319 648.401 96.7264Z" fill="#AA5329"/>
<path d="M632.478 123.06C631.814 123.105 631.16 123.159 630.496 123.204C629.689 122.935 628.73 123.482 628.021 122.729C629.501 122.944 631.034 122.406 632.478 123.06Z" fill="#A95128"/>
<path d="M643.139 97.9888C642.565 96.2313 640.736 95.0298 641.211 92.8329C641.426 91.8287 641.399 90.6899 642.583 90.4657C643.784 90.2326 644.528 91.0486 644.905 92.1694C644.986 92.4205 645.156 92.6626 645.174 92.9136C645.21 93.5234 646.044 94.3752 645.246 94.6801C644.304 95.0477 644.528 93.8462 644.242 93.353C643.838 92.6626 643.811 91.2996 642.717 91.748C641.838 92.1066 641.883 93.353 642.305 94.2497C642.583 94.8325 643.076 95.3167 643.435 95.8637C643.928 96.6258 644.376 97.4059 643.139 97.9888Z" fill="#AA5229"/>
</svg>
