<svg width="375" height="239" viewBox="0 0 375 239" fill="none" xmlns="http://www.w3.org/2000/svg">
<mask id="mask0_3238:259109" style="mask-type:alpha" maskUnits="userSpaceOnUse" x="0" y="0" width="375" height="240">
<rect width="375" height="240" fill="#C4C4C4"/>
</mask>
<g mask="url(#mask0_3238:259109)">
<mask id="mask1_3238:259109" style="mask-type:alpha" maskUnits="userSpaceOnUse" x="-165" y="14" width="514" height="227">
<rect x="-165" y="14" width="513.659" height="226.01" fill="#C4C4C4"/>
</mask>
<g mask="url(#mask1_3238:259109)">
<path d="M192.391 218.425H181.373V178.97L186.401 173.08C186.532 172.938 186.721 172.855 186.92 172.855C187.119 172.855 187.308 172.938 187.438 173.08L192.382 178.97L192.391 218.425Z" fill="white"/>
<path d="M181.381 179.148V218.433" stroke="#E9E6DE" stroke-width="0.99" stroke-linecap="round"/>
<path d="M201.841 218.425H190.822V178.97L195.844 173.08C195.974 172.938 196.163 172.855 196.362 172.855C196.561 172.855 196.75 172.938 196.88 173.08L201.841 178.97V218.425Z" fill="white"/>
<path d="M192.403 179.148V218.433" stroke="#E9E6DE" stroke-width="0.99" stroke-linecap="round"/>
<path d="M212.86 218.425H201.842V178.97L206.874 173.08C207.005 172.938 207.194 172.855 207.393 172.855C207.592 172.855 207.782 172.938 207.912 173.08L212.86 178.97V218.425Z" fill="white"/>
<path d="M201.844 179.148V218.433" stroke="#E9E6DE" stroke-width="0.99" stroke-linecap="round"/>
<path d="M223.882 218.425H212.863V178.97L217.896 173.08C218.026 172.938 218.215 172.855 218.415 172.855C218.614 172.855 218.803 172.938 218.933 173.08L223.882 178.97V218.425Z" fill="white"/>
<path d="M212.866 179.148V218.433" stroke="#E9E6DE" stroke-width="0.99" stroke-linecap="round"/>
<path d="M233.317 218.425H222.299V178.97L227.331 173.08C227.462 172.938 227.651 172.855 227.85 172.855C228.049 172.855 228.239 172.938 228.369 173.08L233.317 178.97V218.425Z" fill="white"/>
<path d="M222.307 179.148V218.433" stroke="#E9E6DE" stroke-width="0.99" stroke-linecap="round"/>
<path d="M244.346 218.425H233.328V178.97L238.342 173.08C238.472 172.938 238.662 172.855 238.861 172.855C239.06 172.855 239.249 172.938 239.38 173.08L244.328 178.97L244.346 218.425Z" fill="white"/>
<path d="M233.321 179.148V218.433" stroke="#E9E6DE" stroke-width="0.99" stroke-linecap="round"/>
<path d="M255.364 218.425H244.346V178.97L249.378 173.08C249.509 172.938 249.698 172.855 249.897 172.855C250.096 172.855 250.286 172.938 250.416 173.08L255.364 178.97V218.425Z" fill="white"/>
<path d="M244.336 179.148V218.433" stroke="#E9E6DE" stroke-width="0.99" stroke-linecap="round"/>
<path d="M264.791 218.425H253.791V178.97L258.834 173.08C258.964 172.938 259.153 172.855 259.352 172.855C259.551 172.855 259.74 172.938 259.87 173.08L264.809 178.97L264.791 218.425Z" fill="white"/>
<path d="M253.79 179.148V218.433" stroke="#E9E6DE" stroke-width="0.99" stroke-linecap="round"/>
<path d="M264.805 179.148V218.433" stroke="#E9E6DE" stroke-width="0.99" stroke-linecap="round"/>
<path d="M192.391 218.425H181.373V178.97L186.401 173.08C186.532 172.938 186.721 172.855 186.92 172.855C187.119 172.855 187.308 172.938 187.438 173.08L192.382 178.97L192.391 218.425Z" fill="white"/>
<path d="M181.381 179.148V218.433" stroke="#E9E6DE" stroke-width="0.99" stroke-linecap="round"/>
<path d="M201.841 218.425H190.822V178.97L195.844 173.08C195.974 172.938 196.163 172.855 196.362 172.855C196.561 172.855 196.75 172.938 196.88 173.08L201.841 178.97V218.425Z" fill="white"/>
<path d="M192.403 179.148V218.433" stroke="#E9E6DE" stroke-width="0.99" stroke-linecap="round"/>
<path d="M212.86 218.425H201.842V178.97L206.874 173.08C207.005 172.938 207.194 172.855 207.393 172.855C207.592 172.855 207.782 172.938 207.912 173.08L212.86 178.97V218.425Z" fill="white"/>
<path d="M201.844 179.148V218.433" stroke="#E9E6DE" stroke-width="0.99" stroke-linecap="round"/>
<path d="M223.882 218.425H212.863V178.97L217.896 173.08C218.026 172.938 218.215 172.855 218.415 172.855C218.614 172.855 218.803 172.938 218.933 173.08L223.882 178.97V218.425Z" fill="white"/>
<path d="M212.866 179.148V218.433" stroke="#E9E6DE" stroke-width="0.99" stroke-linecap="round"/>
<path d="M233.317 218.425H222.299V178.97L227.331 173.08C227.462 172.938 227.651 172.855 227.85 172.855C228.049 172.855 228.239 172.938 228.369 173.08L233.317 178.97V218.425Z" fill="white"/>
<path d="M222.307 179.148V218.433" stroke="#E9E6DE" stroke-width="0.99" stroke-linecap="round"/>
<path d="M244.346 218.425H233.328V178.97L238.342 173.08C238.472 172.938 238.662 172.855 238.861 172.855C239.06 172.855 239.249 172.938 239.38 173.08L244.328 178.97L244.346 218.425Z" fill="white"/>
<path d="M233.321 179.148V218.433" stroke="#E9E6DE" stroke-width="0.99" stroke-linecap="round"/>
<path d="M255.364 218.425H244.346V178.97L249.378 173.08C249.509 172.938 249.698 172.855 249.897 172.855C250.096 172.855 250.286 172.938 250.416 173.08L255.364 178.97V218.425Z" fill="white"/>
<path d="M244.336 179.148V218.433" stroke="#E9E6DE" stroke-width="0.99" stroke-linecap="round"/>
<path d="M264.791 218.425H253.791V178.97L258.834 173.08C258.964 172.938 259.153 172.855 259.352 172.855C259.551 172.855 259.74 172.938 259.87 173.08L264.809 178.97L264.791 218.425Z" fill="white"/>
<path d="M253.79 179.148V218.433" stroke="#E9E6DE" stroke-width="0.99" stroke-linecap="round"/>
<path d="M264.805 179.148V218.433" stroke="#E9E6DE" stroke-width="0.99" stroke-linecap="round"/>
<path d="M343.463 238.86C343.566 238.24 343.487 237.605 343.234 237.028C340.649 230.573 331.384 228.51 323.537 228.339C315.69 228.169 306.973 228.667 300.98 224.257C295.899 220.516 293.798 213.811 287.639 211.582C283.433 210.075 278.661 211.198 274.298 212.339C274.531 206.888 270.707 201.469 264.997 199.2C259.287 196.932 252.082 197.959 247.49 201.687L255.979 238.838L343.463 238.86Z" fill="#21998D"/>
<path d="M108.716 202.647L108.969 202.624C107.806 202.74 106.228 202.9 108.716 202.647Z" fill="#F5F3F4"/>
<path d="M61.7514 238.853H-101.949V127.285H61.7514V238.853Z" fill="white"/>
<path d="M58.6035 86.4356H271.099V31.4375H58.6035V86.4356Z" fill="#4C5059"/>
<path opacity="0.2" d="M58.6035 69.1444H269.525" stroke="#C6C1B5" stroke-width="1.08" stroke-linecap="round"/>
<path opacity="0.2" d="M58.6035 75.4374H269.525" stroke="#C6C1B5" stroke-width="1.08" stroke-linecap="round"/>
<path opacity="0.2" d="M58.6035 53.4374H269.525" stroke="#C6C1B5" stroke-width="1.08" stroke-linecap="round"/>
<path opacity="0.2" d="M58.6035 47.1522H269.525" stroke="#C6C1B5" stroke-width="1.08" stroke-linecap="round"/>
<path opacity="0.2" d="M58.6035 39.2968H269.525" stroke="#C6C1B5" stroke-width="1.08" stroke-linecap="round"/>
<path opacity="0.2" d="M58.6035 61.289H269.525" stroke="#C6C1B5" stroke-width="1.08" stroke-linecap="round"/>
<path d="M267.95 238.854V85.0412H227.495L186.689 44.0039L145.882 85.0412H60.1758V238.854H267.95Z" fill="white"/>
<g opacity="0.51">
<path d="M267.774 89.5742H258.239C257.621 89.6125 257.148 90.1666 257.179 90.8156V97.819C257.148 98.468 257.621 99.0221 258.239 99.0604H267.774" stroke="#E6E2DE" stroke-width="1.28"/>
<path d="M267.774 101.105H262.655C262.037 101.144 261.564 101.698 261.595 102.347V109.35C261.564 109.999 262.037 110.553 262.655 110.592H267.774" stroke="#E6E2DE" stroke-width="1.28"/>
<path d="M267.774 112.641H258.239C257.621 112.679 257.148 113.233 257.179 113.882V120.885C257.148 121.534 257.621 122.089 258.239 122.127H267.774" stroke="#E6E2DE" stroke-width="1.28"/>
<path d="M267.774 135.699H258.239C257.621 135.737 257.148 136.292 257.179 136.941V143.944C257.148 144.593 257.621 145.147 258.239 145.185H267.774" stroke="#E6E2DE" stroke-width="1.28"/>
<path d="M267.774 124.168H262.655C262.037 124.206 261.564 124.76 261.595 125.409V132.413C261.564 133.062 262.037 133.616 262.655 133.654H267.774" stroke="#E6E2DE" stroke-width="1.28"/>
<path d="M267.771 154.527H258.236C257.927 154.557 257.642 154.714 257.443 154.964C257.244 155.215 257.148 155.538 257.177 155.862V163.319C257.148 163.644 257.244 163.967 257.443 164.217C257.642 164.468 257.927 164.625 258.236 164.654H267.771" stroke="#E6E2DE" stroke-width="1.32"/>
<path d="M267.771 166.801H262.652C262.343 166.83 262.058 166.987 261.859 167.238C261.66 167.488 261.564 167.811 261.593 168.136V175.575C261.564 175.9 261.66 176.223 261.859 176.473C262.058 176.723 262.343 176.88 262.652 176.91H267.771" stroke="#E6E2DE" stroke-width="1.32"/>
<path d="M267.771 179.074H258.236C257.927 179.104 257.642 179.261 257.443 179.511C257.244 179.761 257.148 180.084 257.177 180.409V187.866C257.148 188.191 257.244 188.514 257.443 188.764C257.642 189.015 257.927 189.172 258.236 189.201H267.771" stroke="#E6E2DE" stroke-width="1.32"/>
<path d="M267.771 203.621H258.236C257.927 203.65 257.642 203.808 257.443 204.058C257.244 204.308 257.148 204.631 257.177 204.956V212.378C257.148 212.702 257.244 213.025 257.443 213.276C257.642 213.526 257.927 213.683 258.236 213.712H267.771" stroke="#E6E2DE" stroke-width="1.32"/>
<path d="M267.771 191.348H262.652C262.343 191.377 262.058 191.534 261.859 191.785C261.66 192.035 261.564 192.358 261.593 192.682V200.14C261.564 200.464 261.66 200.787 261.859 201.038C262.058 201.288 262.343 201.445 262.652 201.475H267.771" stroke="#E6E2DE" stroke-width="1.32"/>
</g>
<path d="M58.6035 150.851H267.951H58.6035Z" fill="#C6C1B5"/>
<path d="M58.6035 150.851H267.951" stroke="#F5F3F4" stroke-width="5.21"/>
<path d="M200.197 212.426C198.571 211.861 196.798 212.225 195.154 212.737C193.36 213.225 191.681 214.087 190.218 215.27C188.729 216.502 187.806 218.323 187.674 220.293C191.88 220.47 207.1 223.607 209.317 219.336C210.092 217.837 209.727 215.079 208.176 214.361C206.828 213.733 205.405 215.634 203.965 215.318C202.75 215.012 201.577 212.91 200.197 212.426Z" fill="#2AC3B4"/>
<path d="M123.141 163.438H90.0859V221.578H123.141V163.438Z" fill="#78838B"/>
<path d="M57.4543 238.857L57.0312 121.004H58.1823L58.6053 238.857H57.4543Z" fill="#E6E2DE"/>
<path d="M60.1811 78.5781H-103.52V127.291H60.1811V78.5781Z" fill="#4C5059"/>
<path d="M186.89 80.1406C176.026 80.1406 167.215 89.292 167.215 100.583V135.139H206.566V100.583C206.566 89.292 197.759 80.1406 186.89 80.1406Z" fill="#D4EEF5"/>
<path d="M93.2285 135.141H116.839V94.2852H93.2285V135.141Z" fill="#D4EEF5"/>
<g opacity="0.2">
<path d="M-105.104 102.141H60.1711H-105.104Z" fill="#C6C1B5"/>
<path d="M-105.104 102.141H60.1711" stroke="#C6C1B5" stroke-width="1.16" stroke-linecap="round"/>
</g>
<g opacity="0.2">
<path d="M-105.104 111.574H60.1711H-105.104Z" fill="#C6C1B5"/>
<path d="M-105.104 111.574H60.1711" stroke="#C6C1B5" stroke-width="1.16" stroke-linecap="round"/>
</g>
<g opacity="0.2">
<path d="M-105.104 119.437H60.1711H-105.104Z" fill="#C6C1B5"/>
<path d="M-105.104 119.437H60.1711" stroke="#C6C1B5" stroke-width="1.16" stroke-linecap="round"/>
</g>
<g opacity="0.2">
<path d="M-105.104 86.4374H60.1711H-105.104Z" fill="#C6C1B5"/>
<path d="M-105.104 86.4374H60.1711" stroke="#C6C1B5" stroke-width="1.16" stroke-linecap="round"/>
</g>
<g opacity="0.2">
<path d="M-105.104 94.2929H60.1711H-105.104Z" fill="#C6C1B5"/>
<path d="M-105.104 94.2929H60.1711" stroke="#C6C1B5" stroke-width="1.16" stroke-linecap="round"/>
</g>
<path d="M274.245 220.004H123.137V238.86H274.245V220.004Z" fill="#78838B"/>
<path d="M164.06 218.426C160.541 214.677 153.755 212.141 145.961 212.141C138.167 212.141 131.377 214.677 127.857 218.426H164.06Z" fill="#2AC3B4"/>
<path d="M272.674 218.426C269.154 214.677 262.369 212.141 254.572 212.141C246.775 212.141 239.995 214.677 236.471 218.426H272.674Z" fill="#2AC3B4"/>
<path d="M179.805 218.426C177.967 214.68 174.431 212.141 170.339 212.141C166.247 212.141 162.762 214.704 160.916 218.426H179.805Z" fill="#2AC3B4"/>
<path d="M275.821 221.565H121.564V218.422H275.821V221.565Z" fill="#94A6B8"/>
<rect x="58.6035" y="221.574" width="64.5358" height="18.8565" fill="#E6E2DE"/>
<path d="M85.3592 175.995C84.5035 175.995 83.8044 175.242 83.7852 174.299V168.301C83.7852 167.343 84.4899 166.566 85.3592 166.566C86.2285 166.566 86.9333 167.343 86.9333 168.301V174.299C86.914 175.242 86.2149 175.995 85.3592 175.995Z" fill="#B8C1CC"/>
<path d="M127.865 176.002C127.009 176.003 126.31 175.25 126.291 174.307V168.309C126.291 167.351 126.996 166.574 127.865 166.574C128.734 166.574 129.439 167.351 129.439 168.309V174.307C129.42 175.25 128.721 176.003 127.865 176.002Z" fill="#B8C1CC"/>
<g opacity="0.64">
<rect x="90.3398" y="225.055" width="32.5216" height="3.94414" fill="#C4BFB3"/>
</g>
<g opacity="0.64">
<rect x="60.2715" y="224.996" width="31.1889" height="13.8595" fill="#C4BFB3"/>
</g>
<g opacity="0.64">
<rect x="90.3398" y="231.301" width="32.5216" height="3.94414" fill="#C4BFB3"/>
</g>
<g opacity="0.64">
<rect x="90.3398" y="235.836" width="32.5216" height="2.95811" fill="#C4BFB3"/>
</g>
<path d="M83.7852 171.285V174.383C83.7852 175.276 84.4899 175.999 85.3592 175.999C86.2285 175.999 86.9333 175.276 86.9333 174.383V171.285H83.7852Z" fill="#FFF377"/>
<path d="M126.291 171.285V174.383C126.291 175.276 126.996 175.999 127.865 175.999C128.734 175.999 129.439 175.276 129.439 174.383V171.285H126.291Z" fill="#FFF377"/>
<path fill-rule="evenodd" clip-rule="evenodd" d="M194.611 96.3156H209.056V96.3067C209.422 96.3067 209.72 96.6056 209.72 96.9743C209.72 97.3429 209.422 97.6418 209.056 97.6418H194.673V136.141C194.62 136.468 194.339 136.708 194.009 136.708C193.679 136.708 193.398 136.468 193.345 136.141V97.6418H181.154V136.15C181.1 136.477 180.819 136.717 180.49 136.717C180.16 136.717 179.879 136.477 179.826 136.15V97.6507H166.311C165.944 97.6507 165.646 97.3518 165.646 96.9832C165.646 96.6145 165.944 96.3156 166.311 96.3156H179.883C180.025 94.2687 181.028 92.3796 182.641 91.1222L176.984 82.7468C176.886 82.6005 176.851 82.4207 176.887 82.2481C176.922 82.0755 177.026 81.9248 177.174 81.8301C177.485 81.6267 177.901 81.7095 178.112 82.017L183.757 90.4101C185.895 89.2889 188.438 89.2657 190.596 90.3478L196.209 82.0348C196.42 81.7273 196.836 81.6445 197.148 81.8479C197.296 81.9425 197.399 82.0936 197.434 82.2665C197.469 82.4394 197.433 82.6192 197.334 82.7646L191.738 91.0599C193.408 92.3104 194.456 94.2279 194.611 96.3156ZM193.254 96.3166C192.949 93.2108 190.338 90.8519 187.233 90.8784C184.127 90.8495 181.513 93.2091 181.209 96.3166H193.254Z" fill="white"/>
<path d="M209.714 136.721H167.215V133.578H209.714V136.721Z" fill="#94A6B8"/>
<path d="M252.212 22.0078H230.176V61.2922H252.195L252.212 22.0078Z" fill="#D8D5CE"/>
<path d="M36.5648 240.429H-83.0625V166.574H36.5648V240.429Z" fill="#78838B"/>
<path d="M-83.0625 187H36.5649" stroke="#5B6A72" stroke-width="1.03" stroke-linecap="round"/>
<path d="M-83.0625 193.281H36.5649" stroke="#5B6A72" stroke-width="1.03" stroke-linecap="round"/>
<path d="M-83.0625 172.859H36.5649" stroke="#5B6A72" stroke-width="1.03" stroke-linecap="round"/>
<path d="M-83.0625 179.137H36.5649" stroke="#5B6A72" stroke-width="1.03" stroke-linecap="round"/>
<path d="M-83.0625 213.723H36.5649" stroke="#5B6A72" stroke-width="1.03" stroke-linecap="round"/>
<path d="M-83.0625 220H36.5649" stroke="#5B6A72" stroke-width="1.03" stroke-linecap="round"/>
<path d="M-83.0625 199.578H36.5649" stroke="#5B6A72" stroke-width="1.03" stroke-linecap="round"/>
<path d="M-83.0625 207.43H36.5649" stroke="#5B6A72" stroke-width="1.03" stroke-linecap="round"/>
<path d="M-83.0625 227.851H36.5649" stroke="#5B6A72" stroke-width="1.03" stroke-linecap="round"/>
<path d="M42.8664 168.139H-87.7793V164.996H42.8664V168.139Z" fill="#94A6B8"/>
<path d="M237.591 42.4336H230.176V48.7191H240.473C241.06 48.7191 241.398 47.9268 241.06 47.3469C240.178 45.8419 239.059 44.3458 238.224 42.8541C238.097 42.6076 237.857 42.4481 237.591 42.4336V42.4336Z" fill="#C6C1B5"/>
<path d="M241.301 43.8397C241.968 45.1705 242.643 46.5012 243.26 47.8319C243.484 48.3545 243.994 48.7006 244.566 48.7191H247.066C249.05 48.7212 250.933 47.8523 252.21 46.3459V42.4336H242.012C241.382 42.4336 240.988 43.2143 241.301 43.8397Z" fill="#C6C1B5"/>
<path d="M237.739 50.7394C237.146 49.5856 235.741 48.9079 234.345 48.7477C232.947 48.6573 231.544 48.779 230.176 49.1094V59.7184C232.484 58.766 235.227 57.1222 236.657 55.3319C237.722 53.9995 238.505 52.2275 237.739 50.7394Z" fill="#C6C1B5"/>
<path d="M252.204 49.8835L252.115 49.8508C248.471 48.8465 244.33 47.9077 241.106 49.8508C240.588 50.1241 240.15 50.5549 239.843 51.0932C239.385 52.0274 239.679 53.1344 240.096 54.0779C241.666 57.6231 244.965 60.3229 248.723 61.2898H252.204V49.8835Z" fill="#C6C1B5"/>
<path d="M234.893 61.2883H245.911C244.537 59.907 243.076 58.6305 241.537 57.468C241.062 57.0552 240.507 56.7612 239.913 56.607C238.222 56.308 236.919 58.1124 236.033 59.7004C236.042 59.6952 235.515 60.417 234.893 61.2883Z" fill="#C6C1B5"/>
<path d="M238.007 22.0078H230.176V28.2933H240.476C241.058 28.2933 241.396 27.5015 241.062 26.9265C240.113 25.2811 238.864 23.64 238.007 22.0078Z" fill="#C6C1B5"/>
<path d="M241.191 22.0078C242.039 23.7784 242.886 25.5932 243.733 27.408C243.946 27.9288 244.428 28.2738 244.97 28.2933H247.338C249.218 28.2943 251.002 27.4256 252.21 25.9208V22.0078H241.191Z" fill="#C6C1B5"/>
<path d="M237.739 30.3175C237.146 29.1637 235.741 28.486 234.345 28.3258C232.947 28.2354 231.544 28.3571 230.176 28.6875V39.2965C232.484 38.3487 235.227 36.7003 236.657 34.91C237.722 33.5776 238.505 31.8056 237.739 30.3175Z" fill="#C6C1B5"/>
<path d="M252.204 29.4649L252.115 29.4276C248.471 28.4279 244.33 27.4842 241.106 29.4276C240.589 29.7024 240.151 30.1329 239.843 30.6702C239.385 31.6044 239.679 32.7116 240.096 33.6552C241.666 37.2008 244.965 39.9009 248.723 40.8679H252.204V29.4649Z" fill="#C6C1B5"/>
<path d="M235.6 40.8587H242.053C242.739 40.8587 243.024 39.6729 242.471 39.1367C241.715 38.4011 240.934 37.7017 240.128 37.0383C239.691 36.6256 239.183 36.3315 238.638 36.1773C237.086 35.8783 235.891 37.6828 235.077 39.2707C234.664 39.8791 234.99 40.8587 235.6 40.8587Z" fill="#C6C1B5"/>
<path d="M145.178 149.285H143.604V86.4297H145.178V149.285Z" fill="#E6E2DE"/>
<path d="M267.951 86.4297V88.0011H228.6V86.4297H267.951Z" fill="#E6E2DE"/>
<path d="M230.174 149.285H228.6V86.4297H230.174V149.285Z" fill="#E6E2DE"/>
<path d="M-101.949 130.433H58.6033" stroke="#E6E2DE" stroke-width="5.4"/>
<path d="M271.101 150.858H57.0312V147.715H271.101V150.858Z" fill="#94A6B8"/>
<path fill-rule="evenodd" clip-rule="evenodd" d="M187.543 73.8675C184.083 73.7984 181.328 70.9542 181.374 67.4994C181.42 64.0446 184.25 61.2744 187.71 61.297C191.171 61.3196 193.965 64.1265 193.965 67.5816C193.95 69.2658 193.264 70.8747 192.06 72.0539C190.855 73.233 189.23 73.8855 187.543 73.8675V73.8675Z" stroke="#DDD9D0" stroke-width="1.03"/>
<path d="M93.2285 99.0038H118.413" stroke="white" stroke-width="3.42" stroke-linecap="round"/>
<path d="M60.1711 130.429H-105.104V125.715H60.1711V130.429Z" fill="#959995"/>
<path d="M105.853 94.2852L105.8 133.57" stroke="white" stroke-width="3.95" stroke-linecap="round"/>
<path d="M118.421 136.721H91.6621V133.578H118.421V136.721Z" fill="#94A6B8"/>
<path d="M93.2285 220.001V166.574H119.987V220.001" fill="#2C72B7"/>
<path d="M93.2285 220.001V166.574H119.987V220.001" stroke="#5B6A72" stroke-width="0.99"/>
<path d="M106.608 172.856C101.882 172.805 98.0071 176.532 97.9512 181.182V182.284H115.266V181.182C115.21 176.532 111.335 172.805 106.608 172.856Z" fill="#D4EEF5"/>
<path opacity="0.15" d="M99.1488 201.143H98.3344C98.2346 201.144 98.1381 201.12 98.0662 201.075C97.9944 201.03 97.953 200.969 97.9512 200.904V191.958C97.9549 191.823 98.1254 191.715 98.3344 191.715H99.1488C99.3567 191.715 99.5252 191.824 99.5252 191.958V200.904C99.5214 201.037 99.354 201.143 99.1488 201.143Z" fill="#D4EEF5" stroke="#D4EEF5" stroke-width="1.03"/>
<path d="M99.5293 172.855L107.4 182.284" stroke="#2C72B7" stroke-width="2.94" stroke-linecap="round"/>
<path d="M113.694 172.855L105.824 182.284" stroke="#2C72B7" stroke-width="2.95" stroke-linecap="round"/>
<path opacity="0.15" fill-rule="evenodd" clip-rule="evenodd" d="M112.122 212.143H102.678V185.43H112.122V212.143Z" stroke="#E7F5FD" stroke-width="1.03" stroke-linecap="round" stroke-linejoin="round"/>
<path opacity="0.15" fill-rule="evenodd" clip-rule="evenodd" d="M96.3828 169.711H118.419V218.424H96.3828V169.711Z" stroke="#E7F5FD" stroke-width="1.02" stroke-linecap="round"/>
<path d="M123.137 226.281H274.245" stroke="#5B6A72" stroke-width="1.03" stroke-linecap="round"/>
<path d="M131.01 131.998H118.418V94.2852H131.01V131.998Z" fill="#78838B"/>
<path d="M119.992 113.152H129.436" stroke="#5B6A72" stroke-width="1.03" stroke-linecap="round"/>
<path d="M119.992 119.433H129.436" stroke="#5B6A72" stroke-width="1.03" stroke-linecap="round"/>
<path d="M119.992 102.144H129.436" stroke="#5B6A72" stroke-width="1.03" stroke-linecap="round"/>
<path d="M119.992 106.863H129.436" stroke="#5B6A72" stroke-width="1.03" stroke-linecap="round"/>
<path d="M119.992 124.148H129.436" stroke="#5B6A72" stroke-width="1.03" stroke-linecap="round"/>
<path fill-rule="evenodd" clip-rule="evenodd" d="M129.436 130.436H119.992V97.4375H129.436V130.436Z" stroke="#5B6A72" stroke-width="1.03" stroke-linecap="round"/>
<path d="M91.6607 131.998H79.0684V94.2852H91.6607V131.998Z" fill="#78838B"/>
<path d="M80.6328 113.152H90.0771" stroke="#5B6A72" stroke-width="1.03" stroke-linecap="round"/>
<path d="M80.6328 119.437H90.0771" stroke="#5B6A72" stroke-width="1.03" stroke-linecap="round"/>
<path d="M80.6328 102.141H90.0771" stroke="#5B6A72" stroke-width="1.03" stroke-linecap="round"/>
<path d="M80.6328 106.863H90.0771" stroke="#5B6A72" stroke-width="1.03" stroke-linecap="round"/>
<path d="M80.6328 124.148H90.0771" stroke="#5B6A72" stroke-width="1.03" stroke-linecap="round"/>
<path fill-rule="evenodd" clip-rule="evenodd" d="M90.0771 130.436H80.6328V97.4375H90.0771V130.436Z" stroke="#5B6A72" stroke-width="1.03" stroke-linecap="round"/>
<path d="M274.245 230.996H123.137" stroke="#5B6A72" stroke-width="1.03" stroke-linecap="round"/>
<path d="M274.245 235.723H123.137" stroke="#5B6A72" stroke-width="1.03" stroke-linecap="round"/>
<path d="M271.099 84.8675H230.524L189.538 44.7348C188.55 43.7707 186.956 43.7707 185.967 44.7348L144.981 84.8675H58.6035" stroke="#959995" stroke-width="9.28"/>
<path d="M60.1758 83.2893H143.641L184.525 42.4336" stroke="#78838B" stroke-width="1.03" stroke-linecap="round"/>
<path d="M267.956 83.2893H230.201L189.254 42.4336" stroke="#78838B" stroke-width="1.03" stroke-linecap="round"/>
<path d="M148.325 204.279H135.732V166.566H148.325V204.279Z" fill="#78838B"/>
<path d="M137.305 185.433H146.749" stroke="#5B6A72" stroke-width="1.03" stroke-linecap="round"/>
<path d="M137.305 191.715H146.749" stroke="#5B6A72" stroke-width="1.03" stroke-linecap="round"/>
<path d="M137.305 174.422H146.749" stroke="#5B6A72" stroke-width="1.03" stroke-linecap="round"/>
<path d="M137.305 179.137H146.749" stroke="#5B6A72" stroke-width="1.03" stroke-linecap="round"/>
<path d="M137.305 196.433H146.749" stroke="#5B6A72" stroke-width="1.03" stroke-linecap="round"/>
<path fill-rule="evenodd" clip-rule="evenodd" d="M146.749 202.71H137.305V169.711H146.749V202.71Z" stroke="#5B6A72" stroke-width="1.03" stroke-linecap="round"/>
<path d="M239.626 204.279H227.033V166.566H239.626V204.279Z" fill="#78838B"/>
<path d="M228.6 185.433H238.044" stroke="#5B6A72" stroke-width="1.03" stroke-linecap="round"/>
<path d="M228.6 191.715H238.044" stroke="#5B6A72" stroke-width="1.03" stroke-linecap="round"/>
<path d="M228.6 174.422H238.044" stroke="#5B6A72" stroke-width="1.03" stroke-linecap="round"/>
<path d="M228.6 179.137H238.044" stroke="#5B6A72" stroke-width="1.03" stroke-linecap="round"/>
<path d="M228.6 196.433H238.044" stroke="#5B6A72" stroke-width="1.03" stroke-linecap="round"/>
<path fill-rule="evenodd" clip-rule="evenodd" d="M238.044 202.71H228.6V169.711H238.044V202.71Z" stroke="#5B6A72" stroke-width="1.03" stroke-linecap="round"/>
<path d="M225.456 166.574H149.902V205.859H225.456V166.574Z" fill="#D4EEF5"/>
<path d="M226.423 170.976H209.523V165.62C209.495 165.298 209.225 165.052 208.9 165.052C208.575 165.052 208.304 165.298 208.277 165.62V170.976H189.821V165.62C189.821 165.28 189.543 165.004 189.2 165.004C188.857 165.004 188.579 165.28 188.579 165.62V170.976H170.11V165.62C170.082 165.298 169.812 165.052 169.487 165.052C169.162 165.052 168.891 165.298 168.864 165.62V170.976H150.51C150.174 170.976 149.902 171.245 149.902 171.578C149.902 171.911 150.174 172.18 150.51 172.18H168.864V205.231C168.891 205.552 169.162 205.799 169.487 205.799C169.812 205.799 170.082 205.552 170.11 205.231V172.194H188.579V205.244C188.579 205.584 188.857 205.86 189.2 205.86C189.543 205.86 189.821 205.584 189.821 205.244V172.194H208.29V205.244C208.318 205.565 208.588 205.812 208.913 205.812C209.238 205.812 209.509 205.565 209.536 205.244V172.194H226.423C226.759 172.194 227.031 171.924 227.031 171.591C227.031 171.258 226.759 170.989 226.423 170.989V170.976Z" fill="white" stroke="white" stroke-width="0.99"/>
<path d="M148.322 207.428V204.315L228.599 204.285V207.398L148.322 207.428Z" fill="#94A6B8"/>
<path d="M57.0312 152.435V150.863H267.953V152.435H57.0312Z" fill="#E6E2DE"/>
<path fill-rule="evenodd" clip-rule="evenodd" d="M0.364086 161.862H-45.2832V135.148H0.364086V161.862Z" stroke="#B8C1CC" stroke-width="2.35"/>
<path d="M36.6846 238.849L36.5645 168.137H38.0142L38.1385 238.849H36.6846Z" fill="#E6E2DE"/>
<path d="M60.1758 88.0038H145.174" stroke="#E6E2DE" stroke-width="3.07"/>
<rect x="233.328" y="18.8594" width="17.3145" height="3.14275" fill="#D26C35"/>
<path d="M-101.949 125.723H57.0292" stroke="#78838B" stroke-width="1.03" stroke-linecap="round"/>
<g opacity="0.5">
<path d="M60.3789 91.1406H71.6618C72.1736 91.1406 72.5757 91.6907 72.5757 92.3695V99.3032C72.5757 99.982 72.1644 100.532 71.6618 100.532H60.3789" stroke="#E6E2DE" stroke-width="1.23"/>
<path d="M60.3789 102.566H67.8003C68.3121 102.566 68.7143 103.116 68.7143 103.795V110.729C68.7143 111.408 68.303 111.958 67.8003 111.958H60.3789" stroke="#E6E2DE" stroke-width="1.23"/>
<path d="M60.3789 113.984H71.5932C72.137 113.984 72.5757 114.534 72.5757 115.213V122.147C72.5757 122.826 72.1187 123.376 71.5932 123.376H60.4657" stroke="#E6E2DE" stroke-width="1.27"/>
<path d="M58.7402 136.836H70.7497C71.2935 136.836 71.7322 137.386 71.7322 138.065V145.003C71.7322 145.677 71.2752 146.227 70.7497 146.227H58.7402" stroke="#E6E2DE" stroke-width="1.27"/>
<path d="M60.4647 125.395H66.6339C67.1777 125.395 67.621 125.945 67.621 126.623V133.557C67.621 134.236 67.164 134.786 66.6339 134.786H59.3223" stroke="#E6E2DE" stroke-width="1.27"/>
<path d="M58.7402 156.359H70.7497C71.2935 156.359 71.7322 156.927 71.7322 157.628V164.788C71.7322 165.485 71.2752 166.052 70.7497 166.052H58.7402" stroke="#E6E2DE" stroke-width="1.29"/>
<path d="M58.7435 168.141H66.6401C67.1794 168.141 67.6227 168.708 67.6227 169.409V176.569C67.6227 177.266 67.1657 177.834 66.6401 177.834H58.7344" stroke="#E6E2DE" stroke-width="1.29"/>
<path d="M58.7402 179.926H70.7497C71.2935 179.926 71.7322 180.494 71.7322 181.195V188.355C71.7322 189.055 71.2752 189.619 70.7497 189.619H58.7402" stroke="#E6E2DE" stroke-width="1.29"/>
<path d="M58.7402 203.5H70.7497C71.2935 203.5 71.7322 204.068 71.7322 204.769V211.929C71.7322 212.63 71.2752 213.193 70.7497 213.193H58.7402" stroke="#E6E2DE" stroke-width="1.29"/>
<path d="M58.7435 191.715H66.6401C67.1794 191.715 67.6227 192.283 67.6227 192.984V200.144C67.6227 200.845 67.1657 201.408 66.6401 201.408H58.7344" stroke="#E6E2DE" stroke-width="1.29"/>
<path d="M58.7402 215.07H66.6369C67.1761 215.07 67.6194 215.634 67.6194 216.335V221.33" stroke="#E6E2DE" stroke-width="1.29"/>
</g>
<path d="M220.836 211.661C220.607 211.166 220.788 210.892 221.226 210.688C221.665 210.484 221.975 210.529 222.204 211.028C222.434 211.526 222.282 211.829 221.843 212.033C221.667 212.152 221.445 212.178 221.246 212.105C221.047 212.031 220.895 211.866 220.836 211.661Z" fill="#FFF377"/>
<path d="M225.83 211.239C226.46 210.371 227.102 210.424 227.873 210.991C228.645 211.559 228.863 212.132 228.227 213.001C227.591 213.87 226.926 213.905 226.16 213.338C225.395 212.77 225.194 212.102 225.83 211.239Z" fill="#FFF377"/>
<path d="M229.647 215.245C229.105 215.408 228.878 215.183 228.698 214.709C228.519 214.235 228.548 213.947 229.09 213.784C229.632 213.62 229.907 213.813 230.086 214.287C230.266 214.761 230.192 215.078 229.647 215.245Z" fill="#FFF377"/>
<path d="M225.451 218.428C226.148 216.839 227.316 215.647 228.599 215.285" stroke="#1C847A" stroke-linecap="round"/>
<path d="M225.447 218.426C225.417 215.836 224.159 213.332 222.299 212.141" stroke="#1C847A" stroke-linecap="round"/>
<path d="M225.451 218.441C225.451 216.496 226.081 214.622 227.025 213.727" stroke="#1C847A" stroke-width="0.79" stroke-linecap="round"/>
<path d="M70.0622 209.002C67.244 196.185 64.9004 182.289 64.9004 182.289C65.9411 184.014 68.5595 184.419 69.0007 186.066C69.442 187.712 67.7519 188.266 68.0891 189.587C68.4263 190.907 70.9073 191.158 71.028 193.108C71.1487 195.058 68.9466 195.723 69.2338 197.277C69.5211 198.83 71.9688 198.83 72.614 201.656C73.2592 204.482 71.7024 208.994 71.7024 208.994L70.0622 209.002Z" fill="#25998D"/>
<path d="M70.3384 198.068C68.9841 197.493 70.3384 200.986 68.2162 200.783C67.3133 200.692 70.4455 209.004 70.4455 209.004H72.2792C72.2792 209.004 74.2479 199.715 70.3384 198.068Z" fill="white"/>
<path d="M71.1973 208.308C71.1973 197.906 77.0924 183.859 77.0924 183.859C77.0924 183.859 79.443 197.592 72.763 209.001L71.1973 208.308Z" fill="#25998D"/>
<path d="M72.6924 212.14C77.8684 204.283 83.7896 196.426 83.7896 196.426C82.1527 197.542 80.6529 196.736 79.711 197.906C78.7691 199.077 79.5464 199.997 78.4399 201.149C77.3334 202.301 76.7344 201.308 76.044 202.228C75.3536 203.149 76.044 205.23 74.782 205.95C73.2503 206.861 71.467 208.541 71.1973 212.14H72.6924Z" fill="#25998D"/>
<path d="M71.1941 208.347C70.7947 200.869 66.675 194.062 60.1758 190.141C60.1758 190.141 63.4773 202.308 69.243 208.997L71.1941 208.347Z" fill="#25998D"/>
<path d="M69.62 208.841C69.62 208.841 63.0775 201.813 60.4547 196.426C60.5256 197.013 60.4902 197.607 60.3502 198.182C60.0138 199.316 60.168 200.533 60.7778 201.557C61.5475 202.755 62.3743 202.142 62.8922 202.929C63.4101 203.715 62.341 204.977 63.4148 206.459C64.4173 207.831 67.3869 208.997 67.3869 208.997L69.62 208.841Z" fill="#25998D"/>
<path d="M73.4617 197.903C73.6146 197.294 73.7626 196.685 73.9394 196.076L74.5699 193.577C74.6559 193.244 74.7467 192.906 74.8279 192.577C75.3056 190.514 75.8502 188.46 76.3804 186.41L77.3836 182.618C77.4098 182.506 77.4465 182.396 77.4934 182.289C77.4938 182.398 77.4826 182.507 77.46 182.614C77.4027 182.898 77.3358 183.227 77.2594 183.552C76.7817 185.588 76.304 187.615 75.7737 189.705C75.296 191.483 74.8757 193.262 74.4171 195.04C74.1352 196.147 73.8486 197.236 73.5716 198.357C73.0557 200.432 72.5334 202.492 72.0047 204.537C71.7802 205.426 71.527 206.271 71.3025 207.129C71.2748 207.232 71.2397 207.333 71.1974 207.431C71.1957 207.338 71.207 207.246 71.2309 207.155C71.4267 206.293 71.613 205.43 71.8232 204.55C72.3009 202.665 72.7499 200.775 73.2133 198.886C73.2945 198.557 73.3853 198.228 73.476 197.899L73.4617 197.903Z" fill="#1D7A71"/>
<path d="M65.3748 201.911L64.5684 200.543L63.4804 198.667C63.3372 198.417 63.1941 198.158 63.0461 197.913C62.1252 196.374 61.2328 194.844 60.35 193.283L58.7276 190.407C58.6787 190.324 58.6372 190.238 58.6035 190.148C58.6737 190.21 58.7332 190.281 58.7801 190.359C58.9185 190.565 59.0712 190.797 59.2191 191.043C60.1401 192.551 61.0563 194.055 61.9629 195.629C62.7312 196.944 63.5186 198.303 64.2916 199.64C64.7688 200.473 65.246 201.302 65.7232 202.139C66.6251 203.687 67.5269 205.235 68.4145 206.782C68.7963 207.444 69.1494 208.097 69.5121 208.759C69.5578 208.838 69.5946 208.92 69.6218 209.005C69.5646 208.949 69.5164 208.885 69.4787 208.816C69.0826 208.181 68.677 207.549 68.2857 206.896C67.4506 205.493 66.6155 204.077 65.7804 202.665C65.6373 202.42 65.4989 202.166 65.3557 201.916L65.3748 201.911Z" fill="#1D7A71"/>
<path d="M70.0613 208.994C67.2394 196.18 64.9004 182.289 64.9004 182.289C65.9409 184.014 68.5546 184.419 68.9958 186.064C69.437 187.71 67.7472 188.264 68.0885 189.585C68.4298 190.905 70.9061 191.155 71.0227 193.105C71.1392 195.054 68.9417 195.714 69.233 197.267C69.5244 198.82 71.9633 198.82 72.6126 201.667C73.2618 204.514 71.7011 209.002 71.7011 209.002L70.0613 208.994Z" fill="#25998D"/>
<path d="M71.1973 208.309C71.1973 197.908 77.0918 183.859 77.0918 183.859C77.0918 183.859 79.4439 197.594 72.7639 209.001L71.1973 208.309Z" fill="#25998D"/>
<path d="M72.6833 212.14C77.8455 204.283 83.7896 196.426 83.7896 196.426C82.1527 197.542 80.6529 196.736 79.7065 197.906C78.76 199.077 79.5464 199.997 78.4399 201.149C77.3334 202.301 76.7344 201.308 76.0394 202.228C75.3444 203.149 76.0394 205.23 74.782 205.95C73.2503 206.861 71.4625 208.537 71.1973 212.14H72.6833Z" fill="#25998D"/>
<path d="M71.1941 208.365C70.7995 200.881 66.6795 194.066 60.1758 190.141C60.1758 190.141 63.4773 202.31 69.243 208.997L71.1941 208.365Z" fill="#25998D"/>
<path d="M69.62 208.841C69.62 208.841 63.0911 201.813 60.4577 196.426C60.5258 197.013 60.4905 197.606 60.3533 198.182C60.0124 199.316 60.1666 200.535 60.7804 201.557C61.549 202.755 62.3699 202.142 62.8918 202.929C63.4138 203.715 62.3414 204.977 63.4138 206.459C64.4102 207.831 67.3805 208.997 67.3805 208.997L69.62 208.841Z" fill="#25998D"/>
<path d="M73.4599 197.903C73.6126 197.294 73.7606 196.685 73.9372 196.076C74.1472 195.245 74.3621 194.409 74.5721 193.577C74.658 193.244 74.7487 192.906 74.8251 192.577C75.3024 190.51 75.8466 188.46 76.3812 186.41C76.6994 185.142 77.032 183.878 77.3789 182.618C77.4081 182.506 77.4464 182.396 77.4934 182.289C77.4938 182.398 77.4826 182.507 77.46 182.614C77.4027 182.898 77.3311 183.227 77.2547 183.552C76.7774 185.588 76.3001 187.615 75.775 189.705C75.2976 191.483 74.8728 193.262 74.4193 195.04C74.1377 196.147 73.8513 197.236 73.5697 198.357C73.0573 200.432 72.5354 202.492 72.004 204.537C71.7796 205.426 71.5266 206.271 71.3023 207.129C71.2793 207.233 71.2441 207.334 71.1973 207.431C71.1985 207.338 71.2113 207.246 71.2355 207.155C71.4264 206.293 71.6126 205.43 71.8274 204.55C72.2808 202.665 72.7486 200.775 73.2164 198.886C73.2976 198.557 73.3883 198.228 73.4742 197.899L73.4599 197.903Z" fill="#1D7A71"/>
<path d="M65.3671 201.911L64.5658 200.543L63.4783 198.667C63.3352 198.417 63.1921 198.158 63.0442 197.913C62.1236 196.374 61.2317 194.844 60.3493 193.283L58.7275 190.407C58.6773 190.325 58.6358 190.238 58.6035 190.148C58.6724 190.211 58.7318 190.282 58.78 190.359C58.9183 190.565 59.071 190.797 59.2188 191.043C60.1394 192.551 61.0552 194.05 61.9567 195.624C62.7246 196.966 63.5164 198.303 64.2891 199.64C64.7661 200.473 65.2431 201.302 65.7201 202.139C66.6264 203.683 67.5231 205.235 68.415 206.782C68.7966 207.444 69.1496 208.097 69.5121 208.759C69.5578 208.838 69.5946 208.92 69.6218 209.005C69.5641 208.948 69.5144 208.885 69.4739 208.816C69.078 208.181 68.6774 207.549 68.2863 206.896C67.4468 205.493 66.6168 204.077 65.7821 202.665C65.6342 202.42 65.5007 202.166 65.3576 201.916L65.3671 201.911Z" fill="#1D7A71"/>
<path d="M64.9004 207.426C64.9004 212.564 65.919 217.896 68.9747 221.568H74.9924C78.0482 217.891 79.0668 212.564 79.0668 207.426H64.9004Z" fill="#7A4C7F"/>
</g>
<path d="M404.722 135.388C402.919 136.299 401.021 137.055 399.565 138.545C399.061 139.062 398.816 139.593 398.986 140.314C400.211 145.376 400.823 150.541 401.585 155.678C401.722 156.603 402.075 157.134 402.81 157.576C404.287 158.461 405.79 159.311 407.185 160.312C408.138 160.999 408.744 160.91 409.444 160.005C411.805 156.957 413.949 153.78 415.466 150.207C415.697 149.656 415.861 148.527 416.487 148.792C417.324 149.146 416.446 149.942 416.235 150.445C414.724 153.95 412.772 157.202 410.274 160.094C409.39 161.114 409.193 161.686 410.574 162.584C413.84 164.728 416.677 167.381 419.256 170.348C421.243 172.641 423.529 174.675 425.652 176.853C426.224 177.438 426.509 177.043 426.863 176.669C428.374 175.077 429.551 173.253 430.524 171.3C430.701 170.953 430.708 170.484 431.381 170.498C431.483 172.035 430.429 173.076 429.775 174.26C429.415 174.914 428.877 175.485 428.387 176.063C426.768 177.982 426.822 177.928 428.421 179.962C430.395 182.473 432.341 185.038 432.116 188.529C431.98 190.631 430.592 192.312 428.911 192.36C428.843 191.985 429.122 191.843 429.36 191.652C431.49 189.924 431.919 188.474 431.055 185.923C430.197 183.371 428.483 181.364 426.863 179.289C425.992 178.18 425.434 179.153 424.917 179.588C422.753 181.391 420.399 182.827 417.691 183.65C416.235 184.092 414.758 184.392 413.03 184.378C414.473 185.623 416.242 185.848 417.78 186.705C416.63 187.154 415.922 186.943 412.731 185.324C411.05 184.474 409.512 183.412 408.131 182.133C406.791 180.901 405.546 179.574 404.205 177.826C403.899 179.915 404.409 181.623 404.484 183.324C404.647 187.052 405.042 190.767 405.301 194.496C405.375 195.551 405.294 196.619 405.552 197.667C405.641 198.034 405.702 198.626 405.205 198.694C404.627 198.783 404.736 198.191 404.709 197.823C404.504 194.85 404.328 191.877 404.103 188.91C403.81 184.936 403.47 180.963 403.171 176.982C403.123 176.322 402.905 176.077 402.211 176.295C397.251 177.894 392.128 177.771 387.011 177.635C385.759 177.601 385.493 178.03 385.5 179.187C385.541 186.535 385.555 193.884 385.473 201.232C385.459 202.559 385.902 203.09 387.113 203.158C392.604 203.478 398.129 204.192 403.457 202.063C403.722 201.954 404.055 202.022 404.355 202.008C404.593 203.321 403.484 203.444 402.722 203.689C399.558 204.703 396.278 205.077 392.971 204.873C391.202 204.764 389.426 204.737 387.671 204.478C386.432 204.294 386.051 204.777 386.031 205.948C385.956 209.751 386.255 213.534 386.494 217.318C386.664 219.992 386.473 222.679 386.847 225.353C387.031 226.653 387.569 227.143 388.8 227.021C392.896 226.626 396.999 226.728 401.102 226.721C401.66 226.721 402.225 226.687 402.769 226.782C403.252 226.871 403.878 226.898 403.878 227.572C403.878 228.184 403.314 228.361 402.824 228.497C402.184 228.681 401.517 228.647 400.857 228.647C396.856 228.654 392.849 228.633 388.848 228.66C387.058 228.674 386.977 228.844 387.113 230.606C387.31 233.131 387.514 235.648 387.814 238.166C387.895 238.86 387.991 239.581 387.589 240.241C387.317 240.248 387.045 240.262 386.766 240.268C385.609 238.908 385.929 237.193 385.704 235.628C385.466 233.934 385.337 232.212 385.289 230.491C385.242 228.837 384.847 228.66 383.2 228.756C379.213 228.994 375.212 229.055 371.238 229.524C367.87 229.926 364.502 230.355 361.134 230.77C360.039 230.906 359.8 231.423 360.073 232.423C360.597 234.383 361.141 236.329 361.747 238.261C361.951 238.921 362.325 239.595 361.767 240.275C361.57 240.275 361.379 240.275 361.182 240.275C360.488 239.983 360.311 239.329 360.093 238.717C359.413 236.812 358.827 234.873 358.378 232.899C358.106 231.681 357.548 231.219 356.262 231.416C347.913 232.709 339.49 233.342 331.1 234.287C328.753 234.553 326.378 234.879 323.99 234.662C322.942 234.566 322.595 234.995 322.792 235.982C322.969 236.873 322.983 237.792 323.085 238.697C323.146 239.248 323.255 239.813 322.785 240.262C322.506 240.255 322.227 240.248 321.948 240.241C321.146 239.261 321.254 238.05 321.152 236.914C320.928 234.437 320.948 234.444 318.608 233.934C315.879 233.335 313.205 232.552 310.701 231.273C310.476 231.158 310.238 231.062 310.034 230.913C309.565 230.572 308.789 230.287 309.211 229.545C309.599 228.871 310.306 229.171 310.851 229.429C313.103 230.497 315.396 231.437 317.825 232.015C320.799 232.716 320.86 232.688 320.805 229.701C320.717 224.578 321.098 219.488 321.649 214.399C321.867 212.385 321.703 210.35 321.724 208.322C321.731 207.451 321.316 207.07 320.472 206.928C319.417 206.751 318.342 206.785 317.294 206.635C314.158 206.186 311.143 205.335 308.408 203.689C307.83 203.342 306.87 202.927 307.292 202.151C307.782 201.246 308.639 201.899 309.279 202.246C312.552 204.022 316.07 204.879 319.751 205.131C321.486 205.254 321.778 205.022 321.724 203.335C321.506 196.204 321.431 189.066 320.417 181.983C320.132 180.01 320.084 179.942 318.002 179.955C314.389 179.976 310.81 179.697 307.292 178.88C306.51 178.697 305.217 178.615 305.455 177.533C305.72 176.322 306.897 177.009 307.646 177.193C311.232 178.05 314.865 178.173 318.526 178.091C319.234 178.078 319.894 178.003 319.778 177.023C319.125 171.6 318.41 166.19 317.669 160.836C317.158 160.686 317.009 160.999 316.825 161.217C313.402 165.224 309.694 168.973 306.067 172.791C305.618 173.26 305.196 173.852 304.4 173.41C303.781 172.641 304.509 172.199 304.863 171.722C306.891 169.007 306.863 169.035 305.128 166.027C303.754 163.652 302.066 161.489 300.501 159.25C298.766 156.76 297.018 154.283 295.616 151.623C295.01 151.731 294.936 152.187 294.725 152.514C292.261 156.372 289.193 159.76 286.226 163.224C284.117 165.687 282.041 168.177 279.864 170.586C279.136 171.389 279.075 172.199 279.381 173.24C280.565 177.275 282.708 180.493 286.662 182.283C286.757 182.323 286.845 182.378 286.927 182.439C287.342 182.738 287.866 183.065 287.567 183.643C287.267 184.222 286.675 184.031 286.212 183.813C283.586 182.596 281.313 180.956 279.837 178.384C279.075 177.057 278.51 175.648 278.061 174.192C277.87 173.566 277.619 173.131 276.911 173.709C271.733 177.962 265.827 181.207 260.724 185.569C259.758 186.392 259.662 187.08 260.173 188.168C261.486 190.972 263.411 193.163 266.119 194.673C266.711 195 267.494 195.265 267.195 196.238C267.086 196.34 266.963 196.408 266.82 196.456C263.411 195.762 261.377 193.353 259.628 190.625C259.118 189.835 258.812 188.917 258.233 188.012C256.287 190.155 254.797 192.332 254.239 195.054C254.171 195.401 254.137 195.755 254.022 196.095C253.872 196.524 253.6 196.789 253.11 196.687C252.695 196.599 252.538 196.265 252.531 195.898C252.525 194.979 252.749 194.088 253.035 193.224C253.756 191.074 254.892 189.168 256.491 187.569C257.369 186.692 257.621 185.773 257.41 184.555C257.117 182.868 256.736 181.167 257.077 179.391C256.628 179.255 256.056 179.921 255.736 179.261C255.444 178.656 255.852 178.18 256.24 177.785C258.383 175.628 260.452 173.396 262.731 171.382C264.248 170.042 265.738 168.66 267.297 167.374C268.229 166.612 268.14 165.884 267.508 165.02C267.052 164.394 266.467 163.918 265.847 163.476C263.466 161.788 262.772 161.89 261.05 164.217C259.513 166.293 258.036 168.415 256.832 170.709C256.668 171.021 256.512 171.348 256.281 171.613C256.036 171.892 255.743 172.124 255.362 171.933C254.981 171.75 254.981 171.362 255.022 171.008C255.083 170.498 255.321 170.048 255.559 169.599C256.696 167.436 258.016 165.388 259.581 163.53C260.377 162.584 260.397 161.965 259.363 161.325C259.342 161.087 259.424 160.897 259.587 160.727C259.703 160.625 259.826 160.489 259.962 160.482C262.091 160.461 263.187 158.964 264.378 157.508C266.29 155.174 268.29 152.915 270.427 150.779C270.882 150.323 271.27 149.792 271.624 149.2C271.019 148.778 269.719 149.37 269.971 147.969C270.032 147.833 270.127 147.724 270.256 147.642C270.393 147.574 270.542 147.479 270.685 147.506C273.053 147.887 274.516 146.506 276.006 144.954C278.952 141.886 282.014 138.926 285.015 135.905C285.437 135.483 285.954 135.252 285.396 134.34C284.872 133.482 285.92 133.183 286.641 133.237C287.914 133.333 289.131 133.693 290.234 134.374C291.574 135.204 292.874 136.088 293.745 137.449C294.235 138.211 294.65 138.103 295.085 137.408C295.813 136.252 296.671 135.177 297.439 134.047C297.725 133.625 298.025 133.217 298.385 132.856C298.725 132.516 299.134 132.237 299.59 132.571C300.086 132.931 299.828 133.421 299.576 133.789C298.508 135.333 297.555 136.959 296.371 138.402C294.065 141.205 294.384 144.165 295.439 147.268C296.065 147.254 296.099 146.758 296.283 146.451C298.678 142.505 301.155 138.62 304.461 135.347C308.789 131.06 313.865 128.543 320.349 128.924C318.778 127.039 316.866 126.032 314.784 125.276C314.26 125.086 313.715 124.963 313.178 124.814C312.593 124.65 312.116 124.399 312.341 123.65C312.531 123.337 312.831 123.242 313.171 123.228C318.907 124.188 322.636 127.638 324.772 132.863C326.303 136.606 327.215 140.504 326.235 144.587C325.977 145.669 326.276 145.934 327.365 145.723C331.644 144.886 335.938 144.151 340.272 143.614C345.287 142.988 350.281 143.042 355.282 143.553C356.745 143.702 356.881 143.634 356.705 142.287C355.534 133.448 353.391 124.868 349.655 116.744C348.75 114.784 348.526 114.764 346.362 114.954C339.83 115.533 333.393 116.615 327.052 118.275C326.705 118.363 326.358 118.425 325.997 118.377C325.63 118.329 325.262 118.227 325.174 117.826C325.085 117.418 325.385 117.179 325.691 116.982C326.085 116.737 326.534 116.635 326.977 116.519C336.646 113.961 346.464 112.689 356.473 113.015C356.677 113.022 356.426 113.002 356.623 113.022C357.569 113.11 358.991 113.022 358.943 114.145C358.896 115.267 357.473 114.798 356.643 114.839C355.024 114.92 353.398 114.88 351.778 114.852C350.975 114.839 350.805 115.084 351.152 115.839C354.997 124.256 357.303 133.101 358.48 142.253C358.637 143.451 359.1 144.002 360.345 144.151C367.081 144.961 373.749 146.397 380.574 146.451C382.765 146.472 382.819 146.397 382.459 144.206C381.309 137.123 379.717 130.182 376.199 123.82C375.457 122.48 374.6 121.242 373.634 120.064C373.253 119.595 372.797 119.166 372.824 118.486C373.654 117.166 374.178 118.329 374.797 118.724C379.526 124.623 381.642 131.618 383.234 138.824C383.704 140.947 384.112 143.083 384.377 145.247C384.48 146.104 384.861 146.513 385.745 146.485C389.569 146.363 393.291 145.771 396.85 144.294C398.047 143.798 398.394 143.083 398.102 141.811C397.176 137.837 396.965 138.756 400.442 136.299C401.531 135.53 402.62 134.612 404.117 134.728C404.491 134.809 404.695 135.013 404.722 135.388Z" fill="#FBBD46"/>
<path d="M404.124 134.755C401.967 135.619 400.205 137.157 398.191 138.259C397.708 138.525 397.925 138.824 397.987 139.151C398.218 140.335 398.368 141.546 398.715 142.703C398.953 143.505 398.776 143.88 398.055 144.247C393.938 146.309 389.522 146.921 384.997 147.003C384.262 147.016 384.099 146.649 384.011 145.989C383.017 138.77 381.452 131.7 378.295 125.066C377.268 122.909 375.9 120.983 374.553 119.031C374.873 118.67 375.294 118.724 375.655 118.867C377.431 119.575 379.336 119.684 381.16 120.16C383.01 120.725 384.909 121.167 386.644 122.086C386.828 122.235 386.916 122.467 387.079 122.623C392.917 125.311 397.905 129.237 402.756 133.36C403.253 133.769 403.668 134.286 404.124 134.755Z" fill="#FEF294"/>
<path d="M308.232 240.316C308.878 237.499 309.43 234.675 309.13 231.763C308.831 228.803 308.457 225.85 308.137 222.89C307.844 220.182 307.552 217.474 307.327 214.759C306.81 208.418 306.32 202.076 305.851 195.735C305.721 193.972 305.837 192.19 305.47 190.441C304.667 189.23 304.823 187.801 304.741 186.481C304.503 182.453 304.163 178.438 303.884 174.41C303.864 174.104 303.864 173.804 303.952 173.512C304.02 173.328 304.129 173.178 304.286 173.056C304.946 173.634 305.191 173.076 305.585 172.648C309.607 168.307 313.839 164.163 317.649 159.488C318.581 160.584 318.275 161.877 318.445 162.992C319.173 167.776 319.738 172.586 320.371 177.383C320.473 178.18 320.269 178.601 319.337 178.601C315.084 178.608 310.831 178.656 306.694 177.424C306.354 177.322 305.803 176.948 305.64 177.492C305.47 178.098 306.15 178.132 306.545 178.234C310.641 179.289 314.819 179.568 319.03 179.445C320.228 179.411 320.616 179.711 320.766 180.983C321.432 186.501 321.983 192.013 321.99 197.585C321.997 199.844 322.194 202.124 322.242 204.396C322.262 205.288 322.004 205.669 321.044 205.648C316.724 205.553 312.614 204.703 308.844 202.505C308.668 202.403 308.497 202.301 308.314 202.205C308.048 202.069 307.688 201.845 307.497 202.158C307.225 202.593 307.695 202.743 307.974 202.92C310.409 204.437 313.049 205.437 315.873 205.907C317.615 206.193 319.377 206.376 321.133 206.478C322.011 206.533 322.228 206.86 322.256 207.676C322.392 212.691 321.745 217.658 321.405 222.645C321.208 225.571 321.276 228.517 321.317 231.457C321.337 232.709 321.099 233.131 319.69 232.879C316.465 232.301 313.444 231.219 310.525 229.783C310.171 229.613 309.668 229.069 309.375 229.722C309.151 230.225 309.811 230.307 310.13 230.47C313.118 232.028 316.261 233.138 319.595 233.58C320.902 233.757 321.46 234.328 321.555 235.56C321.67 237.118 321.813 238.676 321.949 240.241C317.391 240.282 312.811 240.296 308.232 240.316Z" fill="#FEF294"/>
<path d="M361.782 240.296C361.026 237.581 360.339 234.839 359.482 232.158C359.067 230.872 359.502 230.443 360.673 230.321C365.483 229.824 370.273 229.144 375.098 228.681C378.023 228.402 380.97 228.756 383.861 228.171C385.44 227.851 385.801 228.824 385.814 230.049C385.855 233.485 386.338 236.88 386.787 240.276C378.445 240.289 370.11 240.296 361.782 240.296Z" fill="#FEF294"/>
<path d="M322.806 240.285C322.615 238.584 322.418 236.889 322.234 235.188C322.146 234.345 322.268 233.977 323.384 234.1C326.813 234.487 330.229 233.875 333.638 233.589C336.897 233.317 340.136 232.739 343.395 232.48C348.022 232.12 352.608 231.46 357.194 230.82C358.324 230.663 358.446 231.113 358.637 231.902C359.304 234.753 360.113 237.563 361.188 240.285C348.396 240.292 335.604 240.292 322.806 240.285Z" fill="#FEF294"/>
<path d="M373.036 118.355C373.186 119.294 374.043 119.716 374.54 120.403C378.201 125.404 380.133 131.127 381.555 137.06C382.249 139.959 382.766 142.884 383.174 145.837C383.324 146.906 382.97 146.981 382.106 147.008C377.785 147.117 373.533 146.504 369.273 145.953C365.973 145.524 362.687 144.973 359.38 144.558C358.495 144.449 358.21 144.13 358.108 143.259C356.978 133.665 354.61 124.397 350.507 115.62C350.038 114.613 350.14 114.327 351.29 114.368C353.317 114.443 355.345 114.409 357.373 114.415C357.842 114.415 358.318 114.415 359.053 114.415C355.991 112.068 328.74 115.014 325.4 117.831C325.855 118.267 326.332 118.015 326.801 117.892C332.816 116.307 338.899 115.096 345.125 114.694C345.173 114.694 345.227 114.688 345.275 114.688C349.282 114.286 349.228 114.306 350.793 118.035C354.011 125.731 356.012 133.739 357.196 141.973C357.23 142.224 357.182 142.49 357.243 142.728C357.658 144.306 356.788 144.306 355.617 144.157C350.582 143.497 345.567 143.538 340.505 144.109C335.477 144.674 330.537 145.688 325.468 146.552C325.365 145.871 325.678 145.286 325.774 144.667C326.822 138.23 325.168 132.508 320.888 127.65C318.867 125.35 316.03 124.261 313.077 123.54C313.05 122.778 313.703 122.703 314.179 122.485C317.173 121.104 320.072 119.532 323.038 118.11C324.209 117.545 324.882 116.715 324.828 115.388C324.746 113.483 325.624 112.095 327.141 111.04C330.231 109.162 333.762 108.57 337.171 107.645C342.376 106.23 347.677 105.515 353.086 105.788C355.651 105.971 357.502 107.339 358.108 109.727C358.944 113.068 360.945 114.694 364.211 115.382C366.722 115.905 369.164 116.804 371.628 117.579C372.152 117.729 372.723 117.824 373.036 118.355Z" fill="#FEF294"/>
<path d="M352.76 173.775C345.99 173.367 340.145 174.884 334.273 176.184C330.327 177.055 326.394 177.939 322.372 178.429C321.495 178.538 321.311 178.266 321.209 177.552C320.869 175.054 320.481 172.564 320.168 170.067C319.712 166.467 319.324 162.854 318.834 159.255C318.732 158.479 318.916 157.894 319.351 157.316C321.515 154.431 323.454 151.41 324.761 148.028C324.938 147.579 325.196 147.341 325.74 147.252C330.572 146.483 335.362 145.442 340.234 144.891C345.486 144.299 350.739 144.388 355.992 144.898C356.938 144.986 357.516 145.293 357.618 146.551C358.027 151.498 358.231 156.445 358.102 161.398C357.999 165.236 357.707 169.067 357.537 172.898C357.503 173.653 357.387 173.911 356.489 173.816C355.04 173.66 353.556 173.775 352.76 173.775Z" fill="#FEF294"/>
<path d="M357.821 211.035C358.107 214.587 357.508 218.411 357.522 222.255C357.536 224.433 357.651 226.596 358.073 228.733C358.23 229.502 358.087 229.89 357.148 230.026C352.004 230.767 346.853 231.387 341.668 231.842C337.402 232.224 333.149 232.843 328.883 233.237C326.971 233.414 325.038 233.285 323.113 233.319C322.344 233.333 322.188 232.897 322.188 232.251C322.215 227.1 322.085 221.949 322.739 216.805C323.12 213.804 323.276 210.756 323.113 207.728C323.052 206.599 323.426 206.286 324.555 206.238C329.291 206.014 334 205.408 338.708 204.816C343.512 204.217 348.336 203.734 353.147 203.21C354.249 203.088 355.358 203.013 356.461 202.897C357.447 202.795 357.835 203.237 357.821 204.21C357.801 206.388 357.821 208.565 357.821 211.035Z" fill="#FEF294"/>
<path d="M351.222 174.312C352.937 174.421 354.597 174.551 356.264 174.619C356.958 174.646 357.285 174.891 357.251 175.619C357.108 178.443 357.101 181.28 356.829 184.097C356.475 187.744 356.652 191.357 357.06 194.977C357.278 196.93 357.373 198.896 357.55 200.856C357.625 201.706 357.278 201.945 356.434 202.04C350.569 202.686 344.71 203.428 338.845 204.074C333.932 204.619 329.006 205.075 324.087 205.592C323.304 205.673 323.134 205.319 323.114 204.639C323.032 201.761 322.814 198.883 322.841 196.004C322.882 190.684 322.011 185.444 321.535 180.171C321.481 179.552 321.447 179.246 322.188 179.191C327.754 178.756 333.109 177.232 338.532 176.041C342.73 175.109 346.976 174.537 351.222 174.312Z" fill="#FEF294"/>
<path d="M304.292 173.068C304.286 173.184 304.272 173.299 304.265 173.415C301.979 175.796 299.21 177.579 296.522 179.443C291.337 183.036 286.009 186.418 280.525 189.548C279.96 189.874 279.423 190.276 278.708 190.167C275.347 191.984 271.986 193.807 268.618 195.61C268.135 195.869 267.672 196.202 267.08 196.182C267.128 195.604 266.706 195.413 266.284 195.209C263.072 193.658 260.99 191.079 259.568 187.867C259.126 186.867 259.262 186.289 260.126 185.547C264.705 181.614 269.917 178.552 274.721 174.932C275.449 174.388 276.232 173.878 276.844 173.224C277.81 172.183 278.103 172.775 278.348 173.714C279.484 178.055 281.845 181.417 286.037 183.315C286.316 183.438 286.588 183.574 286.874 183.682C287.078 183.757 287.329 183.716 287.37 183.506C287.404 183.356 287.289 183.091 287.153 183.009C286.676 182.716 286.173 182.478 285.676 182.226C281.471 180.137 279.804 176.293 278.62 172.102C278.457 171.516 278.865 171.265 279.144 170.938C281.852 167.733 284.567 164.542 287.289 161.351C290.174 157.969 293.147 154.669 295.406 150.512C295.991 151.532 296.481 152.383 296.971 153.227C299.734 157.949 303.381 162.072 306.068 166.849C306.293 167.243 306.47 167.672 306.735 168.039C307.47 169.053 307.252 169.822 306.341 170.646C305.572 171.346 304.973 172.251 304.292 173.068Z" fill="#FEF294"/>
<path d="M384.652 167.49C384.652 170.865 384.604 173.144 384.672 175.417C384.706 176.499 384.325 176.859 383.271 176.751C377.201 176.118 371.118 175.56 365.076 174.709C363.076 174.423 361.068 174.233 359.054 174.056C358.306 173.988 358.149 173.695 358.218 172.988C359.014 165.115 358.748 157.222 358.701 149.336C358.694 148.329 358.537 147.329 358.428 146.322C358.34 145.526 358.585 145.274 359.435 145.397C362.729 145.873 366.042 146.233 369.336 146.723C373.534 147.343 377.739 147.928 381.992 147.853C383.141 147.832 383.631 148.193 383.713 149.37C384.155 155.766 384.775 162.155 384.652 167.49Z" fill="#FEF294"/>
<path d="M308.109 168.893C305.238 163.164 301.237 158.428 297.889 153.257C296.372 150.916 295.896 149.011 297.726 146.358C300.802 141.887 303.666 137.315 308.021 133.933C311.559 131.184 315.533 129.844 320.044 130.218C321.439 130.334 322.426 130.749 323.113 132.164C326.569 139.295 325.766 146.058 321.602 152.597C318.881 156.877 315.73 160.817 312.199 164.464C310.838 165.879 309.531 167.349 308.109 168.893Z" fill="#FEF294"/>
<path d="M384.637 190.319C384.637 194.068 384.617 197.817 384.651 201.573C384.658 202.539 384.508 202.825 383.385 202.689C377.364 201.947 371.349 201.09 365.252 201.417C363.381 201.519 361.517 201.607 359.652 201.73C358.863 201.784 358.489 201.58 358.407 200.675C357.944 195.592 357.278 190.523 357.543 185.406C357.713 182.229 357.958 179.058 358.114 175.88C358.155 175.016 358.591 174.86 359.292 174.934C361.503 175.173 363.708 175.404 365.919 175.649C370.131 176.118 374.349 176.581 378.561 177.078C380.072 177.255 381.576 177.391 383.1 177.404C384.263 177.418 384.719 177.969 384.692 179.221C384.603 182.916 384.658 186.617 384.658 190.319C384.651 190.319 384.644 190.319 384.637 190.319Z" fill="#FEF294"/>
<path d="M367.927 202.296C373.268 201.969 378.501 203.031 383.781 203.52C384.57 203.595 384.638 204.038 384.645 204.643C384.659 206.514 384.747 208.372 384.87 210.243C385.121 214.026 385.135 217.823 385.271 221.613C385.326 223.178 385.428 224.736 385.55 226.294C385.625 227.199 385.319 227.56 384.366 227.546C376.303 227.451 368.342 228.458 360.388 229.649C359.395 229.798 358.871 229.465 358.755 228.417C358.285 224.131 358.408 219.851 358.646 215.55C358.843 211.971 358.986 208.365 358.51 204.786C358.251 202.826 358.36 202.792 360.347 202.554C362.872 202.255 365.403 202.357 367.927 202.296Z" fill="#FEF294"/>
<path d="M248.831 190.442C248.355 186.952 249.253 183.624 250.185 180.338C252.104 173.568 255.302 167.376 259.167 161.517C259.248 161.402 259.398 161.327 259.521 161.238C259.963 161.817 260.698 161.334 261.33 161.762C260.099 163.497 258.867 165.198 257.67 166.927C256.806 168.172 256.044 169.485 255.438 170.88C255.316 171.159 255.125 171.533 255.438 171.703C255.887 171.948 256.01 171.485 256.159 171.179C257.677 168.07 259.752 165.328 261.78 162.551C262.297 161.844 262.814 161.592 263.692 161.926C265.535 162.62 267.162 163.565 268.23 165.287C268.734 166.103 268.815 166.709 267.897 167.471C263.923 170.771 260.14 174.289 256.574 178.031C256.275 178.344 255.826 178.596 255.955 179.188C256.683 179.453 256.921 178.603 257.643 178.467C257.159 180.855 257.581 183.148 258.01 185.441C258.187 186.373 257.677 186.938 257.085 187.544C254.948 189.728 253.451 192.259 252.982 195.321C252.914 195.749 252.621 196.355 253.295 196.416C253.832 196.471 253.696 195.838 253.751 195.464C254.24 192.157 256.139 189.653 258.425 187.142C260.106 191.361 262.494 194.742 266.862 196.253C263.719 197.553 260.48 198.764 257.139 199.186C253.39 199.655 251.104 197.811 249.784 194.239C249.321 193.007 249.09 191.728 248.831 190.442Z" fill="#FEF294"/>
<path d="M270.184 147.882C274.981 142.636 279.254 136.845 285.548 133.157C286.698 132.484 287.568 131.47 288.31 130.388C289.263 129.007 290.426 127.952 292.086 127.523C294.672 127.095 296.571 128.564 298.306 130.061C300.136 131.633 300.272 131.157 301.442 129.864C303.79 127.272 307.008 126.101 309.934 124.441C310.778 124.284 311.438 123.393 312.431 123.801C312.54 124.509 313.132 124.38 313.602 124.502C316.65 125.291 319.276 126.754 321.522 129.585C319.079 129.231 317.01 129.279 314.956 129.748C310.043 130.871 306.307 133.776 303.089 137.471C300.197 140.798 297.911 144.548 295.686 148.372C293.91 146.085 293.72 141.581 295.257 139.349C296.577 137.437 297.918 135.539 299.238 133.62C299.415 133.368 299.857 133.055 299.36 132.763C299.034 132.572 298.83 132.933 298.659 133.178C297.516 134.783 296.332 136.362 295.237 138.002C294.665 138.859 294.359 139.233 293.631 138.07C292.168 135.736 290.011 134.307 287.296 133.77C287.194 133.749 287.106 133.688 287.004 133.681C286.459 133.627 285.677 133.416 285.554 134.062C285.405 134.804 286.398 134.232 286.8 134.872C285.364 136.26 283.867 137.682 282.404 139.131C280.029 141.486 277.621 143.806 275.348 146.249C274.225 147.453 273.082 148.174 271.408 147.875C271.007 147.8 270.592 147.875 270.184 147.882Z" fill="#FEF294"/>
<path d="M293.101 141.723C293.36 144.247 293.761 146.309 294.53 148.289C294.891 149.214 294.809 149.949 294.306 150.847C292.06 154.855 288.917 158.169 286.018 161.666C283.725 164.428 281.364 167.13 279.023 169.851C278.799 170.11 278.615 170.437 278.132 170.511C277.064 168.184 275.764 165.959 273.995 164.054C273.519 163.544 273.77 163.299 274.151 162.966C280.534 157.372 286.229 151.16 291.162 144.254C291.482 143.805 291.904 143.424 292.244 142.988C292.564 142.58 292.822 142.138 293.101 141.723Z" fill="#FEF294"/>
<path d="M258.364 180.928C258.037 178.145 259.126 176.219 261.296 174.362C264.984 171.211 268.604 167.966 272.238 164.747C272.959 164.107 273.224 164.339 273.714 164.917C275.075 166.509 276.184 168.244 277.055 170.143C277.47 171.048 277.395 171.667 276.599 172.375C273.782 174.872 270.584 176.831 267.536 179.002C264.855 180.907 262.099 182.71 259.677 184.956C259.466 185.146 259.282 185.493 258.928 185.33C258.615 185.187 258.636 184.833 258.602 184.527C258.486 183.323 258.119 182.139 258.364 180.928Z" fill="#FEF294"/>
<path d="M274.441 148.342C276.156 146.526 277.748 144.777 279.415 143.103C281.981 140.524 284.512 137.905 287.227 135.475C287.907 134.863 288.431 134.734 289.22 135.176C290.976 136.163 292.432 137.415 293.439 139.197C293.752 139.749 293.752 140.089 293.357 140.497C289.533 144.403 286.818 149.213 283.035 153.16C282.334 153.888 281.872 154.078 281.137 153.207C279.347 151.091 277.136 149.506 274.441 148.342Z" fill="#FEF294"/>
<path d="M269.441 165.931C268.23 163.263 266.026 161.848 263.365 160.909C263.998 159.392 265.236 158.391 266.216 157.235C268.366 154.697 270.707 152.315 272.912 149.825C273.578 149.07 274.164 149.049 275.014 149.492C277.232 150.648 279.24 152.016 280.811 154.01C281.356 154.697 281.288 155.146 280.737 155.677C278.137 158.14 275.558 160.637 272.912 163.052C271.843 164.025 270.857 165.128 269.441 165.931Z" fill="#FEF294"/>
<path d="M259.766 160.892C262.753 156.163 266.257 151.849 270.19 147.875C270.088 148.889 270.625 148.794 271.312 148.569C271.7 148.44 272.183 148.399 272.394 148.828C272.592 149.229 272.122 149.42 271.904 149.665C268.877 153.114 265.794 156.51 262.828 160.014C261.923 161.096 260.691 160.293 259.766 160.892Z" fill="#FEF294"/>
<path d="M326.861 111.328C325.296 111.682 323.731 112.042 322.166 112.396C321.098 113.702 319.601 113.315 318.24 113.335C316.635 113.355 315.165 112.913 314.015 111.695C313.926 111.566 313.879 111.416 313.865 111.26C313.974 110.593 314.586 110.538 315.036 110.266C316.083 109.634 316.165 109.062 315.376 108.048C315.151 107.885 314.906 107.762 314.648 107.667C313.722 107.354 312.722 107.708 311.797 107.381C311.647 107.32 311.525 107.225 311.422 107.102C311.164 106.687 311.103 106.211 310.96 105.755C310.871 105.252 310.926 104.782 311.32 104.408C311.824 102.625 312.504 100.876 312.048 98.9508C311.98 98.6446 312.178 98.2772 312.253 97.9438C313.232 96.8551 313.681 97.7329 314.171 98.4541C314.41 98.8079 314.335 99.5156 314.899 99.4816C315.457 99.4407 315.559 98.7807 315.77 98.3316C316.049 97.7329 316.281 97.1137 316.233 96.4333C316.145 95.2085 315.73 94.8955 314.512 94.9703C313.423 95.0384 312.293 95.3786 311.286 94.6301C309.708 93.9361 309.721 92.6569 310.041 91.262C309.926 90.5816 310.429 90.3298 310.878 90.0304C311.239 89.8535 311.62 89.7855 312.021 89.8603C313.212 90.1597 314.26 90.7789 315.294 91.3981C316.158 91.9152 316.709 91.6839 317.043 90.7653C317.499 89.4997 317.628 88.2137 317.369 86.8937C316.723 83.5732 316.192 80.2459 316.274 76.837C316.308 75.3196 315.634 74.1085 314.382 73.2375C313.879 72.8905 313.423 72.5027 313.124 71.9583C312.804 71.8155 312.491 71.6658 312.171 71.5229C308.748 70.4206 306.673 67.0797 307.02 63.2421C308.075 58.1389 311.035 55.4172 316.158 54.8524C317.322 54.7232 318.506 54.8388 319.615 55.0362C322.017 55.4648 324.33 55.0634 326.664 54.7232C326.909 54.6415 327.147 54.6279 327.378 54.764C329.821 54.2196 332.203 53.3963 334.686 52.9949C338.544 52.3757 342.171 53.1446 345.661 54.7572C345.791 54.6823 345.927 54.6687 346.07 54.73C348.655 55.9411 350.683 57.7511 352.03 60.2822C352.432 61.0375 352.806 61.8132 353.18 62.5821C353.275 62.7794 353.35 62.9835 353.412 63.1877C353.833 64.0246 354.459 64.6574 355.242 65.1609C357.433 66.5558 358.576 68.597 358.903 71.1418C358.889 71.2915 358.821 71.4208 358.705 71.5161C358.977 75.932 358.154 80.1575 356.297 84.1584C354.146 88.7921 352.765 93.5823 353.01 98.7535C353.051 99.5904 352.745 100.332 352.275 101.013C352.003 101.781 351.343 102.115 350.649 102.23C343.266 103.503 336.415 102.469 330.576 97.379C328.869 95.8889 327.991 93.9089 327.603 91.6975C327.365 90.3502 327.161 88.9962 326.684 87.7102C326.562 87.3224 326.31 86.9957 326.188 86.6079C325.956 85.526 325.793 84.4169 325.31 83.4031C324.711 82.1579 323.582 81.5319 322.513 81.8517C321.411 82.1783 320.874 83.2262 321.248 84.7163C323.289 92.7453 324.909 100.87 326.909 108.912C327.113 109.702 327.685 110.552 326.861 111.328Z" fill="#371D0E"/>
<path d="M311.322 104.414C311.315 104.904 311.308 105.387 311.301 105.877C311.512 106.408 311.526 106.932 310.866 107.081C308.205 107.68 306.572 109.796 304.504 111.28C304.184 111.511 303.844 111.735 303.572 112.035C305.075 110.892 306.477 109.626 307.987 108.497C309.035 107.714 310.165 107.047 311.56 107.129L311.567 107.136C312.118 107.428 312.716 107.19 313.281 107.292C313.492 107.388 313.533 107.571 313.519 107.775C313.479 108.34 313.683 108.728 314.275 108.844C314.955 108.98 315.078 108.456 315.261 108C315.316 107.864 315.411 107.748 315.533 107.666C316.819 108.871 316.608 110.184 315.03 110.756C314.703 110.878 314.363 110.98 314.03 111.089C313.948 111.15 313.86 111.218 313.764 111.225C310.75 111.416 309.791 113.396 309.614 116.022C309.58 116.532 309.464 117.022 309.43 117.526C309.171 121.52 307.151 124.412 303.891 126.392C307.552 124.303 309.301 120.955 309.573 116.743C309.621 115.981 309.852 115.253 309.94 114.498C309.981 114.124 310.008 113.518 310.491 113.545C311.063 113.573 311.022 114.199 311.056 114.627C311.124 115.471 311.083 116.322 311.124 117.22C310.968 115.532 311.961 115.056 313.186 115.022C311.532 115.131 311.138 114.777 311.104 113.158C311.083 112.3 311.458 111.817 312.254 111.633C312.839 111.497 313.404 111.246 314.03 111.334C316.52 113.362 319.289 113.253 322.161 112.389C322.44 113.464 321.936 113.974 320.929 114.219C319.643 114.532 318.337 114.661 316.731 114.804C317.704 115.008 318.405 115.131 319.085 115.314C319.596 115.451 320.038 115.743 320.051 116.335C320.065 116.961 319.555 117.192 319.072 117.342C317.561 117.805 315.982 117.873 314.424 118.043C312.124 118.288 312.029 118.315 311.682 120.52C311.437 122.057 310.764 123.391 310.076 124.745C308.607 125.534 307.151 126.344 305.667 127.106C303.701 128.127 302.197 129.705 300.646 131.223C300.203 131.651 299.809 131.978 299.258 131.4C297.284 129.331 294.903 128.018 292.086 127.521C295.577 123.582 297.761 118.894 299.264 113.967C300.598 109.613 303.476 107.279 307.504 105.877C308.797 105.428 310.049 104.904 311.322 104.414Z" fill="#D37748"/>
<path d="M313.131 71.9727C315.846 73.109 316.976 75.1639 316.847 78.0693C316.71 81.0563 317.2 83.989 317.881 86.8876C318.255 88.4866 317.888 89.9903 317.289 91.4532C316.915 92.365 316.363 92.678 315.438 92.0316C314.322 91.2559 313.131 90.6027 311.852 90.1128C311.151 89.0513 311.75 87.9695 311.839 86.908C311.907 86.1187 312.131 85.3362 312.335 84.5537C312.009 85.9078 311.689 87.2618 311.573 88.6567C311.519 89.2759 311.383 89.8406 310.927 90.2965C310.634 90.6163 310.335 90.9429 310.042 91.2627C308.103 90.038 308.076 89.9087 309.11 87.915C310.063 86.0711 310.968 84.2135 311.927 82.3764C312.152 81.9477 312.288 81.5462 312.152 81.0836C312.009 80.7229 311.6 80.444 311.805 79.9677C311.641 79.6955 311.478 79.4301 311.315 79.158C311.777 78.4843 312.512 78.5047 313.199 78.4163C313.812 78.3414 314.458 78.2802 314.615 77.5453C314.785 76.7424 314.295 76.2321 313.703 75.7898C313.138 75.368 312.322 75.4496 311.839 74.8645C312.138 73.8506 313.016 73.0818 313.131 71.9727Z" fill="#D37748"/>
<path d="M311.289 94.6352C312.595 94.6625 313.922 94.887 315.174 94.3631C315.848 94.0841 316.052 94.4719 316.29 94.9619C316.971 96.3839 316.521 98.99 315.331 100.004C314.31 100.875 314.201 99.9085 314.004 99.2485C313.739 98.3708 313.623 97.3365 312.255 97.9421C311.568 96.9487 310.894 95.9485 311.289 94.6352Z" fill="#D27647"/>
<path d="M311.838 74.8711C312.859 74.9323 313.846 75.0888 314.581 75.8917C315.132 76.4905 315.343 77.1709 315.064 77.967C314.764 78.7971 314.104 78.94 313.356 78.8108C312.614 78.6815 312.002 79.1169 311.308 79.1646C310.205 78.7631 310.069 77.8446 310.09 76.8579C310.117 75.7284 310.906 75.2317 311.838 74.8711Z" fill="#391E0F"/>
<path d="M311.803 79.9807C311.994 80.3277 312.252 80.6543 312.15 81.0966C311.728 80.8925 311.082 80.9061 311.068 80.2869C311.062 79.9603 311.504 79.9807 311.803 79.9807Z" fill="#4F3424"/>
<path d="M326.862 111.328C326.896 109.43 326.12 107.695 325.712 105.885C324.106 98.8425 322.432 91.8205 320.799 84.7917C320.404 83.077 320.962 81.7706 322.194 81.3352C323.521 80.8657 325.004 81.6414 325.739 83.2131C326.263 84.329 326.515 85.5062 326.542 86.7377C326.331 87.5066 326.222 88.2959 325.916 89.0376C325.766 89.405 325.555 89.752 325.317 90.0718C325.719 89.5819 326.011 89.0308 326.181 88.4116C326.31 87.9421 326.331 87.3841 327.032 87.4046C327.522 88.4184 327.807 89.5207 327.903 90.6094C328.291 95.0866 330.876 97.8627 334.7 99.7747C339.484 102.163 344.519 102.796 349.772 102.013C350.697 101.877 351.513 101.53 352.289 101.033C352.616 102.755 352.936 104.476 353.262 106.198C345.641 105.878 338.354 107.6 331.135 109.791C329.726 110.219 328.433 110.9 327.086 111.464C327.005 111.43 326.93 111.39 326.862 111.328Z" fill="#D37748"/>
<path d="M291.255 130.219C291.752 130.28 292.106 130.525 292.051 131.076C291.997 131.627 291.568 131.784 291.078 131.784C290.541 131.784 290.214 131.552 290.296 130.967C290.377 130.43 290.731 130.219 291.255 130.219Z" fill="#FEFEFC"/>
<path d="M314.035 111.343C313.525 111.561 313.028 111.888 312.505 111.963C311.538 112.099 311.538 112.616 311.525 113.426C311.497 114.718 312.123 114.861 313.131 114.657C313.478 114.589 313.818 114.48 314.165 114.439C314.396 114.412 314.709 114.392 314.77 114.725C314.825 115.038 314.573 115.174 314.335 115.242C314.097 115.31 313.838 115.31 313.586 115.324C312.198 115.399 311.239 115.834 311.552 117.515C311.613 117.862 311.654 118.454 311.062 118.399C310.64 118.365 310.681 117.869 310.674 117.515C310.667 116.304 310.674 115.093 310.47 113.861C310.143 115.793 309.851 117.739 309.477 119.665C308.783 123.244 306.265 125.387 303.407 127.252C303.135 127.429 302.802 127.578 302.611 127.259C302.427 126.946 302.747 126.694 302.992 126.524C304.149 125.714 305.353 124.979 306.353 123.952C308.265 121.985 308.844 119.509 309.15 116.916C309.232 116.215 309.341 115.521 309.463 114.827C309.987 111.752 310.919 110.996 314.049 111.085C314.035 111.18 314.035 111.262 314.035 111.343Z" fill="#A85128"/>
<path d="M311.559 107.13C308.388 108.069 306.265 110.559 303.7 112.403C303.387 112.628 303.006 113.131 302.686 112.743C302.278 112.24 302.924 112.002 303.244 111.743C304.611 110.627 305.979 109.511 307.374 108.436C308.333 107.701 309.279 106.892 310.558 106.81C311.212 106.769 311.232 106.327 311.293 105.871C311.62 106.245 311.545 106.694 311.559 107.13Z" fill="#A95128"/>
<path d="M310.928 90.3034C311.261 88.2213 311.397 86.0983 312.105 84.0911C312.227 83.7509 312.091 83.0704 312.656 83.1997C313.377 83.363 312.833 83.9686 312.765 84.3156C312.397 86.2412 311.908 88.1464 311.853 90.1196C311.547 90.1809 311.241 90.2421 310.928 90.3034Z" fill="#AB5329"/>
<path d="M323.923 76.4017C321.786 77.191 319.738 78.0959 317.976 79.5384C317.846 79.6405 317.588 79.7017 317.445 79.6405C317.22 79.5452 317.295 79.3139 317.384 79.1234C317.955 77.9326 322.419 75.9662 323.923 76.4017Z" fill="#A7A08D"/>
<path d="M318.045 81.3057C318.875 79.4482 321.917 78.3663 323.971 79.1556C321.828 79.3938 319.875 80.1762 318.045 81.3057Z" fill="#A9A28F"/>
<path d="M315.533 107.676C315.547 109.466 315.288 109.725 313.907 109.241C312.934 108.901 312.594 108.343 313.451 107.5C313.927 107.091 314.445 107.282 314.955 107.391C315.145 107.479 315.336 107.581 315.533 107.676Z" fill="#EEB192"/>
<path d="M327.031 87.3973C326.303 88.3091 326.412 89.6155 325.541 90.466C325.256 90.745 324.977 91.2077 324.575 90.8198C324.214 90.4728 324.725 90.2279 324.909 89.9693C325.405 89.2685 325.854 88.5472 325.882 87.649C325.895 87.2 326.12 86.8938 326.535 86.7305C326.821 86.8734 326.977 87.0979 327.031 87.3973Z" fill="#AA5329"/>
<path d="M314.948 107.381C314.445 107.415 313.948 107.456 313.444 107.49C312.832 107.286 312.104 107.701 311.566 107.13C312.689 107.293 313.853 106.885 314.948 107.381Z" fill="#A95128"/>
<path d="M323.038 88.3563C322.602 87.0226 321.214 86.1109 321.575 84.4438C321.738 83.6817 321.718 82.8176 322.616 82.6475C323.528 82.4706 324.092 83.0898 324.378 83.9403C324.439 84.1308 324.569 84.3145 324.582 84.5051C324.609 84.9678 325.242 85.6142 324.637 85.8455C323.922 86.1245 324.092 85.2127 323.875 84.8385C323.568 84.3145 323.548 83.2803 322.718 83.6205C322.051 83.8927 322.085 84.8385 322.405 85.5189C322.616 85.9612 322.99 86.3286 323.262 86.7437C323.636 87.322 323.977 87.914 323.038 88.3563Z" fill="#AA5229"/>
</g>
</svg>
