<svg width="403" height="700" viewBox="0 0 403 700" fill="none" xmlns="http://www.w3.org/2000/svg">
<path d="M201.754 310.162C202.074 299.257 190.849 278.25 169.681 277.288C144.023 276.005 133.119 296.531 132.157 310.002C131.194 323.953 128.308 384.089 127.185 411.992C126.704 423.057 126.704 480.948 125.261 492.013C122.535 511.096 136.647 521.84 146.75 524.406C158.937 527.613 176.737 521.038 181.388 505.323C187.161 485.759 191.17 431.396 192.773 412.152C193.736 401.087 201.273 329.887 201.754 310.162Z" fill="#288879"/>
<path d="M133.92 346.88C133.76 346.88 133.6 346.88 133.6 346.72C133.439 346.559 133.6 346.239 133.76 346.239C136.165 344.956 137.609 342.23 138.731 339.343C141.457 332.768 143.382 325.712 144.825 318.817C144.825 318.656 144.985 318.496 145.306 318.496C145.466 318.496 145.627 318.817 145.627 318.977C144.344 326.033 142.259 333.089 139.533 339.664C138.41 342.55 136.807 345.597 134.241 346.88C133.92 346.72 133.92 346.88 133.92 346.88Z" fill="#85C594"/>
<path d="M174.973 477.424C174.973 477.424 174.813 477.424 174.973 477.424C174.653 477.424 174.492 477.103 174.653 476.942C179.143 460.104 186.68 415.043 190.529 385.215C190.529 385.055 190.689 384.895 191.01 384.895C191.17 384.895 191.33 385.055 191.33 385.376C187.321 415.203 179.945 460.265 175.455 477.103C175.294 477.424 175.134 477.424 174.973 477.424Z" fill="#85C594"/>
<path d="M153.004 677.871C152.362 666.485 152.683 656.864 153.004 643.393C153.325 624.31 131.034 625.914 131.676 641.469C131.996 650.449 132.477 656.062 131.996 661.514C131.676 664.08 131.355 670.334 130.553 674.183C129.11 681.239 131.195 689.096 140.656 689.898C148.514 690.54 153.325 683.804 153.004 677.871Z" fill="#F4A47C"/>
<path d="M159.094 467.956C136.162 465.229 126.861 482.549 125.258 491.85C123.173 504.839 123.013 514.14 123.173 527.29C123.333 553.108 124.777 577.804 126.38 602.66C127.022 612.602 127.022 648.844 127.022 654.778C127.022 656.06 129.588 655.098 130.229 654.938C132.153 654.778 134.078 654.457 136.002 654.296C139.851 653.815 143.539 653.334 147.388 652.853C150.435 652.532 153.482 652.051 156.528 651.57C159.415 651.089 162.622 650.608 165.188 649.005C166.471 648.363 166.792 646.599 167.112 645.316C174.97 612.602 178.498 579.087 180.262 545.571C181.064 530.497 180.903 516.385 181.705 504.037C182.988 485.756 172.565 469.399 159.094 467.956Z" fill="#288879"/>
<path d="M160.218 650.448C159.897 650.448 159.737 650.288 159.897 649.967L160.218 647.562C165.028 617.414 169.519 589.029 169.198 559.042C169.198 554.712 169.038 550.222 168.877 546.052C168.556 537.393 168.236 528.252 168.877 519.432C169.519 508.207 171.283 492.01 175.131 478.219C175.131 478.059 175.452 477.898 175.612 477.898C175.773 477.898 175.933 478.219 175.933 478.38C172.084 492.171 170.481 508.367 169.839 519.432C169.198 528.252 169.679 537.233 169.839 545.892C170 550.222 170.16 554.552 170.16 558.881C170.481 588.869 165.991 617.414 161.18 647.562L160.859 649.967C160.538 650.288 160.378 650.448 160.218 650.448Z" fill="#85C594"/>
<path d="M133.598 641.461C131.674 641.461 129.589 641.301 127.664 640.82C127.504 640.82 127.344 640.499 127.344 640.339C127.344 640.178 127.504 640.018 127.825 640.018C135.202 641.622 142.899 639.697 148.672 637.933C150.596 637.292 152.36 636.811 154.285 636.169C159.095 634.566 164.227 632.802 169.359 632C169.519 632 169.84 632.16 169.84 632.321C169.84 632.481 169.679 632.802 169.519 632.802C164.387 633.604 159.416 635.207 154.605 636.811C152.841 637.452 150.917 638.094 148.993 638.575C144.503 640.018 139.211 641.461 133.598 641.461Z" fill="#85C594"/>
<path d="M144.343 680.911C144.183 680.911 144.183 680.911 144.023 680.751C143.862 680.591 143.862 680.27 144.023 680.27C146.428 678.185 147.069 674.176 145.626 671.29C145.466 671.129 145.626 670.809 145.787 670.809C145.947 670.648 146.268 670.809 146.268 670.969C148.032 674.176 147.23 678.506 144.504 680.911C144.504 680.751 144.504 680.911 144.343 680.911Z" fill="#DC7C61"/>
<path d="M201.754 309.525C202.074 298.621 190.849 277.613 169.681 276.651C144.023 275.368 133.119 295.895 132.157 309.365C131.194 323.317 128.308 383.452 127.185 411.355C126.704 422.42 126.704 480.311 125.261 491.376C122.535 510.459 136.647 521.204 146.75 523.769C158.937 526.977 176.737 520.402 181.388 504.686C187.161 485.122 191.17 430.759 192.773 411.516C193.736 400.29 201.273 329.09 201.754 309.525Z" fill="#288879"/>
<path d="M133.92 346.091C133.76 346.091 133.6 346.091 133.6 345.931C133.439 345.77 133.6 345.45 133.76 345.45C136.165 344.167 137.609 341.441 138.731 338.554C141.457 331.979 143.382 324.923 144.825 318.028C144.825 317.867 144.985 317.707 145.306 317.707C145.466 317.707 145.627 318.028 145.627 318.188C144.344 325.244 142.259 332.3 139.533 338.875C138.41 341.761 136.807 344.808 134.241 346.091C133.92 346.091 133.92 346.091 133.92 346.091Z" fill="#85C594"/>
<path d="M174.975 476.627C174.975 476.627 174.815 476.627 174.975 476.627C174.655 476.627 174.494 476.306 174.655 476.146C179.145 459.308 186.682 414.246 190.531 384.418C190.531 384.258 190.691 384.098 191.012 384.098C191.172 384.098 191.332 384.258 191.332 384.579C187.323 414.406 179.947 459.468 175.457 476.306C175.296 476.627 175.136 476.627 174.975 476.627Z" fill="#85C594"/>
<path d="M153.004 677.07C152.362 665.685 152.683 656.063 153.004 642.592C153.325 623.509 131.034 625.113 131.676 640.668C131.996 649.648 132.477 655.261 131.996 660.713C131.676 663.279 131.355 669.533 130.553 673.382C129.11 680.438 131.195 688.296 140.656 689.097C148.514 689.739 153.325 683.004 153.004 677.07Z" fill="#F4A47C"/>
<path d="M159.096 467.155C136.164 464.429 126.863 481.748 125.26 491.049C123.175 504.038 123.015 513.339 123.175 526.489C123.335 552.307 124.779 577.003 126.382 601.859C127.024 611.802 127.024 648.043 127.024 653.977C127.024 655.26 129.59 654.298 130.231 654.137C132.155 653.977 134.08 653.656 136.004 653.496C139.853 653.015 143.541 652.534 147.39 652.052C150.437 651.732 153.483 651.251 156.53 650.77C159.417 650.288 162.624 649.807 165.19 648.204C166.473 647.562 166.794 645.798 167.114 644.515C174.972 611.802 178.5 578.286 180.264 544.77C181.066 529.696 180.905 515.584 181.707 503.236C182.99 484.955 172.567 468.758 159.096 467.155Z" fill="#288879"/>
<path d="M160.216 649.651C159.895 649.651 159.735 649.491 159.895 649.17L160.216 646.765C165.027 616.617 169.517 588.233 169.196 558.245C169.196 553.915 169.036 549.425 168.875 545.256C168.555 536.596 168.234 527.455 168.875 518.635C169.517 507.41 171.281 491.213 175.129 477.422C175.129 477.262 175.45 477.102 175.61 477.102C175.771 477.102 175.931 477.422 175.931 477.583C172.082 491.374 170.479 507.57 169.837 518.635C169.196 527.455 169.677 536.436 169.837 545.095C169.998 549.425 170.158 553.755 170.158 558.084C170.479 588.072 165.989 616.617 161.178 646.765L160.857 649.17C160.536 649.491 160.376 649.651 160.216 649.651Z" fill="#85C594"/>
<path d="M133.596 640.668C131.672 640.668 129.587 640.508 127.663 640.027C127.502 640.027 127.342 639.706 127.342 639.546C127.342 639.386 127.502 639.225 127.823 639.225C135.2 640.829 142.897 638.904 148.67 637.14C150.594 636.499 152.358 636.018 154.122 635.376C158.933 633.773 164.065 632.009 169.196 631.207C169.357 631.207 169.677 631.367 169.677 631.528C169.677 631.688 169.517 632.009 169.357 632.009C164.225 632.811 159.254 634.414 154.443 636.018C152.679 636.659 150.755 637.301 148.83 637.782C144.501 639.225 139.048 640.668 133.596 640.668Z" fill="#85C594"/>
<path d="M144.341 680.115C144.181 680.115 144.181 680.115 144.021 679.954C143.86 679.794 143.86 679.473 144.021 679.473C146.426 677.388 147.068 673.379 145.624 670.493C145.464 670.332 145.624 670.012 145.785 670.012C145.945 669.851 146.266 670.012 146.266 670.172C148.03 673.379 147.228 677.709 144.502 680.115C144.502 680.115 144.502 680.115 144.341 680.115Z" fill="#DC7C61"/>
<path d="M192.617 380.388C192.457 380.388 192.457 380.388 192.296 380.227C190.853 378.143 187.967 375.737 185.24 374.134C185.08 373.973 184.92 373.813 185.08 373.653C185.24 373.492 185.401 373.332 185.561 373.492C188.448 375.096 191.334 377.662 192.938 379.746C193.098 379.907 193.098 380.227 192.777 380.227C192.777 380.388 192.777 380.388 192.617 380.388Z" fill="#288879"/>
<path d="M201.754 309.525C202.074 298.621 190.849 277.613 169.681 276.651C144.023 275.368 133.119 295.895 132.157 309.365C131.194 323.317 128.308 383.452 127.185 411.355C126.704 422.42 126.704 480.311 125.261 491.376C122.535 510.459 136.647 521.204 146.75 523.769C158.937 526.977 176.737 520.402 181.388 504.686C187.161 485.122 191.17 430.759 192.773 411.516C193.736 400.29 201.273 329.09 201.754 309.525Z" fill="#288879"/>
<path d="M133.92 346.087C133.76 346.087 133.6 346.087 133.6 345.927C133.439 345.767 133.6 345.446 133.76 345.446C136.165 344.163 137.609 341.437 138.731 338.55C141.457 331.975 143.382 324.919 144.825 318.024C144.825 317.864 144.985 317.703 145.306 317.703C145.466 317.703 145.627 318.024 145.627 318.184C144.344 325.24 142.259 332.296 139.533 338.871C138.41 341.757 136.807 344.804 134.241 346.087C133.92 346.087 133.92 346.087 133.92 346.087Z" fill="#2AC3B4"/>
<path d="M174.973 476.623C174.973 476.623 174.813 476.623 174.973 476.623C174.653 476.623 174.492 476.302 174.653 476.142C179.143 459.304 186.68 414.242 190.529 384.414C190.529 384.254 190.689 384.094 191.01 384.094C191.17 384.094 191.33 384.254 191.33 384.575C187.321 414.402 179.945 459.464 175.455 476.302C175.294 476.623 175.134 476.623 174.973 476.623Z" fill="#2AC3B4"/>
<path d="M153.004 677.07C152.362 665.685 152.683 656.063 153.004 642.592C153.325 623.509 131.034 625.113 131.676 640.668C131.996 649.648 132.477 655.261 131.996 660.713C131.676 663.279 131.355 669.533 130.553 673.382C129.11 680.438 131.195 688.296 140.656 689.097C148.514 689.739 153.325 683.004 153.004 677.07Z" fill="#F4A47C"/>
<path d="M159.096 467.155C136.164 464.429 126.863 481.748 125.26 491.049C123.175 504.038 123.015 513.339 123.175 526.489C123.335 552.307 124.779 577.003 126.382 601.859C127.024 611.802 127.024 648.043 127.024 653.977C127.024 655.26 129.59 654.298 130.231 654.137C132.155 653.977 134.08 653.656 136.004 653.496C139.853 653.015 143.541 652.534 147.39 652.052C150.437 651.732 153.483 651.251 156.53 650.77C159.417 650.288 162.624 649.807 165.19 648.204C166.473 647.562 166.794 645.798 167.114 644.515C174.972 611.802 178.5 578.286 180.264 544.77C181.066 529.696 180.905 515.584 181.707 503.236C182.99 484.955 172.567 468.758 159.096 467.155Z" fill="#288879"/>
<path d="M160.216 649.651C159.895 649.651 159.735 649.491 159.895 649.17L160.216 646.765C165.027 616.617 169.517 588.233 169.196 558.245C169.196 553.915 169.036 549.425 168.875 545.256C168.555 536.596 168.234 527.455 168.875 518.635C169.517 507.41 171.281 491.213 175.129 477.422C175.129 477.262 175.45 477.102 175.61 477.102C175.771 477.102 175.931 477.422 175.931 477.583C172.082 491.374 170.479 507.57 169.837 518.635C169.196 527.455 169.677 536.436 169.837 545.095C169.998 549.425 170.158 553.755 170.158 558.084C170.479 588.072 165.989 616.617 161.178 646.765L160.857 649.17C160.536 649.491 160.376 649.651 160.216 649.651Z" fill="#2AC3B4"/>
<path d="M133.596 640.668C131.672 640.668 129.587 640.508 127.663 640.027C127.502 640.027 127.342 639.706 127.342 639.546C127.342 639.386 127.502 639.225 127.823 639.225C135.2 640.829 142.897 638.904 148.67 637.14C150.594 636.499 152.358 636.018 154.122 635.376C158.933 633.773 164.065 632.009 169.196 631.207C169.357 631.207 169.677 631.367 169.677 631.528C169.677 631.688 169.517 632.009 169.357 632.009C164.225 632.811 159.254 634.414 154.443 636.018C152.679 636.659 150.755 637.301 148.83 637.782C144.501 639.225 139.048 640.668 133.596 640.668Z" fill="#2AC3B4"/>
<path d="M144.341 680.115C144.181 680.115 144.181 680.115 144.021 679.954C143.86 679.794 143.86 679.473 144.021 679.473C146.426 677.388 147.068 673.379 145.624 670.493C145.464 670.332 145.624 670.012 145.785 670.012C145.945 669.851 146.266 670.012 146.266 670.172C148.03 673.379 147.228 677.709 144.502 680.115C144.502 680.115 144.502 680.115 144.341 680.115Z" fill="#DC7C61"/>
<path d="M262.048 480.625C261.727 465.23 265.095 440.695 264.453 425.3C263.972 414.716 264.774 404.132 266.378 393.709C270.226 369.494 267.34 343.836 265.255 319.14C263.972 303.745 265.896 267.985 225.325 268.466C206.402 268.626 193.733 286.907 193.573 306.472C193.413 341.431 197.422 369.494 196.62 382.163C194.696 410.386 197.261 455.127 199.667 483.351C201.11 501.312 216.826 513.018 234.145 511.896C245.691 511.094 262.368 499.708 262.048 480.625Z" fill="#288879"/>
<path d="M199.825 360.998C199.665 360.998 199.504 360.838 199.504 360.678C195.976 343.359 195.816 325.077 198.863 307.758C198.863 307.598 199.184 307.438 199.344 307.438C199.504 307.438 199.665 307.598 199.665 307.919C196.618 325.238 196.778 343.359 200.306 360.678C200.306 360.678 200.146 360.838 199.825 360.998C199.986 360.998 199.986 360.998 199.825 360.998Z" fill="#2AC3B4"/>
<path d="M262.848 352.975C260.283 352.975 257.717 351.692 256.113 350.088C253.547 347.683 252.104 344.636 250.982 341.429C248.095 334.052 246.331 326.194 245.529 318.337C245.529 318.176 245.69 318.016 245.85 317.855C246.01 317.855 246.171 318.016 246.331 318.176C247.133 326.034 248.897 333.731 251.783 341.108C252.906 344.155 254.349 347.202 256.755 349.447C258.839 351.371 262.367 352.814 265.575 351.532C265.735 351.532 266.056 351.532 266.056 351.692C266.216 351.852 266.056 352.173 265.895 352.173C264.773 352.654 263.811 352.975 262.848 352.975Z" fill="#2AC3B4"/>
<path d="M212.335 458.974C212.174 458.974 212.014 458.813 212.014 458.653C211.533 455.766 211.052 452.88 210.571 449.833C209.608 444.381 208.646 438.928 208.005 433.316C206.081 418.402 205.92 403.328 205.76 388.575C205.76 388.414 205.92 388.254 206.081 388.254C206.241 388.254 206.401 388.414 206.401 388.575C206.562 403.168 206.722 418.402 208.646 433.316C209.288 438.768 210.25 444.381 211.212 449.833C211.693 452.72 212.174 455.606 212.655 458.653C212.655 458.653 212.655 458.813 212.335 458.974Z" fill="#2AC3B4"/>
<path d="M243.447 676.588C244.088 669.692 244.57 643.714 244.57 636.818C247.135 611.641 220.194 610.519 220.194 634.733C220.194 643.553 219.232 665.683 218.431 675.305C217.949 681.238 222.6 687.493 230.297 688.134C236.551 688.775 242.806 684.125 243.447 676.588Z" fill="#F4A47C"/>
<path d="M228.53 684.454H228.369C225.002 682.85 223.077 678.521 224.2 674.993C224.2 674.832 224.521 674.672 224.681 674.672C224.841 674.672 225.002 674.993 225.002 675.153C224.04 678.36 225.804 682.209 228.85 683.813C229.011 683.973 229.171 684.133 229.011 684.294C228.85 684.294 228.69 684.454 228.53 684.454Z" fill="#DC7C61"/>
<path d="M252.744 642.751C252.102 626.394 254.187 610.198 255.63 593.841C259.158 556.316 262.526 518.31 262.045 480.625C261.884 465.23 249.216 448.072 227.888 449.515C210.729 450.637 198.06 467.475 199.824 483.191C201.107 494.256 201.107 515.263 200.947 535.79C200.626 566.579 201.107 604.425 203.833 635.375C203.994 636.658 204.635 637.78 205.597 638.422C207.522 639.865 211.37 642.27 216.983 643.874C227.567 646.921 238.632 648.364 249.536 646.6C251.782 646.279 252.744 645.157 252.744 642.751Z" fill="#288879"/>
<path d="M211.689 638.097C211.529 638.097 211.368 637.937 211.368 637.776C210.086 613.722 212.01 586.941 213.774 561.283C216.34 525.202 218.585 491.045 213.293 463.462L212.972 461.859C212.491 459.293 211.85 455.765 211.368 453.68C211.368 453.52 211.529 453.199 211.689 453.199C211.85 453.199 212.17 453.36 212.17 453.52C212.651 455.605 213.293 459.133 213.774 461.698L214.095 463.302C219.387 491.045 217.141 525.202 214.576 561.444C212.812 587.262 210.887 613.882 212.17 637.937C212.01 637.937 211.85 638.097 211.689 638.097Z" fill="#2AC3B4"/>
<path d="M231.255 633.294C222.274 633.294 211.53 632.493 203.512 626.72C203.352 626.559 203.352 626.399 203.352 626.238C203.512 626.078 203.672 626.078 203.833 626.078C212.492 632.332 223.718 632.653 236.226 632.493L251.621 632.172C251.781 632.172 251.941 632.332 251.941 632.493C251.941 632.653 251.781 632.813 251.621 632.813L236.226 633.134C234.783 633.294 233.019 633.294 231.255 633.294Z" fill="#2AC3B4"/>
<path d="M113.234 689.259C113.875 689.259 114.516 689.098 115.158 689.098C119.808 688.777 124.619 689.259 129.27 689.9C132.156 690.221 152.041 690.381 153.003 692.305C155.088 697.277 154.286 698.56 148.353 698.72C131.675 698.72 114.998 698.72 98.3199 698.56C94.6315 698.56 90.7829 698.56 87.0945 698.399C81.0008 697.918 82.7647 690.541 87.5756 691.664C96.0748 693.428 104.734 690.221 113.234 689.259Z" fill="#2C3A90"/>
<path d="M154.124 671.29C154.605 659.423 137.286 653.169 130.07 665.517C128.466 668.403 125.58 671.29 120.608 674.497C113.713 678.987 107.138 683.156 98.9595 685.241C94.7901 686.364 87.0927 687.486 84.8477 691.816C93.1865 698.391 106.817 695.023 116.599 692.137C125.419 690.693 133.919 693.099 142.899 693.74C146.266 693.901 151.719 693.901 153.643 690.693C156.69 685.722 153.803 679.468 154.124 671.29Z" fill="#F4A47C"/>
<path d="M108.901 693.103C109.222 693.424 109.543 693.905 109.863 694.065C110.345 694.226 110.665 694.226 111.146 694.226C112.429 694.226 113.872 694.226 115.155 694.226C114.193 691.339 112.269 688.934 109.703 687.33C108.42 686.528 106.977 686.208 105.694 685.566C103.609 684.764 104.09 684.764 104.251 682.68C103.77 682.68 98.6381 683.642 98.6381 684.283C98.7984 685.085 97.3552 688.773 96.0723 688.934C101.043 688.613 105.534 689.255 108.901 693.103Z" fill="white"/>
<path d="M221.958 699.518H271.67C273.594 699.518 275.198 697.914 275.198 695.99V695.508C275.198 693.584 273.594 691.98 271.67 691.98H221.958C220.033 691.98 218.43 693.584 218.43 695.508V695.99C218.43 697.914 220.033 699.518 221.958 699.518Z" fill="#2C3A90"/>
<path d="M274.714 689.417C274.233 688.135 273.591 687.333 272.95 686.852C272.95 686.852 272.95 686.852 272.789 686.852C267.818 683.805 258.036 679.475 253.386 677.07C247.452 673.862 245.207 672.419 244.245 668.731C242.802 661.835 237.83 657.826 230.935 658.147C222.756 658.628 218.908 665.523 218.908 670.976C219.228 675.466 219.068 677.39 218.747 682.522C218.587 684.607 218.266 686.531 219.068 688.616C219.709 690.54 221.153 692.144 222.917 693.106C226.765 695.19 232.378 693.106 236.708 693.106C237.349 693.106 240.236 693.266 243.443 693.426C250.659 694.068 263.328 695.511 270.865 695.351C273.752 694.87 275.836 691.983 274.714 689.417Z" fill="#F4A47C"/>
<path d="M254.192 684.921C251.145 686.524 249.221 691.496 249.061 695.024C250.504 695.024 252.107 695.024 253.551 695.024C254.192 692.939 255.796 689.411 257.72 688.609C259.805 687.807 262.21 687.968 263.974 689.251C264.616 687.807 265.417 686.524 266.7 685.723C267.983 684.921 269.427 684.76 270.87 685.402C270.87 682.355 266.54 682.996 264.776 684.119C264.616 684.279 264.295 684.44 264.135 684.44C263.974 684.44 263.814 684.44 263.654 684.44C260.126 683.798 257.239 683.157 254.192 684.921Z" fill="white"/>
<path d="M134.72 302.941C152.2 308.072 173.368 307.271 191.328 304.865C213.137 301.979 241.041 295.404 261.407 303.903C264.453 302.941 264.774 297.488 262.689 295.083C260.605 292.678 252.426 291.395 249.219 290.914C230.136 288.187 210.732 291.715 191.649 294.121C178.82 295.724 165.67 297.007 152.841 295.564C146.266 294.762 138.248 292.678 132.155 289.951C131.032 292.838 131.353 296.847 131.673 300.054C131.673 300.696 131.834 301.177 132.155 301.658C132.475 302.139 133.277 302.46 133.758 302.62C133.919 302.62 134.4 302.78 134.72 302.941Z" fill="#104534"/>
<path d="M187.159 306.469C186.518 306.469 185.876 306.148 185.395 305.827C184.754 305.346 184.433 304.544 184.594 303.903L184.754 298.13C184.754 296.847 185.716 295.724 186.999 295.564L204.158 293.479C204.96 293.319 205.601 293.64 206.243 294.121C206.884 294.602 207.044 295.404 207.044 296.045L206.884 301.818C206.884 303.101 205.922 304.223 204.639 304.384L187.48 306.469C187.48 306.469 187.32 306.469 187.159 306.469ZM204.639 295.724C204.639 295.724 204.479 295.724 204.639 295.724L187.48 297.809C187.48 297.809 187.32 297.809 187.32 297.969L187.159 303.742C187.159 303.742 187.159 303.742 187.159 303.903C187.159 303.903 187.159 303.903 187.32 303.903L204.479 301.818C204.479 301.818 204.639 301.818 204.639 301.658V295.724C204.639 295.885 204.639 295.724 204.639 295.724Z" fill="#F7F5F5"/>
<path d="M235.112 303.9L234.951 287.703H237.517L237.677 303.9H235.112Z" fill="#288879"/>
<path d="M153.485 309.677L153.324 293.48H155.89L156.05 309.677H153.485Z" fill="#288879"/>
<path d="M84.3674 230.615C71.3781 242 54.3797 222.276 63.36 201.91C70.0952 186.836 70.0952 187.317 79.2358 175.931C88.6972 164.064 121.411 117.88 131.193 106.174C134.882 101.683 145.626 96.2311 154.285 101.042C161.341 105.051 167.435 112.267 161.822 124.776C147.55 156.527 110.186 207.843 84.3674 230.615Z" fill="#F4A47C"/>
<path d="M163.749 130.864C168.88 108.093 157.174 101.197 152.042 99.5938C139.855 95.9054 131.516 103.282 123.818 113.385L99.764 142.892C97.5189 145.457 97.8397 148.344 98.1604 149.627C98.8018 148.665 99.2829 148.344 100.566 148.504C109.867 150.108 122.856 165.182 124.46 179.775C124.941 183.463 124.62 184.746 122.054 188.434C125.582 188.916 131.195 188.434 133.119 185.548C134.883 182.982 159.419 151.711 163.749 130.864Z" fill="white"/>
<path d="M133.597 185.718C133.276 185.718 133.116 185.397 133.116 185.237C134.719 174.653 135.2 157.494 134.399 141.779C133.436 124.62 131.191 113.234 128.305 111.149C128.145 110.989 128.145 110.829 128.145 110.508C128.305 110.348 128.465 110.348 128.786 110.348C133.276 113.555 134.88 133.279 135.361 141.618C136.163 157.494 135.682 174.653 134.078 185.237C133.918 185.558 133.757 185.718 133.597 185.718Z" fill="#D8D5CE"/>
<path d="M307.43 225.973C295.403 205.447 254.831 154.612 240.559 123.02C238.635 118.691 236.871 108.427 244.568 102.654C253.869 95.9192 261.566 99.6075 266.858 104.579C295.243 130.237 324.268 186.364 333.569 207.211C337.739 216.351 345.436 233.831 334.211 242.17C324.268 249.546 313.845 237.038 307.43 225.973Z" fill="#F4A47C"/>
<path d="M264.294 186.205C272.312 181.234 277.443 180.111 286.424 177.385C295.404 174.659 304.705 169.527 307.912 160.707C308.714 158.462 309.195 156.217 309.035 153.972C298.451 141.303 288.027 126.55 277.443 113.881C272.472 107.948 259.483 92.3929 246.654 99.9299C234.466 106.986 236.711 120.136 242.485 140.502C246.333 153.972 252.106 167.763 257.398 180.752C258.681 183.639 261.568 187.808 264.294 186.205Z" fill="white"/>
<path d="M257.24 181.073C257.08 181.073 256.92 180.912 256.759 180.752C255.958 172.092 259.165 155.575 262.372 139.699C265.579 123.182 268.626 107.627 266.541 103.778C266.381 103.618 266.541 103.297 266.702 103.137C266.862 102.976 267.183 103.137 267.343 103.297C269.588 107.467 266.541 122.38 263.174 139.699C260.127 155.575 256.759 172.092 257.722 180.592C257.722 180.912 257.561 181.073 257.24 181.073C257.401 181.073 257.24 181.073 257.24 181.073Z" fill="#D8D5CE"/>
<path d="M213.621 92.8651C213.46 90.62 213.14 89.3371 213.14 88.0542V87.8939L212.819 81.6397C212.338 79.2343 212.178 76.5082 210.574 75.3856C209.932 74.9045 209.291 74.5838 208.489 74.4234C206.886 73.9424 203.037 68.8108 201.273 68.8108C193.576 68.9711 192.132 65.7639 185.397 69.2919C183.312 70.4144 175.615 72.6595 174.332 74.7442C174.332 74.7442 175.134 91.9029 174.973 96.8742C174.973 100.562 175.615 101.364 178.181 102.647C180.265 103.609 184.595 105.694 186.52 106.817C199.028 113.391 204.961 107.939 213.46 102.326C214.904 101.364 215.064 100.562 215.224 98.9589C215.385 98.9589 213.781 94.9498 213.621 92.8651Z" fill="#F4A47C"/>
<path d="M213.299 89.3401L212.978 83.0859C212.978 83.0859 212.176 84.8499 206.564 87.095C199.027 90.1419 188.282 85.4914 188.924 87.095C189.565 88.6986 211.856 97.5185 213.78 94.4717C213.94 94.4717 213.299 91.9059 213.299 89.3401Z" fill="#F09073"/>
<path d="M166.313 97.8451C162.304 98.1658 156.371 95.7604 156.05 96.5622C155.569 97.6847 153.805 100.571 153.965 101.694C155.569 110.193 167.917 157.179 197.263 155.094C224.685 153.17 233.505 135.049 236.231 122.701C237.354 118.051 240.561 98.6469 238.316 93.9964C237.033 91.2702 233.345 91.1099 230.779 90.3081C226.93 89.1855 221.638 96.0811 218.912 93.9964C217.469 92.8739 215.224 92.072 213.78 93.0342C213.299 93.3549 212.979 93.836 212.818 94.1568C208.97 99.4487 202.074 106.665 195.178 106.825C189.405 106.986 177.539 102.816 174.331 95.2793C173.53 94.7982 169.52 97.5244 166.313 97.8451Z" fill="white"/>
<path d="M186.678 116.765C185.074 116.765 183.47 115.963 182.027 115.322C178.018 113.077 174.33 110.35 170.962 107.303C170.802 107.143 170.802 106.822 170.962 106.662C171.122 106.502 171.443 106.502 171.604 106.662C174.811 109.709 178.499 112.435 182.508 114.52C184.112 115.322 186.036 116.284 187.64 115.803C189.243 115.482 190.366 114.199 191.488 112.756C191.809 112.275 192.29 111.954 192.611 111.473C193.092 110.992 193.894 110.35 194.856 110.19C196.139 110.03 196.941 110.831 197.903 111.633C198.224 111.954 198.544 112.114 198.865 112.435C201.591 114.359 205.6 112.916 208.647 111.313C211.694 109.869 216.345 103.455 219.873 98.1628C221.637 95.7574 223.08 93.6727 224.202 92.3898C224.363 92.2294 224.683 92.2294 224.844 92.3898C225.004 92.5502 225.004 92.8709 224.844 93.0313C223.721 94.3142 222.278 96.3989 220.514 98.8043C216.826 104.096 212.175 110.671 208.968 112.114C205.6 113.718 201.431 115.322 198.384 113.077C198.063 112.916 197.743 112.595 197.422 112.275C196.62 111.633 195.979 110.992 195.177 110.992H195.016C194.375 110.992 193.734 111.633 193.413 111.954C193.092 112.275 192.611 112.756 192.29 113.237C191.168 114.68 189.885 115.963 188.121 116.444C187.479 116.765 187.159 116.765 186.678 116.765Z" fill="#D8D5CE"/>
<path d="M199.348 133.118C199.187 133.118 199.027 132.958 198.867 132.798C198.546 130.873 197.423 129.43 196.301 127.827C195.499 126.704 194.537 125.421 193.895 123.978C192.773 121.091 193.575 119.167 194.216 117.243C194.858 115.479 195.499 113.715 194.858 111.309C194.858 111.149 194.858 110.828 195.178 110.828C195.339 110.828 195.659 110.828 195.659 111.149C196.461 113.875 195.659 115.799 195.018 117.563C194.377 119.327 193.735 121.091 194.697 123.657C195.178 124.94 196.14 126.223 196.942 127.345C198.065 128.949 199.348 130.713 199.668 132.798C199.829 132.958 199.668 133.118 199.348 133.118Z" fill="#D8D5CE"/>
<path d="M262.37 291.559C255.153 289.314 247.456 289.154 239.759 288.833C232.222 288.512 224.685 288.833 217.148 289.474C201.913 290.757 186.839 293.483 171.605 294.606C162.143 295.408 114.997 300.219 123.015 279.372C123.817 277.447 124.458 275.202 124.298 273.278C122.534 250.346 127.826 228.537 134.721 207.048C137.929 197.266 138.249 187.324 139.051 177.221C139.051 176.419 139.051 175.457 139.051 174.655C140.815 155.893 135.042 125.584 132.797 106.822C132.156 101.851 132.957 97.6812 139.051 98.483C142.579 98.9641 145.305 98.483 148.192 97.2001C157.333 92.8703 157.012 93.5117 162.624 101.53C169.039 110.51 181.227 122.858 190.848 131.518C193.254 133.602 199.508 138.092 199.508 138.092C208.007 129.593 222.6 106.501 226.288 94.955C227.732 90.4649 229.816 89.6631 234.306 91.427C241.042 94.3136 247.937 96.8793 255.474 97.6812C258.681 98.0019 259.964 99.9262 259.163 103.615C252.107 137.772 249.862 181.23 263.172 214.104C271.831 235.432 273.916 258.524 274.397 281.296C274.397 284.182 276.001 286.588 275.84 289.474C275.359 298.775 267.501 293.163 262.37 291.559Z" fill="#FFF05E"/>
<path d="M203.04 148.191L202.719 148.03C190.852 140.974 178.504 127.183 167.6 114.835C163.109 109.704 158.78 104.893 154.771 100.884C154.61 100.724 154.61 100.403 154.771 100.242C154.931 100.082 155.252 100.082 155.412 100.242C159.421 104.251 163.751 109.062 168.241 114.194C178.985 126.381 191.173 140.012 202.879 147.068C214.425 133.277 228.537 110.185 236.395 94.1487C236.555 93.9883 236.716 93.8279 237.036 93.9883C237.197 94.1487 237.357 94.309 237.197 94.6298C229.499 110.185 215.548 133.598 203.36 148.03L203.04 148.191Z" fill="#FFC95F"/>
<path d="M251.626 176.254C251.465 176.254 251.305 176.093 251.145 175.933C246.013 153.482 249.06 119.646 254.031 97.6762C254.031 97.5158 254.352 97.3555 254.512 97.3555C254.673 97.3555 254.833 97.6762 254.833 97.8366C249.862 119.806 246.975 153.482 251.947 175.612C252.107 175.933 251.947 176.254 251.626 176.254C251.786 176.254 251.786 176.254 251.626 176.254Z" fill="#FFC95F"/>
<path d="M147.552 194.538C147.392 194.538 147.232 194.538 147.232 194.378C147.071 194.218 147.071 193.897 147.232 193.737L148.354 192.935C164.23 180.908 180.747 168.239 201.434 158.617C201.594 158.457 201.915 158.617 201.915 158.778C202.075 158.938 201.915 159.259 201.755 159.259C181.068 169.041 164.711 181.389 148.675 193.576L147.552 194.378C147.713 194.538 147.552 194.538 147.552 194.538Z" fill="#FFC95F"/>
<path d="M168.239 203.19C168.078 203.19 167.918 203.19 167.918 203.03C167.758 202.87 167.918 202.549 168.078 202.389C183.152 193.088 207.367 191.163 224.526 197.898C224.686 198.059 224.847 198.219 224.686 198.38C224.526 198.54 224.365 198.7 224.205 198.54C207.207 191.805 183.313 193.729 168.399 202.87C168.399 203.19 168.239 203.19 168.239 203.19Z" fill="#FFC95F"/>
<path d="M141.296 193.266C141.136 193.266 141.136 193.266 141.296 193.266C140.975 193.266 140.815 192.945 140.815 192.785C148.352 165.844 143.862 124.631 140.494 102.34C140.494 102.18 140.655 101.859 140.815 101.859C140.975 101.859 141.296 102.02 141.296 102.18C144.664 124.47 148.993 165.844 141.617 192.945C141.617 193.105 141.456 193.266 141.296 193.266Z" fill="#FFC95F"/>
<path d="M161.502 286.109C149.635 286.109 137.608 283.382 126.703 278.251C126.543 278.09 126.383 277.93 126.543 277.77C126.703 277.609 126.864 277.449 127.024 277.609C137.768 282.741 149.635 285.307 161.342 285.307C161.342 285.307 161.342 285.307 161.502 285.307C161.662 285.307 161.983 285.467 161.983 285.788C162.143 285.948 161.823 286.109 161.502 286.109Z" fill="#FFC95F"/>
<path d="M272.312 280.49H272.151C262.53 276.321 251.785 274.717 241.362 275.84C241.202 275.84 240.881 275.68 240.881 275.519C240.881 275.359 241.041 275.038 241.202 275.038C251.785 273.916 262.53 275.519 272.472 279.849C272.633 280.009 272.793 280.17 272.633 280.33C272.633 280.49 272.472 280.49 272.312 280.49Z" fill="#FFC95F"/>
<path d="M37.0587 108.585C32.729 110.028 30.965 114.358 31.6064 117.565C36.4173 143.063 40.5867 163.589 44.9165 189.247C47.803 206.245 47.6427 207.528 55.5004 223.244C60.9527 233.988 68.8105 234.309 72.6592 234.79C77.47 235.271 93.3459 228.696 90.6197 212.82C88.0539 197.425 76.1871 169.202 66.2447 148.515C60.632 136.809 52.6139 124.781 47.1616 112.915C45.5579 109.226 41.2282 107.302 37.0587 108.585Z" fill="#F4A47C"/>
<path d="M88.5343 203.041C88.3739 203.041 88.2136 202.881 88.0532 202.721C85.327 193.901 84.0441 191.014 82.2802 186.524C81.318 184.119 80.1954 181.553 78.5918 177.383C78.4315 177.223 78.5918 176.902 78.7522 176.902C78.9125 176.742 79.2333 176.902 79.2333 177.063C80.8369 181.232 81.9594 183.798 82.9216 186.203C84.846 190.693 85.9685 193.58 88.6946 202.4C89.0154 202.721 88.855 203.041 88.5343 203.041Z" fill="#F09073"/>
<path d="M44.5989 105.056C43.4764 101.528 41.7124 98.3207 40.2691 94.9531C38.9862 91.7459 37.8637 88.5386 37.2222 85.171C36.5808 81.9638 36.2601 78.7565 34.6564 75.87C34.3357 75.3889 34.015 74.7475 33.3735 74.5871C32.4114 74.2664 31.4492 75.3889 31.1285 76.3511C29.0438 81.4827 31.7699 87.0954 32.8925 92.5477C34.1754 99.4433 32.7321 106.82 35.1375 113.555C36.4204 116.923 40.2691 120.451 43.7971 117.404C46.6836 114.678 45.5611 108.263 44.5989 105.056Z" fill="#F4A47C"/>
<path d="M42.5113 106.181C42.9924 107.303 43.7942 107.624 44.596 108.586C46.0393 110.511 48.124 112.114 48.6051 115.803C49.0862 119.491 46.36 122.377 43.1528 124.622C39.3041 127.349 33.0499 126.386 30.3238 123.019C28.8805 121.094 28.2391 119.491 25.1922 117.406C22.6264 115.642 19.5795 114.039 18.9381 110.511C18.7777 109.709 18.7777 108.907 18.457 108.265C18.1363 107.464 17.4948 106.983 17.0137 106.341C16.2119 105.219 15.7308 103.775 15.8912 102.492C15.8912 102.011 16.0515 101.53 15.8912 101.21C15.7308 100.889 15.4101 100.568 15.0894 100.247C13.9668 98.9645 13.4858 97.2005 14.1272 95.5969C14.7687 93.8329 13.6461 93.1914 13.3254 91.5878C12.0425 84.6922 24.3904 83.4093 28.5598 84.8526C38.0212 88.0598 38.5023 98.6438 42.5113 106.181Z" fill="#F4A47C"/>
<path d="M26.1568 23.5964C25.9964 22.3135 24.7135 21.5117 23.4306 21.8324L6.59259 25.0397C3.54571 25.6811 1.461 28.5676 1.94208 31.7749L12.6864 88.7035C13.1674 90.7882 15.2521 92.2315 17.3369 91.9107L19.1008 91.59C21.1856 91.1089 22.6288 89.0242 22.3081 86.9395L11.8845 32.4163L24.8739 30.0109C26.1568 29.8506 26.9586 28.5677 26.7982 27.2848L26.1568 23.5964Z" fill="#BBB6A5"/>
<path d="M28.4015 42.3579L2.42279 47.4895C0.819172 47.8102 -0.143001 49.2535 0.0173611 50.8571L0.498447 54.0643C0.819171 55.668 2.42279 56.7905 4.02642 56.4698L14.6103 54.3851C15.2518 54.2247 16.0536 54.7058 16.2139 55.3472L17.1761 59.9977C17.3365 60.6392 16.8554 61.441 16.2139 61.6014L5.63004 63.6861C4.02642 64.0068 3.06424 65.6104 3.38497 67.0537L3.86605 69.6195C4.18678 71.2231 5.63004 72.1853 7.23366 72.0249L15.4121 70.742C17.6572 70.5816 19.7419 72.0249 20.223 74.27L29.0429 120.935C29.3637 122.86 31.288 124.143 33.2123 123.822L35.7781 123.341C37.7025 123.02 38.9854 121.096 38.6647 119.171L26.9582 56.7905C26.4771 54.3851 27.76 51.8193 30.0051 50.6967H30.1655C32.2502 49.5742 33.3727 47.3291 32.8916 45.084C32.0898 43.3201 30.3258 42.0372 28.4015 42.3579Z" fill="#DB2685"/>
<path d="M14.7721 54.5421L2.90529 56.7872C2.10348 56.9475 1.46203 57.7494 1.62239 58.5512L2.42421 62.8809C2.58457 63.6828 3.38638 64.3242 4.18819 64.1638L16.055 61.9188C16.8568 61.7584 17.4983 60.9566 17.3379 60.1548L16.5361 55.825C16.3757 54.8628 15.5739 54.3817 14.7721 54.5421Z" fill="white"/>
<path d="M2.10588 60.7963C1.94552 60.7963 1.78516 60.6359 1.78516 60.4755C1.78516 60.3152 1.94552 60.1548 2.10588 60.1548L17.0196 58.2305C17.1799 58.2305 17.3403 58.3908 17.3403 58.5512C17.3403 58.7116 17.1799 58.8719 17.0196 58.8719L2.10588 60.7963Z" fill="#C6C1B5"/>
<path d="M24.5532 31.7681L12.3656 34.0132L12.0449 32.2492L25.0343 29.8438L25.1946 30.8059C25.1946 31.287 25.0343 31.7681 24.5532 31.7681Z" fill="#A29E90"/>
<path d="M30.0059 89.1807C29.6852 89.1807 29.3644 89.1807 29.0437 89.1807C27.6005 89.3411 26.4779 90.3033 25.195 90.9447C23.9121 91.7465 22.7896 91.9069 21.5067 92.388C19.5823 93.1898 16.2147 95.1141 14.6111 92.7087C11.7246 88.2185 18.7805 84.8509 21.8274 83.4077C22.4689 83.087 22.9499 82.7662 23.5914 82.6059C25.195 82.1248 26.959 82.6059 28.5626 82.9266C30.0059 83.2473 31.6095 83.7284 32.732 84.6906C34.8168 86.1338 35.6186 89.6618 32.0906 89.5014C31.4491 89.5014 30.6473 89.3411 30.0059 89.1807Z" fill="#F4A47C"/>
<path d="M34.6597 98.1616C31.2921 99.9256 31.6129 96.7184 30.4903 95.4355C29.2074 93.9922 20.3875 99.7653 18.4632 96.0769C16.3784 92.3886 22.7929 90.1435 25.1984 89.3417C28.7263 88.2192 35.9426 85.9741 37.2255 91.1057C37.867 93.1904 36.9048 96.7184 34.9805 98.0013C34.8201 98.0013 34.6597 98.1616 34.6597 98.1616Z" fill="#F4A47C"/>
<path d="M37.38 94.7953C37.2196 94.7953 37.0593 94.6349 36.8989 94.4745C36.8989 94.3142 36.8989 93.9934 37.2196 93.9934C37.38 93.9934 37.5404 93.8331 37.5404 93.6727C37.7007 93.352 37.5404 92.8709 37.38 92.3898C36.8989 91.588 36.0971 91.1069 35.7764 90.9466C33.3709 89.824 30.8051 88.7015 28.079 87.8997C27.5979 87.7393 26.9564 87.579 26.4754 87.579C25.9943 87.579 25.5132 87.7393 24.8717 88.06L24.3906 88.2204C21.5041 89.5033 17.4951 91.2673 15.25 93.1916C15.0896 93.352 14.7689 93.352 14.6086 93.1916C14.4482 93.0313 14.4482 92.7105 14.6086 92.5502C17.014 90.6258 21.023 88.8618 24.0699 87.579L24.551 87.4186C25.1925 87.0979 25.8339 86.9375 26.4754 86.9375C27.1168 86.9375 27.7583 87.0979 28.3997 87.2582C30.9655 88.06 33.6917 89.1826 36.0971 90.4655C36.5782 90.7862 37.38 91.2673 38.0214 92.2295C38.5025 92.8709 38.5025 93.6727 38.3422 94.3142C38.1818 94.3142 37.8611 94.6349 37.38 94.7953Z" fill="#F09073"/>
<path d="M35.6156 100.245C34.6535 100.245 34.012 99.4431 33.2102 99.1224C29.5219 97.8395 22.7867 106.178 19.5794 101.688C15.2496 95.4341 30.9651 90.3025 35.1346 92.0665C36.8985 92.8683 38.1814 94.953 37.8607 96.8773C37.7004 97.3584 37.54 97.9999 37.3796 98.4809C37.0589 99.2828 36.4175 100.245 35.6156 100.245Z" fill="#F4A47C"/>
<path d="M36.0978 99.2845C35.7771 99.2845 35.6167 99.1242 35.6167 98.8035C35.6167 98.4827 35.7771 98.3224 36.0978 98.3224C36.4185 98.3224 36.5789 98.162 36.5789 98.0017C36.7393 97.6809 36.8996 97.1998 36.7393 96.8791C36.4185 96.0773 35.7771 95.5962 35.1356 95.2755C33.8527 94.634 32.4095 94.153 31.4473 93.8322C30.8058 93.6719 30.3248 93.5115 29.6833 93.3511C27.9193 93.1908 25.995 93.9926 24.3914 94.7944L24.0706 94.9548C22.3066 95.7566 20.3823 96.7188 19.2598 98.0017C19.0994 98.162 18.7787 98.162 18.6183 98.0017C18.458 97.8413 18.458 97.5206 18.6183 97.3602C19.9012 95.7566 21.9859 94.7944 23.7499 93.9926L23.9103 93.8322C25.6743 93.0304 27.759 92.0683 29.8437 92.2286C30.4851 92.2286 31.2869 92.5493 31.768 92.7097C32.8906 93.0304 34.3338 93.5115 35.6167 94.3133C36.4185 94.7944 37.3807 95.4359 37.7014 96.398C37.8618 97.0395 37.8618 97.6809 37.3807 98.3224C37.06 99.1242 36.7392 99.2845 36.0978 99.2845Z" fill="#F09073"/>
<path d="M34.4958 89.1764C34.3354 89.1764 34.1751 89.1764 34.1751 89.0161C34.0147 88.8557 34.1751 88.535 34.3354 88.3746C34.6562 88.2143 34.6562 87.7332 34.4958 87.4124C34.3354 86.9314 33.8544 86.6106 33.3733 86.4503C33.2129 86.2899 33.0525 85.9692 33.2129 85.8088C33.3733 85.6485 33.694 85.4881 33.8544 85.6485C34.3354 85.9692 34.9769 86.4503 35.1373 86.9314C35.458 87.5728 35.458 88.535 34.6562 89.0161C34.6562 89.1764 34.6562 89.1764 34.4958 89.1764Z" fill="#F09073"/>
<path d="M35.7797 102.816C35.2986 102.976 34.8175 103.137 34.3364 103.297C31.4499 103.938 29.6859 103.297 27.922 105.863C26.4787 107.787 26.158 110.674 23.9129 111.957C23.7525 112.117 23.5922 112.117 23.4318 112.117C23.1111 112.117 22.9507 111.957 22.7904 111.796C18.6209 108.749 19.9038 103.778 23.1111 100.892C25.9976 98.3258 30.9688 97.2033 34.8175 98.4862C36.2608 98.9673 37.3833 100.892 36.4212 102.175C36.2608 102.495 35.9401 102.656 35.7797 102.816Z" fill="#F4A47C"/>
<path d="M34.9798 103.772C34.8194 103.772 34.6591 103.612 34.4987 103.451C34.4987 103.291 34.4987 102.97 34.8194 102.97C35.4609 102.81 36.1023 102.329 36.2627 101.687C36.4231 100.244 35.6212 99.1214 34.0176 98.8007C29.6878 97.8385 25.0373 99.4422 22.6319 102.81C22.4715 102.97 22.1508 103.131 21.9905 102.97C21.8301 102.81 21.6697 102.489 21.8301 102.329C24.3959 98.6404 29.3671 96.8764 34.0176 97.9989C36.1023 98.48 37.2249 99.9233 36.9041 101.848C37.0645 102.649 36.2627 103.451 34.9798 103.772C35.1402 103.772 35.1402 103.772 34.9798 103.772Z" fill="#F09073"/>
<path d="M32.8901 85.8088C33.8523 86.1295 34.4937 86.9313 34.173 87.5728C34.0127 88.2142 33.0505 88.2142 32.0883 87.8935C31.1261 87.5728 30.8054 86.9313 31.1261 86.2899C31.4469 85.6484 31.9279 85.4881 32.8901 85.8088Z" fill="#F7B692"/>
<path d="M35.7751 91.1039C36.7373 91.585 37.2183 92.3868 36.8976 93.0283C36.5769 93.6697 35.7751 93.6697 34.8129 93.1887C33.8507 92.7076 33.53 92.0661 33.8507 91.4247C34.1715 90.7832 34.8129 90.6229 35.7751 91.1039Z" fill="#F7B692"/>
<path d="M35.4566 95.1161C36.2584 95.4368 36.7395 96.2386 36.4188 96.7197C36.0981 97.2008 35.2963 97.2008 34.4944 96.8801C33.6926 96.5593 33.3719 95.9179 33.5323 95.4368C34.0134 94.9557 34.6548 94.7954 35.4566 95.1161Z" fill="#F7B692"/>
<path d="M34.6549 99.1297C35.4567 99.4505 36.0982 100.092 35.9378 100.733C35.7775 101.375 34.9757 101.375 34.0135 101.214C33.0513 101.054 32.7306 100.413 32.8909 99.7712C33.2117 99.1297 33.8531 98.809 34.6549 99.1297Z" fill="#F7B692"/>
<path d="M371.258 157.173C366.126 170.323 359.872 197.424 356.665 212.658C353.939 225.167 351.052 236.713 338.544 242.967C333.252 245.693 326.036 245.533 321.225 242.165C311.122 234.949 313.207 223.563 316.093 213.62C319.782 201.112 327.8 188.764 333.092 178.982C336.78 172.247 346.081 156.692 350.411 150.438C355.222 143.542 361.476 137.609 368.051 140.656C372.701 143.061 374.626 148.513 371.258 157.173Z" fill="#F4A47C"/>
<path d="M316.569 213.776L315.768 213.616C318.173 205.277 322.663 197.099 326.512 190.203L327.314 190.684C323.305 197.419 318.975 205.598 316.569 213.776Z" fill="#F09073"/>
<path d="M206.565 16.7034C207.687 24.8819 184.755 41.0785 171.445 43.0028C157.975 44.9272 155.569 33.2207 156.852 24.0801C157.975 15.9016 165.512 6.44026 178.982 4.51591C194.537 2.27084 205.442 8.52497 206.565 16.7034Z" fill="#6B4428"/>
<path d="M225.005 15.2573C229.174 23.2754 225.967 39.6324 212.496 41.5567C199.026 43.4811 177.698 30.9728 176.415 22.1529C175.132 13.333 186.838 3.06979 199.667 0.503989C212.977 -2.22217 220.514 6.59775 225.005 15.2573Z" fill="#6B4428"/>
<path d="M227.088 49.5759C226.607 51.1795 226.126 52.7831 225.484 54.3868C225.003 55.5093 224.682 56.6318 224.041 57.4336C223.4 58.2354 222.758 58.7165 222.117 58.3958C219.39 56.9525 222.437 45.5668 224.041 42.5199C225.003 40.756 226.126 40.1145 227.088 41.3974C228.371 43.1614 227.89 46.6894 227.088 49.5759Z" fill="#F4A47C"/>
<path d="M223.083 51.4918C223.083 51.4918 222.922 51.4918 223.083 51.4918C222.762 51.3314 222.602 51.1711 222.762 51.0107C223.404 49.0864 224.366 47.3224 225.328 45.8791C225.488 45.7188 225.809 45.7188 225.969 45.7188C226.13 45.8791 226.13 46.0395 226.13 46.3602C225.168 47.6431 224.366 49.4071 223.724 51.3314C223.404 51.3314 223.243 51.4918 223.083 51.4918Z" fill="#F09073"/>
<path d="M222.121 40.1089C221.8 36.5809 221.159 32.5719 221.159 28.7232C221.159 26.7988 221.159 24.3934 220.357 22.7898C214.905 11.2437 188.445 7.71572 182.672 8.67789C173.692 10.2815 170.645 12.2059 165.834 16.5356C163.589 18.6204 161.985 21.3465 161.023 23.9123C160.061 26.7988 159.419 29.2043 160.061 32.2511C161.344 38.6656 162.947 45.0801 163.91 51.4946C164.872 56.9469 167.117 63.3614 169.522 69.7759C172.248 77.1526 175.616 80.1995 179.304 83.7274C185.719 89.8212 197.746 90.3023 205.604 87.7365C220.518 82.9256 220.518 64.6443 222.281 54.0604C223.083 50.0514 222.442 44.1179 222.121 40.1089Z" fill="#F4A47C"/>
<path d="M171.929 20.7127C169.203 22.637 167.759 26.0046 168.882 29.0515C170.004 32.0984 170.967 33.5416 171.448 37.8714C171.608 40.2769 170.967 42.3616 170.806 44.4463C170.485 47.3328 170.325 56.9545 167.118 57.4356C161.986 58.2374 161.345 49.8986 160.543 47.3328C158.619 40.9183 155.572 38.6732 155.411 29.2119C155.251 22.7974 156.855 19.4298 159.581 14.9396C161.826 11.4117 170.806 4.67644 180.749 4.51608C196.624 4.19536 188.286 21.6748 183.154 20.2316C177.06 18.4676 174.334 18.9487 171.929 20.7127Z" fill="#6B4428"/>
<path d="M207.046 18.3C203.678 17.4982 200.792 17.819 194.538 17.3379C189.246 16.8568 187.963 5.47107 195.821 4.50889C205.763 3.226 214.102 6.91433 217.149 9.64048C220.998 13.1685 226.289 16.6964 227.412 21.3469C229.817 30.4876 225.808 33.6948 225.648 40.43C225.648 43.1562 224.365 46.2031 223.403 46.8445C221.96 47.486 222.601 42.5147 221.479 39.7886C220.677 37.8642 220.837 35.6192 219.073 33.5345C216.187 30.3272 216.668 29.2047 215.385 24.8749C214.583 21.5073 210.414 19.1019 207.046 18.3Z" fill="#6B4428"/>
<path d="M196.62 3.70975C206.563 1.62504 214.1 5.15301 220.675 12.5297C223.882 16.0576 224.684 21.991 221.316 25.6794C220.033 27.1226 217.788 28.5659 215.062 29.047C204.959 31.1317 189.404 20.5478 177.537 18.9442C170 17.982 186.518 5.79446 196.62 3.70975Z" fill="#6B4428"/>
<path d="M159.096 40.2663H158.936C158.775 40.1059 158.615 39.9456 158.775 39.7852C159.256 38.6627 160.379 37.8608 162.143 37.3798C165.19 36.4176 169.52 36.7383 171.444 38.0212C171.604 38.1816 171.765 38.3419 171.604 38.6627C171.444 38.823 171.284 38.9834 170.963 38.823C169.359 37.8609 165.35 37.3798 162.464 38.3419C161.502 38.6627 160.219 39.3041 159.738 40.2663C159.417 40.2663 159.257 40.2663 159.096 40.2663Z" fill="#BBB6A5"/>
<path d="M219.875 30.9649H219.715C219.555 30.8045 219.394 30.6442 219.555 30.3234C220.517 28.7198 222.602 28.0784 224.205 28.2387C225.328 28.3991 226.13 28.8802 226.45 29.5216C226.611 29.682 226.45 30.0027 226.13 30.0027C225.969 30.0027 225.648 30.0027 225.648 29.682C225.488 29.3613 224.847 29.0405 224.205 28.8802C222.922 28.7198 221.158 29.2009 220.357 30.4838C220.036 30.8045 220.036 30.9649 219.875 30.9649Z" fill="#BBB6A5"/>
<path d="M199.506 58.5549C199.346 58.5549 199.025 58.3946 199.025 58.2342C199.025 58.0738 199.186 57.7531 199.346 57.7531C200.308 57.7531 201.912 57.4324 202.714 57.272C203.034 57.272 203.516 56.3098 203.355 55.8288C203.195 54.7062 202.874 53.7441 202.714 52.7819C202.393 51.6593 202.233 50.6972 202.072 49.735C202.072 49.5746 202.233 49.2539 202.393 49.2539C202.553 49.2539 202.874 49.4143 202.874 49.5746C203.034 50.5368 203.195 51.499 203.516 52.6215C203.836 53.5837 203.997 54.5459 204.157 55.8288C204.317 56.6306 203.676 58.0738 202.874 58.2342C202.233 58.0738 200.469 58.3946 199.506 58.5549Z" fill="#F09073"/>
<path d="M187.477 50.8497C184.911 51.3308 182.666 50.8497 182.505 49.8875C182.345 48.9254 184.269 47.6425 186.835 47.1614C189.401 46.6803 191.646 47.1614 191.806 48.1236C191.967 49.2461 190.042 50.529 187.477 50.8497Z" fill="#F5F1F1"/>
<path d="M189.725 48.768C189.885 49.7302 189.244 50.6924 188.121 50.8527C187.159 51.0131 186.036 50.3716 185.876 49.4095C185.716 48.4473 186.357 47.4851 187.48 47.3247C188.602 47.004 189.564 47.6455 189.725 48.768Z" fill="#482812"/>
<path d="M182.184 50.3683C182.024 50.3683 182.024 50.3683 181.863 50.3683C181.703 50.2079 181.703 50.0475 181.703 49.7268C183.948 46.5196 190.042 45.8781 193.73 47.6421C193.891 47.8025 194.051 47.9628 193.891 48.1232C193.73 48.2836 193.57 48.4439 193.41 48.2836C190.042 46.8403 184.429 47.3214 182.345 50.2079C182.505 50.2079 182.345 50.3683 182.184 50.3683Z" fill="#482812"/>
<path d="M212.172 46.5216C209.606 47.0027 207.361 46.5216 207.201 45.5594C207.04 44.5973 208.965 43.3144 211.531 42.8333C214.096 42.3522 216.341 42.8333 216.502 43.7954C216.662 44.918 214.738 46.0405 212.172 46.5216Z" fill="#F5F1F1"/>
<path d="M214.416 44.2764C214.576 45.2386 213.935 46.2008 212.812 46.3611C211.85 46.5215 210.728 45.88 210.567 44.9179C210.407 43.9557 211.048 42.9935 212.171 42.8332C213.294 42.6728 214.256 43.3142 214.416 44.2764Z" fill="#482812"/>
<path d="M206.885 46.046C206.725 46.046 206.725 46.046 206.565 46.046C206.404 45.8857 206.404 45.7253 206.404 45.4046C208.329 42.5181 215.224 41.3955 218.431 43.3199C218.592 43.4802 218.752 43.6406 218.592 43.9613C218.431 44.1217 218.271 44.2821 217.95 44.1217C214.903 42.3577 208.649 43.4802 206.885 46.046C207.046 46.046 207.206 45.8857 206.885 46.046Z" fill="#482812"/>
<path d="M189.885 37.7069C190.366 37.0654 190.686 35.7825 189.403 34.4996C188.602 33.5374 186.677 33.8582 185.394 34.66C183.791 35.6222 181.706 37.3861 179.782 41.0745C179.461 41.5556 178.659 42.8385 179.14 43.6403C179.782 44.6024 180.744 44.2817 182.187 43.4799C184.753 41.8763 187.96 40.433 189.885 37.7069Z" fill="#6B4428"/>
<path d="M213.3 39.4612C214.423 39.4612 216.668 39.1405 217.47 38.3387C218.272 37.5369 217.79 36.4143 217.149 35.6125C215.545 33.6882 211.376 36.0936 208.971 34.49C207.848 33.6882 205.763 33.5278 205.122 34.1692C204.16 35.1314 204.961 36.8954 205.924 37.6972C207.207 38.6594 210.895 39.4612 213.3 39.4612Z" fill="#6B4428"/>
<path d="M212.339 59.3484C207.047 59.3484 202.557 55.4997 201.915 50.0474C201.595 47.3213 202.396 44.4347 204 42.1897C205.764 39.9446 208.17 38.5013 211.056 38.1806C216.829 37.5392 222.121 41.5482 222.762 47.3213C223.404 53.0943 219.395 58.3863 213.622 59.0277C213.141 59.3484 212.66 59.3484 212.339 59.3484ZM212.339 39.7842C212.018 39.7842 211.537 39.7842 211.216 39.7842C208.811 40.105 206.726 41.2275 205.283 43.1518C203.84 45.0762 203.198 47.3213 203.519 49.7267C204.16 54.6979 208.651 58.0655 213.461 57.5845C218.433 56.943 221.961 52.4529 221.319 47.642C220.678 43.1518 216.829 39.7842 212.339 39.7842Z" fill="white"/>
<path d="M188.929 62.2391C186.523 62.2391 184.278 61.4372 182.514 59.994C180.269 58.23 178.826 55.8246 178.505 52.938C178.185 50.2119 178.986 47.3254 180.59 45.0803C182.354 42.8352 184.759 41.392 187.646 41.0712C193.419 40.4298 198.711 44.4388 199.352 50.2119C199.994 55.9849 195.985 61.2769 190.212 61.9183C189.731 62.2391 189.41 62.2391 188.929 62.2391ZM188.929 42.6749C188.608 42.6749 188.127 42.6749 187.806 42.6749C185.401 42.9956 183.316 44.1181 181.873 46.0425C180.43 47.9668 179.788 50.2119 180.109 52.6173C180.43 55.0228 181.552 57.1075 183.476 58.5507C185.401 59.994 187.646 60.6354 190.051 60.3147C195.023 59.6733 198.551 55.1831 197.909 50.3723C197.268 46.0425 193.419 42.6749 188.929 42.6749Z" fill="white"/>
<path d="M198.546 50.6939C198.225 50.6939 197.744 50.3732 197.744 50.0524C197.744 49.5713 198.065 49.2506 198.386 49.2506L202.395 48.7695C202.876 48.7695 203.196 49.0903 203.196 49.411C203.196 49.8921 202.876 50.2128 202.555 50.2128L198.546 50.6939Z" fill="white"/>
<path d="M223.402 46.045H221.317C220.836 46.045 220.516 45.7243 220.516 45.2432C220.516 44.7621 220.836 44.4414 221.317 44.4414H223.402C223.883 44.4414 224.204 44.7621 224.204 45.2432C224.204 45.5639 223.883 46.045 223.402 46.045Z" fill="white"/>
<path d="M163.749 53.2589C163.428 53.2589 162.947 52.9381 162.947 52.6174C162.947 52.1363 163.108 51.8156 163.589 51.6552L179.144 49.4102C179.625 49.4102 179.946 49.5705 180.106 50.0516C180.106 50.5327 179.946 50.8534 179.465 51.0138L163.749 53.2589Z" fill="white"/>
<path d="M160.698 56.9466C161.179 58.7106 161.82 60.3142 162.622 61.9179C163.103 63.0404 163.745 64.3233 164.707 65.1251C165.669 66.0873 166.952 66.5684 168.235 66.408C174.168 65.2855 170.64 53.4187 168.235 50.2114C166.791 48.2871 164.867 47.4853 162.462 48.7682C159.415 50.3718 159.736 53.8998 160.698 56.9466Z" fill="#F4A47C"/>
<path d="M168.237 59.3547C168.076 59.3547 167.916 59.1943 167.916 59.0339C167.114 57.1096 165.831 55.3456 164.388 53.9023C164.227 53.742 164.227 53.4213 164.388 53.2609C164.548 53.1005 164.869 53.1005 165.029 53.2609C166.633 54.8645 167.916 56.6285 168.878 58.7132C168.718 58.8736 168.557 59.1943 168.237 59.3547C168.397 59.3547 168.237 59.3547 168.237 59.3547Z" fill="#F09073"/>
<path d="M198.224 35.7823C198.064 35.7823 197.903 35.6219 197.743 35.4616L197.102 32.4147C197.102 32.2543 197.262 31.9336 197.422 31.9336C197.583 31.9336 197.903 32.094 197.903 32.2543L198.545 35.3012C198.705 35.4616 198.545 35.6219 198.224 35.7823C198.384 35.7823 198.224 35.7823 198.224 35.7823Z" fill="#F09073"/>
<path d="M197.584 73.2975C196.943 73.2975 196.462 73.2975 195.821 73.1371C195.66 73.1371 195.66 72.9768 195.66 72.9768C195.66 72.8164 195.821 72.8164 195.821 72.8164C196.943 72.9768 198.066 72.9768 199.028 72.8164C199.188 72.8164 199.188 72.8164 199.188 72.9768C199.188 73.1371 199.188 73.1371 199.028 73.1371C198.707 73.1371 198.066 73.2975 197.584 73.2975Z" fill="#F09073"/>
<path d="M191.329 63.6815C190.047 63.8419 188.443 64.6437 188.283 66.087C188.122 67.6906 189.726 68.8131 191.169 69.4546C194.376 70.7375 198.065 71.3789 201.112 69.7753C202.715 68.8131 204.158 66.8888 203.357 64.9644C202.876 63.6815 201.432 62.8797 200.149 62.7194C198.546 62.559 197.263 63.0401 195.499 63.3608C193.895 63.3608 192.612 63.3608 191.329 63.6815Z" fill="#464F53"/>
<path d="M187.803 67.3781C187.002 68.5007 187.322 69.6232 190.209 70.1043C192.935 70.425 200.793 69.9439 201.434 69.4628C202.717 68.5007 202.076 67.3781 201.113 66.897C199.991 66.4159 198.708 66.4159 196.944 67.0574C195.501 65.7745 188.766 65.9349 187.803 67.3781Z" fill="#C84A4A"/>
<path d="M192.937 68.6635C194.38 68.8239 195.663 68.6635 197.107 68.6635C198.71 68.6635 200.314 68.022 201.917 68.5031C203.04 68.9842 202.559 71.0689 201.917 71.3897C200.314 72.1915 194.862 72.3518 191.334 70.9086C190.852 70.7482 190.532 69.9464 190.692 69.1446C190.852 68.6635 191.815 68.5031 192.937 68.6635Z" fill="white"/>
<path d="M190.369 64.3337C190.369 64.013 190.53 63.3715 190.85 63.2112C191.492 62.5697 198.868 61.7679 200.312 62.0886C200.632 62.0886 201.113 62.4094 201.274 62.8905C201.434 63.3715 201.434 64.1733 201.274 64.6544C200.953 65.1355 199.189 65.4562 198.548 65.4562C196.463 65.6166 194.218 65.6166 192.133 65.4562C191.812 65.4562 191.171 65.2959 191.011 65.1355C190.529 65.1355 190.369 64.6544 190.369 64.3337Z" fill="white"/>
<path d="M387.292 127.504L391.782 125.259C392.102 124.938 392.423 124.778 392.744 124.938L397.234 125.579C398.838 125.74 399.319 127.023 399.158 128.626C398.998 130.23 398.517 131.352 396.913 131.352H386.81C386.65 130.07 387.452 128.626 387.292 127.504Z" fill="#F09073"/>
<path d="M386.49 115.96C387.613 117.564 392.103 116.922 394.348 115.64L398.998 112.913C400.923 111.791 401.724 109.706 400.602 108.263C399.64 106.98 397.395 106.499 395.631 107.461L390.98 109.225C383.924 112.272 386.49 115.96 386.49 115.96Z" fill="#F4A47C"/>
<path d="M386.648 122.532C387.771 126.22 393.544 123.654 395.629 123.173C396.591 123.013 398.996 122.853 400.44 122.532C401.402 122.211 402.524 121.57 402.845 120.608C403.166 119.645 403.005 118.362 402.204 117.721C400.76 116.598 396.11 116.919 394.506 116.759C391.62 116.598 391.459 117.4 389.214 118.362C388.252 118.844 387.29 119.485 386.809 120.447C386.648 121.089 386.488 121.89 386.648 122.532Z" fill="#F4A47C"/>
<path d="M390.818 109.065L395.469 107.301C395.95 107.141 396.431 106.981 396.752 106.82C396.752 106.82 396.591 106.82 396.591 106.981C395.789 107.782 395.469 109.867 394.988 114.999L394.186 115.48C391.941 116.763 387.451 117.565 386.328 115.801C386.488 115.961 383.923 112.273 390.818 109.065Z" fill="#F09073"/>
<path d="M386.809 120.615C387.29 119.653 388.252 119.011 389.214 118.53C391.459 117.568 391.62 116.766 394.506 116.927C394.667 116.927 394.667 116.927 394.987 116.927C394.987 117.568 395.308 121.738 395.629 123.181C393.384 123.502 387.611 126.067 386.648 122.539C386.488 121.898 386.648 121.096 386.809 120.615Z" fill="#F09073"/>
<path d="M399.64 127.192C400.442 128.635 399.64 130.559 398.357 131.361C396.593 132.484 394.829 131.522 394.188 129.597C394.027 128.956 393.867 128.154 394.027 127.512C394.508 124.466 398.518 124.947 399.64 127.192Z" fill="#F4A47C"/>
<path d="M398.515 130.55C398.355 130.71 398.355 130.71 398.194 130.71C398.034 129.267 397.873 127.984 397.553 126.541C397.873 126.38 398.355 126.541 398.515 127.022C399.156 127.824 399.317 128.946 398.996 129.748C398.836 130.069 398.675 130.389 398.515 130.55Z" fill="#F0C2A6"/>
<path d="M355.7 129.273C354.898 125.585 357.945 127.188 359.709 123.66C361.313 120.132 373.5 115.802 380.877 113.237C389.216 110.35 387.933 123.821 389.216 129.273C389.537 130.235 389.857 131.358 390.178 132.32C390.338 132.801 390.018 133.763 390.018 134.084C389.857 135.206 389.697 136.329 389.537 137.451C389.537 137.612 389.376 137.772 389.376 137.932C389.216 138.093 389.216 138.253 389.056 138.413C388.414 139.055 388.895 140.017 388.254 140.498C385.046 142.904 382.16 145.79 379.113 148.356C375.425 151.563 371.736 156.214 366.124 155.091C363.237 154.61 360.351 153.167 359.068 150.601C357.464 147.233 356.823 143.705 356.502 140.017C356.181 137.291 356.021 134.565 355.861 132.48C355.54 131.358 356.021 130.395 355.7 129.273Z" fill="#F4A47C"/>
<path d="M386.168 137.604L389.696 134.236C389.856 133.916 390.177 133.755 390.498 133.595L394.346 132.793C395.95 132.472 397.393 133.595 397.714 135.199C398.035 136.642 396.752 138.566 395.469 139.047L387.611 140.651C387.13 139.689 386.649 138.566 386.168 137.604Z" fill="#F4A47C"/>
<path d="M361.315 121.896C361.796 121.094 362.918 120.613 363.88 120.613C364.843 120.613 365.805 120.774 366.607 121.094C370.295 122.538 373.663 125.103 377.672 125.424C385.048 126.066 390.661 129.914 390.34 134.084C392.746 134.565 395.151 134.886 397.717 135.046V135.206C398.038 136.65 396.755 138.574 395.472 139.055C394.83 139.215 394.189 139.215 393.708 139.376C393.387 139.536 393.066 139.536 392.585 139.536C392.104 139.696 391.623 139.696 391.142 139.857C390.982 139.857 390.821 139.857 390.501 139.857C390.18 139.857 390.02 139.696 389.859 139.536C386.973 137.451 383.284 138.093 379.917 138.093C376.709 138.093 373.342 138.413 370.135 138.895C367.889 139.215 365.805 138.253 364.362 136.489C361.796 133.282 361.154 128.471 361.315 124.622C361.154 123.66 360.834 122.698 361.315 121.896Z" fill="#F09073"/>
<path d="M388.252 132.797L364.037 132.637L362.273 129.27L388.252 132.797Z" fill="#C36E40"/>
<path d="M366.607 144.507C366.446 144.507 366.126 144.347 366.126 144.026C366.126 142.262 364.843 138.413 364.201 136.649C364.201 136.489 364.201 136.168 364.522 136.168C364.843 136.008 365.003 136.168 365.003 136.489C365.003 136.649 366.927 141.781 366.927 144.026C367.088 144.186 366.767 144.507 366.607 144.507Z" fill="#F09073"/>
<path d="M397.393 134.4C398.355 135.843 397.714 137.928 395.95 139.05C394.506 139.852 393.063 140.173 392.101 138.569C390.979 136.484 392.101 134.56 394.025 133.758C394.667 133.438 394.827 133.117 395.629 133.438C396.431 133.438 396.912 133.758 397.393 134.4Z" fill="#F4A47C"/>
<path d="M393.868 137.288C393.868 136.807 393.707 136.326 393.707 135.845C393.707 135.684 393.547 135.363 393.547 135.203C393.547 135.043 393.707 134.722 393.868 134.562C394.028 134.401 394.349 134.401 394.509 134.562C394.669 134.722 394.83 134.882 394.99 135.043C395.471 135.845 395.471 136.967 395.15 137.769C395.15 137.769 395.15 137.929 394.99 137.929H394.83C394.188 138.09 393.707 138.09 393.707 137.288C393.868 137.448 393.868 137.448 393.868 137.288Z" fill="#F0C2A6"/>
<path d="M368.531 155.412C368.37 155.412 368.049 155.412 367.889 155.412C366.927 155.412 365.965 155.412 364.842 155.091C364.682 155.091 364.521 154.77 364.521 154.61C364.521 154.449 364.842 154.289 365.003 154.289C365.965 154.61 366.767 154.61 367.729 154.61C367.889 154.61 368.21 154.61 368.37 154.61C368.531 154.61 368.851 154.77 368.851 155.091C369.012 155.251 368.851 155.412 368.531 155.412Z" fill="#F09073"/>
<path d="M353.94 125.417C354.742 123.012 355.704 120.286 356.666 116.758C356.826 116.277 356.987 115.796 357.308 115.315C358.27 113.871 358.911 112.749 359.713 110.343C359.873 109.702 359.873 109.06 360.194 108.579C360.515 108.098 361.156 107.617 361.798 107.778C362.279 107.938 362.6 108.419 362.76 108.9C364.203 112.268 361.637 119.003 361.637 119.003C361.637 119.003 361.477 123.172 361.477 124.936C361.477 128.785 364.845 135.841 365.005 137.605C365.165 140.491 365.326 141.614 366.127 144.501C365.967 144.982 365.646 145.463 365.486 145.944C364.203 148.83 362.76 151.717 361.317 154.443C357.949 153.16 355.383 153.802 352.016 152.679C352.497 148.349 352.817 139.85 352.817 133.917C352.497 131.03 352.978 128.144 353.94 125.417Z" fill="#F4A47C"/>
<path d="M359.869 108.909C360.029 108.428 360.51 108.268 360.671 108.589C361.312 109.23 360.991 110.192 360.831 110.673C360.51 111.475 360.19 112.117 359.067 112.437C358.746 112.437 358.586 112.437 358.586 112.277L359.869 108.909Z" fill="#F0C2A6"/>
<path d="M365.327 135.367L387.137 137.131C389.702 137.291 392.108 135.367 392.268 132.801L396.758 76.9948C396.919 74.429 394.994 72.0235 392.428 71.8632L370.619 70.0992C368.053 69.9388 365.648 71.8632 365.488 74.429L360.998 130.235C360.677 132.801 362.761 135.046 365.327 135.367Z" fill="#D8D5CE"/>
<path d="M365.164 89.0115L363.881 88.8512C363.561 88.8512 363.4 88.5305 363.4 88.2097L364.042 80.5123C364.042 80.1916 364.363 80.0312 364.683 80.0312L365.966 80.1916L365.164 89.0115Z" fill="#B8C1CC"/>
<path d="M396.112 82.6016C396.754 82.6016 397.075 83.243 397.075 83.8845L396.914 85.8088C396.914 86.1295 396.754 86.4503 396.433 86.771C396.273 86.9313 396.273 87.0917 396.433 87.2521C396.593 87.5728 396.754 87.8935 396.754 88.2142L396.593 90.1386C396.593 90.78 395.952 91.2611 395.471 91.2611H395.311L395.631 86.9313V86.771L396.112 82.6016Z" fill="#B8C1CC"/>
<path d="M365.165 74.4288L360.675 130.235C360.515 132.801 362.439 135.206 365.005 135.367L387.456 137.13C390.022 137.291 392.427 135.367 392.587 132.801L397.078 76.9947C397.238 74.4289 395.314 72.0234 392.748 71.8631L370.297 70.0991C367.731 69.7783 365.326 71.8631 365.165 74.4288ZM366.769 74.5892C366.929 72.8252 368.373 71.7027 370.137 71.8631L375.429 72.3441C375.268 73.627 376.23 74.9099 377.674 74.9099L384.73 75.5514C386.013 75.7118 387.295 74.7496 387.295 73.3063L392.587 73.7874C394.351 73.9478 395.474 75.391 395.314 77.155L390.823 132.961C390.663 134.725 389.22 135.848 387.456 135.687L365.005 133.923C363.241 133.763 362.119 132.32 362.279 130.556L366.769 74.5892Z" fill="#94A6B8"/>
<path d="M379.112 73.6342L385.205 74.1153C385.366 74.1153 385.366 74.1153 385.366 73.955V73.1532C385.366 72.9928 385.366 72.9928 385.205 72.9928L379.112 72.5117C378.951 72.5117 378.951 72.5117 378.951 72.6721V73.4739C378.951 73.6343 378.951 73.6342 379.112 73.6342Z" fill="#B8C1CC"/>
<path d="M377.673 73.6305C378.027 73.6305 378.314 73.3434 378.314 72.9891C378.314 72.6348 378.027 72.3477 377.673 72.3477C377.318 72.3477 377.031 72.6348 377.031 72.9891C377.031 73.3434 377.318 73.6305 377.673 73.6305Z" fill="#B8C1CC"/>
<path d="M362.275 130.23C362.115 131.994 363.398 133.437 365.001 133.597L387.452 135.361C389.216 135.522 390.659 134.239 390.82 132.635L395.31 76.8289C395.47 75.065 394.187 73.6217 392.584 73.4613L387.292 72.9803C387.131 74.2632 386.009 75.2253 384.726 75.2253L377.67 74.5839C376.387 74.4235 375.425 73.301 375.425 72.0181L370.133 71.537C368.369 71.3766 366.926 72.6595 366.765 74.2632L362.275 130.23Z" fill="#F6F4F4"/>
<path d="M388.892 75.2295C389.373 74.9088 389.854 75.0692 390.335 75.3899C390.495 75.5502 390.495 75.7106 390.335 75.7106L389.694 76.1917C389.533 76.3521 389.533 76.1917 389.373 76.1917L388.892 75.5502C388.731 75.5502 388.731 75.3899 388.892 75.2295Z" fill="#94A6B8"/>
<path d="M391.3 76.1891C391.477 76.1891 391.621 76.0453 391.621 75.868C391.621 75.6906 391.477 75.5469 391.3 75.5469C391.122 75.5469 390.979 75.6906 390.979 75.868C390.979 76.0453 391.122 76.1891 391.3 76.1891Z" fill="#94A6B8"/>
<path d="M392.419 76.1891C392.596 76.1891 392.74 76.0453 392.74 75.868C392.74 75.6906 392.596 75.5469 392.419 75.5469C392.241 75.5469 392.098 75.6906 392.098 75.868C392.098 76.0453 392.241 76.1891 392.419 76.1891Z" fill="#94A6B8"/>
<path d="M393.386 76.3532C393.563 76.3532 393.707 76.2094 393.707 76.032C393.707 75.8547 393.563 75.7109 393.386 75.7109C393.208 75.7109 393.064 75.8547 393.064 76.032C393.064 76.2094 393.208 76.3532 393.386 76.3532Z" fill="#94A6B8"/>
<path d="M371.095 73.9379C371.095 73.7776 371.255 73.6172 371.576 73.6172L373.34 73.7776C373.5 73.7776 373.661 73.9379 373.661 74.0983V74.419C373.661 74.5794 373.5 74.7397 373.34 74.7397L371.576 74.5794C371.416 74.5794 371.255 74.419 371.255 74.2586C371.095 74.2586 370.935 74.0983 371.095 73.9379C370.935 73.9379 370.935 74.0983 371.095 73.9379Z" fill="#94A6B8"/>
<g opacity="0.36">
<path opacity="0.36" d="M389.376 99.9266C389.376 99.9266 389.216 99.9266 389.376 99.9266L369.652 98.323C369.01 98.323 368.689 97.8419 368.689 97.2005C368.689 96.559 369.331 96.2383 369.812 96.2383L389.376 97.8419C390.018 97.8419 390.338 98.323 390.338 98.9644C390.338 99.6059 389.857 99.9266 389.376 99.9266Z" fill="#94A6B8"/>
</g>
<g opacity="0.36">
<path opacity="0.36" d="M388.896 105.856L369.171 104.253C368.53 104.253 368.209 103.772 368.209 103.13C368.209 102.489 368.85 102.168 369.332 102.168L388.896 103.772C389.537 103.772 389.858 104.253 389.858 104.894C389.858 105.375 389.377 105.856 388.896 105.856Z" fill="#94A6B8"/>
</g>
<g opacity="0.36">
<path opacity="0.36" d="M388.255 111.622L368.531 110.018C367.889 110.018 367.568 109.537 367.568 108.896C367.568 108.254 368.049 107.934 368.691 107.934L388.255 109.537C388.897 109.537 389.217 110.018 389.217 110.66C389.217 111.141 388.897 111.622 388.255 111.622Z" fill="#94A6B8"/>
</g>
<g opacity="0.36">
<path opacity="0.36" d="M387.935 117.403L368.21 115.8C367.569 115.8 367.248 115.318 367.248 114.677C367.248 114.036 367.729 113.715 368.371 113.715L387.935 115.318C388.576 115.318 388.897 115.8 388.897 116.441C388.897 116.922 388.416 117.403 387.935 117.403Z" fill="#94A6B8"/>
</g>
<path opacity="0.22" d="M390.499 93.3463L368.85 91.5823C368.53 91.5823 368.209 91.2615 368.209 90.9408L369.171 79.8758C369.171 79.5551 369.492 79.2344 369.813 79.2344L391.462 80.9984C391.782 80.9984 392.103 81.3191 392.103 81.6398L391.141 92.7048C391.141 93.0255 390.82 93.3463 390.499 93.3463Z" fill="#94A6B8"/>
<g opacity="0.36">
<path opacity="0.36" d="M380.075 122.047L367.888 121.245C367.567 121.245 367.246 120.764 367.246 120.122C367.246 119.481 367.567 119.16 367.888 119.16L379.915 119.962C380.235 119.962 380.556 120.443 380.556 121.085C380.717 121.566 380.396 122.047 380.075 122.047Z" fill="#94A6B8"/>
</g>
</svg>
