<svg width="70" height="64" viewBox="0 0 70 64" fill="none" xmlns="http://www.w3.org/2000/svg">
<path d="M65.0441 63.7125H4.25322C1.90641 63.7125 0 61.8061 0 59.4593V4.53837C0 2.19157 1.90641 0.285156 4.25322 0.285156H65.0441C67.3909 0.285156 69.2973 2.19157 69.2973 4.53837V59.4535C69.2973 61.8061 67.3909 63.7125 65.0441 63.7125Z" fill="#EDF1F4"/>
<path d="M34.3274 7.39453C33.7364 7.50463 33.1917 7.78856 32.6122 7.96819C24.5752 10.7496 16.5903 13.4846 8.5358 16.2544C8.4315 16.2892 8.25766 16.1559 8.19392 16.2313C7.71297 16.689 7.2552 17.2743 6.98285 17.9059C6.77425 18.1608 6.67574 18.5201 6.57723 18.833C6.49032 18.9663 6.43237 19.1343 6.43237 19.2908C6.4034 19.4067 6.37442 19.5226 6.35124 19.6385C6.32807 19.7544 6.30489 19.8702 6.28751 19.9861C6.27012 20.102 6.25274 20.2179 6.23535 20.3338C6.25274 20.2179 6.26433 20.102 6.28751 19.9861C6.31068 19.8702 6.32807 19.7544 6.35124 19.6385C6.37442 19.5226 6.4034 19.4067 6.43237 19.2908C5.87609 21.0755 6.08469 23.1268 6.75686 24.8594C6.77425 25.0796 6.86696 25.2882 6.98285 25.4736C7.02921 25.5489 7.06977 25.6242 7.11033 25.7054C7.06977 25.6242 7.02921 25.5489 6.98285 25.4736C7.07557 25.8155 7.26679 26.1458 7.45801 26.4471C7.68979 26.5224 7.97952 26.6325 8.22289 26.6499C8.24028 26.6499 8.25766 26.6499 8.27505 26.6499C8.29243 26.6499 8.30981 26.6499 8.3214 26.6499C8.73281 26.7948 9.18479 26.9106 9.61938 26.9686C9.64836 26.9802 9.67733 26.9918 9.7063 27.0034C9.85696 27.0613 10.0134 27.1019 10.1815 27.1424C10.3147 27.1714 10.448 27.2004 10.5813 27.2293C10.7146 27.2583 10.8478 27.2931 10.9753 27.3337C11.0101 27.3452 11.0391 27.3568 11.068 27.3684C11.097 27.38 11.1318 27.3916 11.1607 27.4032C11.1434 27.409 11.1202 27.4032 11.097 27.4032C11.0854 27.4032 11.0738 27.4032 11.068 27.409C11.0564 27.4148 11.0506 27.4206 11.0448 27.4264C10.871 27.4495 10.6798 27.4901 10.506 27.5423C10.448 27.5596 10.3959 27.5828 10.3495 27.606C10.3089 27.6118 10.2742 27.6176 10.2394 27.6408C9.99603 27.6466 9.58462 27.7856 9.32966 27.8668C9.28909 27.8725 9.25433 27.8783 9.21376 27.8841C9.13843 27.8957 9.0631 27.9131 8.98777 27.9305C8.91245 27.9479 8.83711 27.971 8.76178 27.9942C8.65169 28.029 8.54159 28.0638 8.4315 28.0985C8.38514 28.1043 8.34458 28.1101 8.29822 28.1217C8.03167 28.1681 7.75353 28.2318 7.51016 28.3187C7.4696 28.3303 7.42904 28.3477 7.38847 28.3651C7.12192 28.3998 6.85537 28.4926 6.60621 28.5679C6.55985 28.5737 6.5077 28.5795 6.45555 28.5911C6.32807 28.6085 6.20059 28.6374 6.09049 28.6838C6.06731 28.6954 6.04413 28.707 6.02675 28.7185C5.68487 28.7765 5.3372 28.8576 5.0127 28.9735C4.71138 29.0025 4.42745 29.1242 4.13193 29.1647C4.09137 29.1705 4.045 29.1763 4.00444 29.1763C3.89435 29.0546 3.8364 29.2111 3.77266 29.2922C2.42252 30.8336 1.45483 32.8501 1.60549 34.9361C1.57072 35.0173 1.57652 35.1505 1.5939 35.2838C1.5997 35.3186 1.60549 35.3475 1.60549 35.3823C1.61128 35.4171 1.61708 35.4461 1.62288 35.475C1.63446 35.533 1.64605 35.5909 1.65764 35.6315C1.84886 37.3698 2.68328 39.0792 3.88855 40.3598C5.0127 40.7944 6.13685 41.2696 7.27838 41.6578C7.13351 42.0519 6.42658 42.0055 6.22956 42.4401C5.39514 43.3151 4.82148 44.4624 4.63605 45.6503C4.49698 46.1081 4.50278 46.6991 4.54913 47.1337C4.60128 48.8605 5.42412 50.4714 6.42078 51.8447C9.23695 52.3372 12.0763 52.8124 14.8751 53.247C14.904 53.2586 14.933 53.2644 14.962 53.2759C15.0895 53.3107 15.2459 53.3339 15.4082 53.3571C15.4487 53.3629 15.4893 53.3687 15.5241 53.3687C15.6052 53.3745 15.6805 53.386 15.75 53.3918C19.0529 53.9655 22.3674 54.5276 25.6877 55.0433C25.7689 55.0607 25.85 55.0781 25.9369 55.0954C26.1919 55.1476 26.4526 55.1939 26.7134 55.2403C27.0668 55.2982 27.4203 55.3504 27.768 55.391C30.4335 55.8545 33.1164 56.3239 35.7993 56.7179C36.0368 56.8164 36.3787 56.857 36.6626 56.8686C39.3339 57.3553 42.0284 57.7725 44.7113 58.2187C51.6648 51.6245 58.5835 44.9955 65.5254 38.3839C65.9716 37.9667 65.5949 37.1497 65.0676 37.1381C64.9691 37.1381 64.8648 37.1612 64.7663 37.225C64.6968 37.2308 64.662 37.2134 64.6446 37.1786C64.6388 37.167 64.633 37.1554 64.6273 37.1439C64.6099 37.0917 64.6041 37.028 64.5693 36.9642C64.4013 36.5528 64.2854 36.1182 64.21 35.6836C64.1927 35.5967 64.1811 35.5098 64.1695 35.4229C64.1637 35.3765 64.1579 35.336 64.1521 35.2896C64.1347 35.1563 64.1231 35.023 64.1173 34.8898C64.1057 34.7101 64.0999 34.5363 64.0999 34.3567C64.0942 33.8236 64.1347 33.2847 64.1984 32.7632C64.3549 32.062 64.4013 31.2624 64.6852 30.6192C65.0908 30.2193 65.8731 29.8543 65.6877 29.1589C65.6529 28.846 65.3226 28.62 65.0213 28.6258C64.8822 28.6316 64.7547 28.678 64.6562 28.7939C64.5519 28.8576 64.4418 28.875 64.3201 28.875C64.3027 28.875 64.2796 28.875 64.2622 28.875C64.0768 28.8634 63.8855 28.8171 63.7117 28.8113C63.0743 28.7939 62.4021 28.6606 61.7763 28.6606C61.6894 28.6606 61.5967 28.6606 61.5098 28.6664C61.4866 28.6432 61.4692 28.62 61.446 28.6027C61.6778 28.1565 61.7126 27.5017 61.8517 26.9744C62.1761 26.8817 62.5586 26.8237 62.7788 26.5398C62.9526 26.2269 62.9178 25.717 62.5818 25.5315C62.5644 25.5142 62.5412 25.4968 62.518 25.4852C62.4311 25.4272 62.3326 25.3983 62.2283 25.3751C62.1993 25.3693 62.1761 25.3635 62.1472 25.3635C62.1182 25.3577 62.095 25.3577 62.066 25.3519C62.0371 25.3461 62.0081 25.3461 61.9849 25.3461C61.7647 25.3287 61.5329 25.3287 61.3359 25.2766C61.1621 25.1781 60.884 25.1723 60.6754 25.1549C60.461 25.0796 60.2292 25.0564 60.009 25.0448C59.8293 24.9463 59.5512 24.9463 59.3426 24.9347C59.0645 24.8652 58.7805 24.8072 58.4966 24.7609C58.2127 24.7145 57.9229 24.6797 57.639 24.6392C57.2913 24.5175 56.8509 24.4885 56.4743 24.4306C56.4337 24.4248 56.3468 24.4074 56.3004 24.4016C56.0976 24.3147 55.8137 24.3147 55.5819 24.2567C55.8369 24.1061 56.2309 24.0771 56.4743 23.8743C56.735 23.8279 57.0364 23.7294 57.2624 23.5904C57.9113 23.3991 58.5545 23.1326 59.1746 22.8718C59.4353 22.7849 59.7077 22.6922 59.98 22.5937C60.0727 22.5589 60.1596 22.53 60.2523 22.4952C60.6174 22.3561 60.9767 22.2113 61.3128 22.0606C61.3417 22.0606 61.3707 22.049 61.3997 22.0374C61.8285 21.881 62.3442 21.7825 62.6861 21.4927C62.9758 21.2841 62.9932 20.7974 62.773 20.525C62.7266 20.4265 62.6455 20.3512 62.5528 20.299C62.3963 20.2121 62.1993 20.1947 62.0371 20.2585C61.9154 20.2875 61.9907 20.131 61.9212 20.0731C61.3417 18.3463 61.1157 16.5268 61.3649 14.7131C61.3823 14.5856 61.3997 14.4639 61.4228 14.3364C61.4344 14.2727 61.446 14.2089 61.4576 14.151C61.6141 13.699 61.6778 13.1775 61.898 12.7371C62.2167 12.5575 62.6803 12.5575 62.8831 12.2156C63.0453 12.0244 63.0917 11.6825 62.941 11.4797C62.8715 11.1031 62.379 10.9582 62.0603 11.1088C52.8295 9.86881 43.564 8.57662 34.3274 7.39453ZM34.5245 7.46986C34.536 7.46986 34.5476 7.46986 34.5592 7.47565C34.565 7.47565 34.5708 7.47565 34.5766 7.47565C34.5766 7.47565 34.5766 7.47565 34.5708 7.47565C34.5592 7.47565 34.5418 7.47565 34.5302 7.46986C34.5302 7.47565 34.5245 7.47565 34.5245 7.46986ZM6.78584 18.3752C6.75107 18.4564 6.7221 18.5317 6.68733 18.607C6.7221 18.5317 6.75107 18.4564 6.78584 18.3752ZM6.17161 21.0407C6.16582 21.1566 6.16582 21.2783 6.16003 21.3942C6.16582 21.2783 6.16582 21.1566 6.17161 21.0407ZM6.16582 21.7477C6.17162 21.8636 6.17741 21.9853 6.1832 22.1012C6.17741 21.9853 6.17162 21.8636 6.16582 21.7477ZM7.40586 26.3138C7.42904 26.3544 7.45221 26.3891 7.48119 26.4239C7.45221 26.3891 7.42904 26.3544 7.40586 26.3138ZM4.28838 30.8104C4.18408 30.9553 4.08557 31.0943 3.98706 31.245C4.08557 31.0943 4.18408 30.9495 4.28838 30.8104ZM3.46555 32.1605C3.40761 32.2822 3.35545 32.4039 3.30909 32.5256C3.36125 32.4039 3.4134 32.2822 3.46555 32.1605ZM6.42658 44.416C6.38022 44.503 6.33386 44.5899 6.2933 44.6826C6.33386 44.5899 6.38022 44.503 6.42658 44.416ZM5.89347 45.9806C5.8587 46.195 5.83553 46.4094 5.82973 46.6238C5.83553 46.4094 5.8587 46.195 5.89347 45.9806ZM5.87609 47.4234C5.88768 47.5277 5.90507 47.6378 5.92825 47.7421C5.90507 47.6378 5.88768 47.5335 5.87609 47.4234Z" fill="#666666"/>
<path d="M65.0529 28.6369C64.9153 28.6405 64.7849 28.6912 64.6871 28.8035C64.4155 28.9701 64.0498 28.8288 63.7383 28.8144C63.1009 28.7962 62.4273 28.6659 61.8007 28.6622C61.7102 28.6622 61.6233 28.6622 61.5363 28.6695C61.406 29.6872 61.3154 30.7229 61.4603 31.7406C61.511 32.2476 61.6341 32.7438 61.7681 33.2327C62.7858 32.4142 63.7057 31.4654 64.7125 30.6252C65.1181 30.2232 65.9004 29.8574 65.7157 29.1656C65.6867 28.8578 65.3535 28.6296 65.0529 28.6369ZM57.6431 36.9702C56.5602 37.2925 55.4955 37.6945 54.4271 38.0676C47.126 40.5665 39.8321 43.1016 32.5382 45.6186C31.5857 45.9518 30.6259 46.2632 29.6843 46.6182C34.7038 47.3244 39.7306 47.9799 44.7502 48.6716C49.0418 44.7639 53.3841 40.9033 57.6431 36.9702ZM65.1036 37.1513C65.0058 37.1513 64.9044 37.1766 64.7994 37.2382C57.998 43.6774 51.251 50.1855 44.4423 56.6174C44.3772 56.7695 44.2178 56.7369 44.0838 56.6899C31.7849 54.6292 19.475 52.6011 7.17241 50.5476C6.2163 49.1388 5.55718 47.3678 5.98453 45.6584C6.15112 44.8943 6.51329 44.1519 7.04204 43.5833C9.6496 43.9056 12.2499 44.2967 14.8575 44.6227C13.0611 43.8658 11.2069 43.1885 9.38519 42.4751C8.68984 42.1998 7.99452 41.9173 7.29555 41.6638C7.15069 42.0622 6.44084 42.0115 6.2489 42.4461C5.41593 43.3225 4.84008 44.4669 4.659 45.6584C4.60467 46.151 4.55399 46.6471 4.5721 47.1433C4.6228 48.8672 5.44853 50.4824 6.44448 51.855C9.25847 52.3439 12.0978 52.822 14.9009 53.2602C15.1943 53.2783 15.4985 53.329 15.781 53.4014C19.0803 53.9773 22.4012 54.5386 25.7186 55.0493C26.414 55.1471 27.1166 55.2593 27.8011 55.3969C30.4702 55.8605 33.1466 56.3277 35.8302 56.7261C36.1199 56.7623 36.4133 56.8057 36.6958 56.8746C39.3685 57.3599 42.063 57.78 44.743 58.2254C51.6965 51.6305 58.6137 44.9993 65.5563 38.3899C66.0054 37.9806 65.6287 37.1585 65.1036 37.1513Z" fill="#E84394"/>
<path d="M61.7784 28.6602C61.6878 28.6602 61.6009 28.6602 61.514 28.6674C61.3836 29.6851 61.2931 30.7209 61.438 31.7385C62.4955 30.7426 63.6001 29.7865 64.6648 28.8014C64.3932 28.968 64.0274 28.8268 63.7159 28.8123C63.0785 28.7942 62.4049 28.6674 61.7784 28.6602ZM54.4012 38.0655C47.1 40.5644 39.8061 43.0995 32.5122 45.6165C36.4308 46.1272 40.3493 46.674 44.2643 47.1992C44.3512 47.2173 44.4055 47.1195 44.4671 47.0797C47.7772 44.0737 51.1236 41.0968 54.4012 38.0655ZM7.27319 41.6617C7.12832 42.0601 6.41851 42.0094 6.22656 42.444C6.42575 42.2738 6.61045 42.0311 6.91467 42.1325C7.72953 42.2484 8.55161 42.3426 9.36647 42.4693C8.6675 42.1977 7.97216 41.9152 7.27319 41.6617Z" fill="#E84394"/>
<path d="M55.4627 24.2812C55.3468 24.2885 55.2381 24.3392 55.1331 24.3863C48.1108 27.0409 41.0885 29.6956 34.0626 32.343C33.7076 32.4516 33.3744 32.6725 32.9978 32.6906C25.7727 30.9233 18.5512 29.1559 11.3261 27.3886C11.279 27.4031 11.232 27.4176 11.1813 27.4139C11.1414 27.4212 11.0907 27.4067 11.0618 27.4393C10.8553 27.5552 10.5946 27.5624 10.3664 27.6168C10.3266 27.6204 10.2903 27.6276 10.2578 27.6493C9.97527 27.7761 9.65292 27.8123 9.34871 27.8775C9.04449 27.9173 8.74028 28.0151 8.45056 28.1093C8.12461 28.2397 7.75521 28.294 7.40754 28.37C7.14316 28.4063 6.87518 28.4968 6.62529 28.5692C6.46231 28.6815 6.23415 28.667 6.04583 28.7177C5.70178 28.7757 5.35772 28.8553 5.03178 28.9749C4.73843 29.1125 4.39435 29.1378 4.07927 29.2175C4.06478 29.2066 4.03582 29.1885 4.02134 29.1813C3.90907 29.0582 3.85111 29.2175 3.78954 29.2972C2.43868 30.8364 1.4681 32.8536 1.62383 34.9396C1.64918 35.1714 1.67453 35.4032 1.67815 35.6386C1.8701 37.3806 2.70671 39.0864 3.90908 40.3648C5.0354 40.803 6.15448 41.2738 7.29528 41.665C7.99788 41.9185 8.6932 42.201 9.38492 42.4762C11.2066 43.1897 13.0609 43.8669 14.8572 44.6238C17.9899 45.79 21.0972 47.0394 24.219 48.2418C24.3784 48.3034 24.5414 48.3867 24.7188 48.3323C26.363 47.7384 28.0181 47.1734 29.6768 46.6157C30.6184 46.2608 31.5818 45.9529 32.5306 45.6161C39.8246 43.0991 47.1184 40.564 54.4196 38.0651C55.488 37.6884 56.5528 37.2901 57.6356 36.9677C58.6279 36.573 59.6565 36.2688 60.6597 35.903C61.2826 35.6857 61.9091 35.4793 62.5248 35.2511C62.934 35.0302 62.9666 34.4471 62.6841 34.1067C62.4958 33.9835 62.2785 33.8713 62.0467 33.9546C49.5812 38.2607 37.1156 42.5631 24.6536 46.8692C24.5667 46.8765 24.4871 46.8583 24.4074 46.8258C24.3168 46.7895 24.2263 46.7533 24.1358 46.7207C17.635 44.1856 11.1269 41.6722 4.62976 39.1335C3.10506 37.4096 2.41334 34.8382 3.27891 32.6472C3.51431 31.9808 3.88734 31.3724 4.30021 30.8038C11.0002 33.5707 17.7038 36.3231 24.4074 39.0791C36.8911 35.0447 49.3711 30.9812 61.862 26.9721C62.188 26.8779 62.5682 26.8236 62.7928 26.5375C62.963 26.2224 62.9304 25.719 62.5936 25.5307C62.2749 25.2627 61.7389 25.3786 61.3478 25.27C61.1232 25.2446 60.8987 25.2084 60.685 25.1504C60.4713 25.0744 60.2431 25.049 60.015 25.0382C59.7905 25.0128 59.5623 24.9875 59.345 24.9259C58.7909 24.781 58.2078 24.705 57.6392 24.6326C57.2517 24.5746 56.8534 24.5239 56.4767 24.4261C56.4332 24.4189 56.3463 24.4044 56.3065 24.3971C56.024 24.3935 55.7488 24.3102 55.4627 24.2812Z" fill="#2C72B7"/>
<path d="M55.114 24.3824C55.2191 24.3389 55.3277 24.2882 55.4436 24.2773C55.7297 24.3099 56.005 24.3896 56.2947 24.4005C56.3382 24.4077 56.4251 24.4222 56.4649 24.4294C56.8415 24.5272 57.2399 24.5779 57.6275 24.6359C58.196 24.7083 58.7791 24.7844 59.3332 24.9292C59.5505 24.9908 59.7787 25.0161 60.0032 25.0415C60.2278 25.0524 60.4595 25.0777 60.6732 25.1538C60.8869 25.2117 61.1114 25.2516 61.336 25.2733C61.7271 25.3819 62.2631 25.266 62.5818 25.534C62.4369 25.4616 62.2848 25.4037 62.1182 25.429C49.6165 29.5251 37.0966 33.6247 24.5912 37.7244C24.5151 37.7316 24.4463 37.6845 24.3775 37.6592C17.9998 35.0154 11.6222 32.3716 5.24091 29.7315C4.84978 29.5504 4.43329 29.4273 4.05664 29.2172C4.37172 29.1375 4.71577 29.1122 5.00912 28.9746C5.33506 28.8551 5.67911 28.7754 6.02317 28.7174C6.21149 28.6667 6.43965 28.6812 6.60262 28.5689C6.85251 28.4965 7.12053 28.406 7.38491 28.3698C7.73259 28.2937 8.10198 28.2394 8.42793 28.109C8.71403 28.0148 9.02186 27.9171 9.32608 27.8772C9.63029 27.812 9.94898 27.7758 10.2351 27.6491C10.2677 27.6273 10.3075 27.6201 10.3437 27.6165C10.5719 27.5621 10.8327 27.5549 11.0391 27.439C11.0681 27.4028 11.1188 27.4173 11.1586 27.4137C11.2093 27.4137 11.2564 27.3992 11.3035 27.3883C18.5286 29.152 25.7501 30.923 32.9752 32.6903C33.3518 32.6722 33.685 32.4549 34.0399 32.3427C41.0659 29.6916 48.0881 27.037 55.114 24.3824Z" fill="#2C72B7"/>
<path d="M34.2535 7.45703C34.2318 7.45703 34.21 7.45703 34.1919 7.45703C25.797 10.3905 17.3805 13.2552 8.97472 16.1525C8.80088 16.2141 8.62703 16.2865 8.43508 16.2901C8.35541 16.2756 8.27934 16.2539 8.20329 16.2322C7.72161 16.6885 7.26529 17.2752 6.99005 17.909C6.85605 18.2168 6.74019 18.5428 6.58446 18.8361C6.50116 18.9701 6.43959 19.1331 6.43959 19.2961C5.96154 21.1286 6.15705 23.0843 6.76186 24.8661C6.77635 25.087 6.87055 25.2934 6.98644 25.4782C7.17476 25.7787 7.27975 26.1337 7.48618 26.427C7.74694 26.5538 8.06207 26.532 8.32283 26.6588C8.73569 26.8037 9.18834 26.9195 9.62293 26.9811C10.1879 27.1006 10.7529 27.2383 11.3143 27.3867C18.5394 29.1505 25.7609 30.9214 32.986 32.6888C33.3626 32.6707 33.6958 32.4534 34.0507 32.3411C41.0766 29.6901 48.0989 27.0354 55.1212 24.3844C55.2262 24.341 55.3349 24.2903 55.4508 24.2794C55.7767 24.1128 56.128 23.9969 56.4721 23.8738C56.7292 23.7688 56.99 23.6529 57.258 23.5877C57.9026 23.3957 58.5473 23.1313 59.1738 22.867C59.8691 22.5664 60.5971 22.2984 61.3142 22.0521C61.3468 22.0521 61.3721 22.0449 61.4011 22.0268C61.8067 21.8022 62.2848 21.7262 62.6832 21.4799C62.9729 21.2698 62.9909 20.7809 62.7664 20.5129C62.5745 20.3101 62.2775 20.1725 62.0023 20.2993C52.3652 23.9353 42.7317 27.5787 33.0946 31.2184C32.9027 31.2691 32.6962 31.1749 32.5079 31.1315C24.4752 29.1722 16.4425 27.202 8.41337 25.2391C8.25402 25.25 8.26485 25.0725 8.20329 24.9784C7.41015 23.1748 7.12408 21.0525 7.85202 19.1838C8.02948 18.7311 8.2721 18.3037 8.54734 17.909C8.60166 17.7496 8.76829 17.8148 8.88418 17.8329C16.7901 19.727 24.6961 21.6284 32.602 23.5261C32.6962 23.537 32.7795 23.4826 32.8664 23.4537C42.7426 19.7886 52.6187 16.1272 62.4912 12.4621C62.6397 12.4114 62.7592 12.31 62.8751 12.2086C63.0344 12.0166 63.0851 11.6762 62.933 11.4734C62.7664 11.18 62.4079 10.9772 62.0783 11.1402C53.1112 9.9813 44.155 8.69924 35.1843 7.55844C34.8692 7.52584 34.5577 7.46066 34.2426 7.46066L34.2535 7.45703Z" fill="#21998D"/>
<path d="M34.1946 7.45808C34.5314 7.44722 34.8647 7.52328 35.2015 7.55587C44.1722 8.69668 53.1284 9.97873 62.0955 11.1376C62.1498 11.1847 62.4649 11.1449 62.3997 11.2535C52.5091 14.8788 42.6113 18.4823 32.7207 22.1111C32.6193 22.1437 32.507 22.1473 32.4092 22.1147C24.5286 20.2243 16.648 18.3229 8.76735 16.4324C8.65508 16.3962 8.51746 16.3962 8.44141 16.2912C8.62973 16.2876 8.80358 16.2151 8.98104 16.1536C17.3832 13.2563 25.8034 10.3916 34.1946 7.45808Z" fill="#21998D"/>
<path d="M34.328 7.39844C33.7341 7.51071 33.1908 7.78957 32.6114 7.97065C24.5714 10.752 16.5858 13.49 8.53495 16.2605C8.42992 16.2967 8.25971 16.1627 8.1909 16.2352C8.26695 16.2605 8.343 16.2786 8.42268 16.2931C8.611 16.2895 8.78483 16.2171 8.96229 16.1555C17.368 13.2582 25.7847 10.3935 34.1796 7.46C34.5164 7.44914 34.8495 7.5252 35.1864 7.55779C44.1571 8.6986 53.1133 9.98065 62.0804 11.1396C62.41 10.9766 62.7685 11.1758 62.9351 11.4727C62.8627 11.0997 62.3738 10.9512 62.055 11.1033C52.8236 9.86838 43.5595 8.57908 34.328 7.39844ZM62.8735 12.2116C62.7576 12.313 62.6345 12.4144 62.4896 12.4651C52.6135 16.1301 42.7374 19.7916 32.8649 23.4566C32.778 23.4856 32.6947 23.5363 32.6005 23.5291C24.6946 21.6314 16.7886 19.7336 8.88263 17.8359C8.76312 17.8178 8.59651 17.7526 8.54581 17.912C8.26694 18.3103 8.02431 18.7377 7.85047 19.1868C7.85409 19.1831 7.85771 19.1831 7.86495 19.1795C7.86133 19.1831 7.85771 19.1831 7.85047 19.1868C7.12615 21.0591 7.40862 23.1778 8.20176 24.9813C8.26332 25.0755 8.25247 25.253 8.41182 25.2421C16.4445 27.2086 24.4736 29.1752 32.5064 31.1345C32.6911 31.1815 32.8975 31.2721 33.0931 31.2214C42.7302 27.5853 52.3636 23.9383 62.0007 20.3022C62.276 20.1755 62.5729 20.3131 62.7649 20.5159C62.6381 20.2588 62.2941 20.1465 62.0297 20.2515C61.9102 20.2805 61.9862 20.1211 61.9138 20.0632C61.2764 18.1582 61.0664 16.141 61.4503 14.1419C61.606 13.6892 61.6712 13.1713 61.8921 12.7294C62.2072 12.552 62.6671 12.5556 62.8735 12.2116ZM6.98129 17.912C6.77123 18.1655 6.67706 18.524 6.57566 18.8391C6.73501 18.5457 6.84729 18.2198 6.98129 17.912ZM7.93376 19.1361H7.93014C7.93014 19.1361 7.93014 19.1361 7.93376 19.1361ZM7.91928 19.1397C7.91928 19.1397 7.91565 19.1397 7.91565 19.1433C7.91565 19.1433 7.91566 19.1397 7.91928 19.1397ZM7.90479 19.1469L7.90117 19.1506C7.90117 19.1506 7.90479 19.1506 7.90479 19.1469ZM7.87581 19.1687C7.87219 19.1723 7.86858 19.1723 7.86495 19.1759C7.86858 19.1723 7.87219 19.1723 7.87581 19.1687ZM6.43079 19.299C5.87307 21.0845 6.08312 23.1343 6.75311 24.8691C6.1483 23.0872 5.95274 21.1316 6.43079 19.299ZM62.6743 21.4865C62.276 21.7328 61.7943 21.8052 61.3923 22.0334C61.8197 21.8776 62.3375 21.7762 62.6743 21.4865ZM61.3054 22.0551C60.5883 22.3013 59.8604 22.5693 59.165 22.8699C59.8604 22.6418 60.6281 22.3629 61.3054 22.0551ZM57.2528 23.5906C56.9812 23.6558 56.7241 23.7717 56.4669 23.8768C56.7277 23.8297 57.0247 23.7319 57.2528 23.5906ZM56.4669 23.8768C56.1229 23.9999 55.7716 24.1122 55.4456 24.2824C55.7317 24.315 56.007 24.3946 56.2967 24.4055C56.0903 24.315 55.8114 24.3186 55.576 24.2606C55.8295 24.1049 56.2243 24.0759 56.4669 23.8768ZM56.4669 24.4309C56.8436 24.5286 57.2419 24.5793 57.6295 24.6373C57.2818 24.5142 56.8436 24.4888 56.4669 24.4309ZM59.3352 24.9306C59.5525 24.9922 59.7807 25.0176 60.0052 25.0429C59.8242 24.9451 59.5489 24.9451 59.3352 24.9306ZM60.6716 25.1552C60.8853 25.2131 61.1098 25.253 61.3344 25.2747C61.1641 25.1805 60.8853 25.1697 60.6716 25.1552ZM6.98129 25.4811C7.07545 25.8252 7.26739 26.1547 7.45209 26.459C7.71285 26.5459 8.06052 26.6763 8.31765 26.6618C8.0569 26.535 7.74182 26.5567 7.48106 26.43C7.27101 26.1366 7.16961 25.7781 6.98129 25.4811ZM61.8523 26.9805C49.3613 30.9932 36.8813 35.053 24.3976 39.0875C17.694 36.3278 10.9904 33.5754 4.29042 30.8121C3.87756 31.3807 3.50454 31.9892 3.26914 32.6555C2.40357 34.8466 3.09529 37.4179 4.61999 39.1418C11.1172 41.6806 17.6252 44.194 24.126 46.7291C24.097 46.6204 24.0644 46.5118 24.0354 46.4031C24.0644 46.5118 24.0934 46.6204 24.126 46.7291C24.2165 46.7653 24.3071 46.8015 24.3976 46.8341C24.4773 46.8667 24.5569 46.8848 24.6439 46.8776C37.1094 42.5715 49.575 38.269 62.0369 33.9629C62.2687 33.876 62.4824 33.9919 62.6743 34.115C62.9568 34.4555 62.9242 35.0385 62.515 35.2595C61.8993 35.4876 61.2728 35.6941 60.6499 35.9114C59.6467 36.2771 58.6182 36.585 57.6258 36.9761C53.3668 40.9092 49.0209 44.7698 44.7329 48.6775C39.7134 47.9858 34.6866 47.3303 29.667 46.6241C28.012 47.1818 26.3533 47.7468 24.7091 48.3407C24.5316 48.395 24.3686 48.3117 24.2093 48.2502C21.0874 47.0478 17.9801 45.7983 14.8474 44.6322C12.2398 44.3062 9.63954 43.9151 7.03198 43.5928C6.50323 44.1614 6.14106 44.9038 5.97447 45.668C5.54712 47.3774 6.20626 49.1483 7.16237 50.5571C19.465 52.6106 31.7712 54.6387 44.0738 56.6994C44.2041 56.7465 44.3635 56.7791 44.4323 56.6269C51.2409 50.1913 57.9844 43.6869 64.7894 37.2477C64.6083 37.2586 64.6662 37.1173 64.5902 36.9906C64.0469 35.6651 64.0433 34.1802 64.2172 32.7823C64.3765 32.0797 64.42 31.2829 64.7061 30.6383C63.6993 31.4785 62.7794 32.4274 61.7617 33.2458C61.6277 32.7569 61.5046 32.2608 61.4539 31.7537C61.309 30.7325 61.3995 29.7003 61.5299 28.6826C61.5082 28.6573 61.4865 28.6355 61.4647 28.6174C61.6784 28.1611 61.7146 27.5092 61.8523 26.9805ZM9.61418 26.9805C10.0741 27.1797 10.6681 27.2122 11.157 27.4151C11.2077 27.4151 11.2548 27.4006 11.3019 27.3897C10.7441 27.2376 10.1828 27.1 9.61418 26.9805ZM11.0375 27.4404C10.8057 27.473 10.5377 27.5273 10.3421 27.6179C10.5703 27.5635 10.8311 27.5563 11.0375 27.4404ZM10.2335 27.6505C9.99083 27.6577 9.57797 27.7953 9.32445 27.8786C9.62505 27.8134 9.94737 27.7772 10.2335 27.6505ZM8.4263 28.1104C8.07863 28.1611 7.69837 28.248 7.38329 28.3712C7.73096 28.2951 8.10036 28.2408 8.4263 28.1104ZM6.60464 28.574C6.4127 28.6029 6.18816 28.6247 6.02518 28.7225C6.20989 28.6718 6.44167 28.6826 6.60464 28.574ZM5.01113 28.9796C4.6707 29.0122 4.34837 29.1679 4.00069 29.186C4.01518 29.1933 4.04415 29.215 4.05864 29.2222C4.3701 29.139 4.71778 29.1136 5.01113 28.9796ZM61.7762 33.3328C61.7943 33.3943 61.816 33.4559 61.8378 33.5175C61.816 33.4559 61.7943 33.3943 61.7762 33.3328ZM61.874 33.608C61.8993 33.6696 61.9211 33.7275 61.95 33.7891C61.9211 33.7275 61.8957 33.666 61.874 33.608ZM1.59957 34.9444C1.53438 35.1074 1.61044 35.4731 1.6539 35.6434C1.65028 35.408 1.62493 35.1725 1.59957 34.9444ZM23.4379 41.9957C23.4342 42.1115 23.4342 42.2238 23.4342 42.3397C23.4342 42.2238 23.4379 42.1115 23.4379 41.9957ZM23.4451 42.6838C23.4487 42.7997 23.456 42.9119 23.4632 43.0278C23.4524 42.9119 23.4487 42.796 23.4451 42.6838ZM23.4849 43.3719C23.4958 43.4878 23.5067 43.6 23.5175 43.7159C23.5067 43.6 23.4958 43.4841 23.4849 43.3719ZM23.6081 44.3968C23.6262 44.5091 23.6443 44.6249 23.6624 44.7372C23.6443 44.6249 23.6262 44.5127 23.6081 44.3968ZM23.7602 45.2442C23.7819 45.3565 23.8073 45.4688 23.8326 45.5774C23.8073 45.4688 23.7855 45.3565 23.7602 45.2442ZM4.63447 45.6607C4.49685 46.117 4.50048 46.711 4.54756 47.1456C4.52945 46.6494 4.58015 46.1569 4.63447 45.6607ZM23.9087 45.9106C23.934 46.0193 23.963 46.1315 23.992 46.2402C23.963 46.1315 23.9376 46.0229 23.9087 45.9106ZM14.8764 53.2661C15.1009 53.3421 15.4703 53.3856 15.7564 53.4073C15.4739 53.3349 15.1697 53.2842 14.8764 53.2661ZM25.6941 55.0588C26.3496 55.2073 27.0848 55.3268 27.7765 55.4065C27.0921 55.2688 26.3931 55.153 25.6941 55.0588ZM35.8129 56.7356C36.0483 56.8334 36.396 56.8732 36.6785 56.8841C36.396 56.8153 36.1026 56.7718 35.8129 56.7356Z" fill="#E6E2DE"/>
<path d="M34.3278 7.39844C33.7338 7.51071 33.1906 7.78957 32.6111 7.97065C24.5711 10.752 16.5855 13.49 8.53829 16.2605C8.43327 16.2967 8.26305 16.1627 8.19424 16.2352C8.2703 16.2605 8.34635 16.2786 8.42602 16.2931C8.61435 16.2895 8.78818 16.2171 8.96564 16.1555C17.3714 13.2582 25.788 10.3935 34.1829 7.46C34.5197 7.44914 34.8529 7.5252 35.1897 7.55779C44.1604 8.6986 53.1167 9.98064 62.0838 11.1396C62.4133 10.9766 62.7719 11.1758 62.9385 11.4727C62.866 11.0997 62.3771 10.9512 62.0584 11.1033C52.8269 9.86838 43.5629 8.57908 34.3278 7.39844ZM61.4463 14.1419C51.7368 17.7309 42.0418 21.3634 32.3359 24.9596C32.1258 27.0239 32.4373 29.1172 32.9334 31.1272C32.9371 31.2105 33.0204 31.2105 33.0855 31.2214C42.7226 27.5853 52.3561 23.9383 61.9932 20.3022C62.2685 20.1755 62.5654 20.3131 62.7574 20.5159C62.6306 20.2588 62.2866 20.1465 62.0222 20.2515C61.9027 20.2805 61.9787 20.1211 61.9063 20.0632C61.2725 18.1582 61.0625 16.141 61.4463 14.1419ZM6.981 17.912C6.77095 18.1655 6.67678 18.524 6.57538 18.8391C6.73111 18.5457 6.847 18.2198 6.981 17.912ZM7.94796 19.1324C7.91175 19.1324 7.87916 19.1687 7.84656 19.1868C7.12224 21.0591 7.40474 23.1778 8.19787 24.9813C8.25943 25.0755 8.24856 25.253 8.40791 25.2421C16.4406 27.2086 24.4697 29.1752 32.5025 31.1345C32.5713 31.1272 32.6908 31.12 32.6401 31.0222C32.1403 29.0556 31.9411 27.0203 32.0172 24.9922C24.0062 23.0257 15.9843 21.0881 7.96607 19.1361C7.95521 19.1324 7.95158 19.1324 7.94796 19.1324ZM6.43051 19.299C5.87279 21.0845 6.08283 23.1343 6.75283 24.8691C6.1444 23.0872 5.95246 21.1316 6.43051 19.299ZM62.6741 21.4865C62.2757 21.7328 61.794 21.8052 61.392 22.0334C61.8194 21.8776 62.3373 21.7762 62.6741 21.4865ZM61.3051 22.0551C60.588 22.3013 59.8601 22.5693 59.1647 22.8699C59.8601 22.6418 60.6279 22.3629 61.3051 22.0551ZM57.2525 23.5906C56.9809 23.6558 56.7238 23.7717 56.4666 23.8767C56.7274 23.8297 57.0244 23.7319 57.2525 23.5906ZM56.4666 23.8767C56.1226 23.9999 55.7713 24.1122 55.4453 24.2824C55.7314 24.315 56.0067 24.3946 56.2964 24.4055C56.09 24.315 55.8111 24.3186 55.5757 24.2606C55.8292 24.1049 56.224 24.0759 56.4666 23.8767ZM56.4666 24.4309C56.8433 24.5286 57.2417 24.5793 57.6292 24.6373C57.2815 24.5142 56.8433 24.4888 56.4666 24.4309ZM59.335 24.9306C59.5523 24.9922 59.7804 25.0176 60.005 25.0429C59.8239 24.9451 59.5486 24.9451 59.335 24.9306ZM60.6713 25.1552C60.885 25.2131 61.1095 25.253 61.3341 25.2747C61.1639 25.1805 60.885 25.1697 60.6713 25.1552ZM6.981 25.4811C7.07517 25.8252 7.26711 26.1547 7.45181 26.459C7.71257 26.5459 8.06024 26.6763 8.31737 26.6618C8.05662 26.535 7.74153 26.5567 7.48078 26.43C7.27073 26.1366 7.16933 25.7781 6.981 25.4811ZM9.6139 26.9805C10.0738 27.1797 10.6678 27.2122 11.1567 27.4151C11.2074 27.4151 11.2545 27.4006 11.3016 27.3897C10.7475 27.2376 10.1825 27.1 9.6139 26.9805ZM11.0372 27.4404C10.8054 27.473 10.5374 27.5273 10.3418 27.6179C10.57 27.5635 10.8344 27.5563 11.0372 27.4404ZM10.2332 27.6505C9.99055 27.6577 9.57769 27.7953 9.32417 27.8786C9.62839 27.8134 9.94709 27.7772 10.2332 27.6505ZM8.42602 28.1104C8.07835 28.1611 7.69809 28.248 7.38301 28.3712C7.73068 28.2951 8.1037 28.2408 8.42602 28.1104ZM6.60436 28.574C6.41242 28.6029 6.18788 28.6247 6.0249 28.7225C6.21323 28.6718 6.44139 28.6826 6.60436 28.574ZM61.45 28.6066C48.9699 32.7823 36.5043 36.9978 24.0279 41.1844C23.9084 41.2279 23.702 41.2568 23.749 41.4343C23.5535 43.2596 23.9808 45.0776 24.3937 46.8341C24.4734 46.8667 24.553 46.8848 24.64 46.8776C37.1055 42.5715 49.5711 38.269 62.0331 33.9629C61.9099 33.7311 61.8194 33.4885 61.7433 33.2386C61.6093 32.7497 61.4862 32.2535 61.4355 31.7465C61.2906 30.7252 61.3811 29.6931 61.5115 28.6754C61.4934 28.65 61.4717 28.6283 61.45 28.6066ZM5.01085 28.976C4.67042 29.0086 4.34809 29.1643 4.00041 29.1824C4.0149 29.1896 4.04387 29.2114 4.05836 29.2186C4.37344 29.1389 4.7175 29.1136 5.01085 28.976ZM3.26886 32.6555C2.40329 34.8466 3.09501 37.4179 4.61971 39.1418C11.1169 41.6806 17.6249 44.194 24.1257 46.7291C23.6404 45.0088 23.3253 43.1292 23.4774 41.3112C16.763 38.3813 9.99056 35.5709 3.26886 32.6555ZM64.206 32.775C63.6845 33.2024 63.2282 33.7456 62.6741 34.1114C62.9566 34.4518 62.924 35.0349 62.5147 35.2558C61.899 35.484 61.2725 35.6904 60.6496 35.9077C60.6786 35.962 60.6713 36.0164 60.6206 36.0562C55.1592 41.083 49.6689 46.0881 44.2147 51.1185C43.7693 52.922 43.8236 54.856 44.4248 56.6197C51.2334 50.1841 57.9768 43.6797 64.7818 37.2405C64.6008 37.2513 64.6587 37.1101 64.5827 36.9833C64.0358 35.6578 64.0322 34.173 64.206 32.775ZM1.59567 34.9444C1.53048 35.1074 1.60653 35.4731 1.64999 35.6434C1.64637 35.408 1.62102 35.1762 1.59567 34.9444ZM5.9597 45.6607C5.53235 47.3701 6.1915 49.1411 7.1476 50.5499C19.4502 52.6033 31.7564 54.6314 44.059 56.6921C44.0916 56.6885 44.1242 56.674 44.1459 56.6523C43.5447 54.8994 43.5411 52.9872 43.8852 51.18C37.5944 50.2638 31.3037 49.3475 25.0094 48.4385C24.9152 48.3986 24.7559 48.4349 24.6943 48.3371C24.5168 48.3914 24.3538 48.3081 24.1945 48.2465C24.1402 48.2755 24.0859 48.3153 24.0207 48.2936C18.0016 47.4172 11.9752 46.5589 5.9597 45.6607ZM4.62696 45.6607C4.48934 46.117 4.49296 46.711 4.54004 47.1456C4.52194 46.6494 4.57264 46.1569 4.62696 45.6607ZM14.8725 53.2661C15.097 53.3421 15.4664 53.3856 15.7525 53.4073C15.47 53.3349 15.1658 53.2842 14.8725 53.2661ZM25.6902 55.0588C26.3457 55.2073 27.0809 55.3268 27.7727 55.4065C27.0882 55.2688 26.3856 55.1529 25.6902 55.0588ZM35.809 56.732C36.0444 56.8298 36.3921 56.8696 36.6746 56.8805C36.3921 56.8116 36.0987 56.7682 35.809 56.732Z" fill="#F6F4F4"/>
</svg>
