<svg width="70" height="64" viewBox="0 0 70 64" fill="none" xmlns="http://www.w3.org/2000/svg">
<path d="M65.0441 63.7106H4.25322C1.90642 63.7106 0 61.8042 0 59.4574V4.54228C0 2.19548 1.90642 0.289062 4.25322 0.289062H65.0441C67.3909 0.289062 69.2973 2.19548 69.2973 4.54228V59.4574C69.2973 61.8042 67.3909 63.7106 65.0441 63.7106Z" fill="#EDF1F4"/>
<path fill-rule="evenodd" clip-rule="evenodd" d="M54.6841 51.9634C54.6841 55.7009 45.6214 58.7314 34.4495 58.7314C23.2718 58.7314 14.2148 55.7009 14.2148 51.9634V45.1953H34.4495H54.6841V51.9634Z" fill="#78838B"/>
<path fill-rule="evenodd" clip-rule="evenodd" d="M54.6844 51.9634C54.6844 54.4608 50.6398 56.6396 44.625 57.8101V45.1953H54.6844V51.9634Z" fill="#94A6B8"/>
<path fill-rule="evenodd" clip-rule="evenodd" d="M28.1557 58.3988C23.607 57.9005 19.771 56.8806 17.2793 55.5479V46.5547H28.1557V58.3988Z" fill="#94A6B8"/>
<path fill-rule="evenodd" clip-rule="evenodd" d="M34.4495 51.9619C45.5982 51.9619 54.6841 48.9198 54.6841 45.1938C54.6841 41.4679 45.5924 38.4258 34.4495 38.4258C23.3065 38.4258 14.2148 41.4679 14.2148 45.1938C14.2091 48.9255 23.3007 51.9619 34.4495 51.9619Z" fill="#B8C1CC"/>
<path fill-rule="evenodd" clip-rule="evenodd" d="M50.4182 44.6444H18.4785V19.9305C18.4785 12.6699 25.6638 6.73047 34.4484 6.73047C43.2329 6.73047 50.4182 12.6699 50.4182 19.9305V44.6444Z" fill="#FFF377"/>
<path fill-rule="evenodd" clip-rule="evenodd" d="M50.4182 44.6434H18.4785V41.0391C22.1812 39.4514 27.9584 38.4258 34.4484 38.4258C40.9383 38.4258 46.7155 39.4456 50.4182 41.0391V44.6434Z" fill="#FFCC02"/>
<path d="M34.4484 49.6727C43.2682 49.6727 50.4182 47.4208 50.4182 44.643C50.4182 41.8652 43.2682 39.6133 34.4484 39.6133C25.6285 39.6133 18.4785 41.8652 18.4785 44.643C18.4785 47.4208 25.6285 49.6727 34.4484 49.6727Z" fill="#E2C103"/>
<path fill-rule="evenodd" clip-rule="evenodd" d="M34.4491 46.5071C39.9365 46.5071 44.4157 42.8044 44.4157 38.2672C44.4157 33.7301 39.9365 30.0273 34.4491 30.0273C28.9616 30.0273 24.4824 33.7301 24.4824 38.2672C24.4824 42.8044 28.9558 46.5071 34.4491 46.5071Z" fill="#FDFFD7"/>
<path fill-rule="evenodd" clip-rule="evenodd" d="M34.4499 38.4336C38.0426 38.4336 41.415 38.7465 44.3413 39.297C43.727 43.359 39.5376 46.5054 34.4499 46.5054C29.3681 46.5054 25.1728 43.359 24.5586 39.297C27.4849 38.7465 30.8573 38.4336 34.4499 38.4336Z" fill="#FCEB64"/>
<path fill-rule="evenodd" clip-rule="evenodd" d="M34.4498 39.6211C38.0308 39.6211 41.3395 39.9919 44.005 40.6178C42.7824 44.0192 38.9695 46.505 34.4498 46.505C29.9358 46.505 26.1172 44.025 24.8945 40.6178C27.56 39.9919 30.8629 39.6211 34.4498 39.6211Z" fill="#FDE739"/>
<path fill-rule="evenodd" clip-rule="evenodd" d="M34.4494 44.3421C36.9411 44.3421 38.975 42.6616 38.975 40.5988C38.975 38.5359 36.9411 36.8555 34.4494 36.8555C31.9577 36.8555 29.9238 38.5359 29.9238 40.5988C29.918 42.6616 31.9519 44.3421 34.4494 44.3421Z" fill="#FDF9D1"/>
<path fill-rule="evenodd" clip-rule="evenodd" d="M39.1372 39.2222C39.566 39.2222 39.9136 39.5061 39.9136 39.8653C39.9136 40.2188 39.566 40.5085 39.1372 40.5085C38.7084 40.5085 38.3607 40.2188 38.3607 39.8653C38.3607 39.5061 38.7084 39.2222 39.1372 39.2222ZM37.225 36.3828C36.2746 36.3828 35.5098 37.0202 35.5098 37.8025C35.5098 38.5847 36.2804 39.2222 37.225 39.2222C38.1753 39.2222 38.9401 38.5847 38.9401 37.8025C38.9401 37.0202 38.1695 36.3828 37.225 36.3828Z" fill="white"/>
</svg>
