<svg width="380" height="466" viewBox="0 0 380 466" fill="none" xmlns="http://www.w3.org/2000/svg">
<path d="M149.699 54.6656C148.895 48.5039 147.958 42.3422 147.154 36.3144C146.618 31.894 146.618 27.4737 148.36 23.1873C150.771 19.1688 152.378 14.3466 157.736 13.0071C158.406 12.8731 158.406 12.2034 158.406 11.6676C158.674 7.51511 161.353 5.37191 164.701 3.7645C170.863 0.683648 177.561 -0.120053 184.124 0.0138976C194.706 0.281798 205.422 1.3534 215.469 5.23796C220.827 7.38116 225.783 10.0602 227.658 16.0879C227.926 16.8916 228.462 17.6953 229.265 18.2311C231.409 19.5706 232.748 21.7138 233.686 23.991C235.293 31.3582 233.686 38.7255 232.614 45.9588C232.212 48.9057 231.543 51.8526 231.007 54.6656C230.605 56.8088 229.265 58.6841 229.801 60.9612C229.801 61.8989 229.801 62.7026 229.667 63.6402C229.399 65.2477 229.132 66.7211 228.328 68.0606C227.792 69.1322 226.988 69.9359 225.649 69.802C224.175 69.668 224.041 68.4624 223.907 67.2569C223.64 63.7742 223.773 60.2915 223.773 56.9427C223.773 49.5755 224.175 42.3422 221.63 35.1089C220.425 31.6261 220.693 27.6076 222.568 24.1249C223.104 23.1873 223.64 22.1157 223.506 20.9101C223.372 19.0348 222.568 18.2311 220.693 18.9009C220.425 19.0348 220.291 19.0348 220.157 19.1688C210.245 25.8663 199.395 24.6607 188.545 22.5175C185.866 21.9817 183.187 20.3743 180.508 22.9194C179.57 23.857 177.695 23.3212 176.221 22.9194C172.605 22.1157 169.122 21.0441 165.907 19.0348C163.63 17.6953 162.826 18.2311 162.558 20.7762C162.29 23.991 160.817 26.67 158.674 29.0811C156.798 31.2243 155.995 33.6354 155.995 36.4484C155.995 45.9588 155.727 55.6032 156.397 65.1137C156.397 65.5155 156.53 66.0514 156.397 66.4532C156.263 67.9267 155.861 69.5341 154.119 69.802C152.378 70.0699 151.708 68.4625 151.172 67.123C150.905 66.4532 150.771 65.6495 150.637 64.8458C150.637 63.2384 149.967 61.631 149.967 60.0236C150.637 58.4162 149.565 56.6748 149.699 54.6656Z" fill="#653F28"/>
<path d="M70.8028 131.685C89.02 125.255 106.701 117.486 126.526 116.816C134.161 116.548 141.662 117.352 149.164 117.218C151.039 117.218 151.575 116.816 151.843 114.941C153.182 107.707 155.593 105.296 161.755 104.895C162.693 105.564 162.693 106.636 162.693 107.574C162.961 113.199 164.702 118.29 167.649 122.978C173.944 133.292 179.838 143.74 186.134 154.054C186.536 154.724 186.938 155.394 187.339 156.064C189.081 158.609 190.42 158.609 192.028 155.93C195.778 149.768 199.395 143.472 203.146 137.177C206.36 131.952 209.307 126.594 212.522 121.37C214.799 117.62 216.005 113.735 216.005 109.315C216.005 107.574 215.737 105.698 218.014 104.895C223.774 105.564 226.185 109.449 226.721 114.673C226.989 117.084 228.06 117.754 230.204 117.486C251.502 115.075 272.398 117.218 292.49 125.255C298.25 127.532 304.144 129.407 310.038 131.551C309.904 132.354 309.234 132.89 308.564 133.292C298.92 139.186 291.821 147.625 286.061 157.269C285.257 158.743 284.453 160.216 283.114 161.288C279.631 163.163 275.747 163.699 271.996 164.904C267.844 166.244 263.691 167.449 259.539 168.655C255.654 169.191 251.77 168.387 247.885 167.985C241.991 167.315 236.767 169.191 231.409 171.2C229.668 171.87 228.73 173.343 229.266 175.218C229.936 177.496 229.266 179.371 228.328 181.246C228.06 182.318 227.391 183.255 226.587 184.059C219.488 190.891 216.005 199.731 212.12 208.572C209.173 215.136 205.959 221.699 202.342 227.861C201.672 229.066 200.868 230.406 199.529 231.076C197.654 231.344 196.716 229.87 195.778 228.798C190.286 222.771 183.589 218.082 177.427 212.858C183.455 218.35 190.286 223.039 195.778 229.2C196.716 230.138 197.788 230.942 198.323 232.281C198.323 233.085 197.922 233.889 197.386 234.29C193.635 237.237 192.831 240.72 194.975 244.873C193.501 247.552 191.09 248.891 188.545 250.231C186.402 250.766 184.259 251.57 181.848 250.9C180.776 249.829 180.508 248.355 180.508 246.882C180.106 237.237 177.159 228.263 172.873 219.824C169.122 212.323 166.041 204.553 162.559 196.918C157.469 185.667 149.298 177.763 137.51 173.879C127.196 170.53 116.882 167.583 106.567 164.502C103.888 163.699 101.076 163.297 98.7984 161.555C94.9138 154.59 90.7614 148.027 84.8676 142.535C81.3849 139.186 77.6342 136.373 73.3478 134.23C72.2762 133.694 70.6688 133.426 70.8028 131.685Z" fill="#E84394"/>
<path d="M329.995 208.839C332.808 216.474 332.942 224.377 332.54 232.28C331.871 244.469 331.335 256.525 330.665 268.714C329.861 285.056 329.058 301.398 328.254 317.874C327.986 322.428 328.522 326.983 327.45 331.537C327.049 331.403 326.781 331.135 326.647 330.733C323.432 326.313 318.476 325.643 313.654 324.973C296.776 322.696 280.702 326.715 264.628 330.599C262.083 331.269 259.404 331.939 256.859 332.609C254.715 333.278 253.644 332.341 253.51 330.197C253.242 327.117 254.046 324.036 254.046 320.955C253.778 309.971 254.581 299.121 254.983 288.271C255.385 277.153 255.519 266.035 256.725 254.917C256.993 252.64 256.725 250.229 256.859 247.684C256.591 249.158 256.859 250.497 256.323 251.703C256.189 251.97 255.921 252.238 255.653 252.372C253.644 250.497 253.108 247.952 253.912 245.541C255.117 241.254 254.983 240.853 250.697 239.379C249.357 238.709 248.286 237.504 247.348 236.432C244.267 231.342 244.937 228.529 250.027 225.314C252.036 225.984 253.51 225.448 254.314 223.305C258.6 211.384 268.11 207.901 279.496 207.231C281.372 207.097 283.247 207.097 285.122 206.695C298.383 206.963 311.778 207.901 325.039 207.633C326.513 207.633 328.522 207.231 329.995 208.839Z" fill="#2C72B6"/>
<path d="M218.013 105.032C216.673 106.371 216.807 108.112 216.807 109.72C216.807 114.006 215.602 117.757 213.458 121.374C206.359 133.295 199.394 145.083 192.428 157.004C190.821 159.817 188.678 159.951 186.936 157.004C179.971 145.485 173.139 133.831 166.308 122.311C163.093 116.953 161.888 111.059 161.888 104.764C162.155 103.29 161.218 102.219 160.548 101.147C159.075 98.602 157.467 96.0569 156.128 93.244C155.056 90.9668 154.252 88.8236 151.439 87.752C149.296 86.9483 148.359 84.6712 148.493 82.1261C148.76 78.3755 147.689 75.1607 145.412 72.2138C142.331 68.3292 142.063 63.507 142.599 58.8188C143.135 55.2021 145.546 53.8626 149.832 54.6663C151.172 56.2737 151.573 58.0151 151.305 60.0243C150.502 60.6941 149.698 60.2922 148.76 60.0243C147.287 59.4885 147.019 60.4262 146.885 61.7657C147.823 60.4262 148.76 60.2922 149.832 61.3638C150.77 62.3015 151.439 63.3731 151.707 64.7126C152.243 66.5879 152.243 69.6687 154.386 69.4008C156.396 69.1329 155.458 66.0521 155.458 64.1768C155.324 54.5324 155.19 44.754 155.19 35.1096C155.19 32.6985 156.262 30.5553 157.869 28.8139C160.548 26.001 161.888 22.6522 161.62 18.7677C161.486 15.8208 162.959 16.0887 164.7 17.4282C168.719 20.2411 173.273 21.8485 177.962 22.5183C179.301 22.6522 181.846 23.9917 181.578 20.509C181.578 19.9732 181.846 19.8393 183.721 20.3751C190.553 22.5183 197.518 23.5899 204.752 23.322C210.11 23.0541 215.066 21.7146 219.486 18.4998C220.96 17.4282 222.299 16.4905 223.906 17.964C225.38 19.3035 225.246 21.0448 224.308 22.5183C221.094 28.0102 221.495 33.5022 223.773 39.262C224.576 41.1373 224.71 43.1466 224.71 45.1559C224.71 52.2552 224.71 59.4885 224.71 66.5879C224.71 67.5255 224.174 69.1329 225.648 69.4008C227.255 69.6687 227.523 68.0613 227.925 66.9897C228.327 65.9181 228.595 64.5786 228.863 63.3731C229.8 61.6317 230.872 60.0243 233.283 62.1675C233.283 60.4262 232.747 59.7564 231.14 60.1583C230.47 60.4262 229.8 60.962 228.997 60.5601C228.595 58.149 228.863 56.0058 231.006 54.5324C235.962 53.7287 238.641 56.6756 238.105 62.5694C237.837 66.4539 236.9 69.9366 234.355 73.1514C232.211 75.8305 231.408 78.7774 231.676 82.2601C231.81 85.073 230.872 87.2162 228.059 88.2878C227.389 88.5557 226.585 88.8236 226.318 89.6273C224.308 95.2532 220.96 100.075 218.013 105.032Z" fill="#F3A37C"/>
<path d="M329.997 208.84C314.593 208.974 299.054 208.037 283.65 207.769C278.962 207.367 274.274 208.438 269.585 208.036C267.576 206.697 268.916 205.224 269.451 203.884C271.862 198.258 272.666 192.632 271.461 186.604C270.925 184.059 270.121 181.648 268.648 179.505C267.04 177.228 265.701 175.085 265.969 172.138C266.103 170.664 265.031 169.861 263.558 169.325C262.218 168.789 260.611 169.057 259.539 167.851C267.308 165.44 275.211 163.029 282.98 160.618C283.784 160.082 284.722 159.547 285.659 159.279C291.285 157.671 296.777 156.064 302.403 154.724C304.546 154.189 306.154 153.117 307.627 151.376C312.315 145.482 318.343 141.463 325.041 138.248C325.978 137.847 326.782 137.311 327.854 137.713C330.801 137.847 333.346 139.186 336.159 140.124C344.196 142.803 352.099 145.616 360.136 148.161C378.085 154.055 386.792 177.228 370.584 193.838C363.083 201.607 353.572 205.357 343.258 207.367C338.838 208.17 334.417 208.706 329.997 208.84Z" fill="#F3A37C"/>
<path d="M327.18 330.468C327.314 330.87 327.314 331.138 327.448 331.54C327.18 339.309 326.912 346.944 326.644 354.713C326.51 354.713 326.377 354.713 326.243 354.713C322.894 346.81 315.527 348.418 309.231 348.016C306.686 347.882 303.873 348.284 301.194 348.284C288.469 349.623 275.743 351.9 263.286 354.713C261.009 355.383 258.598 355.785 256.187 356.321C254.981 356.589 253.775 356.856 252.704 355.919C252.168 355.115 251.9 354.177 252.034 353.374C253.106 347.748 252.168 341.988 253.24 336.496C253.642 334.487 254.445 333.415 256.454 332.745C269.046 329.129 281.771 326.182 294.898 324.842C302.265 324.039 309.499 323.905 316.732 325.512C320.617 326.45 324.099 327.923 327.18 330.468Z" fill="#2C72B6"/>
<path d="M327.988 137.718C320.085 141.469 312.718 145.889 307.494 153.122C306.824 153.926 306.154 154.596 305.083 154.864C298.653 156.605 292.224 158.212 285.794 159.82C285.124 158.346 286.33 157.275 286.999 156.203C293.161 146.157 300.93 137.852 311.111 131.824C316.736 133.833 322.362 135.709 327.988 137.718Z" fill="#E84394"/>
<path d="M311.242 131.819C311.242 132.89 310.572 133.292 309.768 133.828C299.32 140.124 291.953 149.366 285.925 159.814C285.121 160.216 284.184 160.618 283.246 160.484C287.399 153.251 292.087 146.285 298.115 140.525C301.731 137.043 305.616 133.828 310.17 131.551C310.438 131.685 310.84 131.685 311.242 131.819Z" fill="#C93180"/>
<path d="M324.103 440.442C324.371 445.666 323.032 450.086 318.611 453.301C317.272 455.31 315.664 454.372 314.191 453.569C311.244 452.095 308.163 450.756 305.082 449.684C299.456 447.809 294.232 448.613 289.142 451.827C285.659 454.105 282.445 457.185 277.89 457.319C276.819 457.319 275.881 456.918 274.81 456.784C270.523 455.846 266.505 454.372 262.62 452.363C257.128 449.416 253.377 444.862 251.368 438.968C250.698 436.959 250.163 435.084 250.163 432.94C250.163 432.539 250.297 432.271 250.297 431.869C250.565 425.975 250.698 420.081 250.163 414.321C249.627 408.562 246.948 403.739 243.197 399.587C243.465 393.827 246.278 389.139 249.895 384.852C253.779 384.45 257.262 385.79 260.343 387.933C261.548 388.737 262.754 389.541 264.227 388.603C268.246 388.603 272.131 389.808 276.015 390.478C276.953 390.612 277.89 391.014 278.024 391.952C278.158 393.157 277.087 393.559 276.149 393.961C270.255 397.042 265.433 401.06 261.95 406.686C265.835 400.926 271.059 396.506 277.355 393.559C283.784 390.612 292.759 392.354 297.447 397.31C297.983 397.845 298.653 398.381 297.983 399.319C297.179 399.721 296.509 399.453 295.706 399.185C288.071 396.372 280.435 396.64 272.934 399.721C280.569 396.908 288.205 396.372 295.974 399.453C296.777 399.721 297.447 399.855 298.117 399.185C301.332 398.515 302.269 400.524 302.805 402.936C304.546 409.767 307.092 416.197 311.512 421.689C314.325 425.305 317.272 429.056 320.085 432.806C322.094 434.95 323.433 437.629 324.103 440.442Z" fill="#1A3F6C"/>
<path d="M57.5402 446.337C57.5402 444.194 57.4062 441.917 57.4062 439.774C59.4155 432.942 64.5056 428.12 68.792 422.762C73.4803 416.734 76.1593 410.037 78.3025 402.938C78.8383 400.259 80.0438 398.517 83.1247 398.919C84.1963 399.723 85.1339 399.455 86.2055 399.053C93.171 396.642 100.136 396.91 107.102 399.321C108.307 399.723 109.513 400.526 110.852 399.589C112.728 398.919 113.799 400.259 114.737 401.464C116.21 403.205 117.684 405.081 119.157 406.956C115.942 401.33 111.388 397.178 105.093 393.963C104.021 393.427 102.28 393.293 102.547 391.82C102.815 390.346 104.557 390.346 105.896 390.078C109.781 389.543 113.397 387.935 117.416 388.739C119.023 389.409 120.095 388.203 121.167 387.399C124.247 385.39 127.462 383.783 131.347 384.586C134.829 388.873 137.776 393.427 137.776 399.187C137.107 401.062 135.365 402.134 134.428 403.741C132.15 407.894 130.543 412.18 130.677 417.136C130.811 421.958 130.543 426.781 130.811 431.469C130.945 431.871 130.945 432.139 130.945 432.541C130.677 434.55 130.543 436.693 129.873 438.568C125.989 449.552 117.148 454.107 106.566 456.518C105.494 456.652 104.557 456.919 103.619 457.053C100.27 457.053 97.5913 455.58 95.0463 453.571C87.4111 447.409 79.508 447.141 70.9352 451.561C68.5241 452.767 66.113 454.374 63.1661 454.107C60.0853 452.365 57.4062 450.356 57.5402 446.337Z" fill="#1A3F6C"/>
<path d="M116.746 389.406C111.924 389.004 107.503 390.88 101.878 391.416C109.513 394.764 115.273 399.051 119.291 405.48C119.559 405.882 119.961 406.418 120.229 406.82C120.497 407.356 121.166 408.025 120.497 408.561C119.693 409.231 119.157 408.427 118.621 407.891C117.282 406.016 115.942 404.141 114.335 402.399C113.397 401.194 112.46 399.854 110.718 399.587C110.584 399.587 110.45 399.587 110.182 399.453C107.503 397.979 105.226 396.104 102.547 394.764C97.993 392.621 93.8405 392.755 89.5541 395.166C87.4109 396.372 85.4017 397.711 83.1245 398.783C82.9906 398.783 82.8566 398.783 82.5887 398.783C80.3116 399.319 79.24 401.194 77.9005 402.801C75.3554 403.605 74.4178 406.016 72.8104 407.757C71.8727 408.829 70.9351 409.901 70.5332 407.49C73.3462 403.739 76.561 400.256 80.4455 397.443C82.8566 393.961 86.6072 392.889 89.956 391.014C87.9467 390.076 85.4017 390.076 83.3924 388.737C82.4548 387.531 81.1153 387.531 79.7758 387.129C75.2215 385.656 72.9443 382.977 72.8104 378.824C72.8104 374.672 75.2215 371.725 79.9097 370.251C80.7134 369.984 81.6511 369.85 82.4548 369.582C86.0714 368.108 88.6165 370.117 91.0276 372.395C92.635 374.002 93.4387 376.145 94.2424 378.155C95.314 381.101 95.5819 384.316 97.4572 387.531C99.3325 383.78 100.806 380.432 102.681 377.083C105.226 373.064 108.709 370.921 113.397 370.921C119.291 370.921 123.042 374.002 123.845 379.628C124.917 384.182 122.104 387.665 116.746 389.406Z" fill="#2C72B6"/>
<path d="M303.206 402.806C301.867 401.198 300.795 399.457 298.518 398.921C288.472 391.286 283.65 390.482 274.139 396.242C269.585 398.921 265.968 402.672 263.021 407.092C262.486 407.896 261.816 409.369 260.878 408.7C259.673 407.896 261.012 406.958 261.414 406.155C265.432 399.725 271.192 395.305 278.024 391.42C273.603 390.616 269.049 389.679 264.629 388.875C260.476 388.607 257.128 385.258 256.86 381.106C256.592 376.284 260.208 371.997 265.031 371.193C270.79 370.256 274.943 372.667 278.158 377.221C280.301 380.704 281.507 384.722 283.516 388.473C284.453 384.99 285.525 381.776 286.597 378.427C287.802 374.81 289.544 371.729 293.16 370.122C294.902 369.318 296.643 368.782 298.518 369.854C302.537 370.524 306.019 371.997 307.627 376.284C309.1 380.436 306.957 385.124 302.805 386.732C301.063 387.401 299.188 387.803 297.313 388.339C295.169 390.75 292.223 390.75 289.811 391.152C293.428 391.956 296.643 394.233 299.992 396.242C301.465 399.055 304.412 400.529 306.421 402.806C307.761 404.413 309.1 406.021 310.44 407.628C309.904 409.771 309.1 409.101 308.163 407.896C306.689 406.021 305.618 403.743 303.206 402.806Z" fill="#2C72B6"/>
<path d="M277.754 378.151C275.075 374.133 271.458 371.588 266.368 371.856C261.948 372.123 258.599 374.936 257.795 379.357C257.126 382.973 259.135 386.188 263.02 388.064C263.555 388.331 263.957 388.599 264.493 388.733C263.555 390.207 262.082 390.073 261.144 389.001C258.063 386.054 254.179 385.251 250.294 384.715C249.491 384.045 249.357 383.241 249.491 382.304C250.428 373.865 250.16 365.426 251.768 356.987C252.036 356.317 252.437 355.916 253.107 355.782C256.456 355.112 259.671 354.442 263.02 353.772C266.636 353.103 270.253 353.37 273.87 353.906C281.773 355.38 289.408 357.389 297.311 358.193C298.248 358.327 299.052 358.461 299.588 359.264C299.588 359.398 299.722 359.666 299.722 359.8C298.918 363.015 298.65 366.23 298.382 369.444C292.087 369.177 289.14 373.329 286.997 378.419C284.05 379.223 280.835 378.955 277.754 378.151Z" fill="#F3A37C"/>
<path d="M301.061 347.482C307.49 347.08 314.054 346.544 320.484 348.152C324.502 349.223 325.842 350.831 326.109 354.715C321.957 358.466 316.599 358.6 311.509 359.27C307.624 359.805 303.74 359.805 299.855 360.073C299.855 359.939 299.855 359.805 299.721 359.805C298.784 355.653 298.918 351.366 301.061 347.482Z" fill="#1A3F6C"/>
<path d="M299.991 396.235C298.384 397.173 297.714 395.565 296.642 395.03C294.097 393.824 291.686 392.618 288.873 391.145C291.82 390.207 294.633 389.27 297.446 388.332C298.25 390.877 299.053 393.556 299.991 396.235Z" fill="#1B416E"/>
<path d="M252.439 356.861C251.769 366.237 251.099 375.614 250.296 384.856C247.349 389.143 245.206 393.831 243.598 398.787C244.402 403.476 243.464 407.896 241.589 412.182C235.427 415.263 228.998 416.737 222.3 416.737C202.342 416.871 182.383 416.871 162.424 416.737C154.387 416.603 146.752 414.459 139.787 410.709C137.376 407.092 137.376 402.94 137.376 398.921C136.706 393.697 133.893 389.277 131.214 384.856C130.142 383.517 130.276 381.91 130.008 380.436C129.205 373.337 129.071 366.103 128.267 358.87C128.133 358.066 128.401 357.263 128.669 356.593C129.875 354.852 129.607 352.976 129.473 351.101C128.803 343.868 128.535 336.634 128.133 329.535C127.329 312.791 127.062 295.913 126.258 279.17C125.722 268.989 125.052 258.809 124.784 251.174C125.186 259.211 125.722 269.927 126.392 280.509C126.928 288.68 126.66 296.985 127.196 305.156C127.731 312.523 127.597 320.025 127.999 327.526C128.133 332.214 126.928 333.286 122.373 331.946C113.131 329.401 103.888 327.258 94.3777 325.65C91.4308 325.115 88.4839 324.981 85.537 324.445C84.1975 324.043 82.992 323.775 81.6525 323.909C80.5809 323.909 79.3753 323.909 78.3037 323.909C77.3661 323.909 76.4284 323.909 75.6247 323.909C73.6155 323.909 71.7402 323.641 69.7309 324.177C64.9087 324.847 60.0865 325.784 55.934 328.731C55.3982 329.133 54.7285 329.401 54.0587 328.999C52.8532 323.239 53.255 317.479 52.9871 311.72C52.0495 295.78 51.5137 279.839 50.71 263.899C50.0402 251.442 49.3705 238.985 48.7007 226.527C48.2989 220.366 49.2365 214.338 51.2458 208.444C52.1834 207.238 53.6569 207.372 54.9964 207.372C64.7747 207.104 74.5531 206.301 84.4654 206.703C86.8765 206.837 89.1537 206.301 91.4308 206.301C95.8512 207.372 100.272 206.971 104.692 207.372C114.336 208.444 121.302 212.73 125.052 221.839C125.856 223.848 127.062 225.322 128.803 226.393C129.607 227.331 129.875 228.537 130.142 229.742C130.946 235.234 132.821 240.19 135.902 244.878C140.189 251.576 140.591 259.077 140.591 266.712C140.591 270.597 140.858 274.481 141.528 278.232C141.93 280.375 143.136 282.117 145.547 281.849C147.958 281.581 148.895 279.706 148.895 277.562C148.762 272.07 149.967 266.712 149.699 261.22C149.699 259.747 149.431 258.14 150.369 256.666C150.637 256.398 151.039 256.398 151.441 256.532C152.78 261.354 153.182 266.31 152.646 271.267C152.244 275.017 152.78 278.634 153.048 282.251C153.45 286.269 156.397 287.073 160.817 284.528C161.621 284.26 162.157 284.528 162.826 285.064C164.166 287.475 166.041 288.948 168.988 288.278C170.194 288.01 171.131 288.412 171.801 289.618C172.203 293.101 174.346 294.574 177.561 295.378C186.536 297.521 195.242 297.789 204.217 295.11C207.298 294.172 209.039 292.565 209.307 289.35C209.575 287.341 209.977 285.465 210.78 283.59C213.459 280.107 216.674 277.16 220.827 275.285C228.596 277.428 228.73 275.821 228.06 269.123C229.266 267.516 230.873 266.444 232.48 265.239C235.963 264.703 239.446 264.301 242.795 262.962C246.277 261.622 247.215 260.283 247.215 256.532C247.215 256.264 247.349 255.862 247.483 255.594C250.296 254.657 252.573 253.049 255.118 251.71C255.252 251.71 255.386 251.71 255.654 251.71C256.725 252.648 256.725 253.853 256.591 255.059C255.52 269.793 255.118 284.662 254.582 299.396C254.046 313.193 253.912 326.99 252.841 340.787C252.439 346.413 251.233 351.637 252.439 356.861Z" fill="#2C72B6"/>
<path d="M161.352 285.192C159.879 287.335 157.87 288.273 155.325 287.335C152.779 286.397 151.976 284.522 151.842 281.843C151.44 273.538 152.11 265.233 151.172 256.928C150.636 255.723 151.038 254.383 150.904 253.178C150.77 254.383 151.172 255.589 150.636 256.928C150.368 263.76 150.234 270.725 149.966 277.557C149.833 281.173 148.091 283.317 145.278 283.317C142.599 283.451 141.126 281.575 140.322 278.093C138.849 271.797 140.054 265.501 139.117 259.206C138.313 253.848 137.375 248.757 134.16 244.203C130.544 238.979 129.338 232.817 128.401 226.656C126.525 223.575 127.463 220.092 127.597 216.877C127.731 214.868 128.133 212.859 128.401 210.85C128.668 208.706 127.731 207.769 125.722 207.635C124.918 207.635 124.114 207.501 123.444 207.635C113.13 208.706 102.816 207.501 92.3679 207.635C78.705 208.037 64.9081 208.304 51.2452 208.706C37.1804 209.51 24.5891 205.759 13.3373 197.321C7.17556 192.632 2.08545 187.006 0.478049 179.237C-1.7991 167.718 4.22866 155.528 14.9447 149.902C18.2934 148.161 22.044 147.357 25.6607 146.152C33.2959 143.74 40.931 141.061 48.4322 138.65C49.7717 138.249 51.1112 137.579 52.5847 137.847C54.5939 137.713 56.3353 138.382 58.0766 139.32C63.3007 141.865 67.989 145.482 71.8735 149.634C72.8112 150.572 74.4186 151.644 73.0791 153.519C67.5871 153.251 62.497 151.242 57.139 150.572C54.7279 150.17 52.1828 149.902 49.7717 149.5C56.4692 150.572 63.0328 151.644 69.5964 153.385C71.0698 153.787 72.5433 154.724 74.0167 153.653C81.6519 155.394 89.1531 157.671 96.6543 159.948C97.458 160.216 98.2617 160.752 98.9315 161.288C109.647 165.173 120.765 168.387 131.749 171.334C147.555 175.487 158.539 184.595 164.701 199.866C168.184 208.706 172.604 217.145 176.221 225.852C179.034 232.683 181.177 239.649 181.177 247.15C181.177 248.49 181.579 249.829 181.847 251.035C182.918 252.106 182.784 253.446 182.516 254.785C180.775 258.134 177.56 259.875 174.479 261.885C174.078 262.152 173.676 261.885 173.274 261.483C171.666 256.794 172.336 251.838 171.8 247.016C172.068 256.259 173.274 265.501 172.202 274.878C172.47 272.735 172.068 270.323 173.676 268.448C174.078 268.18 174.613 268.18 174.881 268.582C178.23 271.529 181.311 274.61 183.052 278.762C183.32 281.709 181.847 283.585 179.168 284.656C176.757 285.594 174.747 284.924 173.006 283.183C173.14 285.594 172.872 288.139 170.729 290.014C170.059 289.21 169.523 289.612 168.72 289.746C165.103 290.55 163.629 289.612 162.156 285.996C161.754 285.058 161.754 284.12 161.888 283.585C162.424 283.852 162.022 284.656 161.352 285.192Z" fill="#F3A37C"/>
<path d="M55.3959 354.581H55.128H54.8601C54.7262 346.544 53.6546 338.507 54.0564 330.47C60.0842 325.379 67.3175 324.576 74.6848 324.308C86.3384 324.04 97.7242 326.183 108.976 328.594C114.334 329.8 119.558 331.273 124.782 332.747C126.256 333.149 127.729 333.684 127.997 335.292C128.667 342.123 129.738 348.955 128.667 355.786C126.791 357.26 124.916 356.054 123.041 355.652C121.433 355.384 119.826 354.982 118.219 354.581C105.627 351.768 93.036 349.49 80.3107 348.151C75.6224 348.419 71.0681 347.615 66.3799 348.017C61.5577 348.687 57.4052 349.624 55.3959 354.581Z" fill="#2C72B6"/>
<path d="M73.6161 153.119C69.0618 146.555 62.9001 142.269 55.6668 139.054C54.7291 138.652 53.6575 138.116 52.5859 137.715C57.81 135.437 63.168 133.696 68.66 132.223C81.5192 137.179 90.092 146.823 96.6556 158.611C96.9235 159.147 97.1914 159.816 96.7895 160.486C89.8241 158.611 82.7247 156.736 75.7593 154.86C75.2235 154.726 74.6877 154.057 74.1519 153.655C73.884 153.789 73.6161 153.521 73.6161 153.119Z" fill="#E84394"/>
<path d="M128.403 356.054C128.135 349.893 128.001 343.597 127.733 337.435C127.599 335.426 126.929 334.22 124.518 333.551C112.865 330.336 101.211 327.523 89.2894 326.049C81.1185 324.978 72.8136 324.576 64.5087 326.451C61.6957 327.121 59.1507 328.059 56.8735 329.666C55.9358 330.202 55.1321 330.738 54.0605 330.47C54.0605 330.068 54.0605 329.666 54.0605 329.264C58.6149 325.782 63.705 323.906 69.4648 323.772C71.4741 322.969 73.6173 324.04 75.4926 323.103C76.4302 323.103 77.2339 323.103 78.1716 323.103C79.3771 323.772 80.5827 323.237 81.7882 323.37C82.8598 323.504 83.9314 323.103 84.8691 323.638C96.6567 324.576 108.31 327.121 119.696 330.336C128.939 332.881 127.197 332.345 126.929 324.978C126.394 310.645 125.992 296.313 125.59 281.98C125.188 270.594 124.384 259.074 123.715 247.689C123.715 246.617 123.313 245.411 124.25 244.34C125.456 245.144 125.59 246.483 125.59 247.823C126.126 257.601 126.528 267.379 127.063 277.158C127.733 291.892 128.001 306.493 128.537 321.227C128.939 331.541 129.073 341.856 130.278 352.17C130.412 353.643 131.618 355.786 129.073 356.724C128.537 356.858 128.269 356.59 128.403 356.054Z" fill="#1A3F6C"/>
<path d="M96.9217 160.484C90.76 149.098 82.8569 139.454 70.6675 133.962C69.8638 133.56 69.0601 133.158 68.6582 132.221C69.194 131.551 69.9977 131.551 70.6675 131.551C77.4989 135.167 83.7946 139.32 88.7507 145.214C92.7692 150.036 96.6538 154.992 98.931 161.02C98.2612 161.154 97.4575 161.288 96.9217 160.484Z" fill="#C93180"/>
<path d="M151.707 64.7099C151.038 63.9062 150.502 63.1025 149.832 62.4327C149.43 61.8969 148.894 61.629 148.493 61.2272C148.225 61.3611 148.091 61.3611 148.091 61.3611C147.555 62.1648 148.493 64.0401 146.751 63.7722C145.278 63.5043 145.814 61.8969 145.947 60.9593C146.215 59.7537 146.885 58.5482 148.493 59.084C149.43 59.3519 150.368 59.7537 151.306 60.1556C151.439 61.629 151.573 63.2364 151.707 64.7099Z" fill="#DD7E63"/>
<path d="M228.997 60.6956C230.337 60.0258 231.408 58.1505 233.417 59.3561C234.891 60.2937 234.355 61.7672 234.221 62.9727C234.221 63.9104 232.882 64.4462 232.748 63.6425C231.542 59.624 230.203 63.2406 228.997 63.5085C228.863 62.5709 228.997 61.6332 228.997 60.6956Z" fill="#DD7E63"/>
<path d="M228.326 269.784C228.326 269.918 228.326 270.052 228.326 270.052C229.264 272.463 230.202 275.142 227.79 277.017C225.513 278.893 223.236 277.419 221.093 276.214C220.155 275.946 219.753 275.142 219.084 274.606C218.28 273.669 217.342 272.865 216.539 271.927C216.271 271.659 216.137 271.391 216.003 271.124C213.86 267.909 211.315 264.962 209.037 261.881C207.028 259.202 205.957 256.389 205.957 252.906C205.957 247.28 204.885 241.655 205.287 236.029C205.287 234.957 205.421 233.885 205.153 232.278C204.617 234.823 203.947 236.698 202.876 238.574C200.599 241.253 198.455 243.932 194.839 244.869C191.892 240.985 192.026 238.976 195.241 235.627C196.178 234.555 197.116 233.484 198.053 232.412C198.187 231.608 198.857 231.34 199.393 231.072C205.153 223.169 209.037 214.329 212.788 205.488C216.271 197.183 220.289 189.146 226.987 182.716C227.255 182.449 227.389 181.913 227.523 181.511C232.077 176.957 235.56 176.555 242.525 180.171C243.195 180.439 243.864 181.109 244.668 181.109C247.883 181.109 250.428 182.047 252.169 184.994C254.447 188.878 256.456 192.763 255.652 197.451C255.25 199.996 254.447 202.407 253.777 204.818C253.107 206.292 252.437 207.765 252.303 209.373C251.634 213.525 252.571 217.811 251.366 221.83C250.964 223.169 250.964 224.777 249.49 225.447C249.089 226.25 248.821 227.188 248.151 227.724C245.07 230.403 245.874 233.216 247.615 236.163C248.285 237.234 249.089 238.306 250.294 238.708C255.518 239.243 256.724 241.387 254.313 245.807C253.777 246.745 254.045 247.414 254.447 248.218C255.384 249.558 254.982 251.031 255.116 252.371C253.643 255.317 250.83 256.121 247.749 256.523C244.936 256.657 242.257 257.327 239.444 257.327C235.694 257.327 232.747 255.853 230.871 252.504C229.934 251.031 228.996 249.424 228.058 247.95C227.255 246.611 226.451 245.003 224.977 243.262C226.853 246.343 228.326 248.754 229.8 251.165C233.282 256.925 236.631 258.532 243.463 257.327C244.936 257.059 246.276 256.657 247.749 257.059C248.821 260.408 247.883 262.551 244.668 264.024C240.784 265.766 236.631 266.569 232.345 266.703C229.398 267.507 227.523 265.766 225.647 263.89C224.576 262.819 224.174 261.479 223.236 260.274C222.566 259.336 222.165 258.264 221.495 257.327C222.298 258.264 222.566 259.47 223.236 260.408C224.576 262.551 226.183 264.56 227.389 266.837C227.924 267.641 228.728 268.445 228.326 269.784Z" fill="#F3A37C"/>
<path d="M194.706 244.739C197.251 242.596 200.064 240.854 202.073 238.309C202.341 237.907 202.609 237.907 202.877 238.309C204.082 241.39 204.082 244.739 203.948 247.82C203.68 254.651 206.761 259.741 210.914 264.429C212.923 266.707 214.798 269.252 216.807 271.663C217.477 272.868 218.281 273.806 219.486 274.342C220.29 274.744 220.692 275.413 220.96 276.217C217.343 278.226 214.53 281.441 211.315 283.852C208.503 288.005 204.484 290.818 200.332 293.363C198.322 294.568 195.777 294.434 194.17 292.559C190.285 287.871 185.731 283.718 182.784 278.226C180.373 274.61 177.426 271.529 174.613 268.314C172.068 266.305 171.934 264.429 174.077 261.75C176.756 259.473 179.435 257.196 182.114 254.919C183.856 252.508 186.133 250.901 188.678 249.561C190.687 247.954 192.696 246.346 194.706 244.739Z" fill="#6B746B"/>
<path d="M242.26 180.713C240.117 180.177 238.375 178.837 236.098 178.435C232.482 177.766 230.338 180.311 227.525 181.248C228.195 179.105 229.267 177.364 228.329 174.819C227.525 172.809 228.731 171.202 231.008 170.13C238.643 166.648 246.68 166.246 254.717 167.451C256.325 167.719 258.066 167.853 259.673 167.719C260.745 167.853 261.817 167.987 263.022 168.121C266.773 168.925 267.577 169.863 267.041 173.479C266.907 174.685 267.041 175.488 267.844 176.426C274.676 184.999 274.274 194.375 270.523 204.154C270.122 205.225 269.05 205.895 269.318 207.235C266.639 210.449 256.057 212.191 252.708 209.914C252.172 209.646 251.904 209.11 251.77 208.574C251.636 207.101 252.306 205.761 253.11 204.556C256.727 198.662 258.2 192.5 254.583 185.937C251.904 181.114 249.627 179.909 244.001 180.713C243.332 180.98 242.796 180.98 242.26 180.713Z" fill="#464F53"/>
<path d="M150.369 124.051C153.718 134.231 159.478 143.072 162.559 153.118C163.362 155.529 164.3 157.94 165.238 160.351C166.175 162.762 167.783 162.896 169.256 161.021C172.337 157.003 175.954 154.725 181.044 156.601C186.804 158.61 188.947 163.432 189.215 168.924C189.616 177.095 189.349 185.266 189.349 193.303C189.349 193.973 189.616 195.044 188.545 195.178C187.071 195.312 187.473 194.107 187.339 193.303C187.339 186.873 187.339 180.31 187.339 173.88C187.205 167.049 176.489 160.351 170.328 163.164C166.577 164.906 164.702 164.102 163.228 160.351C159.344 150.305 155.995 139.991 150.369 130.614C149.297 128.739 148.494 126.462 150.369 124.051Z" fill="#C93180"/>
<path d="M201.672 155.8C204.485 155.934 207.164 157.407 209.308 160.086C211.585 162.899 212.79 162.765 214.264 159.282C216.675 153.255 218.952 147.093 221.363 140.931C222.569 137.984 223.908 135.037 225.516 132.225C226.721 130.215 227.659 128.34 227.391 126.063C227.257 125.259 227.391 124.188 228.328 124.188C229.534 124.188 229.266 125.393 229.4 126.197C229.668 128.474 228.864 130.349 227.793 132.225C223.238 139.86 220.425 148.299 217.211 156.603C216.809 157.809 216.407 158.881 215.871 160.086C214.13 164.239 213.058 164.774 208.772 162.899C203.548 160.622 198.458 162.363 193.635 164.105C192.296 164.64 192.162 166.248 191.626 167.453C191.358 167.989 190.956 168.525 190.287 168.123C190.019 167.989 189.885 167.453 189.885 167.052C190.019 162.095 196.046 155.8 201.672 155.8Z" fill="#C93180"/>
<path d="M199.395 230.81C199.127 231.48 198.726 231.882 198.056 232.149C190.957 225.05 183.321 218.62 175.15 212.057C177.294 210.851 178.097 212.057 179.169 212.861C186.268 218.62 192.966 224.514 199.395 230.81Z" fill="#C93180"/>
<path d="M188.544 249.559C186.401 251.434 184.392 253.443 181.98 254.917C181.98 253.577 181.98 252.238 181.98 250.898C184.258 250.496 186.401 249.96 188.544 249.559Z" fill="#C93180"/>
<path d="M252.438 356.861C250.429 356.459 250.965 354.852 251.099 353.646C252.304 338.376 252.974 323.105 253.108 307.701C253.242 296.449 253.912 285.063 254.314 273.812C254.582 266.578 255.117 259.479 255.519 252.246C255.787 250.102 255.921 248.093 256.189 245.95C256.323 245.28 256.189 244.477 257.127 244.477C257.93 244.611 257.93 245.28 257.93 246.084C257.528 252.781 257.127 259.613 256.725 266.31C256.189 276.357 255.653 286.537 255.519 296.583C255.251 307.433 254.716 318.283 254.314 329.267C254.314 330.205 254.314 331.008 254.314 332.08C261.681 330.339 268.78 328.463 275.88 326.856C286.194 324.579 296.642 322.971 307.224 323.239C312.314 323.373 317.404 324.043 322.226 326.052C324.236 326.99 326.781 327.66 327.183 330.339C326.647 330.339 325.977 330.473 325.575 330.205C317.136 324.311 307.358 324.579 297.847 325.249C283.783 326.32 269.986 329.401 256.591 333.553C254.983 334.089 254.314 334.625 254.18 336.366C253.912 342.93 253.376 349.36 253.108 355.923C252.84 356.325 252.572 356.593 252.438 356.861Z" fill="#1A3F6C"/>
<path d="M251.501 208.707C257.662 211.252 263.422 210.046 269.182 207.367C274.004 207.501 278.826 207.635 283.783 207.769C279.898 208.171 276.014 208.305 272.263 208.975C263.69 210.448 257.796 215.27 254.849 223.575C253.644 227.192 252.036 227.594 249.357 225.45C250.697 221.164 251.099 216.744 250.965 212.323C250.965 210.984 250.697 209.778 251.501 208.707Z" fill="#1A3F6C"/>
<path d="M250.162 238.713C248.287 238.847 247.349 238.043 247.483 236.168C248.689 236.704 249.493 237.641 250.162 238.713Z" fill="#616469"/>
<path d="M191.625 115.614C180.909 114.81 172.604 111.06 166.442 103.157C165.906 102.487 164.567 101.549 165.638 100.745C166.71 99.9417 167.38 101.415 167.915 102.085C173.006 108.381 179.435 111.997 187.338 113.203C196.045 114.542 203.412 111.595 209.976 106.103C211.717 104.63 213.191 103.023 214.664 101.415C215.066 101.013 215.602 100.21 216.272 100.745C217.075 101.415 216.405 102.085 215.87 102.755C210.78 109.184 204.35 113.471 196.179 114.944C194.706 115.212 192.83 116.016 191.625 115.614Z" fill="#DC7C61"/>
<path d="M178.367 33.2321C183.591 32.8303 185.199 33.7679 185.199 36.179C185.199 38.4562 183.189 39.5278 178.903 38.992C175.286 38.5901 172.205 39.9296 168.991 41.4031C168.053 41.9389 166.981 42.4747 165.91 42.7426C164.838 43.0105 163.9 42.8765 163.365 41.671C162.963 40.7333 163.365 39.9296 164.168 39.3938C168.723 36.179 172.875 32.2945 178.367 33.2321Z" fill="#664029"/>
<path d="M203.012 32.5629C208.37 31.8931 212.656 35.6437 217.211 38.7246C218.148 39.3943 218.416 40.332 217.746 41.4036C217.211 42.2073 216.407 42.6091 215.469 42.2073C214.666 41.8054 213.728 41.6715 213.058 41.1357C209.442 38.9925 205.423 38.1888 201.271 38.5906C198.993 38.7246 196.582 38.8585 196.716 35.5098C196.85 32.295 199.127 32.5629 201.271 32.6968C201.538 32.5629 201.94 32.5629 203.012 32.5629Z" fill="#653F28"/>
<path d="M189.751 73.6871C187.875 73.5532 185.598 73.4192 183.589 72.4816C182.919 72.2137 181.848 71.9458 182.383 70.8742C182.785 69.9365 183.589 70.2044 184.393 70.6063C186.268 71.5439 188.143 71.6779 190.153 71.8118C194.975 71.8118 197.252 69.5347 196.582 64.8464C196.046 60.6939 195.377 56.5415 194.841 52.389C194.707 51.5853 194.305 50.5137 195.511 50.2458C196.716 50.1119 196.582 51.1835 196.582 51.8532C197.252 56.5415 198.056 61.2297 198.457 65.918C199.127 70.7402 196.046 73.4192 189.751 73.6871Z" fill="#DC7C61"/>
<path d="M191.09 84.9368C185.331 84.5349 180.24 83.5973 175.552 81.3201C174.748 80.9183 173.543 80.6504 174.213 79.4448C174.748 78.5072 175.552 79.3109 176.222 79.5788C185.598 83.5973 195.109 83.9991 204.485 79.5788C205.289 79.1769 206.227 78.3732 206.763 79.4448C207.432 80.6504 205.959 80.7843 205.289 81.1862C200.869 83.8652 195.779 84.267 191.09 84.9368Z" fill="#DC7D62"/>
<path d="M180.777 72.6144C178.232 74.8915 175.285 75.4273 173.007 77.3026C170.864 79.044 169.123 80.9193 168.587 83.5983C168.453 84.268 168.319 85.0717 167.516 84.9378C166.578 84.8038 166.578 83.8662 166.712 83.0625C167.516 77.9724 175.687 71.5428 180.777 72.6144Z" fill="#DC7D62"/>
<path d="M213.726 54.2601C213.592 54.528 213.592 54.7959 213.325 55.0638C212.789 55.4656 212.387 55.1977 211.851 54.7959C207.967 51.8489 204.216 51.8489 200.331 54.7959C199.93 55.1977 199.394 55.5996 198.858 55.1977C198.322 54.7958 198.322 54.2601 198.724 53.7242C200.465 51.4471 203.01 50.7773 205.823 50.7773C208.77 50.7773 211.315 51.4471 213.325 53.7242C213.458 53.7242 213.592 53.8582 213.726 54.2601Z" fill="#6E462E"/>
<path d="M174.747 50.6454C177.426 50.5115 179.837 51.1812 181.846 53.0565C182.382 53.4584 182.918 53.9942 182.382 54.7979C181.846 55.6016 181.311 55.0658 180.775 54.6639C176.89 51.851 173.006 51.717 169.121 54.6639C168.719 54.9318 168.184 55.4676 167.648 54.9318C167.112 54.396 167.246 53.7263 167.782 53.1905C169.791 51.4491 172.068 50.5115 174.747 50.6454Z" fill="#6B442C"/>
<path d="M190.553 93.511C188.678 93.9129 187.071 92.9752 185.329 92.7073C184.794 92.5734 184.258 92.1715 184.258 91.6357C184.258 90.832 184.928 90.832 185.463 90.832C188.812 91.6357 192.161 91.7697 195.644 90.832C196.179 90.6981 196.849 90.6981 196.983 91.5018C197.117 92.1715 196.581 92.5734 196.045 92.7073C194.304 93.1092 192.563 93.9129 190.553 93.511Z" fill="#DC7D62"/>
<path d="M232.078 73.4201C231.81 73.8219 231.81 74.2238 231.542 74.3577C229.801 75.8312 228.863 77.8404 228.059 79.8497C227.791 80.3855 227.523 80.7873 226.854 80.5194C226.318 80.3855 226.184 79.9836 226.318 79.4478C226.854 76.7688 228.059 74.4917 230.47 72.8843C231.006 72.7503 231.542 72.8843 232.078 73.4201Z" fill="#DD7F63"/>
<path d="M153.852 78.9146C153.852 79.7183 153.986 80.522 153.048 80.6559C152.378 80.7899 152.111 80.2541 151.977 79.7183C151.575 77.709 150.905 75.9677 149.164 74.6282C148.628 74.2263 148.494 73.6905 148.896 73.1547C149.432 72.6189 149.967 73.0208 150.369 73.2887C152.512 74.6282 153.048 76.9053 153.852 78.9146Z" fill="#DD7E62"/>
<path d="M311.377 154.456C310.573 154.322 309.77 154.724 309.502 153.786C309.368 152.982 310.037 152.714 310.707 152.447C317.137 150.839 323.7 149.366 330.264 148.428C331.202 148.294 332.675 148.026 332.809 149.366C332.809 150.705 331.335 150.303 330.398 150.437C324.504 151.241 318.61 152.58 312.85 154.054C312.315 154.188 311.779 154.322 311.377 154.456Z" fill="#DC7D62"/>
<path d="M301.063 347.48C300.527 351.633 300.125 355.785 299.589 359.938C287.266 358.598 275.344 354.58 262.887 354.044C271.727 351.499 280.836 350.159 289.811 348.82C293.561 348.15 297.312 347.882 301.063 347.48Z" fill="#DB7C61"/>
<path d="M128.402 356.05C128.67 356.318 128.938 356.586 129.072 356.72C129.742 366.096 130.411 375.473 131.081 384.849C127.063 385.117 123.178 386.189 120.097 389.002C119.026 389.939 117.954 389.939 116.748 389.269C117.016 388.064 118.222 388.064 119.026 387.528C122.374 385.519 123.982 382.706 123.312 379.223C122.508 375.071 119.695 372.258 115.811 371.856C110.319 371.186 106.3 373.329 103.487 378.018C100.407 378.821 97.3257 379.089 94.1109 378.687C93.4411 377.348 92.7713 376.008 91.9676 374.669C89.9584 371.186 86.7436 369.713 82.859 369.713C82.5911 366.498 82.4572 363.149 81.5195 360.068C81.5195 359.399 81.9214 358.997 82.5911 358.729C92.9053 357.791 102.818 354.175 113.132 353.639C114.873 353.505 116.614 353.505 118.356 353.907C121.705 354.71 125.053 355.38 128.402 356.05Z" fill="#F3A37C"/>
<path d="M82.0547 359.401C81.9208 359.669 81.7868 359.937 81.6529 360.205C74.5535 359.937 67.4541 359.401 60.4887 357.526C58.6134 356.99 56.6042 356.454 55.3986 354.713C54.5949 350.025 59.685 348.149 64.7751 347.48C69.9992 346.81 75.2232 347.346 80.4473 347.614C82.4566 351.23 82.4566 355.249 82.0547 359.401Z" fill="#1A3F6C"/>
<path d="M83.7957 388.873C86.7426 388.739 89.1537 390.078 92.2346 391.15C87.9482 393.159 84.1975 395.168 80.7148 397.579C81.6525 394.632 82.7241 391.686 83.7957 388.873Z" fill="#1B416E"/>
<path d="M277.619 456.512C280.968 456.244 283.781 454.503 286.326 452.493C294.095 446.332 302.132 446.6 310.705 450.752C313.116 451.958 315.393 454.503 318.608 453.163C320.751 454.503 321.555 452.627 322.493 451.556C323.296 450.484 323.832 449.145 324.502 447.805C325.439 456.11 322.091 461.2 314.188 463.343C304.409 466.022 294.363 465.888 284.317 464.951C278.155 464.415 272.261 463.209 266.233 461.87C257.259 459.861 250.963 453.029 250.025 444.59C249.892 443.519 249.356 442.313 250.963 441.777C253.24 444.992 254.848 448.743 258.196 451.154C263.421 454.771 269.18 456.244 275.342 456.512C276.146 456.512 276.816 457.182 277.619 456.512Z" fill="#6B746B"/>
<path d="M62.8974 453.835C67.0499 453.299 70.5326 450.888 74.2832 449.28C81.5165 446.333 88.0801 447.539 94.1078 451.959C97.0547 454.103 99.8677 456.112 103.618 456.38C104.422 456.782 105.226 456.246 106.029 456.38C110.718 455.978 115.272 455.308 119.558 453.165C123.979 450.888 127.327 447.673 129.203 442.985C129.471 442.315 129.739 441.511 130.408 441.109C132.15 444.056 131.078 447.003 130.006 449.682C127.461 455.978 122.505 459.862 116.21 461.47C100.671 465.354 84.8652 467.096 68.9252 463.881C62.7635 462.675 58.2092 459.595 56.6018 453.165C56.3339 451.424 56.3339 449.682 56.8697 447.673C58.4771 450.084 59.9505 452.763 62.8974 453.835Z" fill="#6B746B"/>
<path d="M241.59 412.309C241.724 407.755 242.929 403.334 243.599 398.914C248.153 402.665 250.565 407.487 251.1 413.247C251.77 419.542 252.038 425.972 250.966 432.268C250.297 427.713 247.082 424.766 244.269 421.552C242.527 419.676 241.054 417.265 242.126 414.318C241.992 413.649 241.724 412.979 241.59 412.309Z" fill="#2CC1B3"/>
<path d="M137.243 399.051C138.716 402.801 138.716 406.954 139.654 410.838C139.118 411.776 139.118 412.714 139.252 413.651C140.457 415.929 139.118 417.67 138.18 419.545C137.377 421.287 136.305 422.894 134.831 423.966C131.885 425.975 131.483 429.19 130.277 432.137C129.607 420.483 127.33 408.561 137.243 399.051Z" fill="#2CC2B3"/>
<path d="M130.411 441.246C128.804 449.149 123.178 453.168 116.213 455.713C112.864 456.918 109.381 457.588 105.765 457.186C105.363 456.516 106.032 456.249 106.434 455.981C109.649 454.909 112.998 453.837 116.213 452.632C122.642 449.953 126.527 444.863 129.34 438.701C129.876 438.031 130.277 437.362 131.215 438.031C131.215 439.103 130.813 440.175 130.411 441.246Z" fill="#F3F1F1"/>
<path d="M275.613 457.051C266.237 457.319 258.2 454.506 252.708 446.469C251.77 445.13 250.967 443.656 250.967 441.915C250.699 440.709 250.565 439.638 250.297 438.432C250.967 437.896 251.636 437.896 252.172 438.7C256.191 449.282 264.897 453.568 275.078 455.979C275.613 456.113 275.881 456.515 275.613 457.051Z" fill="#F2F1F1"/>
<path d="M242.126 414.319C242.796 418.07 244.269 421.285 247.35 423.696C250.297 425.973 251.502 428.786 251.101 432.269L250.967 432.403C246.68 432.805 241.322 428.786 239.715 423.83C240.117 420.749 240.519 417.534 241.054 414.453C241.054 413.918 241.724 414.185 242.126 414.319Z" fill="#F4F2F2"/>
<path d="M130.274 432.271C129.738 428.521 131.346 425.842 134.159 423.431C137.106 421.02 138.713 417.537 139.115 413.652C141.258 415.126 140.053 417.671 140.856 419.68C141.392 420.886 141.392 422.359 141.66 423.833C139.785 428.923 134.963 432.539 130.274 432.405V432.271Z" fill="#F4F2F2"/>
<path d="M239.578 423.836C242.257 428.256 246.142 430.801 250.83 432.409C251.232 434.418 251.634 436.561 252.036 438.57C251.366 438.437 250.83 438.437 250.161 438.303C247.883 436.963 245.338 436.025 243.329 434.284C239.98 431.605 238.373 428.256 239.578 423.836Z" fill="#6B746B"/>
<path d="M130.411 432.409C135.233 430.801 138.983 427.988 141.796 423.836C142.198 431.471 139.653 434.82 131.08 438.035C130.411 438.303 129.741 438.437 129.205 438.704C129.875 436.561 129.473 434.284 130.411 432.409Z" fill="#6B746C"/>
<path d="M62.8983 453.834C59.1477 454.102 58.4779 450.887 57.0045 448.208C56.2008 449.95 56.8705 451.557 56.6026 453.031C55.7989 450.62 55.3971 448.208 57.5403 446.199C58.7458 449.28 60.6211 451.691 62.8983 453.834Z" fill="#DEDFE2"/>
<path d="M288.741 405.619C284.053 405.485 279.766 406.289 275.882 408.164C275.212 408.566 274.14 409.369 273.605 408.164C273.203 407.226 274.14 406.824 274.81 406.556C282.713 402.94 290.884 402.404 299.055 405.619C299.859 405.887 301.466 406.155 300.93 407.494C300.395 408.968 299.189 407.628 298.519 407.36C295.304 406.155 291.956 405.351 288.741 405.619Z" fill="#2B70B3"/>
<path d="M298.517 398.922C298.517 400.797 297.445 400.797 296.105 400.261C288.336 397.046 280.701 397.716 273.066 400.663C272.262 400.931 271.325 401.869 270.789 400.663C270.253 399.457 271.726 399.324 272.396 398.922C280.165 395.439 288.068 395.171 296.105 397.984C296.909 398.386 297.713 398.654 298.517 398.922Z" fill="#2B70B4"/>
<path d="M289.946 410.972C295.438 410.972 299.322 411.642 302.939 413.517C303.475 413.785 304.412 414.053 304.144 414.857C303.742 415.928 302.939 415.526 302.269 415.125C294.5 411.776 286.731 412.312 278.962 415.526C278.158 415.794 277.22 416.732 276.818 415.392C276.417 414.321 277.622 414.187 278.292 413.919C282.31 411.91 286.731 410.838 289.946 410.972Z" fill="#2B71B5"/>
<path d="M275.613 457.052C275.345 456.65 275.211 456.248 274.943 455.98C275.747 456.248 276.685 456.382 277.488 456.65C277.087 457.32 276.417 457.186 275.613 457.052Z" fill="#C8CAC7"/>
<path d="M89.821 410.975C95.0451 410.975 99.3315 412.046 103.35 413.922C104.154 414.324 105.225 414.591 104.689 415.797C104.154 416.735 103.35 416.065 102.68 415.797C94.9111 412.18 87.142 411.912 79.105 415.127C78.4352 415.395 77.4976 415.931 77.0957 414.993C76.5599 413.788 77.7655 413.52 78.5692 413.252C82.3198 411.778 86.3383 410.707 89.821 410.975Z" fill="#2B70B4"/>
<path d="M110.989 399.588C110.855 401.865 109.516 401.195 108.176 400.659C101.881 397.98 95.4512 397.445 88.7537 399.052C87.4142 399.32 86.0747 399.856 84.7352 400.525C83.1278 401.195 82.7259 400.391 82.8599 399.052C92.3703 393.426 101.747 393.828 110.989 399.588Z" fill="#2B70B3"/>
<path d="M79.7754 407.218C82.0525 404.807 85.1334 404.405 88.0803 404.003C94.376 402.931 100.538 403.735 106.298 406.548C106.967 406.816 107.905 407.218 107.503 408.289C107.101 409.227 106.431 408.691 105.762 408.423C97.8587 404.807 89.8217 404.673 81.7846 407.754C81.2488 407.754 80.5791 408.289 79.7754 407.218Z" fill="#2B70B4"/>
<path d="M106.3 455.978C106.032 456.38 105.898 456.782 105.63 457.184C104.827 457.318 104.023 457.452 103.621 456.648C104.559 456.246 105.362 455.71 106.3 455.978Z" fill="#B6BDC3"/>
<path d="M105.764 378.693C109.112 373.335 116.346 371.996 119.828 376.148C123.445 380.301 121.57 385.123 115.676 386.864C112.595 383.783 109.246 381.104 105.764 378.693Z" fill="#F2A37C"/>
<path d="M84.7326 386.194C83.527 386.462 82.3215 385.792 81.2499 385.524C76.8295 384.184 74.8203 381.639 75.2221 378.157C75.7579 374.54 78.8388 372.263 83.3931 372.129C85.4023 376.683 85.8042 381.371 84.7326 386.194Z" fill="#FDFDFD"/>
<path d="M105.763 378.691C110.184 380.031 113.533 382.71 115.676 386.862C110.854 388.336 105.763 388.872 100.271 389.943C102.147 385.925 103.218 382.04 105.763 378.691Z" fill="#1B3F6C"/>
<path d="M84.7329 386.191C84.331 381.503 83.9292 376.68 83.5273 371.992C88.4835 372.126 91.0286 374.537 91.8323 380.029C90.0909 382.44 87.8138 384.316 85.5366 386.191C85.1347 386.325 84.8668 386.325 84.7329 386.191Z" fill="#F2A37C"/>
<path d="M110.987 399.583C106.701 398.244 102.682 396.234 97.9938 396.101C92.7697 395.967 87.6796 396.904 82.8574 398.914C91.2963 390.475 103.62 390.876 110.987 399.583Z" fill="#1A3F6C"/>
<path d="M94.1113 378.957C97.1922 377.618 100.273 377.618 103.488 378.288C102.014 381.368 100.541 384.583 99.0675 387.664C98.7996 388.334 98.5317 389.272 97.594 389.405C96.5224 389.405 96.6564 388.334 96.3885 387.664C95.7187 384.717 94.915 381.77 94.1113 378.957Z" fill="#1A3F6D"/>
<path d="M85.4023 386.322C86.8758 383.643 89.019 381.634 91.698 380.16C93.8412 382.437 93.7072 385.518 94.6449 388.197C95.1807 389.403 94.1091 389.805 93.0375 389.269C90.6264 388.197 87.6795 387.929 85.4023 386.322Z" fill="#1B406D"/>
<path d="M265.698 386.863C260.876 385.657 258.867 382.844 259.804 379.227C260.876 375.343 264.761 373.066 268.913 374.003C271.726 374.673 274.003 376.147 275.477 378.692C272.128 381.103 268.779 383.782 265.698 386.863Z" fill="#F2A37C"/>
<path d="M297.982 372.129C302.537 372.263 305.483 374.54 305.885 378.157C306.287 382.041 304.546 384.184 299.858 385.658C298.92 385.926 297.982 386.06 296.911 386.328C295.303 381.371 296.107 376.683 297.982 372.129Z" fill="#FDFDFE"/>
<path d="M265.701 386.862C267.71 382.576 271.327 380.165 275.614 378.691C277.355 382.308 279.23 385.791 281.239 389.943C275.747 389.006 270.657 388.336 265.701 386.862Z" fill="#1A3F6C"/>
<path d="M297.981 372.128C297.713 376.816 297.312 381.505 297.044 386.193C296.642 386.729 296.24 386.327 295.838 386.327C293.293 384.452 291.15 382.308 289.141 379.897C291.15 373.736 293.159 371.994 297.981 372.128Z" fill="#F2A37C"/>
<path d="M277.756 378.155C280.971 377.485 284.052 377.619 287.132 378.825C286.329 382.575 285.257 386.192 283.382 390.21C281.373 385.924 279.631 382.039 277.756 378.155Z" fill="#1A3F6C"/>
<path d="M289.275 379.898C292.222 381.238 294.365 383.515 295.972 386.328C293.561 387.801 290.882 388.203 288.203 389.007C286.328 389.543 286.328 388.471 286.73 387.266C287.399 384.855 288.337 382.443 289.275 379.898Z" fill="#1B406D"/>
<path d="M182.649 278.23C186.266 282.383 189.748 286.535 193.365 290.688C196.044 293.903 198.723 294.171 202.072 291.492C205.153 288.946 208.234 286.401 211.314 283.856C211.046 285.732 210.377 287.473 210.377 289.348C210.377 294.304 207.43 296.046 203.009 296.984C194.303 298.859 185.73 298.859 177.023 296.582C173.005 295.644 170.995 293.769 171.129 289.75C171.665 287.071 173.406 284.66 172.335 280.909C174.612 283.321 176.487 284.928 179.434 283.722C181.845 282.651 182.783 280.776 182.649 278.23Z" fill="#E84394"/>
<path d="M92.3672 207.772C103.753 207.504 115.273 207.102 126.658 206.701C129.203 206.567 130.275 207.906 129.739 210.183C128.4 215.675 128.4 221.167 128.534 226.659C126.257 226.927 125.319 225.32 124.783 223.578C121.3 213.8 114.201 209.246 104.021 208.308C100.002 208.174 96.1178 208.442 92.3672 207.772Z" fill="#1A3F6C"/>
<path d="M208.768 303.412C207.295 313.325 206.223 323.237 203.946 332.881C203.41 335.158 203.009 337.436 202.473 339.713C202.339 340.383 202.071 341.454 200.999 341.186C199.66 340.918 200.464 339.981 200.597 339.311C201.535 334.355 202.473 329.265 203.678 324.308C205.152 317.343 205.822 310.244 206.759 303.278C206.893 302.341 206.625 300.867 207.965 300.867C209.438 301.001 208.501 302.475 208.768 303.412Z" fill="#1A406E"/>
<path d="M179.973 339.58C179.839 340.249 180.107 340.919 179.303 341.053C178.499 341.187 178.097 340.517 177.964 339.848C176.49 331.543 174.079 323.372 173.141 315.067C172.74 311.182 172.204 307.298 171.802 303.547C171.668 302.877 170.73 301.672 172.204 301.404C173.409 301.27 173.409 302.609 173.543 303.413C174.213 306.762 174.749 310.245 175.017 313.593C175.686 321.898 177.964 329.935 179.571 338.106C179.839 338.642 179.839 339.178 179.973 339.58Z" fill="#1A406D"/>
<path d="M247.614 256.932C244.399 258.271 240.916 258.539 237.567 258.271C234.62 258.003 232.075 256.53 230.468 253.851C228.459 250.636 226.583 247.421 224.708 244.207C224.306 243.537 223.369 242.599 224.574 241.929C225.646 241.394 226.048 242.465 226.45 243.269C227.789 245.412 229.262 247.555 230.334 249.832C233.683 256.396 236.764 257.066 244.399 255.994C245.738 255.86 246.81 255.86 247.882 256.53C247.748 256.53 247.748 256.798 247.614 256.932Z" fill="#DC7D61"/>
<path d="M223.503 259.613C225.512 263.096 228.057 265.775 232.344 266.445C231.272 267.784 229.932 268.856 228.325 269.659C226.45 266.578 224.708 263.364 222.833 260.283C222.565 259.613 222.833 259.479 223.503 259.613Z" fill="#4D5355"/>
<path d="M75.4907 323.237C73.6153 324.443 71.4721 323.639 69.4629 323.907C71.3382 322.701 73.4814 323.505 75.4907 323.237Z" fill="#1F4E82"/>
<path d="M161.354 285.193C161.621 284.255 161.889 283.318 162.291 282.246C162.827 283.586 162.693 284.791 162.559 285.863C162.023 285.595 161.621 285.461 161.354 285.193Z" fill="#AB9291"/>
<path d="M150.637 256.93C150.637 255.858 150.637 254.786 150.637 253.715C150.771 253.715 150.905 253.715 151.173 253.715C151.173 254.786 151.173 255.858 151.173 256.93H150.905H150.637Z" fill="#6C81A3"/>
<path d="M81.5187 323.9C80.4471 323.766 79.1076 324.302 78.1699 323.23C79.2415 323.23 80.4471 323.23 81.5187 323.23C81.7866 323.364 81.7866 323.498 81.7866 323.632C81.6526 323.766 81.6526 323.9 81.5187 323.9Z" fill="#1F4E82"/>
<path d="M81.5195 323.902C81.5195 323.635 81.5195 323.501 81.5195 323.233C82.7251 323.367 83.9306 322.831 84.8683 323.769C83.7967 323.902 82.7251 323.902 81.5195 323.902Z" fill="#215288"/>
<path d="M159.477 241.797C161.219 244.61 160.951 247.691 161.62 250.504C163.496 259.612 162.156 268.855 162.558 278.097C162.558 278.767 162.424 279.571 161.62 279.571C160.549 279.571 160.549 278.633 160.549 277.829C160.549 272.605 160.415 267.381 160.549 262.157C160.683 256.665 160.013 251.307 158.807 246.083C158.539 244.61 158.004 243.136 159.477 241.797Z" fill="#DC7C61"/>
<path d="M173.944 261.752C173.007 264.029 172.739 266.306 174.48 268.316C173.274 270.727 173.274 273.406 173.141 276.085C173.141 276.754 173.676 278.228 172.203 277.96C171.265 277.826 171.131 276.888 171.265 276.085C172.605 266.038 171.801 255.858 170.729 245.812C170.595 245.008 170.595 244.071 171.533 243.937C172.739 243.669 172.471 244.874 172.605 245.544C173.944 250.902 172.739 256.394 173.944 261.752Z" fill="#DB7C61"/>
<path d="M73.6148 153.124C73.8827 153.392 74.0166 153.526 74.2845 153.794C74.0166 155.133 73.3469 155.267 72.1413 154.865C64.3722 152.856 56.6031 150.981 48.7 150.445C48.0303 150.445 47.2266 150.177 47.2266 149.373C47.2266 148.168 48.2982 148.436 48.9679 148.436C55.7994 148.971 62.4969 150.579 69.1944 151.918C70.5339 152.32 72.0074 152.722 73.6148 153.124Z" fill="#DC7D62"/>
<path d="M82.0527 359.402C81.5169 355.384 80.9811 351.499 80.4453 347.48C93.3045 348.686 106.03 350.829 118.621 354.044C109.78 354.446 101.208 356.589 92.6348 358.33C89.0181 359 85.5354 359.536 82.0527 359.402Z" fill="#DB7C61"/>
<path d="M216.807 271.668C212.387 267.114 207.698 262.56 204.751 256.934C202.34 252.38 203.546 247.156 202.742 242.333C202.474 240.994 202.742 239.654 202.742 238.315C203.546 237.109 203.814 235.234 205.957 235.77C206.225 241.128 206.627 246.486 206.493 251.844C206.493 255.996 207.832 259.345 210.243 262.56C212.654 265.373 215.467 268.052 216.807 271.668Z" fill="#485053"/>
<path d="M242.26 180.714C248.555 178.169 252.44 179.776 255.521 186.34C258.736 192.904 257.664 200.003 252.842 204.691C253.378 202.682 253.646 200.539 254.315 198.53C256.057 192.636 253.244 187.947 250.029 183.527C249.225 182.322 248.02 181.92 246.546 181.92C245.073 182.054 243.465 181.92 242.26 180.714Z" fill="#DA7B61"/>
<path d="M246.679 247.549C240.249 247.549 235.293 243.397 234.355 237.503C234.221 236.833 234.087 236.03 234.891 235.896C235.561 235.762 235.829 236.298 236.097 236.833C236.498 237.771 236.9 238.709 237.302 239.646C239.043 243.933 241.99 246.21 246.813 245.674C248.018 245.54 250.563 244.87 250.429 246.478C250.429 248.353 247.884 247.148 246.679 247.549Z" fill="#DC7E62"/>
<path d="M212.121 240.857C212.255 239.92 212.121 239.25 212.925 238.982C213.862 238.848 213.996 239.518 214.13 240.188C214.398 243.67 216.541 246.349 218.149 249.162C218.551 249.966 219.756 250.904 218.551 251.707C217.345 252.511 216.943 250.77 216.541 250.1C214.532 247.287 212.791 244.206 212.121 240.857Z" fill="#DC7D62"/>
<path d="M205.959 235.764C204.887 236.568 203.816 237.506 202.744 238.309C202.476 238.309 202.342 238.309 202.074 238.309C202.744 236.3 203.95 234.291 204.083 232.148C204.083 231.344 204.351 230.406 205.289 230.54C206.361 230.674 205.959 231.746 205.959 232.416C206.093 233.487 205.959 234.559 205.959 235.764Z" fill="#DB7D62"/>
<path d="M223.507 259.608C223.239 259.876 223.105 260.01 222.837 260.278C221.498 258.938 221.096 257.063 220.828 255.188C221.632 256.661 222.569 258.134 223.507 259.608Z" fill="#79685F"/>
<path d="M219.488 274.339C217.612 274.339 217.076 273.134 216.809 271.66C218.014 272.196 218.818 273.268 219.488 274.339Z" fill="#585C5A"/>
<path d="M186.803 265.498C186.937 267.106 185.598 268.177 183.589 268.311C181.579 268.445 180.24 266.972 180.106 264.963C179.972 262.953 181.177 261.346 183.187 261.346C185.196 261.212 186.669 262.418 186.803 265.498Z" fill="#2E3336"/>
<path d="M262.482 169.595C252.972 174.819 243.06 171.872 233.281 171.336C237.97 169.327 242.658 167.586 248.016 168.255C252.838 168.925 257.526 169.595 262.482 169.595Z" fill="#2E3336"/>
</svg>
